<?xml version="1.0" encoding="UTF-8"?>
<svg width="12936px" height="12500px" viewBox="0 0 12936 12500" version="1.1" xmlns="http://www.w3.org/2000/svg" xmlns:xlink="http://www.w3.org/1999/xlink">
    <title>backgroundAccountLeft</title>
    <g id="Page-1" stroke="none" stroke-width="1" fill="none" fill-rule="evenodd">
        <g id="backgroundAccountLeft">
            <rect id="Rectangle" x="1006" y="0" width="11930" height="12500"></rect>
            <path d="M4405.26457,6308.71679 C4422.81544,6320.26175 4427.56595,6343.80925 4416.05511,6361.37307 C4404.49156,6379.02489 4381.00782,6383.89982 4363.536,6372.42526 C4346.06418,6360.9331 4341.31367,6337.3856 4352.82452,6319.80418 C4364.30901,6302.11716 4387.79275,6297.22463 4405.26457,6308.71679 Z" id="Path" fill="#CC00FF" fill-rule="nonzero"></path>
            <path d="M5218.88909,7656.11565 C5236.43997,7667.66061 5241.08682,7691.36649 5229.57598,7708.93032 C5218.01243,7726.58214 5194.42679,7731.61546 5176.95321,7720.1409 C5159.40234,7708.59594 5154.67643,7684.83726 5166.18903,7667.27343 C5177.75082,7649.62161 5201.41552,7644.64109 5218.88909,7656.11565 Z" id="Path" fill="#CC00FF" fill-rule="nonzero"></path>
            <path d="M5560.76399,5350.37955 C5578.31487,5361.92451 5583.04078,5385.68319 5571.53345,5403.24702 C5559.97341,5420.89884 5536.30871,5425.87936 5518.83514,5414.4048 C5501.28426,5402.85984 5496.56011,5379.10116 5508.07095,5361.53733 C5519.5045,5343.90311 5543.21311,5338.85219 5560.76399,5350.37955 Z" id="Path" fill="#CC00FF" fill-rule="nonzero"></path>
            <path d="M7029.55621,9120.10804 C7047.10708,9131.653 7051.83299,9155.41168 7040.32566,9172.97551 C7028.66022,9190.78572 7005.10093,9195.60785 6987.62033,9184.11569 C6970.06945,9172.58833 6965.23813,9148.98804 6976.85087,9131.24822 C6988.3582,9113.6844 7012.0756,9108.61588 7029.55621,9120.10804 Z" id="Path" fill="#CC00FF" fill-rule="nonzero"></path>
            <path d="M5902.36482,7438.75011 C5920.31977,7450.54145 5925.22137,7474.52892 5913.45051,7492.49753 C5901.62695,7510.53653 5877.57575,7515.60504 5859.70864,7503.8665 C5841.92937,7492.16314 5836.92237,7467.99969 5848.72836,7449.96069 C5860.44651,7432.06248 5884.58555,7427.06436 5902.36482,7438.75011 Z" id="Path" fill="#CC00FF" fill-rule="nonzero"></path>
            <path d="M4746.49822,8513.46969 C4764.44087,8525.26104 4769.27571,8549.53009 4757.45566,8567.58669 C4745.63561,8585.62569 4721.58089,8590.67661 4703.63824,8578.88526 C4685.69559,8567.09392 4680.75886,8542.98325 4692.57891,8524.92666 C4704.39896,8506.88766 4728.63463,8501.71354 4746.49822,8513.46969 Z" id="Path" fill="#CC00FF" fill-rule="nonzero"></path>
            <path d="M4581.33376,5554.66902 C4599.27466,5566.46037 4604.3168,5590.76462 4592.4458,5608.89161 C4580.52386,5627.089 4556.21089,5632.21032 4538.26823,5620.40137 C4520.24652,5608.55723 4515.28344,5584.30578 4527.25809,5566.03799 C4539.12909,5547.911 4563.23299,5542.77208 4581.33376,5554.66902 Z" id="Path" fill="#CC00FF" fill-rule="nonzero"></path>
            <path d="M7844.5212,3333.84645 C7862.6167,3345.74515 7867.64127,3370.25531 7855.65959,3388.53366 C7843.64278,3406.88944 7819.15237,3412.11283 7801.0393,3400.21413 C7782.9438,3388.31719 7777.84895,3363.75599 7789.93604,3345.32102 C7801.84745,3327.12011 7826.4257,3321.94951 7844.5212,3333.84645 Z" id="Path" fill="#CC00FF" fill-rule="nonzero"></path>
            <path d="M4347.32384,8734.21425 C4365.57921,8746.21678 4370.57216,8770.94341 4358.49561,8789.36959 C4346.47001,8807.72537 4321.87243,8813.11067 4303.53801,8801.05534 C4285.28264,8789.0528 4280.28968,8764.34377 4292.36623,8745.9 C4304.44278,8727.47382 4328.98941,8722.15891 4347.32384,8734.21425 Z" id="Path" fill="#CC00FF" fill-rule="nonzero"></path>
            <path d="M11824.3185,3156.45357 C11842.8005,3168.60746 11848.0534,3193.61039 11835.7731,3212.36039 C11823.5981,3230.952 11798.5807,3236.28274 11780.0108,3224.07606 C11761.5991,3211.97321 11756.4867,3186.94388 11768.7143,3168.27308 C11780.9947,3149.52308 11805.9067,3144.34896 11824.3185,3156.45357 Z" id="Path" fill="#CC00FF" fill-rule="nonzero"></path>
            <path d="M4573.04673,6864.35317 C4591.61657,6876.54929 4596.82034,6901.6279 4584.48554,6920.45886 C4572.25439,6939.13142 4547.24219,6944.46393 4528.59329,6932.19741 C4510.02345,6920.00128 4504.81967,6894.92267 4517.10177,6876.16212 C4529.38387,6857.41915 4554.39782,6852.08665 4573.04673,6864.35317 Z" id="Path" fill="#CC00FF" fill-rule="nonzero"></path>
            <path d="M11229.4334,4111.61595 C11248.0911,4123.87543 11253.2737,4149.16523 11240.888,4168.07186 C11228.5549,4186.89929 11203.3442,4192.33387 11184.6338,4180.02511 C11165.9761,4167.76563 11160.7232,4142.4248 11173.1089,4123.51817 C11185.4947,4104.6133 11210.7054,4099.30719 11229.4334,4111.61595 Z" id="Path" fill="#CC00FF" fill-rule="nonzero"></path>
            <path d="M12625.8085,3944.37243 C12644.4486,3956.63191 12649.6313,3981.9217 12637.2982,4000.74914 C12624.9125,4019.65577 12599.772,4025.01291 12581.0441,4012.7024 C12562.3161,4000.39188 12557.1685,3975.23231 12569.607,3956.24825 C12581.94,3937.41905 12607.1508,3932.11471 12625.8085,3944.37243 Z" id="Path" fill="#CC00FF" fill-rule="nonzero"></path>
            <path d="M5018.67559,7187.82323 C5037.63545,7200.28334 5042.94815,7225.87232 5030.40779,7245.02005 C5017.86919,7264.16779 4992.28603,7269.67629 4973.24535,7257.16338 C4954.20642,7244.65047 4949.07644,7218.9383 4961.61504,7199.80816 C4974.07633,7180.60763 4999.63491,7175.29272 5018.67559,7187.82323 Z" id="Path" fill="#CC00FF" fill-rule="nonzero"></path>
            <path d="M7426.67332,3339.96915 C7445.62967,3352.43454 7450.95291,3378.03584 7438.30363,3397.33317 C7425.75976,3416.47563 7400.21524,3421.78349 7381.24132,3409.31811 C7362.2147,3396.80344 7356.89146,3371.20214 7369.43533,3352.05968 C7382.08461,3332.76235 7407.62913,3327.45449 7426.67332,3339.96915 Z" id="Path" fill="#CC00FF" fill-rule="nonzero"></path>
            <path d="M4252.8021,6643.60862 C4271.84278,6656.12152 4277.15372,6681.7281 4264.51146,6701.03423 C4251.86921,6720.32276 4226.31064,6725.63766 4207.26996,6713.12476 C4188.15198,6700.55906 4182.84104,6674.95248 4195.48329,6655.64635 C4208.12554,6636.35782 4233.68411,6631.04291 4252.8021,6643.60862 Z" id="Path" fill="#CC00FF" fill-rule="nonzero"></path>
            <path d="M9713.7334,4641.0333 C9732.91814,4653.6518 9738.10083,4679.62796 9725.46912,4698.91649 C9712.81984,4718.22262 9686.97666,4723.78391 9667.79192,4711.16541 C9648.58961,4698.54691 9643.40692,4672.58835 9656.03863,4653.28222 C9668.56493,4634.01129 9694.53109,4628.4148 9713.7334,4641.0333 Z" id="Path" fill="#CC00FF" fill-rule="nonzero"></path>
            <path d="M7178.81771,4012.61264 C7198.33625,4025.43881 7203.72976,4051.76695 7190.88723,4071.3793 C7177.93929,4091.15004 7151.67446,4096.67086 7132.15592,4083.84645 C7112.72522,4071.07308 7107.33171,4044.74318 7120.27965,4024.97419 C7133.08705,4005.43928 7159.38701,3999.83927 7178.81771,4012.61264 Z" id="Path" fill="#CC00FF" fill-rule="nonzero"></path>
            <path d="M6544.36848,7905.793 C6563.88702,7918.62269 6569.28053,7944.95083 6556.33259,7964.71453 C6543.47249,7984.31984 6517.22523,7989.84594 6497.70669,7977.01625 C6478.27599,7964.25696 6472.88248,7937.91122 6485.72501,7918.30591 C6498.60268,7898.48941 6524.86751,7892.96331 6544.36848,7905.793 Z" id="Path" fill="#CC00FF" fill-rule="nonzero"></path>
            <path d="M12387.7209,3291.24098 C12407.4678,3304.22026 12412.7208,3330.57655 12399.7201,3350.42473 C12386.7722,3370.19372 12360.5425,3375.84476 12340.7956,3362.86548 C12321.2068,3349.98828 12315.7957,3323.5299 12328.7436,3303.76092 C12341.6564,3283.86171 12368.1321,3278.36553 12387.7209,3291.24098 Z" id="Path" fill="#CC00FF" fill-rule="nonzero"></path>
            <path d="M6244.52784,9213.25967 C6264.11666,9226.14216 6269.59801,9252.5055 6256.54466,9272.44519 C6243.57915,9292.20889 6217.13864,9297.84058 6197.54982,9284.9581 C6177.89073,9272.04041 6172.51479,9245.50108 6185.46273,9225.71978 C6198.51609,9205.79769 6224.86875,9200.32439 6244.52784,9213.25967 Z" id="Path" fill="#CC00FF" fill-rule="nonzero"></path>
            <path d="M5387.72535,4626.53171 C5407.39323,4639.46699 5412.8412,4666.05911 5399.8915,4685.82282 C5386.83815,4705.74491 5360.31858,4711.3238 5340.65246,4698.40612 C5320.90729,4685.41804 5315.45932,4658.82591 5328.51267,4638.90382 C5341.46237,4619.14012 5367.98194,4613.56122 5387.72535,4626.53171 Z" id="Path" fill="#CC00FF" fill-rule="nonzero"></path>
            <path d="M6857.13949,2969.50724 C6876.88643,2982.48634 6882.22723,3009.23246 6869.17388,3029.15807 C6856.12052,3049.08545 6829.50433,3054.81569 6809.7574,3041.83641 C6790.01047,3028.85889 6784.58182,3002.06068 6797.63517,2982.13454 C6810.68853,2962.20857 6837.39256,2956.52796 6857.13949,2969.50724 Z" id="Path" fill="#CC00FF" fill-rule="nonzero"></path>
            <path d="M5458.58416,5831.67765 C5479.03383,5845.12331 5484.61884,5872.70098 5471.15614,5893.25664 C5457.69168,5913.8123 5430.21288,5919.63757 5409.76321,5906.20952 C5389.31354,5892.76387 5383.72678,5865.1862 5397.19123,5844.63054 C5410.65569,5824.07488 5438.13449,5818.232 5458.58416,5831.67765 Z" id="Path" fill="#CC00FF" fill-rule="nonzero"></path>
            <g id="Path" opacity="0.1" transform="translate(2782.101993, 5247.370279)" fill="#CC00FF" fill-rule="nonzero">
                <path d="M1600.70659,1095.62941 L1.25258281,5.15870191 C-0.0791052694,4.27875072 -0.377768823,2.51884835 0.495382859,1.18132254 C1.39664405,-0.0330100969 3.0832147,-0.367391548 4.33584478,0.442163545 L4.41490278,0.494960616 L1603.86891,1090.96567 C1605.2006,1091.84562 1605.50102,1093.62312 1604.65071,1094.74946 C1603.77755,1096.06246 1601.96098,1096.45657 1600.70659,1095.62941 Z"></path>
            </g>
            <g id="Path" opacity="0.5166" transform="translate(4369.730771, 6325.795768)" fill="#CC00FF" fill-rule="nonzero">
                <path d="M820.186198,1374.56383 C818.462734,1373.43749 816.788461,1371.88878 815.657053,1370.02328 L2.12564419,22.4660307 C-2.08375507,15.5496144 0.161492118,6.46851812 7.06940441,2.26235145 C14.0792137,-2.11980547 23.0619593,0.0800724976 27.2713585,6.99648884 L840.801011,1354.57134 C845.012167,1361.48775 842.76692,1370.55125 835.859007,1374.77502 C830.892408,1377.90764 824.731155,1377.55566 820.186198,1374.56383 Z"></path>
            </g>
            <g id="Path" opacity="0.5798" transform="translate(4367.929117, 5365.861075)" fill="#CC00FF" fill-rule="nonzero">
                <path d="M7.31800759,988.665976 C5.98631952,987.803624 4.85842539,986.60689 3.75688393,985.216567 C-2.06354166,978.352948 -0.998893938,967.828732 6.10402809,961.950658 L1161.51385,3.7718094 C1168.43582,-2.00067039 1178.92066,-1.06792213 1184.5777,6.02448444 C1190.37529,13.099292 1189.40903,23.465117 1182.31137,29.3431909 L26.8260081,987.469242 C21.1180206,992.238578 13.1946522,992.537761 7.31800759,988.665976 Z"></path>
            </g>
            <g id="Path" opacity="0.5782" transform="translate(2916.275831, 6324.148998)" fill="#CC00FF" fill-rule="nonzero">
                <path d="M7.53142888,99.4718202 C3.2218895,96.6383774 0.354719382,91.9394381 -1.23911298e-14,86.4661417 C-0.351532079,77.4554415 6.76193102,69.676673 15.8026525,69.2190984 L1467.43577,0.0197369759 C1476.47649,-0.420238618 1484.0116,6.54897479 1484.49486,15.594873 C1484.82502,24.8167614 1477.76074,32.5251339 1468.77273,32.8947134 L17.1413679,102.094075 C13.5292958,102.287664 10.273863,101.266921 7.53142888,99.4718202 Z"></path>
            </g>
            <g id="Path" opacity="0.7312" transform="translate(5177.124601, 7450.498660)" fill="#CC00FF" fill-rule="nonzero">
                <path d="M9.33665519,255.123044 C5.42064896,252.553586 2.50604405,248.611405 0.910829304,243.859668 C-2.4465004,232.895477 3.7815131,221.174527 14.5948906,217.848311 L697.745604,0.940343509 C708.620471,-2.4738671 720.250781,3.72098926 723.623922,14.4739928 C727.067337,25.4909816 720.83054,37.2119315 709.920536,40.6965382 L26.8717194,257.446115 C20.7262776,259.470002 14.352446,258.414061 9.33665519,255.123044 Z"></path>
            </g>
            <g id="Path" opacity="0.4804" transform="translate(4711.437175, 7674.373900)" fill="#CC00FF" fill-rule="nonzero">
                <path d="M6.07838181,883.339737 C0.203494034,879.467951 -1.77998333,871.548391 1.75830135,865.124747 L474.570815,7.15473998 C478.235593,0.36151681 486.51033,-1.83836116 493.110795,1.6110475 C499.403811,5.51803077 502.037321,13.6487797 498.395383,20.2308146 L25.4809717,878.359213 C21.84079,884.941248 13.5414569,887.352314 6.96558824,883.691717 C6.6792226,883.621321 6.31379896,883.498128 6.07838181,883.339737 Z"></path>
            </g>
            <g id="Path" opacity="0.1973" transform="translate(4378.820604, 5581.745221)" fill="#CC00FF" fill-rule="nonzero">
                <path d="M2.50344552,763.524744 C0.621865136,762.292812 -0.356697211,759.846548 0.119407629,757.593873 L175.494646,4.42605196 C176.225493,1.43421792 179.277132,-0.501674697 182.244442,0.114291135 C185.290811,0.765455014 187.107388,3.98607636 186.37654,6.9779104 L11.001302,760.145731 C10.3723517,762.979174 7.26976446,764.985463 4.3534027,764.299101 C3.70161342,764.087912 2.97252298,763.841526 2.50344552,763.524744 Z"></path>
            </g>
            <g id="Path" opacity="0.2396" transform="translate(4552.980753, 5375.674646)" fill="#CC00FF" fill-rule="nonzero">
                <path d="M3.16688566,217.430642 C1.67883842,216.445096 0.498238967,215.001977 0.122274259,213.189277 C-0.582220358,209.475883 1.83344073,205.780088 5.41388968,205.111325 L985.401038,0.17069352 C989.090411,-0.674059621 992.691942,1.70180859 993.39468,5.4152026 C994.202829,8.98780442 991.778383,12.6660004 988.106578,13.4931545 L8.11240273,218.433786 C6.29758243,218.820965 4.50033058,218.310593 3.16688566,217.430642 Z"></path>
            </g>
            <g id="Path" opacity="0.5422" transform="translate(4709.630666, 7455.812175)" fill="#CC00FF" fill-rule="nonzero">
                <path d="M6.96430447,1103.30938 C5.86803354,1102.58782 5.03001875,1101.81347 4.0356448,1100.93352 C-1.67761328,1094.59787 -1.30867595,1084.9712 5.04055982,1079.04033 L1161.00554,4.16235525 C1167.25991,-1.61012454 1176.97526,-1.38133723 1182.73771,4.8663162 C1188.44745,11.2019648 1188.16636,20.8990268 1181.80658,26.8298979 L25.7678104,1101.63748 C20.5306572,1106.72359 12.6845899,1107.07558 6.96430447,1103.30938 Z"></path>
            </g>
            <g id="Path" opacity="0.8641" transform="translate(4300.919114, 8521.688594)" fill="#CC00FF" fill-rule="nonzero">
                <path d="M10.9884984,266.589853 C7.69792876,264.425173 4.99941571,261.521334 3.02296573,257.860737 C-3.51073871,245.946198 0.898940814,230.987028 12.856024,224.369795 L412.467858,3.13246719 C424.345883,-3.53756281 439.322982,0.80939606 445.649379,12.7063361 C452.105782,24.5856772 447.773404,39.5800454 435.867269,46.1092832 L36.2835445,267.505002 C27.9490745,272.010352 18.1968311,271.32399 10.9884984,266.589853 Z"></path>
            </g>
            <g id="Path" opacity="0.0189" transform="translate(4324.974636, 6897.826513)" fill="#CC00FF" fill-rule="nonzero">
                <path d="M0.191881341,1870.21306 C0.0355221868,1870.10746 -0.0189399905,1869.84348 0.00565583151,1869.63229 L225.270005,0.475173641 C225.294601,0.263985356 225.577453,0 225.916524,0 C226.072883,0.0879951188 226.385602,0.299183404 226.259109,0.668762903 L0.943810757,1869.91387 C0.99651609,1870.17786 0.634606137,1870.38905 0.297292007,1870.38905 C0.348240495,1870.30105 0.269182496,1870.24825 0.191881341,1870.21306 Z"></path>
            </g>
            <g id="Path" opacity="0.8305" transform="translate(11183.474147, 3166.558344)" fill="#CC00FF" fill-rule="nonzero">
                <path d="M10.5412325,999.111247 C-0.10524474,992.106835 -3.19729094,977.837547 3.61926545,966.727283 L598.926,11.2745233 C605.795262,0.0850640191 620.377071,-3.34850551 631.427622,3.57495043 C642.390332,11.1249316 645.693199,25.0791976 638.788801,36.1384241 L43.5699078,991.642221 C36.5600985,1002.85808 22.0309951,1006.21421 11.0155805,999.420989 C10.7871907,999.266118 10.6993485,999.213321 10.5412325,999.111247 Z"></path>
            </g>
            <g id="Path" opacity="0.9053" transform="translate(11776.577880, 3164.395555)" fill="#CC00FF" fill-rule="nonzero">
                <path d="M812.688209,835.756977 C811.282734,834.829509 810.000237,833.875641 808.788015,832.63315 L7.56154398,44.3218392 C-2.41733238,34.3959898 -2.55787993,18.0253779 7.3682911,7.8302634 C17.3471675,-2.44228677 33.4925678,-2.60947749 43.664697,7.34101054 L844.820894,795.601285 C854.887612,805.578171 854.957886,821.895986 845.014147,832.0911 C836.335335,841.080682 822.807633,842.400609 812.688209,835.756977 Z"></path>
            </g>
            <g id="Path" opacity="0.5638" transform="translate(11040.647616, 2621.338034)" fill="#CC00FF" fill-rule="nonzero">
                <path d="M752.855788,582.316121 C752.539556,582.108452 752.311167,581.955341 752.065208,581.800469 L6.4780009,29.0485713 C-0.637219036,23.8146216 -2.11296836,13.7514998 3.15756493,6.55701891 C8.51594044,-0.586424832 18.6177959,-2.14041863 25.5924683,3.11992957 L771.197244,555.870068 C778.24219,561.183213 779.71794,571.246335 774.447407,578.440816 C769.299852,585.270997 759.830461,586.898906 752.855788,582.316121 Z"></path>
            </g>
            <g id="Path" opacity="0.7645" transform="translate(11185.331824, 3956.714557)" fill="#CC00FF" fill-rule="nonzero">
                <path d="M9.77279874,207.306005 C4.67794989,203.958671 0.830460591,198.39034 0.127722819,191.757268 C-1.15477361,179.687857 7.36592187,168.904935 19.1719164,167.468855 L1415.59971,0.146136479 C1427.49355,-1.23890669 1438.2103,7.37933524 1439.59821,19.2903545 C1440.98611,31.2013738 1432.34244,42.0124541 1420.51888,43.4502943 L24.0910808,210.771253 C18.8556844,211.249946 13.8486778,209.984576 9.77279874,207.306005 Z"></path>
            </g>
            <g id="Path" opacity="0.8182" transform="translate(4527.554768, 6875.112786)" fill="#CC00FF" fill-rule="nonzero">
                <path d="M455.609721,366.915434 C455.297003,366.704246 454.984285,366.493057 454.66981,366.299468 L9.49772894,42.1254506 C-0.850084757,34.6458655 -3.06370874,20.0562748 4.4468012,9.62005369 C12.1382661,-0.921761541 26.5215515,-3.03364439 36.8693652,4.4459407 L482.143343,328.461567 C492.387503,336.099543 494.70478,350.530743 487.013315,361.072558 C479.708356,371.191997 465.874963,373.65586 455.609721,366.915434 Z"></path>
            </g>
            <g id="Path" opacity="0.5572" transform="translate(11040.850999, 2621.587946)" fill="#CC00FF" fill-rule="nonzero">
                <path d="M157.503786,1537.49081 C153.656297,1534.96711 151.02103,1530.76974 150.476408,1525.80154 L0.0905250639,17.5458431 C-0.840602484,8.85896499 5.51917435,1.03091922 14.1979858,0.11225018 C22.8416604,-0.938411539 30.6069128,5.51339057 31.4501981,14.1492315 L181.836081,1522.40493 C182.661798,1531.24844 176.354727,1538.99729 167.62321,1539.99691 C163.986542,1540.41225 160.472853,1539.44782 157.503786,1537.49081 Z"></path>
            </g>
            <g id="Path" opacity="0.072" transform="translate(11054.567010, 2635.466346)" fill="#CC00FF" fill-rule="nonzero">
                <path d="M1547.69973,1344.83625 L1547.59432,1344.65498 L0.763070188,3.59176725 C-0.150488916,2.76461313 -0.220762693,1.49044381 0.429269746,0.679128817 C1.2022813,-0.160344616 2.34423017,-0.193782761 3.27535772,0.425702875 L1550.14174,1341.61739 C1550.98503,1342.39174 1550.96746,1343.61487 1550.31743,1344.42795 C1549.7201,1345.17461 1548.63086,1345.45397 1547.69973,1344.83625 Z"></path>
            </g>
            <g id="Path" opacity="0.616" transform="translate(4212.546289, 6660.736866)" fill="#CC00FF" fill-rule="nonzero">
                <path d="M328.590871,252.330402 C328.590871,252.330402 328.434512,252.224808 328.276396,252.119214 L7.56795929,32.096219 C-0.322029051,26.6933187 -2.40564654,15.6587308 3.04408488,7.68637306 C8.44286781,-0.215588607 19.1596188,-2.3626695 27.074203,2.8290425 C27.2305621,2.93463665 27.3096201,2.98743372 27.3869213,3.04023079 L348.176173,223.116023 C356.064405,228.518923 358.148022,239.553511 352.698291,247.525869 C347.222207,255.375033 336.503699,257.522114 328.590871,252.330402 Z"></path>
            </g>
            <g id="Path" opacity="0.0367" transform="translate(8828.550767, 2636.415813)" fill="#CC00FF" fill-rule="nonzero">
                <path d="M0.418209852,14.9580967 C0.172251632,14.8032253 -0.0385696998,14.4406854 2.57571742e-14,14.0253484 C2.57571742e-14,13.5554545 0.470915185,12.9799664 1.06824229,12.9236495 L2228.06181,0.00420620819 C2228.65914,-0.0521106618 2229.09835,0.465300628 2229.15106,1.06366744 C2229.08078,1.68843279 2228.64157,2.18648516 2228.09695,2.16536633 L1.06824229,15.1622454 C0.910126292,15.060171 0.646599628,15.1129681 0.418209852,14.9580967 Z"></path>
            </g>
            <g id="Path" opacity="0.0837" transform="translate(2155.637492, 6676.081065)" fill="#CC00FF" fill-rule="nonzero">
                <path d="M1.05243199,104.078376 C0.425238524,103.673598 0,102.934439 0,102.265676 C0,100.910552 0.994456119,99.8898082 2.26816833,99.8194121 L2074.2044,0.0153483406 C2075.65907,-0.143042873 2076.62709,0.9480966 2076.81867,2.19762729 C2076.81867,3.55275212 2075.82246,4.57349549 2074.44685,4.78468378 L2.43331171,104.53595 C1.91328576,104.641545 1.52150945,104.395158 1.05243199,104.078376 Z"></path>
            </g>
            <g id="Path" opacity="0.5524" transform="translate(7388.212061, 2634.638076)" fill="#CC00FF" fill-rule="nonzero">
                <path d="M6.97860829,753.212741 C4.78255275,751.769621 2.92029766,749.648938 1.65536967,747.132278 C-2.19211963,739.325351 0.882358114,730.011948 8.6476105,726.025769 L1434.37957,1.65875059 C1442.16239,-2.19543561 1451.47367,0.887913347 1455.37386,8.61740458 C1459.32676,16.2677002 1456.23472,25.790532 1448.38162,29.7239138 L22.6496606,754.090932 C17.5021064,756.65159 11.5112669,756.199295 6.97860829,753.212741 Z"></path>
            </g>
            <path d="M4980.33773,7246.33998 C4980.02501,7246.12879 4979.71229,7245.9352 4979.39781,7245.72401 L4213.41364,6701.68539 C4200.71517,6692.65709 4197.69691,6674.84688 4206.85183,6661.894 C4216.03486,6649.08191 4234.25509,6645.91409 4246.51259,6655.08318 L5012.39311,7199.28019 C5025.09158,7208.30849 5028.10984,7226.1187 5019.00763,7238.98359 C5010.16016,7251.4613 4993.03093,7254.68192 4980.33773,7246.33998 Z" id="Path" fill="#CC00FF" fill-rule="nonzero"></path>
            <g id="Path" opacity="0.01" transform="translate(8829.321063, 2650.161001)" fill="#CC00FF" fill-rule="nonzero">
                <path d="M861.186854,2026.35791 C861.186854,2026.35791 861.099012,2026.28154 861.134149,2026.07035 L0.0871251421,0.378715333 C-0.0709908566,0.274881093 0.0344198092,0.118249782 0.0344198092,0.118249782 C0.385788695,-0.0929385034 0.543904694,-6.38378239e-16 0.52633625,0.218564217 L861.643634,2025.96475 C861.731476,2026.01755 861.626065,2026.17594 861.520654,2026.35791 C861.432812,2026.28154 861.257128,2026.38713 861.186854,2026.35791 Z"></path>
            </g>
            <g id="Path" opacity="0.1241" transform="translate(4992.434624, 7218.942864)" fill="#CC00FF" fill-rule="nonzero">
                <path d="M1.57135224,6.52467432 C0.160606165,5.60952509 -0.450775696,3.6208354 0.367913808,2.03692327 C1.10930216,0.382615032 3.23508392,-0.462138108 5.00773995,0.259421866 L1530.06114,719.373132 C1531.90583,720.147489 1532.50316,722.329768 1531.74771,723.984076 C1530.90443,725.779176 1528.88406,726.465538 1527.10964,725.743978 L1.96312855,6.78865968 C1.8067694,6.68306554 1.65041024,6.57747139 1.57135224,6.52467432 Z"></path>
            </g>
            <g id="Path" opacity="0.6389" transform="translate(7137.329180, 3356.525864)" fill="#CC00FF" fill-rule="nonzero">
                <path d="M8.16119013,707.002512 C1.25679152,702.469004 -1.85282312,693.694131 1.13381241,685.551062 L249.516478,11.91499 C252.836914,2.54702965 263.465823,-2.37013758 272.706824,1.13030824 C282.070805,4.47412275 286.831854,15.0088984 283.37087,24.4032573 L34.9882046,698.04109 C31.5799264,707.356253 21.0388598,712.324457 11.7100159,708.772974 C10.5329301,708.338278 9.25043367,707.722313 8.16119013,707.002512 Z"></path>
            </g>
            <g id="Path" opacity="0.0504" transform="translate(7402.449295, 1963.623043)" fill="#CC00FF" fill-rule="nonzero">
                <path d="M0.735015773,1412.19708 C0.735015773,1412.19708 0.647173551,1412.14604 0.576899774,1412.09501 C-0.0555642207,1411.68319 -0.196111775,1410.69412 0.295804665,1410.11864 L1118.36917,0.574106425 C1118.82595,-0.13337433 1119.84492,-0.14041394 1120.33683,0.299561654 C1120.98687,0.841611586 1121.10985,1.69868404 1120.6355,2.4061648 L2.68511309,1411.79406 C2.14049132,1412.44699 1.27963755,1412.55786 0.735015773,1412.19708 Z"></path>
            </g>
            <g id="Path" opacity="0.0155" transform="translate(6833.001945, 3005.265862)" fill="#CC00FF" fill-rule="nonzero">
                <path d="M0.244464939,0.719929967 C5.13478149e-15,0.565410538 -0.0541986138,0.305472957 0.051212052,0.148665655 C0.156622718,-0.00831763646 0.420149382,-0.0623466394 0.648539158,0.0921727892 L571.218905,368.98619 C571.377021,369.088264 571.429726,369.34873 571.218905,369.661992 C571.113494,369.818624 570.849968,369.87318 570.691852,369.769346 L0.244464939,0.719929967 Z"></path>
            </g>
            <g id="Path" opacity="0.8513" transform="translate(6196.930772, 7917.213482)" fill="#CC00FF" fill-rule="nonzero">
                <path d="M10.8614525,1352.13428 C2.7096943,1346.78418 -1.68241677,1336.71753 0.601480982,1326.5453 L300.54753,18.9202349 C303.463892,5.91455636 316.499678,-2.35698481 329.359779,0.59965118 C342.413133,3.45069303 350.459481,16.4915696 347.595824,29.4092531 L47.6497748,1337.03432 C44.6280024,1350.19839 31.6976274,1358.31154 18.7321155,1355.51329 C15.8333222,1354.96772 13.1980555,1353.68299 10.8614525,1352.13428 Z"></path>
            </g>
            <g id="Path" opacity="0.2789" transform="translate(5356.244787, 4040.341273)" fill="#CC00FF" fill-rule="nonzero">
                <path d="M3.5766064,628.797669 C2.16586033,627.864921 0.987017714,626.421801 0.428341185,624.697096 C-0.980648047,620.526128 1.19432536,616.003179 5.36858772,614.595257 L1796.62433,0.43684498 C1800.78805,-0.972836823 1805.35585,1.12848661 1806.76132,5.31001466 C1808.09652,9.43874563 1805.91804,13.9581749 1801.75432,15.3660968 L10.4441113,629.607224 C8.06007339,630.504774 5.45818679,630.029601 3.5766064,628.797669 Z"></path>
            </g>
            <g id="Path" opacity="0.8564" transform="translate(6809.165704, 2981.203888)" fill="#CC00FF" fill-rule="nonzero">
                <path d="M332.933957,1087.50036 C328.38373,1084.51381 324.887609,1080.08765 323.113196,1074.42605 L1.10118087,31.789131 C-2.88685599,19.063101 4.29863773,5.1649759 17.1411705,1.14412694 C29.8958611,-2.92828715 43.493837,4.21181277 47.4643054,17.1463913 L369.564163,1059.62527 C373.464358,1072.50775 366.366706,1086.25083 353.524173,1090.27045 C346.303543,1092.58648 338.801817,1091.36335 332.933957,1087.50036 Z"></path>
            </g>
            <g id="Path" opacity="0.2933" transform="translate(5051.241388, 2244.449565)" fill="#CC00FF" fill-rule="nonzero">
                <path d="M3.68492575,15.4358217 C0.394356129,13.2729017 -0.912736127,8.93474232 0.670180704,5.14919231 C2.48324416,0.842711193 7.40592225,-1.19701566 11.5274793,0.726557636 L1785.46601,753.49488 C1789.73514,755.182627 1791.6501,760.140448 1789.84055,764.448161 C1788.01343,768.755698 1783.19968,770.637914 1778.98325,768.871676 L5.17121613,16.0764262 C4.64943334,15.8458789 4.15400321,15.7455645 3.68492575,15.4358217 Z"></path>
            </g>
            <g id="Path" opacity="0.2059" transform="translate(6827.647346, 1959.361789)" fill="#CC00FF" fill-rule="nonzero">
                <path d="M2.54215381,1051.25237 C1.83941604,1050.78881 1.24208894,1050.16845 0.820446268,1049.44266 C-0.778282163,1046.59074 -1.29896094e-14,1042.96692 2.78811203,1041.30751 L1691.18588,0.842141145 C1693.9617,-0.817446795 1697.65107,0.0413855643 1699.17952,2.84139024 C1700.83096,5.61499639 1700.03456,9.23863538 1697.26456,10.8982233 L8.74381465,1051.39087 C6.88155955,1052.52319 4.35170358,1052.43696 2.54215381,1051.25237 Z"></path>
            </g>
            <g id="Path" opacity="0.1556" transform="translate(5359.765006, 3001.200543)" fill="#CC00FF" fill-rule="nonzero">
                <path d="M1.96783491,1665.03456 C1.73241776,1664.87617 1.57430176,1664.77057 1.52159643,1664.52419 C-0.310792312,1662.86988 -0.537425243,1660.12443 1.11049483,1658.29413 L1470.40693,1.42277919 C1472.00565,-0.332371452 1474.81661,-0.50836169 1476.64372,1.14471461 C1478.40057,2.74604978 1478.62896,5.47759426 1476.95996,7.51960899 L7.67757931,1664.18981 C6.21061421,1665.91451 3.76860045,1666.21369 1.96783491,1665.03456 Z"></path>
            </g>
            <g id="Path" opacity="0.1772" transform="translate(5310.468193, 1708.496948)" fill="#CC00FF" fill-rule="nonzero">
                <path d="M1520.16052,1301.48928 C1520.0024,1301.38615 1519.75644,1301.2318 1519.70374,1300.97187 L1.72690546,8.95308839 C-0.340900436,7.14566865 -0.597399723,3.94616613 1.20512266,1.87652094 C2.93034389,-0.244161428 6.27888938,-0.736934093 8.32209945,1.27991403 L1526.20406,1293.45568 C1528.36498,1295.10611 1528.62851,1298.30632 1526.76625,1300.45375 C1525.20266,1302.33896 1522.18089,1302.82839 1520.16052,1301.48928 Z"></path>
            </g>
            <g id="Path" opacity="0.0957" transform="translate(5361.510141, 4659.705865)" fill="#CC00FF" fill-rule="nonzero">
                <path d="M71.1728618,1211.5168 C70.4683672,1211.04162 70.0467245,1210.32006 69.9887487,1209.38731 L0.0153918762,2.90383892 C-0.151508345,1.46071897 1.06071431,0.123193166 2.59268265,0 C4.02275402,0.0527970713 5.32984628,1.12633752 5.31579152,2.69265063 L75.4683464,1209.05293 C75.5333497,1210.67204 74.4247809,1211.85118 72.8928125,1211.95924 C72.2164274,1211.97437 71.6436961,1211.81598 71.1728618,1211.5168 Z"></path>
            </g>
            <g id="Path" opacity="0.0823" transform="translate(3494.961501, 4595.934676)" fill="#CC00FF" fill-rule="nonzero">
                <path d="M0.990257268,4.27768925 C-0.106013656,3.55612927 -0.272913877,2.10069001 0.394687007,1.07994663 C1.11499322,-0.0182324513 2.5415509,-0.31389605 3.56052067,0.354866853 L1940.50259,1271.04662 C1941.59886,1271.76818 1941.76576,1273.2289 1941.09816,1274.23204 C1940.37785,1275.34078 1938.95129,1275.63996 1937.93232,1274.9712 L0.990257268,4.27768925 Z"></path>
            </g>
            <polygon id="Path" fill="#CC00FF" fill-rule="nonzero" opacity="0.01" points="1147.46537 6504.94591 5539.8224 5382.39218 2784.84614 5250.25871"></polygon>
            <polygon id="Path" fill="#CC00FF" fill-rule="nonzero" opacity="0.291" points="2932.76892 6409.75279 4384.40028 6340.57103 2784.84262 5250.25871"></polygon>
            <polygon id="Path" fill="#CC00FF" fill-rule="nonzero" opacity="0.291" points="2932.76892 6409.75279 4384.40028 6340.57103 2784.84262 5250.25871"></polygon>
            <polygon id="Path" fill="#CC00FF" fill-rule="nonzero" opacity="0.0882" points="2932.77595 6409.75279 5539.8224 5382.39218 2784.84965 5250.25871"></polygon>
            <polygon id="Path" fill="#CC00FF" fill-rule="nonzero" opacity="0.1995" points="2932.77244 6409.77039 5539.8224 5382.39218 4384.40555 6340.57103"></polygon>
            <polygon id="Path" fill="#CC00FF" fill-rule="nonzero" opacity="0.051" points="2932.77244 6409.77039 5197.93345 7688.12827 5539.8224 5382.39218"></polygon>
            <polygon id="Path" fill="#CC00FF" fill-rule="nonzero" opacity="0.0255" points="5881.08943 7471.22031 4384.40028 6340.57103 2784.84262 5250.25871"></polygon>
            <polygon id="Path" fill="#CC00FF" fill-rule="nonzero" opacity="0.2784" points="5881.07187 7471.22031 5197.92291 7688.12827 4384.39501 6340.57103"></polygon>
            <polygon id="Path" fill="#CC00FF" fill-rule="nonzero" opacity="0.1816" points="5881.07187 7471.22031 5539.80484 5382.39218 4384.39501 6340.57103"></polygon>
            <polygon id="Path" fill="#CC00FF" fill-rule="nonzero" opacity="0.2075" points="4725.0085 8546.25667 5197.92291 7688.12827 4384.39501 6340.57103"></polygon>
            <polygon id="Path" fill="#CC00FF" fill-rule="nonzero" opacity="0.1834" points="5881.08943 7471.22031 5197.92818 7688.12827 5539.80484 5382.39218"></polygon>
            <polygon id="Path" fill="#CC00FF" fill-rule="nonzero" opacity="0.01" points="6485.42635 10289 7008.57948 9152.12066 4725.00674 8546.25667 5057.62658 9350.42646"></polygon>
            <polygon id="Path" fill="#CC00FF" fill-rule="nonzero" opacity="0.1778" points="5881.07187 7471.23791 7008.57948 9152.12066 5197.92291 7688.12827"></polygon>
            <polygon id="Path" fill="#CC00FF" fill-rule="nonzero" opacity="0.1224" points="7008.57948 9152.12066 4725.01553 8546.25667 5197.92994 7688.12827"></polygon>
            <polygon id="Path" fill="#CC00FF" fill-rule="nonzero" opacity="0.1561" points="4559.85634 5587.456 5197.93169 7688.12827 4384.4038 6340.57103"></polygon>
            <polygon id="Path" fill="#CC00FF" fill-rule="nonzero" opacity="0.2569" points="4559.85809 5587.456 5539.8224 5382.39218 4384.40555 6340.57103"></polygon>
            <polygon id="Path" fill="#CC00FF" fill-rule="nonzero" opacity="0.2569" points="4559.85809 5587.456 5539.8224 5382.39218 4384.40555 6340.57103"></polygon>
            <polygon id="Path" fill="#CC00FF" fill-rule="nonzero" opacity="0.01" points="2932.77419 6409.77039 4725.01728 8546.25667 5539.8224 5382.39218"></polygon>
            <polygon id="Path" fill="#CC00FF" fill-rule="nonzero" opacity="0.0563" points="4559.85634 5587.456 2932.77068 6409.77039 5197.93169 7688.12827"></polygon>
            <polygon id="Path" fill="#CC00FF" fill-rule="nonzero" opacity="0.01" points="1105.44165 6068.91249 4559.85282 5587.456 2784.84262 5250.25871"></polygon>
            <polygon id="Path" fill="#CC00FF" fill-rule="nonzero" opacity="0.31" points="5881.07187 7471.22031 4725.0085 8546.25667 5197.92291 7688.12827"></polygon>
            <polygon id="Path" fill="#CC00FF" fill-rule="nonzero" opacity="0.1398" points="5881.08943 7471.22031 4559.85634 5587.456 5197.92994 7688.12827"></polygon>
            <polygon id="Path" fill="#CC00FF" fill-rule="nonzero" opacity="0.0372" points="4559.85634 5587.456 2932.77244 6409.75279 4725.01553 8546.25667"></polygon>
            <polygon id="Path" fill="#CC00FF" fill-rule="nonzero" opacity="0.0145" points="4325.43356 8767.63479 4559.85634 5587.456 5197.93169 7688.12827"></polygon>
            <polygon id="Path" fill="#CC00FF" fill-rule="nonzero" opacity="0.0145" points="4325.43356 8767.63479 4559.85634 5587.456 5197.93169 7688.12827"></polygon>
            <polygon id="Path" fill="#CC00FF" fill-rule="nonzero" opacity="0.2808" points="4325.42653 8767.63479 5881.07187 7471.22031 4725.01025 8546.25667"></polygon>
            <polygon id="Path" fill="#CC00FF" fill-rule="nonzero" opacity="0.0491" points="4325.4318 8767.63479 5881.08943 7471.22031 4559.85634 5587.456"></polygon>
            <polygon id="Path" fill="#CC00FF" fill-rule="nonzero" opacity="0.0418" points="4550.7471 6898.38968 4559.85634 5587.456 2932.77068 6409.77039"></polygon>
            <polygon id="Path" fill="#CC00FF" fill-rule="nonzero" opacity="0.01" points="4230.02988 6678.36669 6520.98488 7941.48382 2158.01458 6778.11795"></polygon>
            <polygon id="Path" fill="#CC00FF" fill-rule="nonzero" opacity="0.1765" points="4550.74534 6898.38968 4325.43004 8767.63479 4725.01377 8546.25667"></polygon>
            <polygon id="Path" fill="#CC00FF" fill-rule="nonzero" opacity="0.0704" points="4550.7471 6898.38968 4325.43004 8767.63479 4559.85634 5587.456"></polygon>
            <polygon id="Path" fill="#CC00FF" fill-rule="nonzero" opacity="0.0134" points="4996.02635 7222.40531 4325.43883 8767.63479 5881.08943 7471.22031"></polygon>
            <polygon id="Path" fill="#CC00FF" fill-rule="nonzero" opacity="0.01" points="2158.02513 6778.11795 4550.75061 6898.38968 4725.01904 8546.25667"></polygon>
            <polygon id="Path" fill="#CC00FF" fill-rule="nonzero" opacity="0.0288" points="7822.84174 3366.95374 8829.58387 2650.43412 6313.5894 1254.98641"></polygon>
            <polygon id="Path" fill="#CC00FF" fill-rule="nonzero" opacity="0.0249" points="7822.82417 3366.95198 7403.90462 3374.72195 6313.57183 1254.98465"></polygon>
            <polygon id="Path" fill="#CC00FF" fill-rule="nonzero" opacity="0.31" points="12603.4438 3978.49869 11802.2174 3190.18562 11207.0687 4145.74222"></polygon>
            <polygon id="Path" fill="#CC00FF" fill-rule="nonzero" opacity="0.31" points="12603.4438 3978.49869 11802.2174 3190.18562 11207.0687 4145.74222"></polygon>
            <polygon id="Path" fill="#CC00FF" fill-rule="nonzero" opacity="0.31" points="12603.4438 3978.49869 11802.2174 3190.18562 11207.0687 4145.74222"></polygon>
            <polygon id="Path" fill="#CC00FF" fill-rule="nonzero" opacity="0.0115" points="2158.01986 6778.11795 4996.01756 7222.40531 4325.42829 8767.63479"></polygon>
            <polygon id="Path" fill="#CC00FF" fill-rule="nonzero" opacity="0.31" points="11056.5774 2637.51468 11802.2174 3190.18738 11207.0863 4145.74222"></polygon>
            <polygon id="Path" fill="#CC00FF" fill-rule="nonzero" opacity="0.0298" points="7822.84174 3366.95374 8829.58387 2650.43412 9690.70117 4676.17855"></polygon>
            <polygon id="Path" fill="#CC00FF" fill-rule="nonzero" opacity="0.194" points="4230.02812 6678.36669 2158.01458 6778.11795 4550.74007 6898.38968"></polygon>
            <polygon id="Path" fill="#CC00FF" fill-rule="nonzero" opacity="0.0393" points="11056.5774 2637.51468 12603.4614 3978.49869 8829.58387 2650.43412"></polygon>
            <polygon id="Path" fill="#CC00FF" fill-rule="nonzero" opacity="0.31" points="4230.03691 6678.36669 4550.7471 6898.38968 4996.02108 7222.40531"></polygon>
            <polygon id="Path" fill="#CC00FF" fill-rule="nonzero" opacity="0.31" points="4230.03691 6678.36669 4550.7471 6898.38968 4996.02108 7222.40531"></polygon>
            <polygon id="Path" fill="#CC00FF" fill-rule="nonzero" opacity="0.31" points="4230.03691 6678.36669 4550.7471 6898.38968 4996.02108 7222.40531"></polygon>
            <polygon id="Path" fill="#CC00FF" fill-rule="nonzero" opacity="0.1643" points="11056.5774 2637.51292 11207.0863 4145.74222 9690.70117 4676.17855"></polygon>
            <polygon id="Path" fill="#CC00FF" fill-rule="nonzero" opacity="0.0911" points="11207.0863 4145.74222 8829.58387 2650.43412 9690.70117 4676.17855"></polygon>
            <polygon id="Path" fill="#CC00FF" fill-rule="nonzero" opacity="0.101" points="12364.2319 3327.09371 11056.5599 2637.51468 11802.2174 3190.18738"></polygon>
            <polygon id="Path" fill="#CC00FF" fill-rule="nonzero" opacity="0.0679" points="11056.5774 2637.51468 8829.58387 2650.43412 8116.77938 1109.26121"></polygon>
            <polygon id="Path" fill="#CC00FF" fill-rule="nonzero" opacity="0.0966" points="12364.2319 3327.09195 11056.5599 2637.51468 12603.4438 3978.49869"></polygon>
            <polygon id="Path" fill="#CC00FF" fill-rule="nonzero" opacity="0.0966" points="12364.2319 3327.09195 11056.5599 2637.51468 12603.4438 3978.49869"></polygon>
            <polygon id="Path" fill="#CC00FF" fill-rule="nonzero" opacity="0.01" points="12364.2495 3327.09195 11207.0863 4145.74222 8829.58387 2650.43412"></polygon>
            <polygon id="Path" fill="#CC00FF" fill-rule="nonzero" opacity="0.2202" points="7155.48682 4048.22954 8829.58387 2650.43412 7403.90462 3374.72195"></polygon>
            <polygon id="Path" fill="#CC00FF" fill-rule="nonzero" opacity="0.0517" points="12364.2319 3327.09195 11207.0863 4145.74222 9690.70117 4676.17855"></polygon>
            <polygon id="Path" fill="#CC00FF" fill-rule="nonzero" opacity="0.2359" points="8829.5663 2650.43412 7403.90462 3374.72195 8521.83743 1965.20381"></polygon>
            <polygon id="Path" fill="#CC00FF" fill-rule="nonzero" opacity="0.0278" points="7403.90462 3374.72195 8116.76181 1109.26121 9690.70117 4676.17855"></polygon>
            <polygon id="Path" fill="#CC00FF" fill-rule="nonzero" opacity="0.01" points="11056.5599 2637.51468 7155.50438 4048.22954 9690.70117 4676.17855"></polygon>
            <polygon id="Path" fill="#CC00FF" fill-rule="nonzero" opacity="0.0733" points="7155.50438 4048.22954 8829.58387 2650.43236 9690.70117 4676.17855"></polygon>
            <polygon id="Path" fill="#CC00FF" fill-rule="nonzero" opacity="0.0627" points="12364.2319 3327.09195 11056.5774 2637.51468 9690.70117 4676.17855"></polygon>
            <polygon id="Path" fill="#CC00FF" fill-rule="nonzero" opacity="0.1189" points="7155.48682 4048.22954 7403.90462 3374.72195 5059.55033 2252.82466"></polygon>
            <polygon id="Path" fill="#CC00FF" fill-rule="nonzero" opacity="0.1982" points="6521.00245 7941.48382 6221.0564 9249.10888 4996.02635 7222.40531"></polygon>
            <polygon id="Path" fill="#CC00FF" fill-rule="nonzero" opacity="0.1982" points="6521.00245 7941.48382 6221.0564 9249.10888 4996.02635 7222.40531"></polygon>
            <polygon id="Path" fill="#CC00FF" fill-rule="nonzero" opacity="0.1982" points="6521.00245 7941.48382 6221.0564 9249.10888 4996.02635 7222.40531"></polygon>
            <polygon id="Path" fill="#CC00FF" fill-rule="nonzero" opacity="0.1128" points="6833.43966 3005.6713 7403.90462 3374.72195 8116.77938 1109.26121"></polygon>
            <polygon id="Path" fill="#CC00FF" fill-rule="nonzero" opacity="0.0274" points="5364.24688 4662.39852 6520.98488 7941.48382 4996.01756 7222.40531"></polygon>
            <polygon id="Path" fill="#CC00FF" fill-rule="nonzero" opacity="0.0533" points="7155.48682 4048.22954 9690.70117 4676.17855 8521.83743 1965.20381"></polygon>
            <polygon id="Path" fill="#CC00FF" fill-rule="nonzero" opacity="0.31" points="6833.43966 3005.672 7155.50438 4048.22954 7403.90462 3374.72195"></polygon>
            <polygon id="Path" fill="#CC00FF" fill-rule="nonzero" opacity="0.0356" points="3919.07316 511 1616.15633 1654.33818 5059.5556 2252.82466"></polygon>
            <polygon id="Path" fill="#CC00FF" fill-rule="nonzero" opacity="0.1739" points="6833.43966 3005.672 7403.90462 3374.72195 8521.83743 1965.20381"></polygon>
            <polygon id="Path" fill="#CC00FF" fill-rule="nonzero" opacity="0.1739" points="6833.43966 3005.672 7403.90462 3374.72195 8521.83743 1965.20381"></polygon>
            <polygon id="Path" fill="#CC00FF" fill-rule="nonzero" opacity="0.0255" points="7155.48682 4048.22954 8116.76181 1109.26121 5059.55208 2252.82466"></polygon>
            <polygon id="Path" fill="#CC00FF" fill-rule="nonzero" opacity="0.01" points="12364.2319 3327.09195 9690.70117 4676.17855 8521.83743 1965.20557"></polygon>
            <polygon id="Path" fill="#CC00FF" fill-rule="nonzero" opacity="0.0869" points="8116.76181 1109.26121 5059.55033 2252.82642 8521.83743 1965.20557"></polygon>
            <polygon id="Path" fill="#CC00FF" fill-rule="nonzero" opacity="0.0969" points="6833.43966 3005.672 7403.90462 3374.72195 5364.24161 4662.39852"></polygon>
            <polygon id="Path" fill="#CC00FF" fill-rule="nonzero" opacity="0.0488" points="7155.50438 4048.22954 8521.83743 1965.20381 5364.25391 4662.39852"></polygon>
            <polygon id="Path" fill="#CC00FF" fill-rule="nonzero" opacity="0.2315" points="6833.43966 3005.672 7155.50438 4048.22954 5059.56263 2252.82642"></polygon>
            <polygon id="Path" fill="#CC00FF" fill-rule="nonzero" opacity="0.0903" points="5059.5556 2252.82642 5364.24513 4662.39852 2801.51859 3693.67961"></polygon>
            <polygon id="Path" fill="#CC00FF" fill-rule="nonzero" opacity="0.0903" points="5059.5556 2252.82642 5364.24513 4662.39852 2801.51859 3693.67961"></polygon>
            <polygon id="Path" fill="#CC00FF" fill-rule="nonzero" opacity="0.0903" points="5059.5556 2252.82642 5364.24513 4662.39852 2801.51859 3693.67961"></polygon>
            <polygon id="Path" fill="#CC00FF" fill-rule="nonzero" opacity="0.01" points="7155.48682 4048.22954 8116.76181 1109.26121 5315.55946 1713.49554"></polygon>
            <polygon id="Path" fill="#CC00FF" fill-rule="nonzero" opacity="0.2915" points="6833.45723 3005.67235 7155.50438 4048.22954 5364.25567 4662.39852"></polygon>
            <polygon id="Path" fill="#CC00FF" fill-rule="nonzero" opacity="0.0199" points="7155.50438 4048.22954 5315.57 1713.49554 8521.83743 1965.20381"></polygon>
            <polygon id="Path" fill="#CC00FF" fill-rule="nonzero" opacity="0.2667" points="6833.45723 3005.672 5059.56614 2252.82642 5315.57351 1713.49554"></polygon>
            <polygon id="Path" fill="#CC00FF" fill-rule="nonzero" opacity="0.0925" points="6833.43966 3005.67165 5315.57 1713.49554 8521.83743 1965.20381"></polygon>
            <polygon id="Path" fill="#CC00FF" fill-rule="nonzero" opacity="0.01" points="1616.15633 1654.33994 3497.22371 4598.25183 5059.55384 2252.82642"></polygon>
            <polygon id="Path" fill="#CC00FF" fill-rule="nonzero" opacity="0.0142" points="6833.43966 3005.67147 5070.32506 2379.09413 8116.76181 1109.26121"></polygon>
            <polygon id="Path" fill="#CC00FF" fill-rule="nonzero" opacity="0.0701" points="1616.15633 1654.33818 3497.22547 4598.25183 2801.51859 3693.67961"></polygon>
            <polygon id="Path" fill="#CC00FF" fill-rule="nonzero" opacity="0.1268" points="6833.45723 3005.672 5315.57351 1713.49554 5364.25567 4662.39852"></polygon>
            <polygon id="Path" fill="#CC00FF" fill-rule="nonzero" opacity="0.0425" points="3497.22723 4598.25183 5315.56648 1713.49554 2801.5221 3693.67961"></polygon>
            <polygon id="Path" fill="#CC00FF" fill-rule="nonzero" opacity="0.1606" points="5070.3356 2379.09413 5315.57351 1713.49554 5364.25567 4662.39852"></polygon>
            <polygon id="Path" fill="#CC00FF" fill-rule="nonzero" opacity="0.01" points="7155.48682 4048.22954 5434.21321 5868.86439 5070.31978 2379.09413"></polygon>
            <polygon id="Path" fill="#CC00FF" fill-rule="nonzero" opacity="0.0954" points="3497.23074 4598.25183 5070.33033 2379.09413 5364.25216 4662.39852"></polygon>
            <polygon id="Path" fill="#CC00FF" fill-rule="nonzero" opacity="0.01" points="1077.56053 2743.46714 5070.31978 2379.09413 2801.51332 3693.67961"></polygon>
            <polygon id="Path" fill="#CC00FF" fill-rule="nonzero" opacity="0.1634" points="3497.22371 4598.25183 5434.21673 5868.86439 5364.24513 4662.39852"></polygon>
            <polygon id="Path" fill="#CC00FF" fill-rule="nonzero" opacity="0.1634" points="3497.22371 4598.25183 5434.21673 5868.86439 5364.24513 4662.39852"></polygon>
            <polygon id="Path" fill="#CC00FF" fill-rule="nonzero" opacity="0.1634" points="3497.22371 4598.25183 5434.21673 5868.86439 5364.24513 4662.39852"></polygon>
            <polygon id="Path" fill="#CC00FF" fill-rule="nonzero" opacity="0.01" points="3497.22196 4598.25007 1077.56053 2743.46731 5315.55946 1713.49378"></polygon>
            <polygon id="Path" fill="#CC00FF" fill-rule="nonzero" opacity="0.01" points="2333.84309 3962.55046 5070.33208 2379.09413 2801.52562 3693.67961"></polygon>
            <polygon id="Path" fill="#CC00FF" fill-rule="nonzero" opacity="0.0104" points="6833.45723 3005.672 5070.33384 2379.09413 2944.28855 2371.05138"></polygon>
            <polygon id="Path" fill="#CC00FF" fill-rule="nonzero" opacity="0.0985" points="3497.23425 4598.25007 5070.33384 2379.09413 2944.2868 2371.05138"></polygon>
            <polygon id="Path" fill="#CC00FF" fill-rule="nonzero" opacity="0.01" points="3497.22196 4598.25183 2944.27625 2371.05138 0 1641.18995"></polygon>
            <polygon id="Path" fill="#CC00FF" fill-rule="nonzero" opacity="0.01" points="3497.22547 4598.25007 2333.83606 3962.55046 0 1641.18995"></polygon>
            <polygon id="Path" fill="#CC00FF" fill-rule="nonzero" opacity="0.0409" points="5070.32506 2379.09413 3757.16378 1066.49559 2944.27801 2371.05138"></polygon>
            <polygon id="Path" fill="#CC00FF" fill-rule="nonzero" opacity="0.01" points="2333.83606 3962.55046 5070.32506 2379.09413 3757.16378 1066.49559"></polygon>
        </g>
    </g>
</svg>