<?xml version="1.0" encoding="UTF-8"?>
<svg width="10910px" height="12500px" viewBox="0 0 10910 12500" version="1.1" xmlns="http://www.w3.org/2000/svg" xmlns:xlink="http://www.w3.org/1999/xlink">
    <title>backgroundAccountRight</title>
    <g id="Page-1" stroke="none" stroke-width="1" fill="none" fill-rule="evenodd">
        <g id="backgroundAccountRight">
            <rect id="Rectangle" x="0" y="0" width="10910" height="12500"></rect>
            <path d="M525.71469,8022.54654 C530.65141,8041.85116 518.88059,8061.68274 499.39725,8066.67138 C479.9139,8071.66001 460.06163,8059.89105 455.12491,8040.604 C450.18819,8021.29939 461.95901,8001.45024 481.44235,7996.47917 C500.9257,7991.49053 520.77798,8003.24193 525.71469,8022.54654 Z" id="Path" fill="#0A9CDD" fill-rule="nonzero"></path>
            <path d="M2240.75833,8951.02998 C2245.78289,8970.68591 2233.74855,8990.60532 2214.07195,8995.62909 C2194.32508,9000.68798 2174.38496,8988.95415 2169.34283,8969.28066 C2164.37098,8949.80039 2176.26478,8929.74045 2195.94137,8924.71669 C2215.68824,8919.65779 2235.76891,8931.54971 2240.75833,8951.02998 Z" id="Path" fill="#0A9CDD" fill-rule="nonzero"></path>
            <path d="M4225.24834,7022.04407 C4230.37831,7042.06888 4218.22099,7062.2869 4198.29844,7067.38093 C4178.35832,7072.49253 4157.87357,7060.51278 4152.77874,7040.5758 C4147.70148,7020.74422 4159.92908,7000.49106 4179.8692,6995.39703 C4199.80932,6990.28544 4220.20622,7002.30032 4225.24834,7022.04407 Z" id="Path" fill="#0A9CDD" fill-rule="nonzero"></path>
            <path d="M1712.89854,8046.7344 C1718.01094,8066.74164 1705.87118,8086.97723 1685.84322,8092.08883 C1665.72741,8097.23555 1645.43592,8085.22067 1640.32352,8065.28369 C1635.26383,8045.45211 1647.40358,8025.21652 1667.43155,8020.08736 C1687.45951,8014.97576 1707.83884,8026.97308 1712.89854,8046.7344 Z" id="Path" fill="#0A9CDD" fill-rule="nonzero"></path>
            <path d="M3344.07069,6928.31394 C3349.18309,6948.33874 3336.95549,6968.57433 3316.92753,6973.70349 C3296.89957,6978.83265 3276.50267,6966.81777 3271.40784,6946.89836 C3266.33057,6927.04921 3278.52303,6906.6204 3298.46315,6901.52637 C3318.49112,6896.39721 3339.01099,6908.57018 3344.07069,6928.31394 Z" id="Path" fill="#0A9CDD" fill-rule="nonzero"></path>
            <path d="M1208.17631,8240.83448 C1213.34141,8261.03494 1201.02597,8281.69211 1180.54123,8286.92666 C1160.1619,8292.14365 1139.50148,8279.83015 1134.35394,8259.71752 C1129.18883,8239.51706 1141.50427,8218.85989 1161.81333,8213.67803 C1182.2805,8208.44348 1203.0112,8220.63402 1208.17631,8240.83448 Z" id="Path" fill="#0A9CDD" fill-rule="nonzero"></path>
            <path d="M5553.20768,8407.4268 C5558.46063,8427.94344 5579.47242,8440.29207 5600.16798,8435.00482 C5620.84598,8429.71757 5633.35467,8408.79692 5628.10172,8388.26271 C5622.84877,8367.74607 5601.81941,8355.37987 5581.14142,8360.68469 C5560.46343,8365.97194 5547.95473,8386.89259 5553.20768,8407.4268 Z" id="Path" fill="#0A9CDD" fill-rule="nonzero"></path>
            <path d="M2491.58221,8998.01801 C2496.88787,9018.763 2484.3089,9039.85931 2463.47279,9045.19926 C2442.72452,9050.50408 2421.44921,9038.05005 2416.16112,9017.30506 C2410.87304,8996.66546 2423.48714,8975.65698 2444.32325,8970.31703 C2465.2472,8964.97708 2486.27656,8977.29058 2491.58221,8998.01801 Z" id="Path" fill="#0A9CDD" fill-rule="nonzero"></path>
            <path d="M5438.99559,4410.59877 C5444.31881,4431.4316 5431.58173,4452.66843 5410.65778,4458.02594 C5389.73383,4463.38346 5368.44094,4450.8416 5363.10015,4430.00878 C5357.77693,4409.19352 5370.33833,4387.99182 5391.36769,4382.61674 C5412.29164,4377.25923 5433.63723,4389.69569 5438.99559,4410.59877 Z" id="Path" fill="#0A9CDD" fill-rule="nonzero"></path>
            <path d="M5790.53904,6280.1075 C5795.91497,6301.11598 5783.09004,6322.75682 5761.70932,6328.21973 C5740.34616,6333.68263 5718.61406,6320.98269 5713.22056,6299.88639 C5707.8095,6278.68468 5720.63442,6257.04384 5742.10299,6251.56337 C5763.37831,6246.11803 5785.12798,6258.92336 5790.53904,6280.1075 Z" id="Path" fill="#0A9CDD" fill-rule="nonzero"></path>
            <path d="M6250.93623,3487.82416 C6256.4527,3509.37718 6243.38182,3531.26394 6221.73756,3536.7971 C6200.00547,3542.34784 6177.97471,3529.52494 6172.44067,3507.90166 C6166.9769,3486.52431 6179.99507,3464.46189 6201.81501,3458.87602 C6223.45927,3453.34285 6245.47246,3466.46437 6250.93623,3487.82416 Z" id="Path" fill="#0A9CDD" fill-rule="nonzero"></path>
            <path d="M6558.59384,2114.19283 C6564.12789,2135.83367 6551.0043,2157.84339 6529.18436,2163.41169 C6507.36442,2168.99756 6485.29853,2156.08683 6479.74692,2134.35816 C6474.21287,2112.71732 6487.31889,2090.61977 6509.13883,2085.05147 C6530.87093,2079.48317 6553.0598,2092.55199 6558.59384,2114.19283 Z" id="Path" fill="#0A9CDD" fill-rule="nonzero"></path>
            <path d="M6813.14222,2079.90475 C6818.67626,2101.52802 6805.51754,2123.74853 6783.59219,2129.35196 C6761.8601,2134.9027 6739.67122,2121.83388 6734.11961,2100.10521 C6728.58557,2078.48193 6741.797,2056.43708 6763.52909,2050.88634 C6785.34903,2045.30048 6807.60818,2058.2639 6813.14222,2079.90475 Z" id="Path" fill="#0A9CDD" fill-rule="nonzero"></path>
            <path d="M5027.06959,2096.39886 C5032.70904,2118.47884 5019.23409,2140.96283 4996.95737,2146.65409 C4974.7685,2152.32779 4952.15798,2139.08331 4946.50096,2116.98577 C4940.87908,2094.99361 4954.33646,2072.42179 4976.52534,2066.7481 C4998.67907,2060.98658 5021.43014,2074.40671 5027.06959,2096.39886 Z" id="Path" fill="#0A9CDD" fill-rule="nonzero"></path>
            <path d="M6765.86569,1823.60833 C6771.50514,1845.69358 6758.04776,1868.26364 6735.77104,1873.96017 C6713.51189,1879.65494 6690.86624,1866.31737 6685.20922,1844.23212 C6679.56977,1822.14862 6693.02715,1799.57856 6715.2863,1793.88203 C6737.54545,1788.09592 6760.20867,1801.52483 6765.86569,1823.60833 Z" id="Path" fill="#0A9CDD" fill-rule="nonzero"></path>
            <path d="M7663.64547,2778.20833 C7669.33763,2800.46396 7655.77483,2822.98309 7633.49812,2828.67435 C7611.13356,2834.38317 7588.4352,2821.15626 7582.74304,2798.90062 C7577.08602,2776.82064 7590.64882,2754.31908 7613.01338,2748.59269 C7635.27252,2742.8136 7657.97088,2756.04052 7663.64547,2778.20833 Z" id="Path" fill="#0A9CDD" fill-rule="nonzero"></path>
            <path d="M7839.61045,3976.20104 C7845.40802,3998.28102 7831.88036,4020.94067 7809.5685,4026.66706 C7787.18638,4032.37589 7764.43531,4018.97332 7758.77829,3996.89334 C7753.08614,3974.6377 7766.64893,3952.11858 7789.01349,3946.40975 C7811.32534,3940.59553 7833.98856,3953.9454 7839.61045,3976.20104 Z" id="Path" fill="#0A9CDD" fill-rule="nonzero"></path>
            <path d="M5175.32922,8609.27332 C5180.96867,8631.3533 5167.45858,8654.03051 5145.09402,8659.7569 C5122.72946,8665.46573 5099.9784,8652.06316 5094.32138,8629.98318 C5088.62922,8607.72754 5102.15688,8585.03276 5124.52144,8579.32394 C5146.86843,8573.59755 5169.63706,8587.00011 5175.32922,8609.27332 Z" id="Path" fill="#0A9CDD" fill-rule="nonzero"></path>
            <path d="M3616.71451,3065.84532 C3622.40667,3088.11852 3608.80873,3110.90113 3586.35633,3116.64509 C3563.81609,3122.42418 3540.95962,3108.95135 3535.24989,3086.67814 C3529.54017,3064.33468 3543.1381,3041.5345 3565.67834,3035.77298 C3588.02533,3030.04659 3610.98721,3043.50185 3616.71451,3065.84532 Z" id="Path" fill="#0A9CDD" fill-rule="nonzero"></path>
            <path d="M8100.32533,8915.09073 C8105.94722,8937.53959 8092.24387,8960.46272 8069.58065,8966.27694 C8046.74175,8972.09116 8023.90284,8958.54807 8018.10527,8936.11677 C8012.30771,8913.49226 8026.01105,8890.58669 8048.67427,8884.77247 C8071.33749,8878.95825 8094.52776,8892.46621 8100.32533,8915.09073 Z" id="Path" fill="#0A9CDD" fill-rule="nonzero"></path>
            <path d="M2963.52183,7215.49422 C2969.26669,7237.92552 2955.56335,7261.04187 2932.82985,7266.85609 C2910.02609,7272.68788 2886.90609,7258.98669 2881.16122,7236.5554 C2875.38122,7213.93088 2889.13727,7190.99019 2911.94104,7185.1584 C2934.65697,7179.34418 2957.74183,7192.86971 2963.52183,7215.49422 Z" id="Path" fill="#0A9CDD" fill-rule="nonzero"></path>
            <path d="M6162.14559,2345.18071 C6167.96073,2367.89305 6154.15197,2390.93915 6131.33064,2396.77093 C6108.52687,2402.60271 6085.3366,2389.02449 6079.52146,2366.31215 C6073.74146,2343.68763 6087.55021,2320.64154 6110.37155,2314.80976 C6133.17532,2308.97797 6156.38316,2322.64402 6162.14559,2345.18071 Z" id="Path" fill="#0A9CDD" fill-rule="nonzero"></path>
            <path d="M5861.42749,8061.17334 C5867.29533,8084.14917 5853.38117,8107.51144 5830.2963,8113.41349 C5807.21144,8119.31553 5783.77521,8105.50896 5777.90737,8082.53313 C5772.07466,8059.73296 5785.98883,8036.37069 5809.07369,8030.46864 C5832.15855,8024.56659 5855.59478,8038.37317 5861.42749,8061.17334 Z" id="Path" fill="#0A9CDD" fill-rule="nonzero"></path>
            <path d="M5909.51217,1607.41421 C5915.41515,1630.48665 5901.25502,1654.09484 5877.99448,1660.04256 C5854.64609,1666.01312 5830.99904,1652.0748 5825.09606,1629.00236 C5819.19308,1605.92992 5833.24779,1582.34456 5856.59618,1576.37401 C5879.85673,1570.42629 5903.60919,1584.34177 5909.51217,1607.41421 Z" id="Path" fill="#0A9CDD" fill-rule="nonzero"></path>
            <path d="M7525.75119,3664.92072 C7531.67174,3688.07221 7517.56432,3711.48718 7494.30378,3717.42436 C7470.95539,3723.39667 7447.34347,3709.64279 7441.42293,3686.47374 C7435.48481,3663.32225 7449.55709,3639.73163 7472.90548,3633.75932 C7496.16602,3627.82214 7519.81308,3641.75167 7525.75119,3664.92072 Z" id="Path" fill="#0A9CDD" fill-rule="nonzero"></path>
            <path d="M6028.538,6591.01894 C6034.45854,6614.18799 6020.40383,6637.76105 5997.05545,6643.73336 C5973.68949,6649.70567 5949.9546,6635.7937 5944.01648,6612.62465 C5938.0608,6589.29751 5952.20335,6565.68932 5975.55174,6559.71701 C5998.90013,6553.7447 6022.56475,6567.67423 6028.538,6591.01894 Z" id="Path" fill="#0A9CDD" fill-rule="nonzero"></path>
            <path d="M6929.46252,7827.93706 C6935.47091,7851.45742 6921.09997,7875.31153 6897.48805,7881.35411 C6873.87614,7887.39668 6849.89529,7873.34418 6843.86933,7849.82382 C6837.91365,7826.47912 6852.19675,7802.64257 6875.80866,7796.6 C6899.45571,7790.64526 6923.50684,7804.68018 6929.46252,7827.93706 Z" id="Path" fill="#0A9CDD" fill-rule="nonzero"></path>
            <g id="Path" opacity="0.3494" transform="translate(860.824093, 8950.457838)" fill="#0A9CDD" fill-rule="nonzero">
                <path d="M0.288701744,1027.68653 C-0.642422838,1024.01531 0.710343065,1019.94009 3.89022136,1017.39307 L1338.29716,2.03008981 C1342.61898,-1.27224638 1348.75035,-0.446662333 1352.03564,3.78665161 C1355.32093,8.01996555 1354.49521,14.1503662 1350.20853,17.5405305 L15.9597042,1033.14943 C11.4973335,1036.29368 5.34839759,1035.48566 2.15095091,1031.23478 C1.29009988,1030.11058 0.622501123,1028.95125 0.288701744,1027.68653 Z"></path>
            </g>
            <g id="Path" opacity="0.01" transform="translate(701.995902, 8959.903968)" fill="#0A9CDD" fill-rule="nonzero">
                <path d="M0,1385.18616 L0.140547107,1384.9578 L1502.87021,0.102044434 C1502.90535,-0.0911773643 1503.13374,0.0493475798 1503.13374,0.0493475798 C1503.36213,0.172306906 1503.30422,0.383094322 1503.27429,0.57631612 L0.614893592,1385.30912 C0.42164132,1385.34798 0.245957437,1385.39694 0.21082066,1385.22129 C0.0175683884,1385.27398 0.0175683884,1385.27398 0,1385.18616 Z"></path>
            </g>
            <g id="Path" opacity="0.6984" transform="translate(1656.888675, 8036.502084)" fill="#0A9CDD" fill-rule="nonzero">
                <path d="M0.599163984,24.3902041 C-1.50904262,16.1343636 2.03977183,7.19346405 9.7698627,2.62640336 C19.1162453,-2.71354451 31.1857281,0.307741784 36.7373388,9.70534743 L565.19446,913.75501 C570.605524,922.97696 567.460783,934.974277 557.956284,940.472315 C548.574765,946.02305 536.540419,942.790977 531.041514,933.586593 L2.58439187,29.5369302 C1.67083567,27.8506308 1.05594208,26.1994627 0.599163984,24.3902041 Z"></path>
            </g>
            <path d="M3280.29744,6944.61483 C3279.4938,6941.47058 3279.31361,6938.16825 3279.66498,6934.63756 C3281.47452,6919.26764 3295.24814,6908.07834 3310.77859,6909.65925 L4192.18464,7003.52991 C4207.64482,7005.21621 4218.80075,7018.89983 4217.20202,7034.34001 C4215.39248,7049.70992 4201.56616,7060.72356 4186.0357,7059.14266 L3304.57695,6965.48278 C3292.52504,6964.35858 3283.12595,6955.6636 3280.29744,6944.61483 Z" id="Path" fill="#0A9CDD" fill-rule="nonzero"></path>
            <g id="Path" opacity="0.102" transform="translate(1673.656897, 6934.774926)" fill="#0A9CDD" fill-rule="nonzero">
                <path d="M0.081700757,1121.97188 C-0.199393457,1120.88281 0.25738464,1119.61808 1.25878278,1119.07355 L1632.29039,0.512559996 C1633.59045,-0.400852141 1635.39999,-0.0846710171 1636.34869,1.3908409 C1637.24467,2.69069663 1636.82711,4.42969281 1635.54054,5.32553933 L4.5440714,1123.69331 C3.24401066,1124.60672 1.45203505,1124.29054 0.538478854,1122.99068 C0.362794971,1122.65694 0.169542699,1122.32319 0.081700757,1121.97188 Z"></path>
            </g>
            <g id="Path" opacity="0.9581" transform="translate(1144.209440, 8029.234538)" fill="#0A9CDD" fill-rule="nonzero">
                <path d="M0.826079193,227.742744 C-2.4943462,214.726621 4.42759881,201.007874 17.4106378,196.054369 L522.765329,1.77863414 C536.714629,-3.50861688 552.350495,3.394671 557.691285,17.1485499 C562.97937,30.709207 556.022288,46.5533945 542.090556,51.9284736 L36.7007282,246.028553 C22.7689962,251.403632 7.150699,244.588172 1.77477217,230.658637 C1.54638312,229.76279 1.10717341,228.831813 0.826079193,227.742744 Z"></path>
            </g>
            <g id="Path" opacity="0.1036" transform="translate(1168.228437, 8247.380144)" fill="#0A9CDD" fill-rule="nonzero">
                <path d="M0.0676287603,3.65995868 C-0.108055123,2.93976834 0.0676287603,2.13174991 0.489270081,1.5345189 C1.24471078,-2.22044605e-15 3.12452833,-0.467961557 4.5299994,0.515713053 L1287.2156,757.8749 C1288.65621,758.647787 1289.14812,760.544874 1288.25214,761.914992 C1287.44399,763.267545 1285.65201,763.724251 1284.21141,762.951364 L1.47309983,5.39895486 C0.805501071,4.99494565 0.260881032,4.38014902 0.0676287603,3.65995868 Z"></path>
            </g>
            <g id="Path" opacity="0.6007" transform="translate(2437.077599, 8990.915302)" fill="#0A9CDD" fill-rule="nonzero">
                <path d="M193.786797,1492.25815 C193.64625,1491.71361 193.470566,1491.01099 193.400293,1490.36106 L0.148020663,18.9946313 C-1.08176652,9.75511627 5.48881072,1.37631647 14.7473514,0.146723209 C24.005892,-1.06530444 32.5441288,5.36371176 33.6509373,14.55053 L226.991051,1485.88183 C228.20327,1495.12134 221.685398,1503.6758 212.426857,1504.90539 C203.800778,1505.95933 195.895004,1500.51399 193.786797,1492.25815 Z"></path>
            </g>
            <g id="Path" opacity="0.3999" transform="translate(2442.665224, 8996.574257)" fill="#0A9CDD" fill-rule="nonzero">
                <path d="M0.340395442,13.88021 C-0.555592364,10.3670864 0.287690277,6.23916613 3.22161113,3.4813641 C7.63127661,-0.997868491 14.7640423,-1.19109029 19.2088445,3.11248613 L959.908199,908.110692 C964.353001,912.414269 964.440843,919.475647 960.11902,923.919748 C955.726922,928.398981 948.594157,928.592203 944.096649,924.095405 L3.45000018,19.2904203 C1.90398201,17.7797772 0.814741928,15.7597311 0.340395442,13.88021 Z"></path>
            </g>
            <g id="Path" opacity="0.014" transform="translate(5400.622770, 3497.511068)" fill="#0A9CDD" fill-rule="nonzero">
                <path d="M0.0210282796,922.906886 C-0.0316768854,922.713664 0.0210282796,922.520442 0.108870221,922.502877 L810.714309,0.0620119831 C810.889993,0.00931512906 811.153519,-0.060947343 811.294066,0.0971432192 C811.522455,0.237668163 811.522455,0.62411176 811.346771,0.659242996 L0.741332202,923.100108 C0.565648319,923.152805 0.284554105,923.223067 0.161575386,923.064976 L0.0210282796,922.906886 Z"></path>
            </g>
            <g id="Path" opacity="0.0437" transform="translate(6772.324793, 2088.806543)" fill="#0A9CDD" fill-rule="nonzero">
                <path d="M1798.3063,1103.05452 L1.90344913,0.179628289 C1.34126071,-0.154118453 0.515546453,-0.0311591274 0.199315462,0.61876874 C-0.0290735864,0.864687392 -0.0290735864,1.25113099 0.041199967,1.51461526 C0.129041909,1.88349324 0.287157404,2.12941189 0.638525171,2.32263369 L1799.3604,1106.55008 L1798.3063,1103.05452 Z"></path>
            </g>
            <g id="Path" opacity="0.7502" transform="translate(6190.580492, 2103.305997)" fill="#0A9CDD" fill-rule="nonzero">
                <path d="M0.62321435,1399.78269 C-0.13222635,1396.83166 -0.220068291,1393.4942 0.465098854,1390.17429 L307.929463,16.4902678 C310.494448,5.2307066 321.773353,-1.95363117 333.210374,0.470424116 C344.541985,2.92961064 351.797729,14.0837781 349.28545,25.536561 L41.821085,1399.20302 C39.238532,1410.48015 28.065037,1417.64692 16.5401742,1415.24043 C8.47628394,1413.27308 2.55573707,1407.3359 0.62321435,1399.78269 Z"></path>
            </g>
            <g id="Path" opacity="0.6472" transform="translate(6193.439501, 2071.932993)" fill="#0A9CDD" fill-rule="nonzero">
                <path d="M0.557578185,1430.45307 C-0.338409621,1426.95751 -0.197862514,1422.98768 1.2954505,1419.45699 L563.202784,11.5024427 C566.83944,2.15753394 577.450747,-2.37439551 586.884971,1.2441218 C596.26649,4.96803282 600.85184,15.4547068 597.127342,24.8347468 L35.20244,1432.6839 C31.4603733,1442.06394 20.8490667,1446.59587 11.4851157,1442.87196 C5.84566308,1440.67626 1.96304925,1435.93354 0.557578185,1430.45307 Z"></path>
            </g>
            <path d="M6491.78126,2131.28418 C6491.51774,2130.19511 6491.34205,2129.19387 6491.16637,2128.08724 C6489.146,2112.73489 6500.09111,2098.64726 6515.42831,2096.53939 L6769.88885,2062.26887 C6785.34903,2060.23125 6799.49158,2071.05167 6801.58222,2086.29863 C6803.65529,2101.54559 6792.74532,2115.72104 6777.30271,2117.84648 L6522.84217,2152.02917 C6508.59421,2153.96139 6495.2598,2144.84484 6491.78126,2131.28418 Z" id="Path" fill="#0A9CDD" fill-rule="nonzero"></path>
            <g id="Path" opacity="0.0264" transform="translate(7622.412463, 2787.772453)" fill="#0A9CDD" fill-rule="nonzero">
                <path d="M950.502515,412.43228 L1.12437685,0.0266997394 C0.702735534,-0.0611283507 0.263525825,0.0618309754 0.0878419418,0.483405808 C0.0351367767,0.676627606 0,0.887415022 0,0.887415022 C0.0878419418,1.23872738 0.31623099,1.37925233 0.544620039,1.51977727 L950.853883,414.223973 L950.502515,412.43228 Z"></path>
            </g>
            <g id="Path" opacity="0.0101" transform="translate(6211.319511, 1833.652347)" fill="#0A9CDD" fill-rule="nonzero">
                <path d="M0,1664.30718 L0.0878419418,1664.27204 L513.892928,0.158090562 C513.963201,0.0456706069 514.138885,0 514.138885,0 C514.437548,0.0193221798 514.472685,0.200248045 514.437548,0.402252653 L0.685167146,1664.32474 C0.632461981,1664.51796 0.456778097,1664.57066 0.456778097,1664.57066 C0.140547107,1664.4477 0.0527051651,1664.48283 0,1664.30718 Z"></path>
            </g>
            <g id="Path" opacity="0.3014" transform="translate(4978.208849, 2098.260817)" fill="#0A9CDD" fill-rule="nonzero">
                <path d="M0.284145112,10.6447645 C0.108461228,9.92457418 -3.78586051e-14,9.09899013 -3.78586051e-14,8.43149665 C0.143598005,3.7063454 4.07891699,0.017565618 8.66426635,0 L1541.10208,17.565618 C1545.79284,17.6007493 1549.55247,21.430054 1549.4037,26.0673771 C1549.35922,30.7573972 1545.4239,34.4461769 1540.83855,34.4637426 L8.40074053,16.8981245 C4.46542154,16.8454277 1.21526969,14.2457162 0.284145112,10.6447645 Z"></path>
            </g>
            <g id="Path" opacity="0.1633" transform="translate(4982.147219, 2085.420350)" fill="#0A9CDD" fill-rule="nonzero">
                <path d="M0.10541033,22.4312942 C0,22.0799819 0,21.6935383 0,21.3070947 C0.0351367767,18.8127769 2.00279627,16.7751652 4.47993903,16.7224684 L1791.44856,0 C1793.96084,0.035131236 1796.01634,2.09030854 1796.08661,4.65488878 C1796.05148,7.14920653 1793.99598,9.20438384 1791.41342,9.18681822 L4.5326442,25.891721 C2.44200598,25.9444178 0.614893592,24.416209 0.10541033,22.4312942 Z"></path>
            </g>
            <g id="Path" opacity="0.8101" transform="translate(6496.273178, 1811.189031)" fill="#0A9CDD" fill-rule="nonzero">
                <path d="M0.708327035,318.760161 C-0.872827917,312.559498 0.146138607,305.708907 4.23957309,299.982516 L210.597863,9.61758011 C217.853607,-0.558182405 232.136707,-3.06303953 242.466919,4.0492792 C252.761995,11.3653591 255.221569,25.4652807 247.983393,35.7306279 L41.6251035,326.085024 C34.3693591,336.255517 19.9984174,338.784966 9.75604704,331.653325 C5.08285573,328.350989 2.02595616,323.871756 0.708327035,318.760161 Z"></path>
            </g>
            <g id="Path" opacity="0.9008" transform="translate(6700.175149, 1808.651346)" fill="#0A9CDD" fill-rule="nonzero">
                <path d="M48.8600242,287.72995 C48.7370455,287.202982 48.5964983,286.658447 48.4559512,286.113913 L0.423977482,29.9228876 C-2.10587044,16.3165599 6.94184956,3.00709109 20.7330344,0.437241171 C34.4188089,-2.10977344 47.7883525,6.71694961 50.3533372,20.5024466 L98.3853109,276.698742 C101.020569,290.364793 91.8674389,303.609269 78.076254,306.191415 C64.8472576,308.703298 52.1277444,300.482589 48.8600242,287.72995 Z"></path>
            </g>
            <g id="Path" opacity="0.2151" transform="translate(6513.156542, 2118.230973)" fill="#0A9CDD" fill-rule="nonzero">
                <path d="M0.181132942,7.53760187 C-0.205371602,6.0093931 0.0230174467,4.32309377 0.901436864,2.86514747 C2.58800215,0.124911061 6.36520564,-0.84119793 9.26398972,0.809970164 L1113.33179,665.071381 C1116.1603,666.757681 1117.00358,670.44646 1115.35215,673.362353 C1113.59531,676.207983 1109.90595,677.138961 1107.00717,675.505358 L2.93936991,11.2263817 C1.48119368,10.3656664 0.567637486,9.06581063 0.181132942,7.53760187 Z"></path>
            </g>
            <g id="Path" opacity="0.3731" transform="translate(6763.090739, 2079.593562)" fill="#0A9CDD" fill-rule="nonzero">
                <path d="M0.297806817,13.0286918 C-0.475202271,9.97227429 0.26267004,6.52941316 2.4411502,3.77161113 C6.18321692,-0.619793376 12.8064993,-1.26972124 17.181028,2.31366483 L866.893699,700.915859 C871.250659,704.48168 871.883121,711.016089 868.228897,715.495322 C864.504398,719.974555 857.845979,720.536654 853.47145,716.86544 L3.7939161,18.4564678 C2.00194049,17.0863496 0.859995244,15.1892628 0.297806817,13.0286918 Z"></path>
            </g>
            <g id="Path" opacity="0.6427" transform="translate(5116.732014, 8601.461397)" fill="#0A9CDD" fill-rule="nonzero">
                <path d="M118.505408,1118.32786 C118.312156,1117.60767 118.189177,1116.78208 118.04863,1115.86867 L0.112038719,20.0902877 C-0.994769748,10.1305823 6.22583787,1.31264208 16.1519773,0.100614439 C26.1308219,-0.918191407 35.0379948,5.89726839 36.1272348,16.1380237 L154.134099,1111.79345 C155.170634,1121.77072 148.037869,1130.57109 137.971182,1131.62503 C128.870757,1132.7141 120.701456,1126.95258 118.505408,1118.32786 Z"></path>
            </g>
            <g id="Path" opacity="0.4787" transform="translate(4973.247308, 1820.515754)" fill="#0A9CDD" fill-rule="nonzero">
                <path d="M0.396811012,289.636987 C0.291400682,289.18028 0.168421963,288.74114 0.150853575,288.266868 C-0.938386503,280.994702 3.98076224,274.091415 11.3594853,272.967215 L1750.13802,0.178436833 C1757.49917,-1.03007769 1764.24543,4.03584655 1765.51036,11.2640984 C1766.63473,18.6311186 1761.59261,25.4676571 1754.21388,26.586587 L15.5407618,299.438601 C8.54854321,300.562801 2.08337629,296.188962 0.396811012,289.636987 Z"></path>
            </g>
            <g id="Path" opacity="0.4999" transform="translate(7609.083861, 2774.581179)" fill="#0A9CDD" fill-rule="nonzero">
                <path d="M923.775192,269.236856 L18.1950458,0.588294319 C10.7460491,-1.62497355 2.92811632,2.59077477 0.644225833,10.1439905 C-0.18148842,12.5504802 -0.163920031,15.2380197 0.415836784,17.4688532 C1.62805558,22.2291357 5.0714597,25.9530467 9.97304005,27.551518 L931.856651,301.013059 L923.775192,269.236856 Z"></path>
            </g>
            <g id="Path" opacity="0.5515" transform="translate(7783.614171, 3554.362723)" fill="#0A9CDD" fill-rule="nonzero">
                <path d="M887.683782,30.5290441 L879.778007,0 L8.82515447,418.149537 C2.00861979,421.416742 -1.31180561,428.969958 0.480170008,435.961074 C0.708559057,436.85692 1.04235843,437.823029 1.49913653,438.859401 C5.27634003,446.500444 14.5173123,449.679821 22.2649716,445.885648 L887.683782,30.5290441 Z"></path>
            </g>
            <g id="Path" opacity="0.247" transform="translate(3848.573872, 8612.581720)" fill="#0A9CDD" fill-rule="nonzero">
                <path d="M0.201477472,1546.22503 C-0.30800579,1544.25768 0.148772307,1541.93902 1.57181176,1540.04193 L1280.88428,2.57607993 C1283.27358,-0.427640746 1287.66568,-0.884346815 1290.5996,1.62753656 C1293.51595,4.03402623 1294.06057,8.3902995 1291.51316,11.5345451 L12.2885287,1548.96526 C9.89922784,1551.96898 5.50713075,1552.42569 2.48536796,1549.94894 C1.37855949,1548.98283 0.570413627,1547.66541 0.201477472,1546.22503 Z"></path>
            </g>
            <g id="Path" opacity="0.8465" transform="translate(6701.625954, 1810.203265)" fill="#0A9CDD" fill-rule="nonzero">
                <path d="M0.730010694,29.6427194 C-1.32549074,21.5625351 0.958399743,12.5601559 7.59925054,6.36651895 C17.2970009,-2.5199272 32.3355413,-2.06322113 41.3832613,7.48369226 L939.127906,962.278669 C948.070216,971.764103 947.508027,986.835403 937.827845,995.70604 C928.253074,1004.66451 913.126691,1004.22536 904.043835,994.599406 L6.35189497,39.9730593 C3.55852122,36.9535296 1.69627205,33.412301 0.730010694,29.6427194 Z"></path>
            </g>
            <g id="Path" opacity="0.9497" transform="translate(7596.426834, 2761.944648)" fill="#0A9CDD" fill-rule="nonzero">
                <path d="M176.810243,1231.25991 C176.581854,1230.3465 176.441307,1229.43309 176.335896,1228.6075 L0.265508368,30.5269589 C-1.78999307,16.1231521 8.31183023,2.5449294 22.8584558,0.261399053 C37.5456285,-1.77621264 51.1259927,8.32401772 53.2869044,22.6926933 L229.304587,1220.59758 C231.412794,1235.17704 221.398813,1248.64987 206.641366,1250.86314 C192.955592,1252.84805 180.130668,1244.17064 176.810243,1231.25991 Z"></path>
            </g>
            <g id="Path" opacity="0.7109" transform="translate(7779.096012, 3966.605686)" fill="#0A9CDD" fill-rule="nonzero">
                <path d="M1114.96911,489.435341 L28.5399699,1.74352214 C18.3151679,-2.73571046 6.52677932,1.7083909 1.81845125,11.7207932 C-0.14920825,15.9541071 -0.46543924,20.7143896 0.606232449,24.9301379 C2.06440868,30.5862669 5.99972767,35.5222056 11.7445907,38.1570483 L1127.61835,538.812293 L1114.96911,489.435341 Z"></path>
            </g>
            <g id="Path" opacity="0.3974" transform="translate(3564.716187, 2095.610897)" fill="#0A9CDD" fill-rule="nonzero">
                <path d="M0.347258975,983.443768 C-0.777117879,979.052364 0.856742238,974.221819 4.84476639,971.481583 L1415.56878,1.92973034 C1420.62848,-1.46043393 1427.72611,-0.301103146 1431.11681,4.75779485 C1434.57778,9.69373351 1433.31286,16.7199807 1428.27073,20.2155387 L17.5467112,989.661997 C12.4167418,993.175121 5.38938643,991.910396 1.98111909,986.851498 C1.15540484,985.815127 0.681058354,984.708493 0.347258975,983.443768 Z"></path>
            </g>
            <g id="Path" opacity="0.8232" transform="translate(7599.931943, 2765.455049)" fill="#0A9CDD" fill-rule="nonzero">
                <path d="M907.804314,179.977959 L27.9618573,0.474908699 C15.4355964,-2.07210591 3.12015613,5.86755343 0.502466265,18.4972328 C-0.3056796,22.0454876 -0.0772905511,25.52348 0.748423701,28.7555537 C2.8566303,37.0289598 9.60289143,43.9146821 18.5803379,45.7239407 L920.453554,229.618396 L907.804314,179.977959 Z"></path>
            </g>
            <g id="Path" opacity="0.7395" transform="translate(7778.334619, 3305.053906)" fill="#0A9CDD" fill-rule="nonzero">
                <path d="M832.703762,44.1775293 L821.284309,0 L7.63953968,665.368045 C1.2622147,670.743124 -1.30277,679.034096 0.629752724,686.587312 C1.33248826,689.362679 2.72039094,692.173178 4.67048204,694.544537 C12.0316368,703.46787 25.0849493,704.609636 34.0448274,697.249642 L832.703762,44.1775293 Z"></path>
            </g>
            <g id="Path" opacity="0.2249" transform="translate(7792.886884, 3980.126374)" fill="#0A9CDD" fill-rule="nonzero">
                <path d="M1092.92109,443.769572 L8.77584554,0.536332936 C5.57839886,-0.939178977 1.88903731,0.764685971 0.518703018,3.99675969 C-0.0961905743,5.29661542 -0.113758963,6.7369961 0.202472028,8.0017206 C0.659250125,9.79341363 2.0471528,11.4445817 3.89183358,12.305297 L1096.96182,459.034094 L1092.92109,443.769572 Z"></path>
            </g>
            <g id="Path" opacity="0.3444" transform="translate(4977.031439, 2097.119869)" fill="#0A9CDD" fill-rule="nonzero">
                <path d="M0.284474021,11.9965002 C-0.0844621349,10.5561195 -0.0668937465,9.11573887 0.179063691,7.51726763 C1.35614571,2.35297593 6.6442306,-0.914229017 11.9147471,0.227536154 L1146.00692,249.255303 C1151.27744,250.397068 1154.51002,255.596491 1153.36808,260.866176 C1152.20856,266.030468 1147.00832,269.280107 1141.7378,268.138342 L7.54021841,19.0403131 C3.79815169,18.2674259 1.14532505,15.4042301 0.284474021,11.9965002 Z"></path>
            </g>
            <g id="Path" opacity="0.5985" transform="translate(6103.893397, 1817.097918)" fill="#0A9CDD" fill-rule="nonzero">
                <path d="M0.504901885,542.855477 C-0.988411125,537.006126 0.838701264,530.331191 5.88082872,526.080311 L610.532051,4.07230133 C617.594543,-1.94392284 628.223418,-1.21670626 634.30208,5.74103504 C640.380742,12.6970198 639.660439,23.3084096 632.580378,29.3263904 L27.9291561,551.322104 C20.8842324,557.43494 10.2729258,556.714749 4.15912666,549.653371 C2.33201427,547.738718 1.15493225,545.36736 0.504901885,542.855477 Z"></path>
            </g>
            <g id="Path" opacity="0.3419" transform="translate(6111.141381, 2346.189249)" fill="#0A9CDD" fill-rule="nonzero">
                <path d="M0.266705015,11.9724527 C-0.119799529,10.444244 -0.10223114,8.6174197 0.42482051,6.94868598 C1.88299674,1.8019599 7.27649197,-1.0261046 12.4064614,0.344013611 L1514.8199,433.143276 C1519.96743,434.601222 1522.76081,439.906039 1521.28506,444.982503 C1519.86202,450.217057 1514.45096,453.045121 1509.30342,451.587175 L6.88998742,18.7879125 C3.6046988,17.9096316 1.09241927,15.2045265 0.266705015,11.9724527 Z"></path>
            </g>
            <g id="Path" opacity="0.01" transform="translate(7567.107177, 8925.208523)" fill="#0A9CDD" fill-rule="nonzero">
                <path d="M0.0351367767,2277.48777 L0,2277.31211 L491.756758,0.298615506 C491.756758,0.0878280901 491.932442,0.0526968541 492.108126,0 C492.28381,0.158090562 492.459494,0.316181124 492.459494,0.316181124 L0.579756816,2277.34725 C0.527051651,2277.55803 0.404072932,2277.78639 0.263525825,2277.62829 C0.0878419418,2277.68097 0.0351367767,2277.48777 0.0351367767,2277.48777 Z"></path>
            </g>
            <g id="Path" opacity="0.3225" transform="translate(5125.657410, 8062.850931)" fill="#0A9CDD" fill-rule="nonzero">
                <path d="M0.269499362,559.052065 C-0.573783279,555.732164 0.585730352,552.078515 3.41424088,549.636894 L688.370566,1.92335861 C692.288317,-1.08036207 697.980474,-0.535827919 701.160353,3.34617367 C704.182116,7.26330648 703.602359,12.8667386 699.737313,16.0461155 L14.8336933,563.636692 C10.8632375,566.763372 5.13594294,566.113444 1.95606464,562.249008 C1.16548717,561.405858 0.585730352,560.299224 0.269499362,559.052065 Z"></path>
            </g>
            <g id="Path" opacity="0.8992" transform="translate(5841.981607, 1593.055735)" fill="#0A9CDD" fill-rule="nonzero">
                <path d="M0.788252574,31.4217196 C-2.44433089,18.7639353 4.5127509,5.60026114 17.1268537,1.41964405 C30.3909869,-3.21592255 44.8497706,3.89639619 49.347278,16.9968341 L302.911827,754.619292 C307.426903,767.811071 300.276569,782.074353 287.100278,786.694111 C273.906418,791.208475 259.482771,784.182227 254.879853,771.113408 L1.28016745,33.3065104 C1.12205195,32.6794179 0.946368069,32.0505688 0.788252574,31.4217196 Z"></path>
            </g>
            <g id="Path" opacity="0.054" transform="translate(6119.270592, 2354.240083)" fill="#0A9CDD" fill-rule="nonzero">
                <path d="M0.0432683801,1.90157221 C-0.0797103383,1.44486615 0.0608367685,0.830069515 0.447341312,0.461191536 C1.04466652,-0.171170713 2.01092788,-0.136039477 2.64338986,0.461191536 L1365.49355,1320.28903 C1366.09087,1320.71061 1366.17872,1321.83481 1365.54625,1322.37934 C1364.93136,1322.92388 1363.98267,1322.97657 1363.3502,1322.37934 L0.429772924,2.65689379 C0.271657429,2.41097514 0.113541934,2.16505648 0.0432683801,1.90157221 Z"></path>
            </g>
            <g id="Path" opacity="0.3531" transform="translate(8298.200286, 4902.664431)" fill="#0A9CDD" fill-rule="nonzero">
                <path d="M718.316499,31.6883749 L710.23504,0 L0.823518204,1674.53037 C-0.0549012135,1676.67337 -0.230585097,1678.72855 0.296466553,1680.87155 C0.999202088,1683.66449 3.10740869,1686.28176 5.91835083,1687.45866 C11.0131834,1689.49627 16.9864355,1687.23031 18.9189582,1682.20654 L718.316499,31.6883749 Z"></path>
            </g>
            <g id="Path" opacity="0.6627" transform="translate(5801.035501, 6583.269486)" fill="#0A9CDD" fill-rule="nonzero">
                <path d="M0.571625173,1493.20351 C0.0270051343,1491.04293 -0.148678749,1488.88236 0.132415464,1486.6164 L166.751011,16.391736 C167.875387,6.25637437 177.133928,-0.980660257 187.446572,0.108408061 C197.688942,1.215042 204.997392,10.3491634 203.890584,20.5723531 L37.2368517,1490.62136 C36.1124748,1500.84455 26.8890709,1508.18698 16.5588586,1507.09791 C8.68822059,1506.23719 2.45144273,1500.5635 0.571625173,1493.20351 Z"></path>
            </g>
            <g id="Path" opacity="0.3887" transform="translate(7472.782560, 3664.732127)" fill="#0A9CDD" fill-rule="nonzero">
                <path d="M1471.17678,986.392654 L17.1291185,1.89246091 C12.1572646,-1.53283461 5.32316151,-0.162716398 1.91489416,4.82591912 C0.105350164,7.47832744 -0.421701486,10.6752699 0.333739213,13.6438594 C0.966201194,16.0679147 2.49465098,18.351445 4.7258363,19.9850475 L1479.43392,1018.34451 L1471.17678,986.392654 Z"></path>
            </g>
            <g id="Path" opacity="0.018" transform="translate(5985.741404, 6580.392960)" fill="#0A9CDD" fill-rule="nonzero">
                <path d="M0.0351367767,21.5517924 C-2.90828706e-21,21.3761362 -2.90828706e-21,21.3761362 -2.90828706e-21,21.3761362 C-2.90828706e-21,20.9896926 0.21082066,20.7437739 0.527051651,20.8667333 L2322.41796,0.0163446672 C2322.59365,-0.0539178049 2322.76933,0.104172757 2322.94501,0.455485118 C2322.94501,0.841928714 2322.59365,1.08784737 2322.24228,0.982453658 L0.491914874,21.8328422 C0.31623099,21.8679735 0.0878419418,21.7450142 0.0351367767,21.5517924 Z"></path>
            </g>
            <g id="Path" opacity="0.9366" transform="translate(7457.291727, 2580.320062)" fill="#0A9CDD" fill-rule="nonzero">
                <path d="M0.821168532,1101.88523 C-0.97080708,1094.89411 0.118432998,1087.14768 4.59837203,1080.73622 L733.159437,11.4994901 C741.41658,-0.462695732 757.930865,-3.60694136 769.877369,4.50837416 C781.999557,12.6236897 785.161867,28.8367551 777.080408,40.7638098 L48.2206803,1109.86002 C40.0162429,1121.89247 23.6073682,1125.14211 11.5905906,1117.02679 C5.95113793,1113.30288 2.34961832,1107.80484 0.821168532,1101.88523 Z"></path>
            </g>
            <g id="Path" opacity="0.1965" transform="translate(5814.192640, 8066.405143)" fill="#0A9CDD" fill-rule="nonzero">
                <path d="M0.169135954,6.8006439 C-0.32277892,4.83329468 0.256977896,2.67272366 1.92597479,1.28503984 C4.20986528,-0.629612523 7.70597456,-0.383693871 9.72633922,1.88227085 L1130.18544,1290.91758 C1132.20581,1293.16598 1131.92471,1296.59128 1129.60569,1298.71672 C1127.3218,1300.63137 1123.80812,1300.38545 1121.78775,1298.13705 L1.24080764,9.11930548 C0.74889277,8.27615581 0.379956614,7.60866233 0.169135954,6.8006439 Z"></path>
            </g>
            <g id="Path" opacity="0.5582" transform="translate(5803.924415, 7823.390886)" fill="#0A9CDD" fill-rule="nonzero">
                <path d="M0.476084838,252.361916 C0.423379673,252.186259 0.370674508,252.010603 0.335537732,251.834947 C-1.4213011,243.473713 3.88435218,235.042216 12.4225889,233.250523 L1079.49136,0.347993889 C1088.0296,-1.46126477 1096.00565,3.9665112 1098.16656,12.3980078 C1100.01124,20.7241108 1094.56504,28.9975169 1086.07951,30.9824317 L19.0985765,263.867395 C10.841434,265.588826 2.56672305,260.529928 0.476084838,252.361916 Z"></path>
            </g>
            <g id="Path" opacity="0.0933" transform="translate(6884.048014, 6578.315217)" fill="#0A9CDD" fill-rule="nonzero">
                <path d="M0.0704969614,1261.21515 C-0.157892087,1260.31931 0.175907291,1259.37076 0.966484767,1258.77353 L1422.35451,0.706403921 C1423.5843,-0.34753316 1425.16546,-0.17187698 1426.21956,0.899625719 C1427.09798,1.98869404 1426.92229,3.65742775 1425.86819,4.51814303 L4.42745727,1262.58527 C3.26794364,1263.63921 1.68678869,1263.48112 0.738095719,1262.37448 C0.386727952,1262.09343 0.211044068,1261.75969 0.0704969614,1261.21515 Z"></path>
            </g>
            <g id="Path" opacity="0.6029" transform="translate(5969.259986, 6584.871109)" fill="#0A9CDD" fill-rule="nonzero">
                <path d="M0.529321134,21.1664328 C-1.15724415,14.5266291 1.23205667,7.41255385 7.04719321,3.24950238 C14.636737,-2.23097044 25.1953384,-0.632499204 30.7645175,6.93828216 L931.144421,1244.27798 C936.625758,1251.86633 934.904056,1262.353 927.314512,1267.83347 C919.724968,1273.31395 909.166367,1271.69791 903.68503,1264.10956 L3.21728455,26.7874305 C1.9347922,25.1186968 1.02123601,23.0635195 0.529321134,21.1664328 Z"></path>
            </g>
            <g id="Path" opacity="0.43" transform="translate(7471.574596, 2528.337409)" fill="#0A9CDD" fill-rule="nonzero">
                <path d="M936.900268,29.0886634 L929.345861,0 L2.7714904,1139.86808 C0.206505702,1142.9245 -0.531366609,1146.84163 0.364621197,1150.33719 C0.997083177,1152.76125 2.34984908,1155.07991 4.49319246,1156.73108 C9.67586702,1160.87656 17.2829792,1159.98072 21.4993924,1154.78129 L936.900268,29.0886634 Z"></path>
            </g>
            <g id="Path" opacity="0.7513" transform="translate(6865.500731, 7817.899016)" fill="#0A9CDD" fill-rule="nonzero">
                <path d="M54.0707877,1548.34704 C53.6667148,1546.731 53.5085993,1545.32576 53.403189,1543.83268 L0.0128567734,21.8948387 C-0.391216159,10.2312684 8.77948256,0.429653545 20.4448924,-3.83755527e-14 C32.1103023,-0.378364884 41.8431894,8.50983784 42.3526727,20.2436706 L95.7430049,1542.18151 C96.1470778,1553.84508 87.0817895,1563.62913 75.3109693,1564.06735 C65.2442827,1564.33175 56.4600886,1557.67438 54.0707877,1548.34704 Z"></path>
            </g>
            <g id="Path" opacity="0.255" transform="translate(6932.976482, 9353.699218)" fill="#0A9CDD" fill-rule="nonzero">
                <path d="M0.210537987,8.8756287 C-0.24624011,7.08393566 0.0348541039,5.18684892 1.10652579,3.37759026 C3.12689045,0.0928196901 7.53655593,-1.03137986 10.9448233,1.05892868 L1623.42421,973.368583 C1626.76221,975.300801 1627.81631,979.709771 1625.7081,983.205329 C1623.77558,986.4901 1619.2078,987.438643 1615.8698,985.523991 L3.3552795,13.3197301 C1.73898777,12.2130961 0.667316084,10.6673217 0.210537987,8.8756287 Z"></path>
            </g>
            <polygon id="Path" fill="#0A9CDD" fill-rule="nonzero" opacity="0.1025" points="702.36484 10344.9847 2205.00666 8960.1641 490.4198 8031.57527"></polygon>
            <polygon id="Path" fill="#0A9CDD" fill-rule="nonzero" opacity="0.1658" points="3036.64146 10807.8036 3384.31987 10554.4723 2205.00666 8960.1641"></polygon>
            <polygon id="Path" fill="#0A9CDD" fill-rule="nonzero" opacity="0.1658" points="3036.64146 10807.8036 3384.31987 10554.4723 2205.00666 8960.1641"></polygon>
            <polygon id="Path" fill="#0A9CDD" fill-rule="nonzero" opacity="0.31" points="870.81055 9975.66761 702.36484 10344.9847 2205.00666 8960.1641"></polygon>
            <polygon id="Path" fill="#0A9CDD" fill-rule="nonzero" opacity="0.31" points="870.81055 9975.66761 702.36484 10344.9847 2205.00666 8960.1641"></polygon>
            <polygon id="Path" fill="#0A9CDD" fill-rule="nonzero" opacity="0.01" points="3036.64146 10807.8036 702.36484 10344.9847 490.4198 8031.57527"></polygon>
            <polygon id="Path" fill="#0A9CDD" fill-rule="nonzero" opacity="0.1096" points="1676.53197 8056.02661 870.81055 9975.66761 490.4198 8031.57527"></polygon>
            <polygon id="Path" fill="#0A9CDD" fill-rule="nonzero" opacity="0.1096" points="1676.53197 8056.02661 870.81055 9975.66761 490.4198 8031.57527"></polygon>
            <polygon id="Path" fill="#0A9CDD" fill-rule="nonzero" opacity="0.0202" points="3307.59872 6937.64128 2205.00666 8960.1641 490.4198 8031.57527"></polygon>
            <polygon id="Path" fill="#0A9CDD" fill-rule="nonzero" opacity="0.2269" points="1676.53197 8056.02661 870.81055 9975.66761 2205.00666 8960.1641"></polygon>
            <polygon id="Path" fill="#0A9CDD" fill-rule="nonzero" opacity="0.022" points="702.36484 10344.9847 1171.17728 8250.30235 490.4198 8031.57527"></polygon>
            <polygon id="Path" fill="#0A9CDD" fill-rule="nonzero" opacity="0.0437" points="1676.53197 8056.02661 3307.59872 6937.64128 490.4198 8031.57527"></polygon>
            <polygon id="Path" fill="#0A9CDD" fill-rule="nonzero" opacity="0.0761" points="702.36484 10344.9847 2205.00666 8960.1641 1171.17728 8250.30235"></polygon>
            <polygon id="Path" fill="#0A9CDD" fill-rule="nonzero" opacity="0.01" points="2167.37517 12072.4403 1676.53197 8056.02661 702.36484 10344.9847"></polygon>
            <polygon id="Path" fill="#0A9CDD" fill-rule="nonzero" opacity="0.2143" points="1676.53197 8056.02661 3307.59872 6937.64128 4188.96962 7031.31872"></polygon>
            <polygon id="Path" fill="#0A9CDD" fill-rule="nonzero" opacity="0.2143" points="1676.53197 8056.02661 3307.59872 6937.64128 4188.96962 7031.31872"></polygon>
            <polygon id="Path" fill="#0A9CDD" fill-rule="nonzero" opacity="0.31" points="1676.53197 8056.02661 2205.00666 8960.1641 1171.17728 8250.30235"></polygon>
            <polygon id="Path" fill="#0A9CDD" fill-rule="nonzero" opacity="0.0679" points="3307.59872 6937.64128 2205.00666 8960.1641 1171.17728 8250.30235"></polygon>
            <polygon id="Path" fill="#0A9CDD" fill-rule="nonzero" opacity="0.0679" points="3307.59872 6937.64128 2205.00666 8960.1641 1171.17728 8250.30235"></polygon>
            <polygon id="Path" fill="#0A9CDD" fill-rule="nonzero" opacity="0.0466" points="2647.203 10478.9928 3036.64146 10807.8036 2205.00666 8960.1641"></polygon>
            <polygon id="Path" fill="#0A9CDD" fill-rule="nonzero" opacity="0.01" points="2453.86288 9007.66153 1676.5144 8056.02661 870.81055 9975.66761"></polygon>
            <polygon id="Path" fill="#0A9CDD" fill-rule="nonzero" opacity="0.01" points="2453.86288 9007.66153 2205.00666 8960.1641 4188.96962 7031.31872"></polygon>
            <polygon id="Path" fill="#0A9CDD" fill-rule="nonzero" opacity="0.01" points="2453.86288 9007.66153 3307.59872 6937.64128 2205.00666 8960.1641"></polygon>
            <polygon id="Path" fill="#0A9CDD" fill-rule="nonzero" opacity="0.01" points="2647.22057 10478.9928 870.81055 9975.66761 1171.17728 8250.30235"></polygon>
            <polygon id="Path" fill="#0A9CDD" fill-rule="nonzero" opacity="0.0102" points="3036.64146 10807.8036 2453.86288 9007.66153 1676.53197 8056.02661"></polygon>
            <polygon id="Path" fill="#0A9CDD" fill-rule="nonzero" opacity="0.01" points="4073.51017 11024.2296 2453.86288 9007.66153 1676.53197 8056.02661"></polygon>
            <polygon id="Path" fill="#0A9CDD" fill-rule="nonzero" opacity="0.2057" points="2453.86288 9007.66153 1676.5144 8056.02661 1171.17728 8250.30235"></polygon>
            <polygon id="Path" fill="#0A9CDD" fill-rule="nonzero" opacity="0.01" points="5590.66349 8397.85354 5751.92372 6289.97938 4188.96962 7031.31872"></polygon>
            <polygon id="Path" fill="#0A9CDD" fill-rule="nonzero" opacity="0.01" points="3394.63251 9912.53678 5590.66349 8397.83597 4073.51017 11024.2296"></polygon>
            <polygon id="Path" fill="#0A9CDD" fill-rule="nonzero" opacity="0.0267" points="3745.66648 10817.9741 2453.86288 9007.66153 1171.17728 8250.30235"></polygon>
            <polygon id="Path" fill="#0A9CDD" fill-rule="nonzero" opacity="0.2826" points="3745.66648 10817.9741 2647.22057 10478.9928 2453.86288 9007.66153"></polygon>
            <polygon id="Path" fill="#0A9CDD" fill-rule="nonzero" opacity="0.31" points="3394.63251 9912.53678 2647.203 10478.9928 2453.86288 9007.66153"></polygon>
            <polygon id="Path" fill="#0A9CDD" fill-rule="nonzero" opacity="0.0873" points="3745.66648 10817.9741 3394.63251 9912.53678 5590.66349 8397.83597"></polygon>
            <polygon id="Path" fill="#0A9CDD" fill-rule="nonzero" opacity="0.0129" points="5590.66349 8397.83597 5751.92372 6289.97938 5401.01273 4420.31256"></polygon>
            <polygon id="Path" fill="#0A9CDD" fill-rule="nonzero" opacity="0.0112" points="5683.00294 10492.8697 3745.66648 10817.9741 2453.86288 9007.66153"></polygon>
            <polygon id="Path" fill="#0A9CDD" fill-rule="nonzero" opacity="0.0292" points="5683.00294 10492.8697 3394.63251 9912.53678 2453.86288 9007.66153"></polygon>
            <polygon id="Path" fill="#0A9CDD" fill-rule="nonzero" opacity="0.0954" points="6211.68845 3497.85413 5751.92372 6289.97938 5401.01273 4420.31256"></polygon>
            <polygon id="Path" fill="#0A9CDD" fill-rule="nonzero" opacity="0.1297" points="6519.17038 2124.2755 6773.56064 2090.11037 5400.99517 4420.31256"></polygon>
            <polygon id="Path" fill="#0A9CDD" fill-rule="nonzero" opacity="0.0158" points="8716.27303 4961.94839 6211.68845 3497.85413 5751.92372 6289.97938"></polygon>
            <polygon id="Path" fill="#0A9CDD" fill-rule="nonzero" opacity="0.0158" points="8716.27303 4961.94839 6211.68845 3497.85413 5751.92372 6289.97938"></polygon>
            <polygon id="Path" fill="#0A9CDD" fill-rule="nonzero" opacity="0.01" points="5134.81651 8619.61947 5683.00294 10492.8697 3745.64891 10817.9741"></polygon>
            <polygon id="Path" fill="#0A9CDD" fill-rule="nonzero" opacity="0.0247" points="6725.52867 1833.91935 6211.68845 3497.85413 5400.99517 4420.31256"></polygon>
            <polygon id="Path" fill="#0A9CDD" fill-rule="nonzero" opacity="0.195" points="8572.21224 3197.42936 6519.17038 2124.2755 6211.68845 3497.85413 8577.83413 3220.05388"></polygon>
            <polygon id="Path" fill="#0A9CDD" fill-rule="nonzero" opacity="0.31" points="6519.17038 2124.2755 6773.56064 2090.11037 6211.68845 3497.85413"></polygon>
            <polygon id="Path" fill="#0A9CDD" fill-rule="nonzero" opacity="0.1066" points="8577.83413 3220.05388 6211.68845 3497.85413 7799.18559 3986.56475 8583.28033 3240.69348"></polygon>
            <polygon id="Path" fill="#0A9CDD" fill-rule="nonzero" opacity="0.0551" points="7623.23818 2788.53691 8716.27303 4961.94839 6211.68845 3497.85413"></polygon>
            <polygon id="Path" fill="#0A9CDD" fill-rule="nonzero" opacity="0.0465" points="8571.15814 3193.56493 6773.56064 2090.11037 4986.6623 2106.72744 8574.32045 3206.03652"></polygon>
            <polygon id="Path" fill="#0A9CDD" fill-rule="nonzero" opacity="0.2603" points="6519.17038 2124.2755 4986.64473 2106.72744 6211.68845 3497.85413"></polygon>
            <polygon id="Path" fill="#0A9CDD" fill-rule="nonzero" opacity="0.0627" points="8511.07425 2958.80044 6519.17038 2124.2755 6211.68845 3497.85413 8605.06513 3326.34344"></polygon>
            <polygon id="Path" fill="#0A9CDD" fill-rule="nonzero" opacity="0.159" points="8572.21224 3197.42936 6519.17038 2124.2755 7623.23818 2788.53691 8573.09066 3201.10058"></polygon>
            <polygon id="Path" fill="#0A9CDD" fill-rule="nonzero" opacity="0.159" points="8572.21224 3197.42936 6519.17038 2124.2755 7623.23818 2788.53691 8573.09066 3201.10058"></polygon>
            <polygon id="Path" fill="#0A9CDD" fill-rule="nonzero" opacity="0.2315" points="4986.6623 2106.72745 6773.56064 2090.11037 6211.68845 3497.85413"></polygon>
            <polygon id="Path" fill="#0A9CDD" fill-rule="nonzero" opacity="0.1915" points="8571.15814 3193.56493 6773.56064 2090.11037 7623.23818 2788.53691 8573.09066 3201.10058"></polygon>
            <polygon id="Path" fill="#0A9CDD" fill-rule="nonzero" opacity="0.2507" points="7623.23818 2788.53691 6773.56064 2090.11037 6211.68845 3497.85413"></polygon>
            <polygon id="Path" fill="#0A9CDD" fill-rule="nonzero" opacity="0.2566" points="5252.82338 9715.29246 5134.81651 8619.61947 5683.00294 10492.8697"></polygon>
            <polygon id="Path" fill="#0A9CDD" fill-rule="nonzero" opacity="0.31" points="6519.17038 2124.2755 6725.52867 1833.91935 6773.56064 2090.11037"></polygon>
            <polygon id="Path" fill="#0A9CDD" fill-rule="nonzero" opacity="0.31" points="6519.17038 2124.2755 6725.52867 1833.91935 6773.56064 2090.11037"></polygon>
            <polygon id="Path" fill="#0A9CDD" fill-rule="nonzero" opacity="0.1097" points="3855.59188 10157.0678 5134.81651 8619.61947 5683.00294 10492.8697"></polygon>
            <polygon id="Path" fill="#0A9CDD" fill-rule="nonzero" opacity="0.1956" points="6725.52867 1833.9211 4986.64473 2106.72744 6211.68845 3497.85413"></polygon>
            <polygon id="Path" fill="#0A9CDD" fill-rule="nonzero" opacity="0.1998" points="8667.25722 3569.62725 7799.20316 3986.56475 8716.27303 4961.94839 8889.67302 4438.6335"></polygon>
            <polygon id="Path" fill="#0A9CDD" fill-rule="nonzero" opacity="0.1102" points="7623.23818 2788.53691 4986.64473 2106.72744 6211.68845 3497.85413"></polygon>
            <polygon id="Path" fill="#0A9CDD" fill-rule="nonzero" opacity="0.0172" points="8569.75267 3187.99663 6725.52867 1833.9211 8835.56238 4227.56503"></polygon>
            <polygon id="Path" fill="#0A9CDD" fill-rule="nonzero" opacity="0.0363" points="7799.18559 3986.56475 6725.52867 1833.91935 8716.27303 4961.94839"></polygon>
            <polygon id="Path" fill="#0A9CDD" fill-rule="nonzero" opacity="0.1009" points="8552.0086 3118.70026 6211.68845 3497.85413 8605.06513 3326.34344"></polygon>
            <polygon id="Path" fill="#0A9CDD" fill-rule="nonzero" opacity="0.0478" points="8830.64324 4208.26042 7623.23818 2788.53691 6211.68845 3497.85413 8906.01162 4502.81827"></polygon>
            <polygon id="Path" fill="#0A9CDD" fill-rule="nonzero" opacity="0.2102" points="8583.28033 3240.69348 7799.20316 3986.56475 8605.24081 3327.15145"></polygon>
            <polygon id="Path" fill="#0A9CDD" fill-rule="nonzero" opacity="0.2518" points="6120.84231 2355.73765 6519.17038 2124.2755 6773.56064 2090.11037"></polygon>
            <polygon id="Path" fill="#0A9CDD" fill-rule="nonzero" opacity="0.31" points="7623.23818 2788.53691 6725.52867 1833.9211 6773.56064 2090.11037"></polygon>
            <polygon id="Path" fill="#0A9CDD" fill-rule="nonzero" opacity="0.1276" points="8492.27608 2885.09511 6519.17038 2124.2755 8511.07425 2958.80044"></polygon>
            <polygon id="Path" fill="#0A9CDD" fill-rule="nonzero" opacity="0.1647" points="8484.3703 2854.4958 6773.56064 2090.11037 8498.6007 2909.8802"></polygon>
            <polygon id="Path" fill="#0A9CDD" fill-rule="nonzero" opacity="0.01" points="8059.2153 8925.61253 5134.81651 8619.61947 5683.00294 10492.8872"></polygon>
            <polygon id="Path" fill="#0A9CDD" fill-rule="nonzero" opacity="0.0266" points="8573.96908 3204.59614 6120.84231 2355.73765 7799.20316 3986.56475 8583.28033 3240.69348"></polygon>
            <polygon id="Path" fill="#0A9CDD" fill-rule="nonzero" opacity="0.1705" points="6120.84231 2355.73765 6519.17038 2124.2755 4986.64473 2106.72744"></polygon>
            <polygon id="Path" fill="#0A9CDD" fill-rule="nonzero" opacity="0.2549" points="6120.84231 2355.73765 6519.17038 2124.2755 6725.52867 1833.91935"></polygon>
            <polygon id="Path" fill="#0A9CDD" fill-rule="nonzero" opacity="0.0125" points="8508.79036 2950.00007 6120.84231 2355.73765 6211.68845 3497.85413 8552.0086 3118.70026"></polygon>
            <polygon id="Path" fill="#0A9CDD" fill-rule="nonzero" opacity="0.0653" points="6120.84231 2355.73765 7799.20316 3986.56475 6519.17038 2124.2755"></polygon>
            <polygon id="Path" fill="#0A9CDD" fill-rule="nonzero" opacity="0.31" points="8536.89978 3059.80275 7623.23818 2788.53691 7799.18559 3986.56475 8667.25722 3569.62725"></polygon>
            <polygon id="Path" fill="#0A9CDD" fill-rule="nonzero" opacity="0.0206" points="3575.93828 3076.2793 6120.84231 2355.73765 6211.68845 3497.85413"></polygon>
            <polygon id="Path" fill="#0A9CDD" fill-rule="nonzero" opacity="0.1803" points="7623.23818 2788.53691 6120.84231 2355.73765 6773.56064 2090.11037"></polygon>
            <polygon id="Path" fill="#0A9CDD" fill-rule="nonzero" opacity="0.0746" points="6120.82474 2355.73765 7799.18559 3986.56475 6773.56064 2090.11037"></polygon>
            <polygon id="Path" fill="#0A9CDD" fill-rule="nonzero" opacity="0.31" points="8667.25722 3569.62725 7799.20316 3986.56475 8900.38974 4480.73829"></polygon>
            <polygon id="Path" fill="#0A9CDD" fill-rule="nonzero" opacity="0.31" points="7623.23818 2788.53691 7799.20316 3986.56475 6725.52867 1833.9211"></polygon>
            <polygon id="Path" fill="#0A9CDD" fill-rule="nonzero" opacity="0.1406" points="3575.93828 3076.2793 6725.52867 1833.9211 4986.64473 2106.72744"></polygon>
            <polygon id="Path" fill="#0A9CDD" fill-rule="nonzero" opacity="0.31" points="8514.06088 2970.20053 7623.23818 2788.53691 8536.89978 3059.80275"></polygon>
            <polygon id="Path" fill="#0A9CDD" fill-rule="nonzero" opacity="0.31" points="8514.06088 2970.20053 7623.23818 2788.53691 8536.89978 3059.80275"></polygon>
            <polygon id="Path" fill="#0A9CDD" fill-rule="nonzero" opacity="0.0394" points="8484.3703 2854.4958 6773.56064 2090.11037 6120.84231 2355.73765 8508.79036 2950.00007"></polygon>
            <polygon id="Path" fill="#0A9CDD" fill-rule="nonzero" opacity="0.1878" points="8470.13991 2798.56688 6725.52867 1833.9211 7799.18559 3986.56475 8605.24081 3327.15145"></polygon>
            <polygon id="Path" fill="#0A9CDD" fill-rule="nonzero" opacity="0.01" points="8951.1624 4679.03655 7799.18559 3986.56475 6211.68845 3497.85413 8957.1356 4702.73257"></polygon>
            <polygon id="Path" fill="#0A9CDD" fill-rule="nonzero" opacity="0.31" points="8514.06088 2970.20053 7623.23818 2788.53691 7799.18559 3986.56475 8605.24081 3327.15145"></polygon>
            <polygon id="Path" fill="#0A9CDD" fill-rule="nonzero" opacity="0.31" points="8605.24081 3327.15145 7799.20316 3986.56475 8900.38974 4480.73829"></polygon>
            <polygon id="Path" fill="#0A9CDD" fill-rule="nonzero" opacity="0.31" points="8605.24081 3327.15145 7799.20316 3986.56475 8900.38974 4480.73829"></polygon>
            <polygon id="Path" fill="#0A9CDD" fill-rule="nonzero" opacity="0.01" points="9005.8001 4892.96821 8716.27303 4961.94839 8308.15937 6580.9714 9143.3605 5430.52882"></polygon>
            <polygon id="Path" fill="#0A9CDD" fill-rule="nonzero" opacity="0.1557" points="5819.66743 8071.85323 5252.82338 9715.29246 5134.81651 8619.61947"></polygon>
            <polygon id="Path" fill="#0A9CDD" fill-rule="nonzero" opacity="0.0765" points="2922.37666 7225.99846 3855.59188 10157.0678 5134.81651 8619.61947"></polygon>
            <polygon id="Path" fill="#0A9CDD" fill-rule="nonzero" opacity="0.3001" points="8605.24081 3327.15145 7799.20316 3986.56475 8887.7405 4431.44916"></polygon>
            <polygon id="Path" fill="#0A9CDD" fill-rule="nonzero" opacity="0.1782" points="7623.23818 2788.53691 6120.84231 2355.73765 4986.64473 2106.72744"></polygon>
            <polygon id="Path" fill="#0A9CDD" fill-rule="nonzero" opacity="0.01" points="8212.41165 2606.59224 7799.18559 3986.56475 6773.56064 2090.11037"></polygon>
            <polygon id="Path" fill="#0A9CDD" fill-rule="nonzero" opacity="0.1866" points="3575.93828 3076.2793 6120.84231 2355.73765 4986.64473 2106.72744"></polygon>
            <polygon id="Path" fill="#0A9CDD" fill-rule="nonzero" opacity="0.0137" points="3575.93828 3076.2793 6120.84231 2355.73765 7799.18559 3986.56475"></polygon>
            <polygon id="Path" fill="#0A9CDD" fill-rule="nonzero" opacity="0.01" points="8477.34295 2826.93535 6725.52867 1833.9211 8920.06633 4557.48247"></polygon>
            <polygon id="Path" fill="#0A9CDD" fill-rule="nonzero" opacity="0.01" points="5819.66743 8071.85323 5252.82338 9715.29246 2922.37666 7225.99846"></polygon>
            <polygon id="Path" fill="#0A9CDD" fill-rule="nonzero" opacity="0.01" points="8477.34295 2826.93535 6725.52867 1833.91935 5867.29533 1618.20829 8495.78975 2899.2003"></polygon>
            <polygon id="Path" fill="#0A9CDD" fill-rule="nonzero" opacity="0.0499" points="5867.29533 1618.20653 7623.23818 2788.53691 4986.64473 2106.72744"></polygon>
            <polygon id="Path" fill="#0A9CDD" fill-rule="nonzero" opacity="0.0112" points="8470.13991 2798.56688 6725.52867 1833.9211 8920.06633 4557.48247"></polygon>
            <polygon id="Path" fill="#0A9CDD" fill-rule="nonzero" opacity="0.1176" points="8461.35571 2764.1734 8212.41165 2606.59224 7799.20316 3986.56475 8667.25722 3569.62725"></polygon>
            <polygon id="Path" fill="#0A9CDD" fill-rule="nonzero" opacity="0.0482" points="8643.5399 3476.35381 7623.23818 2788.53691 8830.64324 4208.26042"></polygon>
            <polygon id="Path" fill="#0A9CDD" fill-rule="nonzero" opacity="0.01" points="8809.2098 4123.87519 7799.20316 3986.56475 8832.57576 4215.2691"></polygon>
            <polygon id="Path" fill="#0A9CDD" fill-rule="nonzero" opacity="0.1747" points="8514.06088 2970.20053 7623.23818 2788.53691 7483.71004 3675.67088 8575.37455 3210.25227"></polygon>
            <polygon id="Path" fill="#0A9CDD" fill-rule="nonzero" opacity="0.01" points="5867.29533 1618.20653 3575.93828 3076.2793 7623.23818 2788.53691"></polygon>
            <polygon id="Path" fill="#0A9CDD" fill-rule="nonzero" opacity="0.0917" points="5819.66743 8071.85323 2922.37666 7225.99846 5134.81651 8619.61947"></polygon>
            <polygon id="Path" fill="#0A9CDD" fill-rule="nonzero" opacity="0.0539" points="8744.55813 3871.79101 7623.23818 2788.53691 7483.71004 3675.67088 8869.11801 4358.7275"></polygon>
            <polygon id="Path" fill="#0A9CDD" fill-rule="nonzero" opacity="0.1205" points="8869.29369 4358.7275 7483.71004 3675.67088 7799.20316 3986.56475 8887.7405 4431.44916"></polygon>
            <polygon id="Path" fill="#0A9CDD" fill-rule="nonzero" opacity="0.2867" points="5867.29533 1618.20829 6120.82474 2355.73765 6725.52867 1833.9211"></polygon>
            <polygon id="Path" fill="#0A9CDD" fill-rule="nonzero" opacity="0.0116" points="8388.97395 2481.12103 7623.23818 2788.53691 8744.55813 3871.79101"></polygon>
            <polygon id="Path" fill="#0A9CDD" fill-rule="nonzero" opacity="0.0123" points="8059.2153 8925.61253 5986.32116 6601.82179 5134.81651 8619.61947"></polygon>
            <polygon id="Path" fill="#0A9CDD" fill-rule="nonzero" opacity="0.01" points="8059.2153 8925.61253 7473.48524 12326 10177.4359 11656.5392"></polygon>
            <polygon id="Path" fill="#0A9CDD" fill-rule="nonzero" opacity="0.0701" points="8059.2153 8925.61253 7473.5028 12326 7567.42341 11202.626"></polygon>
            <polygon id="Path" fill="#0A9CDD" fill-rule="nonzero" opacity="0.0538" points="8466.9776 2786.62226 7623.23818 2788.53691 8913.21466 4530.73004"></polygon>
            <polygon id="Path" fill="#0A9CDD" fill-rule="nonzero" opacity="0.0204" points="8832.57576 4215.2691 7799.20316 3986.56475 8308.15937 6580.9714 9189.214 5609.89134"></polygon>
            <polygon id="Path" fill="#0A9CDD" fill-rule="nonzero" opacity="0.01" points="8653.02683 3513.41727 7799.20316 3986.56475 8878.42925 4395.0005"></polygon>
            <polygon id="Path" fill="#0A9CDD" fill-rule="nonzero" opacity="0.0167" points="8878.42925 4395.0005 7799.20316 3986.56475 8951.1624 4679.03655"></polygon>
            <polygon id="Path" fill="#0A9CDD" fill-rule="nonzero" opacity="0.01" points="8361.04021 2372.31959 6120.84231 2355.73765 8537.7782 3062.94699"></polygon>
            <polygon id="Path" fill="#0A9CDD" fill-rule="nonzero" opacity="0.073" points="8592.59157 3277.59885 7483.71004 3675.67088 8892.48396 4450.03359"></polygon>
            <polygon id="Path" fill="#0A9CDD" fill-rule="nonzero" opacity="0.0511" points="5867.29533 1618.20829 7483.71004 3675.67088 6725.52867 1833.9211"></polygon>
            <polygon id="Path" fill="#0A9CDD" fill-rule="nonzero" opacity="0.0448" points="8361.04021 2372.31959 6120.84231 2355.73765 7623.23818 2788.53691 8380.18976 2446.83294"></polygon>
            <polygon id="Path" fill="#0A9CDD" fill-rule="nonzero" opacity="0.0898" points="8059.2153 8925.61253 8308.15937 6580.9714 5819.66743 8071.85323"></polygon>
            <polygon id="Path" fill="#0A9CDD" fill-rule="nonzero" opacity="0.0898" points="8059.2153 8925.61253 8308.15937 6580.9714 5819.66743 8071.85323"></polygon>
            <polygon id="Path" fill="#0A9CDD" fill-rule="nonzero" opacity="0.0803" points="8799.02014 4084.29985 7483.71004 3675.67088 8892.48396 4450.03359"></polygon>
            <polygon id="Path" fill="#0A9CDD" fill-rule="nonzero" opacity="0.0886" points="8059.2153 8925.61253 6940.10896 9360.80072 7567.42341 11202.626"></polygon>
            <polygon id="Path" fill="#0A9CDD" fill-rule="nonzero" opacity="0.0522" points="5867.29533 1618.20829 7483.71004 3675.67088 7799.18559 3986.56475"></polygon>
            <polygon id="Path" fill="#0A9CDD" fill-rule="nonzero" opacity="0.029" points="8489.64082 2874.78409 8212.41165 2606.59224 7623.23818 2788.53691 8643.5399 3476.35381"></polygon>
            <polygon id="Path" fill="#0A9CDD" fill-rule="nonzero" opacity="0.0475" points="8869.29369 4358.7275 7483.71004 3675.67088 8308.15937 6580.9714 9143.3605 5430.52882"></polygon>
            <polygon id="Path" fill="#0A9CDD" fill-rule="nonzero" opacity="0.1969" points="7623.23818 2788.53691 8212.41165 2606.59224 7483.71004 3675.67088"></polygon>
            <polygon id="Path" fill="#0A9CDD" fill-rule="nonzero" opacity="0.0994" points="6940.10896 9360.80072 5819.66743 8071.85323 5134.81651 8619.61947"></polygon>
            <polygon id="Path" fill="#0A9CDD" fill-rule="nonzero" opacity="0.0287" points="8489.28945 2873.6072 7483.71004 3675.67088 8629.48519 3421.32073"></polygon>
            <polygon id="Path" fill="#0A9CDD" fill-rule="nonzero" opacity="0.0119" points="9017.0438 4936.42555 8308.15937 6580.9714 9358.3976 6271.07877"></polygon>
            <polygon id="Path" fill="#0A9CDD" fill-rule="nonzero" opacity="0.0681" points="8059.2153 8925.61253 8308.15937 6580.9714 5986.32116 6601.82179"></polygon>
            <polygon id="Path" fill="#0A9CDD" fill-rule="nonzero" opacity="0.0801" points="8489.28945 2873.6072 7483.71004 3675.67088 8575.37455 3210.25227"></polygon>
            <polygon id="Path" fill="#0A9CDD" fill-rule="nonzero" opacity="0.0766" points="8942.3782 4644.66063 6120.84231 2355.73765 7483.71004 3675.67088 8948.1758 4667.09193"></polygon>
            <polygon id="Path" fill="#0A9CDD" fill-rule="nonzero" opacity="0.01" points="8347.33687 2318.55123 5867.29533 1618.20829 8481.55936 2843.27137"></polygon>
            <polygon id="Path" fill="#0A9CDD" fill-rule="nonzero" opacity="0.2184" points="5867.29533 1618.20829 8212.41165 2606.59224 6120.84231 2355.73765"></polygon>
            <polygon id="Path" fill="#0A9CDD" fill-rule="nonzero" opacity="0.2184" points="5867.29533 1618.20829 8212.41165 2606.59224 6120.84231 2355.73765"></polygon>
            <polygon id="Path" fill="#0A9CDD" fill-rule="nonzero" opacity="0.2424" points="8212.41165 2606.59224 6120.84231 2355.73765 7483.71004 3675.67088"></polygon>
            <polygon id="Path" fill="#0A9CDD" fill-rule="nonzero" opacity="0.01" points="8308.15937 6580.9714 7483.71004 3675.67088 5819.66743 8071.85323"></polygon>
            <polygon id="Path" fill="#0A9CDD" fill-rule="nonzero" opacity="0.0698" points="8380.18976 2446.83294 7623.23818 2788.53691 8388.97395 2481.12103"></polygon>
            <polygon id="Path" fill="#0A9CDD" fill-rule="nonzero" opacity="0.1693" points="8948.1758 4667.09193 7483.71004 3675.67088 8308.15937 6580.9714 9012.3004 4918.36809"></polygon>
            <polygon id="Path" fill="#0A9CDD" fill-rule="nonzero" opacity="0.0415" points="8059.2153 8925.61253 6940.10896 9360.80072 5986.32116 6601.82179"></polygon>
            <polygon id="Path" fill="#0A9CDD" fill-rule="nonzero" opacity="0.0591" points="8799.02014 4084.29985 7483.71004 3675.67088 8308.15937 6580.9714 9189.214 5609.89134"></polygon>
            <polygon id="Path" fill="#0A9CDD" fill-rule="nonzero" opacity="0.01" points="6940.10896 9360.80072 10101.1891 11755.8025 7567.40584 11202.626"></polygon>
            <polygon id="Path" fill="#0A9CDD" fill-rule="nonzero" opacity="0.1704" points="8308.15937 6580.9714 5819.66743 8071.85323 6886.71863 7838.86288"></polygon>
            <polygon id="Path" fill="#0A9CDD" fill-rule="nonzero" opacity="0.1216" points="9012.3004 4918.36809 8308.15937 6580.9714 9358.3976 6271.07877"></polygon>
            <polygon id="Path" fill="#0A9CDD" fill-rule="nonzero" opacity="0.0785" points="9012.3004 4918.36809 9000.0025 4870.34369 6886.71863 7838.86288 8308.15937 6580.9714"></polygon>
            <polygon id="Path" fill="#0A9CDD" fill-rule="nonzero" opacity="0.2083" points="8489.28945 2873.6072 7483.71004 3675.67088 8592.59157 3277.59885"></polygon>
            <polygon id="Path" fill="#0A9CDD" fill-rule="nonzero" opacity="0.1334" points="8489.28945 2873.6072 7483.71004 3675.67088 8948.0001 4667.09193"></polygon>
            <polygon id="Path" fill="#0A9CDD" fill-rule="nonzero" opacity="0.31" points="5819.66743 8071.85323 6886.71863 7838.86288 5986.32116 6601.82179"></polygon>
            <polygon id="Path" fill="#0A9CDD" fill-rule="nonzero" opacity="0.31" points="5819.66743 8071.85323 6886.71863 7838.86288 5986.32116 6601.82179"></polygon>
            <polygon id="Path" fill="#0A9CDD" fill-rule="nonzero" opacity="0.055" points="8308.15937 6580.9714 6940.0914 9360.80072 5986.32116 6601.82179"></polygon>
            <polygon id="Path" fill="#0A9CDD" fill-rule="nonzero" opacity="0.01" points="10671.8103 11405.5616 6940.10896 9360.80072 7473.48524 12326 10682 11445.3302"></polygon>
            <polygon id="Path" fill="#0A9CDD" fill-rule="nonzero" opacity="0.1977" points="8404.60982 2542.88174 7483.71004 3675.67088 8592.59157 3277.59885"></polygon>
            <polygon id="Path" fill="#0A9CDD" fill-rule="nonzero" opacity="0.31" points="8389.14964 2481.84122 8212.41165 2606.59224 7483.71004 3675.67088 8404.60982 2542.88174"></polygon>
            <polygon id="Path" fill="#0A9CDD" fill-rule="nonzero" opacity="0.31" points="8389.14964 2481.84122 8212.41165 2606.59224 7483.71004 3675.67088 8404.60982 2542.88174"></polygon>
            <polygon id="Path" fill="#0A9CDD" fill-rule="nonzero" opacity="0.2398" points="6940.10896 9360.80072 6886.71863 7838.86288 5986.32116 6601.82179"></polygon>
            <polygon id="Path" fill="#0A9CDD" fill-rule="nonzero" opacity="0.0657" points="6940.0914 9360.80072 8552.53565 10333.1104 5819.66743 8071.85323"></polygon>
            <polygon id="Path" fill="#0A9CDD" fill-rule="nonzero" opacity="0.01" points="8059.2153 8925.61253 8707.13747 6927.61131 6886.70106 7838.86288"></polygon>
            <polygon id="Path" fill="#0A9CDD" fill-rule="nonzero" opacity="0.01" points="7473.5028 12326 8552.53565 10333.1104 6886.71863 7838.86288"></polygon>
            <polygon id="Path" fill="#0A9CDD" fill-rule="nonzero" opacity="0.01" points="7473.48524 12326 7046.50312 11086.974 6886.70106 7838.86288"></polygon>
            <polygon id="Path" fill="#0A9CDD" fill-rule="nonzero" opacity="0.01" points="8308.15937 6580.9714 6940.10896 9360.80072 8707.13747 6927.61131"></polygon>
            <polygon id="Path" fill="#0A9CDD" fill-rule="nonzero" opacity="0.01" points="8308.15937 6580.9714 6940.10896 9360.80072 8707.13747 6927.61131"></polygon>
            <polygon id="Path" fill="#0A9CDD" fill-rule="nonzero" opacity="0.1707" points="6940.0914 9360.80072 7046.50312 11086.974 6886.70106 7838.86288"></polygon>
            <polygon id="Path" fill="#0A9CDD" fill-rule="nonzero" opacity="0.2798" points="6940.10896 9360.80072 7046.50312 11086.974 8552.53565 10333.1104"></polygon>
            <polygon id="Path" fill="#0A9CDD" fill-rule="nonzero" opacity="0.2798" points="6940.10896 9360.80072 7046.50312 11086.974 8552.53565 10333.1104"></polygon>
            <polygon id="Path" fill="#0A9CDD" fill-rule="nonzero" opacity="0.0873" points="7046.50312 11086.974 8552.53565 10333.1104 6886.71863 7838.86288"></polygon>
            <polygon id="Path" fill="#0A9CDD" fill-rule="nonzero" opacity="0.0407" points="6940.0914 9360.80072 8552.53565 10333.1104 8707.13747 6927.61131"></polygon>
            <polygon id="Path" fill="#0A9CDD" fill-rule="nonzero" opacity="0.0674" points="9204.8499 5706.81842 8707.13747 6927.61131 6886.71863 7838.86288"></polygon>
            <polygon id="Path" fill="#0A9CDD" fill-rule="nonzero" opacity="0.0317" points="10015.4553 9923.49773 8552.53565 10333.1104 8707.13747 6927.61131"></polygon>
        </g>
    </g>
</svg>