<svg height="36" viewBox="0 0 166 36" width="166" xmlns="http://www.w3.org/2000/svg" xmlns:xlink="http://www.w3.org/1999/xlink"><linearGradient id="a" x1="45.770055%" x2="45.770055%" y1="100%" y2="2.205708%"><stop offset="0" stop-color="#6888ec"/><stop offset="1" stop-color="#6637bd"/></linearGradient><g fill="none" fill-rule="evenodd"><path d="m16.0390042 2.23846798v-2.0501755h-15.58552255v3.16188544h10.63601365l-10.90048584 15.44610498v2.0312379h15.98258344v-3.1625869h-11.03307454zm4.8557094-2.0501755h13.7342173v3.16188544h-13.7342173zm0 8.48897505h13.7342173v3.16188547h-13.7342173zm0 8.98766637v3.1632883h13.7342173v-3.1632883h-.5479863zm67.103295-17.47664142h13.7342174v3.16188544h-13.7342174zm0 8.48897505h13.7342174v3.16188547h-13.7342174zm0 8.98766637v3.1632883h13.7342174v-3.1632883h-.547987zm-33.8538512-5.9597472c-.3019739-.3828568-.665925-.7130504-1.0769307-.9770423-.436395-.2799117-.9058926-.5051287-1.3978237-.6705329v-.0575143c.9062582-.49798999 1.5677912-1.11170997 1.9641469-1.85869491.3970608-.7476863.5853652-1.57182457.5853652-2.4534772 0-.49798995-.0747577-.99597988-.225683-1.51360888-.1572534-.51323634-.4069753-.99378225-.736996-1.41821925-.321598-.441177-.7560377-.86271496-1.2468981-1.2267386-.5106077-.36402363-1.1143096-.65159529-1.7948845-.88165262-.9260054-.3065093-2.1348196-.45941326-3.64619-.45941326h-7.0843284v20.65816592h5.9128928c.5670285 0 1.0578887 0 1.5113706-.0189376.403885-.0131347.8072565-.0388651 1.2095193-.0771534.3589771-.0378753.6982067-.076452 1.0014681-.1332649.3018508-.0582157.566323-.1157301.8307952-.1732444 1.0014682-.2679326 1.8322636-.6319563 2.4937965-1.0731333.660828-.4594132 1.1897723-.9581046 1.5868331-1.4939698.3963558-.537268.6798699-1.0927723.8307954-1.6679156.1456764-.5309344.2220018-1.0783146.2270934-1.6286375 0-.594081-.0754628-1.11171-.24543-1.5907623-.1524724-.4665915-.389327-.901575-.6989121-1.2835515zm-10.9195278-8.35500878h3.0608248c.5289444 0 .981721.01893765 1.3597398.05751433.3589769.03787531.6798699.09538965.963384.172543.6615332.21041829 1.1333515.51692758 1.3978237.95810459.2835141.42153799.416103.91952792.416103 1.45609454 0 .517629-.1135467.9966813-.3596822 1.41821926-.2454302.42153796-.641786.74768631-1.1897723.97774364-.4908605.21041828-1.2468982.30650929-2.266703.30650929h-3.3626756v-5.34743004h-.0190422zm7.8967871 12.18812858c-.0945047.2875716-.2461355.5555042-.4534816.8044992-.2080516.2496964-.4915657.4601147-.8315007.6522967-.3399349.1914806-.7743746.3443846-1.284277.4594132-.3986062.0856488-.8027769.1433055-1.2095193.172543-.4725238.0385767-1.0198048.0575144-1.681338.0575144h-2.4366705v-5.825781h3.5326433c.6234491 0 1.1333515.0189377 1.5304123.0575143.3507873.0366926.6981364.1007161 1.0388468.1914807.6608279.2104183 1.1523937.5365666 1.4739917.9777436.320893.4404756.4718185.9384656.4718185 1.5136089-.0190422.3261483-.0564208.6326577-.1509255.939167zm8.6902035-15.35001402h3.7216527v20.65886732h-3.7216527zm7.5187682 3.16118405h6.574426v17.47874567h3.7216528v-17.47874567h6.5744259v-3.16118405h-16.8705047zm48.9485136 6.99570667 7.084328-10.15689072h-4.287976l-2.909899 4.25395635c-.70556 1.02212729-1.392129 2.05709321-2.059357 3.10437111h-.075463c-.396355-.63195625-1.07693-1.66721422-2.077693-3.12330876l-2.909194-4.25465774h-4.288681l7.084328 10.15689066-7.386885 10.5026781h4.231556l3.173666-4.6186814c.735215-1.0616115 1.453262-2.1348828 2.153861-3.2193998h.056421c.661533 1.0156189 1.379487 2.0691132 2.154567 3.2193998l3.173666 4.6186814h4.231555l-7.3488-10.4823376z" fill="url(#a)" transform="translate(42 7)"/><path d="m35.5415095 15.060241c.1145321.7990415.1717983 1.618059.1717983 2.4363631 0 9.8831444-7.8812442 17.8949622-17.6021611 17.8949622-6.3851679 0-11.98435875-3.4900992-15.07171625-8.6753075l7.42096805-5.6717678 9.893431 3.5279108zm-32.75767144-5.75301208v9.13080898l-1.95814768 1.5088927c-.09604384-.7049627-.13474808-1.4300058-.13474808-2.1557659-.00513569-2.9542013.70641232-5.8655109 2.07354365-8.48393578zm3.93564747-5.03585771v11.14959839l-2.07354363 1.6064257v-10.56153185c.62501379-.79136774 1.31891087-1.52573945 2.07354363-2.19449224zm11.82701127-4.27137121v16.6745554l-2.0735436-.7444062v-15.9301492zm2.3236877 0c.5432816.07245355 1.081787.17710299 1.6126765.31339644l-.0049463-.00139644-.0144058.00067929v14.97131381l-2.0735436 1.3123924v-16.5963855zm-6.2593351.21586345v15.04804935l-2.0735437-.7444062v-13.71629375c.6715902-.23522662 1.3632492-.4302926 2.0735437-.58806655zm9.7534676.66623638c.7086046.27340846 1.4009263.58732204 2.0735437.94018933v10.97317844l-2.0735437 1.3123924zm-13.7084672.70496271v12.26620766l-1.30590965-.4704532-.76763405.5880665v-11.16896154c.65900445-.45758647 1.35223329-.86373928 2.0735437-1.21485942zm17.6441146 1.3912794c.7344232.51342214 1.4277066 1.08337573 2.0735438 1.70467586v5.6633677l-2.0735438 1.3123925zm3.9356476 3.80163512c.4228795.52854274.7877028 1.09724611 1.1324573 1.70467583l-1.1324573.70496272z" fill="url(#a)"/><path d="m34.8570979 9.78915663c-.921497 0-1.650956.75707537-1.650956 1.66897467 0 .0781223 0 .1747097.0193472.2521217l-11.9966602 7.4521497c-.3022242-.2638251-.6914555-.4088389-1.0941882-.407656-.5753983 0-1.0748411.2911828-1.3815291.7378999l-7.1978528-2.5616986c-.0386943-.892724-.7681532-1.5908525-1.65095602-1.5908525-.92149714 0-1.65095599.7563651-1.65095599 1.6689747 0 .1739995.01934714.3487092.07667199.5042434l-5.85430137 4.4629094c-.25200249-.1404223-.53637979-.2138217-.82547799-.2130606-.92078057 0-1.65023942.7563651-1.65023942 1.6689747 0 .9111892.74808943 1.6682645 1.65023942 1.6682645.90286655 0 1.65095597-.7570753 1.65095597-1.6689747 0-.1356486-.01934714-.2712972-.05732485-.3877703l5.91162625-4.5026807c.21138542.1171833.46074855.1754199.72945885.1754199.46074856 0 .90286656-.1938851 1.18949086-.5241291l7.4293019 2.6391107c.1734077.7371896.825478 1.2996696 1.6122617 1.2996696.9214971 0 1.650956-.7563651 1.650956-1.6689747v-.0575263l12.1120264-7.5288515c.2687102.1938852.5947454.3103583.9401278.3103583.921497 0 1.650956-.7570753 1.650956-1.6689747.0573247-.9701359-.6907645-1.72721128-1.6122618-1.72721128zm-32.36203335 13.81626977c-.07727422.4029095-.43104224.6955461-.84482513.6988388h-.05732486c-.45931276-.0344707-.81236614-.4170503-.80613085-.8735485 0-.0582366 0-.1164731.01934714-.1747097.07752182-.4023675.43081883-.6945654.84410857-.6981286h.05732486c.45959659.0341149.81305768.4167961.80684741.8735485 0 .0575264-.01934714.1157629-.01934714.1739995zm7.67794845-5.7632893c-.0573248.0198857-.0960191.0390611-.153344.0390611-.03869423 0-.07738851.0191755-.11536622.0191755-.48009572 0-.86417229-.3877703-.86417229-.8735485v-.0575263c.01646417-.4624889.39727205-.8302158.86417229-.8344874.34538232 0 .63343972.1938852.76743652.485068.0573249.1164731.0960192.2521217.0960192.3877703 0 .3884805-.2493632.7180142-.5947455.8344873zm10.6531088 3.1248889c-.1315306.1596485-.3148973.2690939-.51879.309648-.0573248.0198857-.1146497.0198857-.1719746.0198857-.4800956 0-.8641722-.3884805-.8641722-.8735485 0-.2712971.1146497-.5042434.306688-.6597776.1540605-.1356486.3460988-.2329463.5761148-.2329463.1146497 0 .2493632.0198856.3453823.0781222.3074046.1349384.51879.4460069.51879.8146017 0 .2130606-.0773886.3884805-.1920383.5433045zm14.8564543-9.2368873c-.1153664.3494194-.4414015.6015411-.8254782.6015411-.0386942 0-.0960191 0-.1347133-.0198856-.2543191-.0383215-.4790885-.1847664-.6154262-.4009708-.1363375-.2162043-.1706574-.480624-.0939691-.7239892.1146499-.3693051.440685-.6214268.8247617-.6214268.0573246 0 .0960191 0 .1533438.0198857.4034238.077412.729459.4261212.729459.8735484.0171715.0921257.0038504.1872847-.0379777.2712972z" fill="#dec55a" fill-rule="nonzero"/></g></svg>