<?xml version="1.0" encoding="UTF-8"?>
<svg width="48px" height="48px" viewBox="0 0 48 48" version="1.1" xmlns="http://www.w3.org/2000/svg" xmlns:xlink="http://www.w3.org/1999/xlink">
    <title>BSC</title>
    <g id="Bridge" stroke="none" stroke-width="1" fill="none" fill-rule="evenodd">
        <g id="Blockchain" transform="translate(-29.000000, 0.000000)">
            <g id="BSC" transform="translate(29.000000, 0.000000)">
                <circle id="Oval" fill="#F3BA2F" cx="24" cy="24" r="24"></circle>
                <g id="Icons_x2F_icon-24_x2F_networks_x2F_binance_x5F_smart_x5F_chain" transform="translate(8.000000, 8.000000)" fill="#131415">
                    <path d="M22.2210663,18.5547967 L25.8413524,22.1658537 L16,32 L6.16905072,22.1658537 L9.7893368,18.5547967 L16,24.7674797 L22.2210663,18.5547967 Z M16,12.3317073 L19.6723017,16.0052033 L19.6723017,16.0052033 L19.6723017,16.0052033 L16,19.6786992 L12.3381014,16.0156098 L12.3381014,16.0052033 L12.3381014,16.0052033 L12.9830949,15.36 L13.2951886,15.0478049 L16,12.3317073 Z M3.62028609,12.3837398 L7.24057217,16.0052033 L3.62028609,19.6162602 L0,15.9947967 L3.62028609,12.3837398 Z M28.3797139,12.3837398 L32,16.0052033 L28.3797139,19.6162602 L24.7594278,15.9947967 L28.3797139,12.3837398 Z M16,0 L25.8309493,9.83414634 L22.2106632,13.4556098 L16,7.23252033 L9.7893368,13.4452033 L6.16905072,9.83414634 L16,0 Z" id="Combined-Shape"></path>
                </g>
            </g>
        </g>
    </g>
</svg>