<?xml version="1.0" encoding="UTF-8"?>
<svg xmlns:xodm="http://www.corel.com/coreldraw/odm/2003" xmlns="http://www.w3.org/2000/svg" xmlns:xlink="http://www.w3.org/1999/xlink" version="1.1" id="Layer_1" x="0px" y="0px" viewBox="0 0 2500 389" style="enable-background:new 0 0 2500 389;" xml:space="preserve">
<style type="text/css">
	.st0{fill:#08060B;}
	.st1{fill-rule:evenodd;clip-rule:evenodd;fill:#633001;}
	.st2{fill:#D1884F;}
	.st3{fill:#FEDC90;}
	.st4{fill:#633001;}
</style>
<g id="Layer_x0020_1">
	<g id="_1751002397712">
		<path class="st0" d="M477.4,299.7c-5.8,0-9.9-1.2-12.4-3.6c-2.2-2.4-3.3-6.2-3.3-11.5V110.1c0-5.2,1.2-9,3.6-11.5    c2.4-2.6,6.4-3.9,12.1-3.9h73.9c28.1,0,48.8,5.9,62.1,17.8c13.3,11.9,19.9,29.5,19.9,53c0,23.3-6.6,40.9-19.9,52.7    c-13.1,11.7-33.8,17.5-62.1,17.5h-28.6v48.8c0,5.2-1.2,9-3.6,11.5c-2.4,2.4-6.5,3.6-12.4,3.6H477.4z M546.4,192.1    c8.2,0,14.6-2.2,19-6.6c4.6-4.4,6.9-11,6.9-19.9c0-9-2.3-15.8-6.9-20.2c-4.4-4.4-10.7-6.6-19-6.6h-23.8v53.4H546.4z"></path>
		<path class="st0" d="M704.4,304.2c-18.9,0-34.1-6-45.5-18.1c-11.3-12.3-16.9-29.4-16.9-51.5c0-16.9,3.8-31.6,11.5-44.3    c7.8-12.7,18.8-22.4,32.9-29.2c14.3-7,30.7-10.5,49.1-10.5c15.3,0,28.7,1.7,40.4,5.1c11.9,3.2,22.7,7.9,32.6,14.2v120.6    c0,3.8-0.7,6.3-2.1,7.5c-1.4,1.2-4.2,1.8-8.4,1.8h-30.7c-2.2,0-3.9-0.3-5.1-0.9c-1.2-0.8-2.2-2-3-3.6l-3.9-9    c-5.8,6.2-12.9,10.8-21.1,13.6C725.9,302.7,716.1,304.2,704.4,304.2L704.4,304.2z M727,263.3c7.8,0,14-1.9,18.4-5.7    c4.4-3.8,6.6-9.3,6.6-16.3v-47c-3.8-1.8-8.6-2.7-14.5-2.7c-10.7,0-19.2,3.7-25.6,11.2c-6.2,7.4-9.3,17.9-9.3,31.3    C702.6,253.5,710.7,263.3,727,263.3L727,263.3z"></path>
		<path class="st0" d="M850.4,299.7c-5.8,0-10-1.2-12.4-3.6c-2.4-2.4-3.6-6.2-3.6-11.5V164.4c0-3.6,0.6-6,1.8-7.2    c1.4-1.4,4.2-2.1,8.4-2.1h31c2.4,0,4.2,0.4,5.4,1.2c1.4,0.6,2.2,1.8,2.4,3.6l1.5,9c5.6-5.6,13-10,22-13.3    c9.2-3.4,19.5-5.1,30.7-5.1c16.3,0,29.4,4.6,39.5,13.9c10.1,9,15.1,22.5,15.1,40.4v79.9c0,5.2-1.2,9-3.6,11.5    c-2.2,2.4-6.2,3.6-12.1,3.6h-29.2c-5.8,0-10-1.2-12.7-3.6c-2.4-2.4-3.6-6.2-3.6-11.5v-76c0-6-1.3-10.3-3.9-13    c-2.6-2.6-6.7-3.9-12.4-3.9c-6,0-10.9,1.6-14.5,4.8c-3.4,3.2-5.1,7.6-5.1,13.3v74.7c0,5.2-1.2,9-3.6,11.5    c-2.2,2.4-6.2,3.6-12.1,3.6L850.4,299.7L850.4,299.7z"></path>
		<path class="st0" d="M1098.9,304.2c-28.1,0-49.8-6.5-65.1-19.6c-15.3-13.1-22.9-32-22.9-57c0-15.3,3.5-28.7,10.6-40.4    c7-11.7,17.2-20.7,30.4-27.1c13.5-6.4,29.3-9.6,47.6-9.6c13.9,0,25.5,1.3,35,3.9c9.6,2.6,18.2,6.6,25.6,12.1    c2.2,1.4,3.3,3.2,3.3,5.4c0,1.6-0.8,3.7-2.4,6.3l-12.4,21.4c-1.4,2.8-3.1,4.2-5.1,4.2c-1.2,0-3.1-0.8-5.7-2.4    c-5.4-3.4-10.5-5.9-15.4-7.5c-4.6-1.6-10.5-2.4-17.5-2.4c-10,0-18.2,3.2-24.4,9.6c-6,6.4-9,15.3-9,26.5c0,11.5,3.1,20.3,9.3,26.5    c6.2,6,14.8,9,25.6,9c6.4,0,12.3-0.9,17.5-2.7c5.2-1.8,10.5-4.3,16-7.5c2.8-1.6,4.8-2.4,6-2.4c1.8,0,3.4,1.4,4.8,4.2l13.6,23.2    c1,2,1.5,3.6,1.5,4.8c0,1.8-1.2,3.5-3.6,5.1c-8.4,5.4-17.7,9.4-27.7,12.1C1124.6,302.8,1112.7,304.2,1098.9,304.2L1098.9,304.2z"></path>
		<path class="st0" d="M1242.2,304.2c-18.9,0-34.1-6-45.5-18.1c-11.3-12.3-16.9-29.4-16.9-51.5c0-16.9,3.8-31.6,11.5-44.3    c7.8-12.7,18.8-22.4,32.9-29.2c14.3-7,30.6-10.5,49.1-10.5c15.3,0,28.7,1.7,40.4,5.1c11.8,3.2,22.7,7.9,32.6,14.2v120.6    c0,3.8-0.7,6.3-2.1,7.5c-1.4,1.2-4.2,1.8-8.4,1.8h-30.7c-2.2,0-3.9-0.3-5.1-0.9c-1.2-0.8-2.2-2-3-3.6l-3.9-9    c-5.8,6.2-12.9,10.8-21.1,13.6C1263.7,302.7,1253.9,304.2,1242.2,304.2L1242.2,304.2z M1264.8,263.3c7.8,0,14-1.9,18.4-5.7    c4.4-3.8,6.6-9.3,6.6-16.3v-47c-3.8-1.8-8.6-2.7-14.5-2.7c-10.6,0-19.2,3.7-25.6,11.2c-6.2,7.4-9.3,17.9-9.3,31.3    C1240.4,253.5,1248.5,263.3,1264.8,263.3L1264.8,263.3z"></path>
		<path class="st0" d="M1535.6,288.3c1.4,1.6,2.1,3.4,2.1,5.4c0,1.8-0.6,3.3-1.8,4.5c-1.2,1-2.8,1.5-4.8,1.5h-46.7    c-2.8,0-4.9-0.2-6.3-0.6c-1.2-0.6-2.5-1.7-3.9-3.3l-41-55.8v44.6c0,5.2-1.2,9-3.6,11.5c-2.4,2.4-6.5,3.6-12.4,3.6h-29.2    c-5.8,0-10-1.2-12.4-3.6c-2.2-2.4-3.3-6.2-3.3-11.5V110.1c0-5.2,1.2-9,3.6-11.5c2.4-2.6,6.4-3.9,12.1-3.9h29.2    c5.8,0,10,1.3,12.4,3.9c2.4,2.4,3.6,6.2,3.6,11.5v101l39.8-51.8c1.2-1.6,2.5-2.7,3.9-3.3c1.4-0.6,3.5-0.9,6.3-0.9h46.7    c2,0,3.5,0.6,4.5,1.8c1.2,1,1.8,2.4,1.8,4.2c0,2-0.7,3.8-2.1,5.4l-51.5,59.1L1535.6,288.3L1535.6,288.3z"></path>
		<path class="st0" d="M1633.4,304.2c-16.9,0-32-2.8-45.2-8.4c-13.1-5.6-23.4-14.1-31.1-25.3c-7.6-11.3-11.5-25-11.5-41.3    c0-25.5,7.2-45,21.7-58.5c14.5-13.5,35.3-20.2,62.4-20.2c26.5,0,46.6,6.6,60.3,19.9c13.9,13.1,20.8,31.3,20.8,54.6    c0,10-4.4,15.1-13.3,15.1H1603c0,8.6,3.2,15.3,9.6,19.9c6.6,4.6,16.6,6.9,29.8,6.9c8.2,0,15.1-0.7,20.5-2.1    c5.6-1.6,11.3-3.9,16.9-6.9c2.4-1,4-1.5,4.8-1.5c1.8,0,3.3,1.2,4.5,3.6l10.2,19.3c1,2,1.5,3.5,1.5,4.5c0,1.8-1.2,3.5-3.6,5.1    c-8.2,5.4-17.6,9.3-28,11.8C1658.9,303,1646.9,304.2,1633.4,304.2L1633.4,304.2z M1656.6,210.2c0-7.6-2.2-13.6-6.6-17.8    c-4.4-4.2-11-6.3-19.9-6.3c-8.8,0-15.6,2.2-20.2,6.6c-4.6,4.2-6.9,10.1-6.9,17.5H1656.6z"></path>
		<path class="st0" d="M1814.2,304.2c-16.9,0-32.9-1.7-47.9-5.1c-15.1-3.6-27.2-8.6-36.5-15.1c-3.4-2.2-5.1-4.5-5.1-6.9    c0-1.6,0.6-3.3,1.8-5.1l14.8-23.5c1.6-2.4,3.2-3.6,4.8-3.6c1,0,2.7,0.7,5.1,2.1c7.4,4.2,15.9,7.6,25.3,10.2    c9.4,2.6,18.8,3.9,28,3.9c9.5,0,16.4-1.4,20.8-4.2c4.6-2.8,6.9-7.3,6.9-13.6c0-6-2.5-10.7-7.5-14.2c-4.8-3.4-14-7.7-27.4-13    c-20.3-7.6-36.2-16.2-47.6-25.6c-11.2-9.6-16.9-22.7-16.9-39.2c0-19.9,7.1-35.1,21.4-45.5c14.3-10.5,33.3-15.7,57-15.7    c16.5,0,30.5,1.5,42.2,4.5c11.9,2.8,21.9,7.2,30.1,13.3c3.4,2.6,5.1,5,5.1,7.2c0,1.4-0.6,3-1.8,4.8l-14.8,23.5    c-1.8,2.4-3.4,3.6-4.8,3.6c-1,0-2.7-0.7-5.1-2.1c-11.7-7.6-25.5-11.5-41.6-11.5c-8.6,0-15.3,1.4-19.9,4.2    c-4.6,2.8-6.9,7.4-6.9,13.9c0,4.4,1.2,8,3.6,10.9c2.4,2.8,5.6,5.3,9.6,7.5c4.2,2,10.7,4.6,19.3,7.8l5.7,2.1    c14.9,5.8,26.5,11.5,35,16.9c8.6,5.2,15.2,11.8,19.6,19.6c4.4,7.6,6.6,17.3,6.6,28.9c0,17.9-6.7,32.2-20.2,42.8    C1859.7,298.9,1840.1,304.2,1814.2,304.2L1814.2,304.2z"></path>
		<path class="st0" d="M1957.2,299.7c-3,0-5.3-0.5-6.9-1.5c-1.6-1-2.8-3-3.6-6L1907.8,162c-0.4-1.2-0.6-2.1-0.6-2.7    c0-2.8,2-4.2,6-4.2h39.8c2.6,0,4.5,0.5,5.7,1.5c1.2,0.8,2,2.2,2.4,4.2l16.3,68.4l20.5-55.2c1-2.4,2-4,3-4.8c1.2-1,3.2-1.5,6-1.5    h19c2.8,0,4.7,0.5,5.7,1.5c1.2,0.8,2.3,2.4,3.3,4.8l20.2,55.2l16.6-68.4c0.6-2,1.4-3.4,2.4-4.2c1-1,2.8-1.5,5.4-1.5h40.1    c4,0,6,1.4,6,4.2c0,0.6-0.2,1.5-0.6,2.7l-39.2,130.2c-0.8,3-2,5-3.6,6c-1.4,1-3.6,1.5-6.6,1.5h-29.5c-2.8,0-4.9-0.5-6.3-1.5    c-1.4-1.2-2.6-3.2-3.6-6l-19.9-54.6l-19.9,54.6c-0.8,2.8-2,4.8-3.6,6c-1.4,1-3.5,1.5-6.3,1.5L1957.2,299.7L1957.2,299.7z"></path>
		<path class="st0" d="M2202.1,304.2c-18.9,0-34.1-6-45.5-18.1c-11.3-12.3-16.9-29.4-16.9-51.5c0-16.9,3.8-31.6,11.5-44.3    c7.8-12.7,18.8-22.4,32.8-29.2c14.3-7,30.7-10.5,49.1-10.5c15.3,0,28.7,1.7,40.4,5.1c11.9,3.2,22.7,7.9,32.5,14.2v120.6    c0,3.8-0.7,6.3-2.1,7.5c-1.4,1.2-4.2,1.8-8.4,1.8h-30.7c-2.2,0-3.9-0.3-5.1-0.9c-1.2-0.8-2.2-2-3-3.6l-3.9-9    c-5.8,6.2-12.9,10.8-21.1,13.6C2223.6,302.7,2213.8,304.2,2202.1,304.2z M2224.8,263.3c7.8,0,14-1.9,18.4-5.7    c4.4-3.8,6.6-9.3,6.6-16.3v-47c-3.8-1.8-8.6-2.7-14.5-2.7c-10.7,0-19.2,3.7-25.6,11.2c-6.2,7.4-9.4,17.9-9.4,31.3    C2200.3,253.5,2208.5,263.3,2224.8,263.3L2224.8,263.3z"></path>
		<path class="st0" d="M2347.8,360.6c-5.8,0-9.9-1.2-12.4-3.6c-2.2-2.4-3.3-6.2-3.3-11.5V172.8c9-6.4,20.4-11.8,34.1-16    c13.7-4.2,27.9-6.3,42.8-6.3c60.7,0,91,25.7,91,77.2c0,23.3-6.4,41.9-19.3,55.8c-12.9,13.9-31,20.8-54.6,20.8    c-6.6,0-13.1-0.8-19.3-2.4c-6-1.6-11.1-3.8-15.1-6.6v50.3c0,5.2-1.2,9-3.6,11.5c-2.4,2.4-6.5,3.6-12.4,3.6L2347.8,360.6    L2347.8,360.6z M2413.2,263.5c8.7,0,15.1-3.2,19.3-9.6c4.4-6.6,6.6-15.5,6.6-26.5c0-13.1-2.6-22.2-7.8-27.4    c-5-5.4-12.9-8.1-23.5-8.1c-6.8,0-12.3,0.9-16.3,2.7v47.9c0,6.8,1.9,12.1,5.7,15.7C2401,261.7,2406.4,263.5,2413.2,263.5z"></path>
		<path class="st1" d="M185,388.7c-57.1,0-103.1-13.7-135.3-38.4C17.3,325.5,0,290.1,0,250.1c0-38.5,17.2-66.3,36.7-85.1    c15.3-14.7,32.1-24.1,43.8-29.6c-2.7-8.1-6-18.8-8.9-29.8c-4-14.7-7.9-32-7.9-44.7c0-15,3.3-30,12.1-41.7    c9.3-12.4,23.3-19,40.2-19c13.2,0,24.4,4.9,33.1,13.3c8.4,8.1,13.9,18.8,17.8,29.9c6.8,19.6,9.4,44.2,10.1,68.8h16.2    c0.7-24.6,3.4-49.2,10.1-68.8c3.8-11.2,9.4-21.9,17.8-29.9c8.8-8.4,20-13.3,33.1-13.3c16.9,0,30.9,6.6,40.2,19    c8.8,11.7,12.1,26.8,12.1,41.7c0,12.7-3.9,29.9-7.8,44.7c-3,11-6.3,21.7-8.9,29.8c11.7,5.4,28.6,14.9,43.8,29.6    c19.5,18.8,36.7,46.6,36.7,85.1c0,40-17.3,75.3-49.8,100.2c-32.1,24.6-78.1,38.3-135.3,38.4H185L185,388.7z"></path>
		<path class="st2" d="M116,14.5C91.3,14.5,80,33.1,80,58.9c0,20.5,13.2,61.4,18.6,77.4c1.2,3.6-0.7,7.5-4.2,8.9    C74.6,153,16.2,181.9,16.2,248c0,69.6,59.4,122.2,168.8,122.2c0,0,0.1,0,0.1,0c0,0,0.1,0,0.1,0c109.5-0.1,168.8-52.6,168.8-122.2    c0-66.1-58.4-95-78.2-102.9c-3.5-1.4-5.4-5.3-4.2-8.9c5.4-16,18.6-56.9,18.6-77.4c0-25.7-11.4-44.4-36.1-44.4    c-35.6,0-44.4,50.9-45.1,105.5c0,3.6-3,6.6-6.6,6.6h-35c-3.6,0-6.5-3-6.6-6.6C160.4,65.4,151.6,14.5,116,14.5L116,14.5z"></path>
		<path class="st3" d="M185.3,348c-80.4,0-169-43.5-169.1-99.8c0,0.1,0,0.2,0,0.3c0,69.7,59.5,122.2,169.1,122.2    s169.1-52.5,169.1-122.2c0-0.1,0-0.2,0-0.3C354.3,304.5,265.7,348,185.3,348z"></path>
		<path class="st4" d="M140.6,230.9c0,19-8.9,28.9-19.9,28.9s-19.9-9.9-19.9-28.9s8.9-28.9,19.9-28.9S140.6,211.9,140.6,230.9z"></path>
		<path class="st4" d="M269.7,230.9c0,19-8.9,28.9-19.9,28.9s-19.9-9.9-19.9-28.9s8.9-28.9,19.9-28.9S269.7,211.9,269.7,230.9z"></path>
	</g>
</g>
</svg>
