<svg class="icon-size" xmlns="http://www.w3.org/2000/svg" width="44" height="43" viewBox="0 0 44 43" fill="none"><path fill="#fff" d="M20.393.036C31.05-.575 40.562 6.618 42.798 16.98c.61 2.845.634 5.787.074 8.644-1.399 7.047-6.24 12.931-12.912 15.702-4.547 1.896-9.746 2.16-14.471.765C9.014 40.176 3.803 35.374 1.4 29.104a21.44 21.44 0 0 1-.382-14.148C3.741 6.477 11.448.544 20.393.036Z"/><path fill="#4189C9" d="M8.324 19.929c.087.391.136.789.222 1.187.056.238.13.183.253.079.24-.196.468-.41.733-.569.074.012.117.074.154.129.702.911 1.632 1.468 2.735 1.767.505.141 1.029.233 1.553.288a2.408 2.408 0 0 1-.407-.612c-.179-.391-.117-.74.185-1.052.363-.38.837-.538 1.324-.66 1.017-.264 2.052-.288 3.093-.215.837.055 1.663.196 2.476.422.678.19 1.337.41 1.934.79.087.067.142.159.222.226.77.82 1.22 1.786 1.25 2.905.02.771-.196 1.511-.584 2.19-.703 1.224-1.731 2.117-2.957 2.796a10.54 10.54 0 0 1-4.042 1.266c-2.538.275-4.897-.275-7.06-1.615-1.798-1.113-3.184-2.636-4.312-4.398a20.856 20.856 0 0 1-1.386-2.618c-.049-.11-.061-.232-.11-.324.03.11.092.226-.025.342-.037-.459.006-.911.03-1.364.062-1.254.26-2.496.586-3.7A17.974 17.974 0 0 1 19.9 4.036c2.686-.245 5.285.104 7.824.997-.389.728-2.588 2.673-4.3 3.805-.05-.49-.16-.973-.333-1.438-.006-.122.105-.159.172-.22.358-.306.715-.606 1.072-.905.037-.031.074-.062.105-.092.043-.043.11-.08.092-.147-.012-.067-.092-.067-.154-.08a2.781 2.781 0 0 0-.505-.06c-.234-.025-.468-.08-.702-.086-.185-.013-.363-.055-.542-.043a2.11 2.11 0 0 1-.277-.018c-.154-.05-.315-.025-.469-.025-.092 0-.184-.006-.283 0-.271.012-.536-.03-.807.018-.068.013-.13.019-.197.019-.08 0-.154.006-.234 0a.728.728 0 0 0-.302.03c-.283.025-.567.05-.844.098-.339.074-.684.086-1.017.172-.308.079-.622.122-.924.226-.4.11-.8.232-1.195.367-.573.226-1.158.434-1.706.728a15.595 15.595 0 0 0-3.431 2.257 16.439 16.439 0 0 0-2.57 2.777c-.369.514-.714 1.046-1.016 1.603-.197.36-.382.728-.554 1.1-.123.288-.271.57-.37.87-.123.3-.222.605-.32.917-.117.312-.185.636-.271.948-.037.122-.062.25-.093.38-.037.152-.061.305-.092.458-.05.257-.092.52-.13.783-.049.27-.08.539-.098.814-.043.177-.012.367-.043.55-.05.227-.019.459-.03.685-.007.16-.013.318-.007.478 0 .067-.03.159.037.19.08.036.135-.05.197-.093.197-.159.388-.324.58-.489.646-.55 1.299-1.095 1.946-1.646.055-.036.117-.159.215-.036Z"/><path fill="#262F71" d="M22.573 21.532c-.764-.453-1.595-.71-2.451-.912a12.212 12.212 0 0 0-3.432-.312c-.813.043-1.62.153-2.372.508a1.762 1.762 0 0 0-.258.147c-.61.403-.703.942-.259 1.523.092.122.19.232.314.379-.394 0-.745-.073-1.09-.14-.93-.184-1.805-.502-2.557-1.102-.363-.287-.69-.605-.93-1.01.099-.158.265-.232.419-.323.296-.123.567-.3.862-.435 1.313-.6 2.717-.966 4.152-1.1.573-.056 1.146-.11 1.725-.086 1.7.067 3.389.36 5.009.868.419.129.831.276 1.269.416 0-.122-.068-.195-.117-.275a6.117 6.117 0 0 0-.598-.838c-.08-.098-.197-.177-.19-.324.227.055.461.104.69.159.06.012.135.049.172 0 .055-.067-.025-.123-.062-.171-.339-.502-.758-.93-1.213-1.328.24-.14.486-.024.72.006 2.397.306 4.577 1.15 6.481 2.63 2.52 1.964 4.146 4.497 4.836 7.616.222 1.04.29 2.11.21 3.169-.136 1.841-.721 3.542-1.818 5.053-.074.098-.172.177-.222.293-.246.367-.616.618-.948.887-1.818 1.468-3.943 2.233-6.229 2.588a19.32 19.32 0 0 1-5.378.091 17.79 17.79 0 0 1-7.848-2.942c-.573-.385-1.134-.783-1.633-1.26-.018-.012-.018-.037-.006-.055l.007-.006c.104-.043.172.037.246.085a11.729 11.729 0 0 0 4.004 1.933c.487.123.974.22 1.473.294.11.043.234.019.345.043a.22.22 0 0 1 .067.012c1.121.135 2.243.055 3.351-.14 2.434-.429 4.602-1.438 6.45-3.071 1.263-1.108 2.261-2.417 2.791-4.031.53-1.615.456-3.187-.29-4.741-.154.697-.517 1.272-.979 1.798a6.442 6.442 0 0 1-1.608 1.297c-.068.043-.148.116-.228.055-.067-.055-.03-.147-.006-.214.148-.483.247-.979.302-1.48.216-2.11-.604-3.756-2.298-4.998a7.8 7.8 0 0 0-.875-.556Z"/><path fill="#161F42" d="M15.55 37.6a9.553 9.553 0 0 1-1.841-.372 12.358 12.358 0 0 1-3.198-1.487c-.234-.153-.437-.36-.69-.483-.148-.018-.21-.165-.326-.226-2.489-2.196-4.19-4.894-5.163-8.044a16.82 16.82 0 0 1-.757-4.723c.006-.122.012-.238.024-.428.124.27.216.477.315.692.893 1.95 2.039 3.725 3.616 5.205 1.675 1.572 3.628 2.624 5.926 2.991 2.692.435 5.212-.03 7.528-1.474 1.158-.722 2.1-1.645 2.649-2.912.66-1.535.413-2.96-.598-4.275-.086-.117-.184-.227-.27-.337.116-.104.184.019.252.074a5.094 5.094 0 0 1 1.392 1.829c.308.679.475 1.407.48 2.153.013.758-.16 1.51-.492 2.196a.292.292 0 0 0 .197-.074c.32-.183.622-.397.905-.636.087-.073.167-.19.309-.171a10.113 10.113 0 0 1-.376 1.7c.37-.207.727-.44 1.066-.703.264-.208.48-.465.745-.679.11.049.11.16.136.25.424 1.53.116 2.955-.641 4.301-.924 1.633-2.28 2.85-3.857 3.836a13.023 13.023 0 0 1-4.146 1.682 8.71 8.71 0 0 1-2.815.165c-.123-.067-.252.006-.37-.05Z"/><path fill="#4189C9" d="M38.837 26.26a12.922 12.922 0 0 0-1.282-5.04 13.315 13.315 0 0 0-1.872-2.857c-.672-.79-1.442-1.462-2.255-2.104.074-.074.172-.062.259-.05 1.133.13 2.242.392 3.314.784.265.098.524.214.77.354.086.043.172.092.259.147.018.012.03.043.061.037a.085.085 0 0 1-.012-.086c-.727-.942-1.614-1.73-2.538-2.477a18.293 18.293 0 0 0-3.585-2.257 17.667 17.667 0 0 0-5.643-1.676c-.173-.025-.358 0-.524-.062-.012-.116.086-.152.154-.208 1.152-.954 2.076-2.08 2.73-3.419a9.16 9.16 0 0 0 .498-1.254c.037-.122.062-.257.185-.33a17.755 17.755 0 0 1 5.452 4.037 17.774 17.774 0 0 1 4.103 16.516c-.043.018-.05-.024-.074-.055Z"/><path fill="#161F42" d="M31.857 35.943c0-.177.142-.281.234-.41.844-1.193 1.355-2.514 1.62-3.945.167-.887.179-1.78.124-2.667-.093-1.364-.444-2.68-.998-3.94a13.31 13.31 0 0 0-1.522-2.605 13.407 13.407 0 0 0-2.23-2.3 12.772 12.772 0 0 0-4.35-2.331 12.575 12.575 0 0 0-2.599-.532c-.16-.012-.314-.055-.48-.043-.561-.41-1.134-.807-1.775-1.095l.006-.061c.228 0 .462.006.69 0 3.228-.055 6.21.728 8.81 2.68 2.692 2.024 4.38 4.697 5.008 8 .536 2.814.123 5.475-1.454 7.916-.308.495-.647.954-1.084 1.333ZM29.368 5.762c-.32.985-.727 1.927-1.312 2.79-.585.868-1.3 1.645-2.12 2.305-.048.037-.091.08-.135.123-.283.14-.517.36-.776.532a16.215 16.215 0 0 1-3.043 1.56l-.08.018c-.05-.067.006-.092.037-.122.604-.575.98-1.279 1.232-2.062a.3.3 0 0 1 .197-.22c1.879-.74 3.382-1.964 4.608-3.542.11-.14.222-.287.357-.47-.382-.007-.671.183-.991.232-.062.006-.142.055-.154-.062a13.088 13.088 0 0 0 2.575-4.624c.03-.11 0-.257.153-.312.013.006.019.018.013.03 0 .013-.006.019-.006.019a14.394 14.394 0 0 1-.512 3.585c-.018.067-.03.14-.043.22Z"/><path fill="#161F42" d="M22.062 18.522c.382.416.715.88.992 1.376.024.05.092.104.03.16-.049.042-.098-.013-.147-.031a21.485 21.485 0 0 0-3.857-1.04c-.665-.116-1.336-.165-2.008-.214a12.014 12.014 0 0 0-1.817.024c-1.38.11-2.723.404-4.004.954-.395.172-.795.325-1.165.551-.043.024-.092.067-.141.006a12.193 12.193 0 0 1 3.646-1.737c1.8-.532 3.629-.66 5.496-.52.948.073 1.89.22 2.815.428a.61.61 0 0 1 .16.043Z"/><path fill="#5C94CE" d="M21.6 5.664h.277c.148.061.314-.018.462.043h.277c.025.134-.086.19-.16.25-1.281 1.077-2.55 2.16-3.831 3.23-.425.355-.844.71-1.263 1.065a.396.396 0 0 0-.148.171c-.555.208-1.072.465-1.479.911-.19.215-.32.46-.455.704-.382.245-.703.569-1.048.856-.912.759-1.811 1.536-2.723 2.288-.074.061-.13.153-.215.202-.154-.233-.123-.49-.087-.74.117-.19.296-.306.456-.447.887-.746 1.768-1.492 2.65-2.239.862-.728 1.718-1.456 2.58-2.177.992-.832 1.978-1.67 2.97-2.508.548-.465 1.096-.936 1.657-1.389.086-.055.142-.11.08-.22Z"/><path fill="#161F42" d="M37.814 17.415c-1.084-.52-2.236-.844-3.419-1.034-.32-.049-.634-.116-.955-.116-.412-.257-.819-.533-1.244-.777a13.06 13.06 0 0 0-4.448-1.578l-.099-.037c.469-.086 2.077.153 3.185.459a15.03 15.03 0 0 1 2.988 1.162c-.098-.3-.283-.495-.394-.734-.012-.061-.099-.116-.043-.184.055-.067.13.006.185.031.16.073.314.159.474.232a21.732 21.732 0 0 1 3.783 2.478c.061.08.061.08-.013.098Z"/><path fill="#6497D0" d="M21.6 5.664c.03.067.117.018.16.092-.259.22-.517.446-.776.666l-1.423 1.193c-.671.563-1.343 1.132-2.02 1.695-.469.391-.925.795-1.393 1.192-.567.478-1.14.949-1.7 1.426-.45.379-.893.764-1.343 1.144l-1.423 1.193-.475.397.136-.6c-.074-.195.086-.28.191-.372.431-.355.856-.722 1.281-1.083.998-.838 1.99-1.682 2.988-2.52l2.569-2.166c.795-.673 1.596-1.34 2.384-2.025.062-.055.179-.116.006-.183.277-.098.56-.025.838-.05Z"/><path fill="#689AD1" d="M20.768 5.713c.062.012.136-.025.204.03-.16.239-.4.392-.616.575-.604.527-1.22 1.04-1.83 1.554-.56.471-1.127.936-1.688 1.407-.56.471-1.121.96-1.688 1.438-.567.477-1.127.935-1.688 1.406-.56.472-1.121.955-1.688 1.438-.166.147-.394.245-.437.495-.296.037-.456.282-.672.44-.345.246-.61.582-.924.857-.32.227-.603.496-.9.747-.886.746-1.767 1.498-2.654 2.238-.123.104-.234.227-.37.312-.062.037-.117.11-.203.05a.974.974 0 0 1 .092-.46c.444-.28.813-.654 1.214-.984 1.103-.918 2.193-1.848 3.29-2.771 1.096-.924 2.174-1.842 3.264-2.76l3.198-2.697c1.09-.917 2.18-1.835 3.265-2.759.215-.183.443-.354.647-.55l.184-.006Z"/><path fill="#4E8FCC" d="M23.17 5.756c.253-.006.494.06.74.091.068.147-.061.202-.135.27-.308.269-.629.52-.93.795-.031-.043-.068-.086-.1-.129-.067-.098-.116-.073-.16.019-.363.777-.985 1.315-1.669 1.792-.764.532-1.59.979-2.458 1.333-.05-.085-.05-.091.031-.17.166-.172.357-.313.536-.466 1.312-1.107 2.624-2.208 3.93-3.327.074-.062.142-.135.216-.208Z"/><path fill="#5591CD" d="M23.17 5.756a.266.266 0 0 1-.11.19c-.844.709-1.688 1.425-2.532 2.134-.647.545-1.287 1.095-1.934 1.646-.056.049-.167.085-.136.201-.406.19-.825.361-1.25.502-.142-.037-.025-.092 0-.116.252-.22.505-.44.764-.655.468-.397.942-.795 1.416-1.192.469-.392.937-.783 1.399-1.175.462-.391.93-.79 1.392-1.187.148-.128.333-.226.431-.403.191-.013.376.049.56.055Z"/><path fill="#161F42" d="M19.894 11.273c.486-.238.998-.44 1.423-.789.086-.006.08.05.055.104-.394 1.615-1.626 2.68-3.296 2.832-.32.03-.64.068-.967.037.043-.116.154-.11.246-.135.364-.097.721-.201 1.06-.373.628-.324 1.09-.801 1.355-1.456a.413.413 0 0 1 .124-.22Z"/><path fill="#418AC9" d="M19.894 11.273c-.204.771-.696 1.303-1.38 1.688-.438.245-.924.361-1.405.496-.117-.343.012-.63.216-.893.24-.306.573-.496.924-.655a15.723 15.723 0 0 1 1.645-.636Z"/><path fill="#6497D0" d="M5.614 18.693c.27-.098.45-.33.665-.508.696-.568 1.38-1.15 2.064-1.724a77.17 77.17 0 0 0 1.072-.924c.098-.086.185-.178.326-.19-.37.459-.72.93-.985 1.462-.709.593-1.417 1.193-2.12 1.792-.326.276-.659.545-.98.832-.048.043-.104.098-.178.037.013-.257.056-.52.136-.777Z"/><path fill="#468CCA" d="M8.324 19.929c-.215.018-.314.208-.462.324-.61.49-1.195.991-1.786 1.499-.197.171-.388.342-.598.501-.135.104-.19.061-.185-.098v-.575c.216-.232.469-.41.709-.611.69-.581 1.367-1.169 2.07-1.738.061-.049.11-.14.215-.079l.037.777Z"/><path fill="#5591CD" d="M11.294 15.396a.244.244 0 0 1 .117-.19l1.663-1.394c.456-.38.906-.771 1.361-1.156.24-.202.475-.41.709-.612.043-.037.086-.067.13 0-.05.208-.112.416-.105.636-.247.27-.549.483-.826.722a809.32 809.32 0 0 1-2.587 2.19c-.037.03-.062.067-.093.104a.487.487 0 0 1-.37-.3Z"/><path fill="#5C94CE" d="M5.472 19.476c.197-.061.314-.232.468-.355.813-.666 1.608-1.345 2.415-2.024.13-.104.216-.263.407-.282a8.902 8.902 0 0 0-.37 1.101c-.142-.012-.215.098-.308.178-.838.715-1.682 1.419-2.52 2.128-.049.043-.098.104-.178.08a2.855 2.855 0 0 1 .086-.826Z"/><path fill="#4E8FCC" d="M11.663 15.696c-.055-.104.037-.135.093-.178.708-.599 1.417-1.199 2.125-1.792.4-.336.8-.673 1.207-1.01a.362.362 0 0 1 .087-.03c0 .19.03.373.086.55-.24.282-.548.49-.825.729-.623.532-1.245 1.058-1.88 1.584a.226.226 0 0 0-.092.122c-.265.098-.53.135-.8.025ZM8.275 19.158c-.259.147-.468.361-.696.55-.604.49-1.195.992-1.78 1.5-.16.14-.308.293-.512.385.025-.245-.049-.496.043-.734.912-.771 1.824-1.542 2.742-2.313.061-.055.13-.116.222-.073l-.019.685Z"/><path fill="#5591CD" d="M8.3 18.467c-.296.153-.518.398-.77.605-.598.49-1.177.991-1.768 1.48-.13.11-.222.282-.42.3.025-.183-.049-.373.05-.55.573-.49 1.152-.979 1.731-1.462.388-.33.782-.654 1.177-.985.123-.104.092.012.098.067-.043.178-.067.361-.098.545Z"/><path fill="#488DCA" d="M12.464 15.678c-.086-.062-.024-.105.019-.147.542-.453 1.09-.906 1.632-1.358.339-.282.672-.57 1.01-.857a.237.237 0 0 1 .136-.08l.136.276c-.105.165-.278.263-.4.416-.666.734-1.418 1.352-2.36 1.707-.056.018-.111.03-.173.043Z"/><path fill="#468CCA" d="M22.844 6.918c.087-.257.358-.337.518-.52.172-.196.45-.281.554-.55.204 0 .395.054.586.085.166.03.178.104.061.208-.252.22-.505.447-.758.66l-.72.606c-.087-.165-.167-.33-.24-.49Z"/><path fill="#428AC9" d="M11.435 17.378c.043.104-.08.153-.067.245-.062-.282-.216-.386-.5-.33-.301.067-.572.22-.776.452-.055.061-.123.116-.184.171-.05-.06 0-.116.018-.171.123-.398.394-.679.733-.905a.735.735 0 0 1 .253-.116c.394-.092.61.097.554.495a.284.284 0 0 1-.03.159Z"/><path fill="#182144" d="M11.435 17.378c0-.061.006-.122.006-.183.007-.398-.221-.551-.597-.38-.431.196-.702.545-.893.967-.043.006-.068-.006-.056-.055.136-.502.4-.912.838-1.205a.992.992 0 0 1 .357-.141.385.385 0 0 1 .456.281.87.87 0 0 1-.11.716Z"/><path fill="#458CCA" d="M14.996 13.928c-.08-.061-.006-.086.03-.116.13-.092.204-.251.364-.3.21.33.542.477.894.6.067.024.141.042.258.073-.536.14-.998.086-1.423-.202a.156.156 0 0 0-.123-.055Z"/><path fill="#63657D" d="M34.038 14.833c-.173-.018-.296-.134-.45-.19-.062-.024-.117-.097-.178-.048-.05.043.03.104.012.165-.093-.08-.13-.202-.179-.318.277.11.548.22.795.391Z"/><path fill="#263154" d="M37.814 17.415c.05-.03 0-.068.006-.104l.265.146.142.184c-.173-.049-.29-.147-.413-.226Z"/><path fill="#A09AA9" d="M27.2 13.793a.939.939 0 0 1 .37.025c-.148.085-.247.073-.37-.025Z"/><path fill="#424A7F" d="M9.495 35.026c.142.024.21.165.326.226l-.006.055a.786.786 0 0 1-.32-.281Z"/><path fill="#8CB7DE" d="m38.837 26.26.08.049c.012.092-.03.171-.08.281v-.33Z"/><path fill="#5A5D76" d="M27.188 6.857c.03.067.104.043.154.06l-.247.099c-.018-.104.043-.129.093-.16Z"/><path fill="#4F668A" d="m9.901 17.727.056.055c-.012.043-.03.091-.043.134l-.099.129c.025-.153.031-.245.086-.318Z"/><path fill="#555A73" d="M21.372 10.582c-.012-.037-.006-.086-.055-.104.012-.037.055-.086.074-.067.055.055.03.116-.019.171Z"/><path fill="#6D9CD2" d="M5.799 17.867c.061-.33.129-.66.277-.966.542-.38 1.022-.832 1.528-1.254.874-.734 1.75-1.468 2.618-2.208.795-.673 1.59-1.346 2.39-2.019l2.587-2.184c.783-.66 1.571-1.321 2.354-1.988.548-.465 1.108-.923 1.645-1.4.289-.068.579-.105.874-.092.025-.025.062-.025.093-.013.067.11-.019.172-.087.233-.745.624-1.484 1.254-2.23 1.884-.794.667-1.583 1.333-2.377 2.006-.734.618-1.46 1.236-2.194 1.854-.887.752-1.78 1.498-2.673 2.25-1.11.93-2.212 1.873-3.32 2.802-.432.361-.85.728-1.288 1.077-.037.043-.111.183-.197.018Z"/><path fill="#729FD4" d="M19.197 5.847c-.08.257-.326.355-.505.514-.585.514-1.189 1.01-1.78 1.511-.665.557-1.337 1.113-2.002 1.676-.58.49-1.146.985-1.725 1.474-.56.471-1.128.936-1.688 1.413-.56.478-1.115.955-1.676 1.426-.56.47-1.12.942-1.688 1.413-.462.391-.918.783-1.38 1.174-.184.16-.375.312-.566.465-.043.03-.08.05-.117 0a3.69 3.69 0 0 1 .32-.917c.425-.27.782-.618 1.164-.936.875-.734 1.75-1.468 2.618-2.209.9-.764 1.805-1.529 2.705-2.287.745-.63 1.49-1.254 2.23-1.884.967-.814 1.928-1.64 2.902-2.447a.43.43 0 0 0 .16-.19c.338-.134.69-.128 1.028-.196Z"/><path fill="#78A2D5" d="M18.181 6.03c.142.038.025.093 0 .117-.259.233-.524.465-.795.691l-1.404 1.175a508.98 508.98 0 0 0-2.052 1.719c-.56.47-1.115.954-1.675 1.425-.58.49-1.158.973-1.738 1.456-.56.47-1.115.948-1.675 1.425L7.16 15.451c-.203.171-.407.343-.616.514-.043.03-.086.11-.148.024.062-.312.228-.587.37-.868.758-.643 1.521-1.285 2.285-1.933.783-.667 1.571-1.328 2.354-1.988a614.41 614.41 0 0 1 2.248-1.896l2.372-2.007c.407-.342.807-.703 1.232-1.04.29-.134.61-.171.924-.226Z"/><path fill="#7DA5D6" d="M17.257 6.257c-.296.38-.69.643-1.047.955-.469.403-.943.8-1.417 1.198-.462.386-.924.771-1.386 1.163-.462.391-.918.783-1.38 1.168-.462.392-.937.783-1.405 1.175-.456.385-.905.77-1.361 1.156-.58.489-1.158.972-1.737 1.456-.204.17-.413.342-.617.513a.237.237 0 0 1-.141.068c.148-.386.332-.753.554-1.101 1.054-.85 2.082-1.738 3.117-2.612 1.202-1.016 2.403-2.02 3.598-3.04.672-.576 1.374-1.126 2.027-1.732a7.729 7.729 0 0 1 1.195-.367Z"/><path fill="#81A7D8" d="M16.056 6.63c.049.08-.037.104-.074.141-.512.447-1.029.887-1.546 1.327-.456.386-.912.765-1.368 1.15-.567.478-1.134.955-1.7 1.426-.462.391-.918.783-1.38 1.168-.58.49-1.158.973-1.731 1.456-.24.202-.48.41-.715.612a.403.403 0 0 1-.222.11 9.422 9.422 0 0 1 1.017-1.603c.357-.263.684-.563 1.022-.844.881-.74 1.756-1.48 2.63-2.22.678-.576 1.356-1.15 2.034-1.72.104-.085.234-.146.314-.262.542-.337 1.133-.533 1.719-.74Z"/><path fill="#0E1F66" d="M25.801 27.092c-.462.38-.924.765-1.54 1.027.179-.354.315-.727.407-1.113.363-1.59.024-3.04-.918-4.355-.234-.324-.548-.575-.826-.863-.043-.049-.092-.104-.172-.067-.086-.043-.123-.122-.185-.183.037-.05.08-.025.123 0 1.115.63 2.046 1.443 2.619 2.612.277.575.45 1.199.505 1.835.037.367.03.74-.013 1.107Z"/><path fill="#699AD1" d="M5.799 17.867c.184.068.246-.116.338-.19.937-.77 1.86-1.553 2.785-2.342.875-.74 1.737-1.487 2.612-2.227.973-.82 1.953-1.633 2.932-2.453.875-.74 1.744-1.486 2.618-2.226.943-.795 1.886-1.597 2.834-2.398.099-.08.234-.122.253-.275.055-.05.13.006.185-.043h.234c-.068.245-.308.33-.475.477-.48.428-.98.832-1.466 1.242-.56.47-1.127.942-1.688 1.413-.456.385-.905.77-1.361 1.156-.672.563-1.35 1.125-2.015 1.694-.456.386-.905.771-1.361 1.156-.58.49-1.158.973-1.737 1.456-.456.386-.906.771-1.362 1.156l-1.404 1.175c-.469.391-.93.795-1.399 1.187-.16.134-.332.269-.499.403-.037.03-.074.055-.117 0 0-.116.031-.244.093-.36Z"/><path fill="#88ABD9" d="M14.343 7.358c-.037.22-.252.276-.388.398-.474.422-.961.82-1.448 1.23-.566.477-1.133.948-1.7 1.425-.456.385-.906.77-1.361 1.156-.333.281-.66.563-.992.844-.037.03-.074.055-.117 0 .24-.367.511-.716.807-1.046 1.084-1.254 2.322-2.343 3.739-3.218.474-.287.943-.587 1.46-.789Z"/><path fill="#5591CD" d="M22.34 5.713c-.155-.019-.315.049-.463-.043.154.018.314-.049.462.043Z"/><path fill="#689AD1" d="M20.35 5.713c-.05.067-.124.037-.185.043h-.093c.087-.08.185-.03.277-.043Z"/><path fill="#0E1F66" d="M15.914 37.644c1.51.067 3.012-.172 4.423-.691a13.295 13.295 0 0 0 3.795-2.123c1.115-.9 2.076-1.927 2.717-3.218a6.15 6.15 0 0 0 .628-2.202c.062-.691-.055-1.346-.246-1.994.018-.159.166-.232.252-.343.333-.434.573-.899.678-1.437.018-.073.043-.14.074-.208.21.416.376.85.493 1.297.16.63.252 1.272.203 1.92a7.537 7.537 0 0 1-.992 3.2c-.567.99-1.294 1.835-2.131 2.593a12.257 12.257 0 0 1-2.428 1.683 13.548 13.548 0 0 1-3.345 1.266c-.727.171-1.472.275-2.217.318-.364.018-.721.049-1.079.03-.264-.024-.548-.006-.825-.091Z"/></svg>