<svg class="icon-size" width="33" height="39" viewBox="0 0 33 39" fill="none" xmlns="http://www.w3.org/2000/svg">
<g clip-path="url(#clip0_809_2)">
<path d="M12.9411 8.87461C12.5294 8.81424 12.5098 8.79412 12.7059 8.774C13.0784 8.71362 13.9411 8.79412 14.549 8.93499C15.9608 9.27709 17.2353 10.1625 18.5882 11.7121L18.9411 12.1347L19.451 12.0542C21.6274 11.692 23.8627 11.9737 25.7255 12.8591C26.2353 13.1006 27.0392 13.5836 27.1372 13.7043C27.1764 13.7446 27.2353 14.0062 27.2745 14.2678C27.4117 15.2136 27.3529 15.918 27.0588 16.4613C26.9019 16.7632 26.9019 16.8437 27 17.1053C27.0784 17.3065 27.3137 17.4474 27.5294 17.4474C28 17.4474 28.4902 16.6827 28.7255 15.6161L28.8235 15.1935L29 15.3947C30 16.5418 30.7843 18.1316 30.9019 19.2585L30.9412 19.5604L30.7647 19.2988C30.4706 18.8359 30.1961 18.5341 29.8235 18.2724C29.1568 17.8096 28.451 17.6687 26.5882 17.5681C24.9019 17.4675 23.9412 17.3266 23 17.0046C21.3921 16.4613 20.5686 15.757 18.6666 13.161C17.8235 12.0139 17.2941 11.3901 16.7647 10.8669C15.6078 9.71982 14.451 9.1161 12.9411 8.87461Z" fill="#FF007A"/>
<path d="M27.549 11.4303C27.5882 10.6656 27.6863 10.1625 27.902 9.69969C27.9804 9.51857 28.0588 9.35758 28.0784 9.35758C28.098 9.35758 28.0588 9.49845 28 9.65944C27.8431 10.1022 27.8235 10.726 27.9216 11.4303C28.0588 12.3359 28.1176 12.4567 29.0588 13.4427C29.4902 13.9056 30 14.4892 30.1961 14.7306L30.5294 15.1734L30.1961 14.8514C29.7843 14.4489 28.8431 13.6842 28.6274 13.5836C28.4902 13.5031 28.4706 13.5031 28.3725 13.6037C28.2941 13.6842 28.2745 13.805 28.2745 14.3885C28.2549 15.2941 28.1373 15.8576 27.8431 16.4412C27.6863 16.743 27.6667 16.6827 27.8039 16.3406C27.902 16.0789 27.9216 15.9582 27.9216 15.0929C27.9216 13.3421 27.7255 12.9195 26.5294 12.2152C26.2353 12.0341 25.7255 11.7724 25.4314 11.6316C25.1176 11.4907 24.8824 11.37 24.902 11.37C24.9412 11.3297 26.098 11.6718 26.549 11.8731C27.2353 12.1548 27.3529 12.1749 27.4314 12.1548C27.4902 12.0944 27.5294 11.9334 27.549 11.4303Z" fill="#FF007A"/>
<path d="M13.7451 14.4288C12.9216 13.2616 12.3921 11.4505 12.5098 10.1022L12.549 9.67957L12.7451 9.71981C13.098 9.78018 13.7059 10.0217 14 10.2028C14.7843 10.6858 15.1372 11.3498 15.4706 13C15.5686 13.483 15.7059 14.0464 15.7647 14.2276C15.8627 14.5294 16.2353 15.2337 16.549 15.6765C16.7647 15.9985 16.6274 16.1594 16.1372 16.1192C15.3921 16.0387 14.3921 15.3344 13.7451 14.4288Z" fill="#FF007A"/>
<path d="M26.549 23.1827C22.6667 21.5728 21.2941 20.1842 21.2941 17.8297C21.2941 17.4876 21.3137 17.2059 21.3137 17.2059C21.3333 17.2059 21.4706 17.3266 21.6471 17.4675C22.4314 18.1115 23.3137 18.3932 25.7647 18.7554C27.1961 18.9768 28.0196 19.1378 28.7647 19.3994C31.1373 20.2043 32.6079 21.8545 32.9608 24.0882C33.0588 24.7322 33 25.9597 32.8431 26.6037C32.7059 27.1068 32.3137 28.0325 32.2157 28.0526C32.1961 28.0526 32.1569 27.952 32.1569 27.791C32.1177 26.9458 31.7059 26.1409 31.0196 25.517C30.1961 24.7926 29.1373 24.2492 26.549 23.1827Z" fill="#FF007A"/>
<path d="M23.8039 23.8467C23.7647 23.5449 23.6667 23.1625 23.6079 23.0015L23.5098 22.6997L23.6863 22.9211C23.9412 23.2229 24.1373 23.5851 24.3138 24.0882C24.451 24.4706 24.451 24.5913 24.451 25.2152C24.451 25.8189 24.4314 25.9598 24.3138 26.3019C24.1177 26.8452 23.8824 27.2276 23.4902 27.6502C22.7843 28.3947 21.8628 28.7972 20.549 28.9783C20.3138 28.9985 19.6471 29.0588 19.0588 29.0991C17.5883 29.1796 16.6079 29.3406 15.7255 29.6625C15.6079 29.7028 15.4902 29.743 15.4706 29.7229C15.4314 29.6827 16.0392 29.3204 16.5294 29.0789C17.2157 28.7368 17.9216 28.5557 19.4706 28.274C20.2353 28.1533 21.0196 27.9923 21.2157 27.9118C23.1569 27.2879 24.1177 25.7384 23.8039 23.8467Z" fill="#FF007A"/>
<path d="M25.5882 27.0867C25.0784 25.9396 24.9608 24.8529 25.2353 23.8266C25.2745 23.726 25.3137 23.6254 25.353 23.6254C25.3922 23.6254 25.5098 23.6858 25.6275 23.7663C25.8628 23.9272 26.353 24.209 27.6079 24.9133C29.1961 25.7988 30.098 26.483 30.7255 27.2678C31.2745 27.952 31.6079 28.7368 31.7647 29.7028C31.8628 30.2461 31.8039 31.5542 31.6667 32.0975C31.2353 33.8081 30.2549 35.1765 28.8235 35.9613C28.6079 36.082 28.4314 36.1625 28.4118 36.1625C28.3922 36.1625 28.4706 35.9613 28.5882 35.7198C29.0588 34.6935 29.1177 33.7074 28.7647 32.6006C28.549 31.9164 28.098 31.0913 27.1961 29.7028C26.1177 28.0929 25.8628 27.6703 25.5882 27.0867Z" fill="#FF007A"/>
<path d="M10.9804 33.2446C12.4313 31.9969 14.2157 31.1115 15.8627 30.8297C16.5686 30.709 17.7451 30.7492 18.3921 30.9303C19.4313 31.2121 20.3725 31.8158 20.8627 32.5604C21.3333 33.2848 21.549 33.9087 21.7647 35.2972C21.8431 35.8406 21.9412 36.404 21.9608 36.5248C22.1176 37.2492 22.4313 37.8127 22.8235 38.1145C23.4313 38.5774 24.4902 38.5975 25.5294 38.195C25.7059 38.1347 25.8627 38.0743 25.8627 38.0944C25.9019 38.1347 25.3725 38.4969 25.0196 38.678C24.5294 38.9396 24.1372 39.0201 23.6078 39.0201C22.6666 39.0201 21.8627 38.517 21.2157 37.5108C21.0784 37.3096 20.8039 36.726 20.5686 36.1827C19.8823 34.5526 19.5294 34.0697 18.7255 33.5263C18.0196 33.0635 17.1176 32.9628 16.4313 33.305C15.5294 33.7477 15.2941 34.935 15.9215 35.6594C16.1764 35.9613 16.647 36.2028 17.0392 36.2632C17.7647 36.3638 18.3921 35.7802 18.3921 35.0356C18.3921 34.5526 18.2157 34.2709 17.7451 34.0495C17.1176 33.7678 16.4313 34.0898 16.451 34.7136C16.451 34.9752 16.5686 35.1362 16.8235 35.257C16.9804 35.3375 16.9804 35.3375 16.8627 35.3173C16.2941 35.1966 16.1568 34.4721 16.6078 34.0093C17.1568 33.4458 18.3137 33.6873 18.7059 34.4721C18.8627 34.7941 18.8823 35.4381 18.7451 35.8406C18.4117 36.726 17.4706 37.1889 16.5098 36.9272C15.8627 36.7461 15.5882 36.565 14.8039 35.7399C13.4313 34.291 12.9019 34.0093 10.9412 33.7074L10.5686 33.6471L10.9804 33.2446Z" fill="#FF007A"/>
<path fill-rule="evenodd" clip-rule="evenodd" d="M0.666379 0.865325C5.23501 6.56037 12.2742 15.4149 12.6272 15.8978C12.9213 16.3003 12.8036 16.6827 12.3134 16.9644C12.0389 17.1254 11.4703 17.2864 11.1958 17.2864C10.8821 17.2864 10.5095 17.1254 10.2546 16.8638C10.0781 16.6827 9.31344 15.5356 7.58795 12.7786C6.27422 10.6656 5.15658 8.91486 5.13697 8.89474C5.05854 8.85449 5.05854 8.85449 7.45069 13.2415C8.9605 15.9985 9.45069 16.9845 9.45069 17.1053C9.45069 17.3669 9.37226 17.5077 9.05854 17.87C8.52912 18.4737 8.29383 19.1579 8.11736 20.5867C7.92128 22.1765 7.39187 23.3034 5.88207 25.2152C4.99971 26.3421 4.86246 26.5433 4.64677 27.0062C4.37226 27.5697 4.29383 27.8916 4.25461 28.6161C4.2154 29.3808 4.29383 29.8638 4.50952 30.5882C4.70559 31.2322 4.92128 31.6548 5.45069 32.4799C5.90167 33.2043 6.17618 33.7477 6.17618 33.9489C6.17618 34.1099 6.2154 34.1099 6.92128 33.9489C8.60756 33.5464 9.99971 32.8622 10.7644 32.017C11.235 31.4938 11.3527 31.2121 11.3527 30.4876C11.3527 30.0248 11.333 29.9241 11.2154 29.6424C11.0193 29.1997 10.6468 28.8375 9.84285 28.274C8.78403 27.5294 8.33305 26.9257 8.2154 26.1207C8.11736 25.4365 8.23501 24.9737 8.82324 23.7059C9.43108 22.3978 9.58795 21.8545 9.68599 20.5263C9.74481 19.6811 9.84285 19.339 10.0781 19.0774C10.333 18.7957 10.5487 18.695 11.1566 18.6146C12.1566 18.4737 12.8036 18.2121 13.3134 17.709C13.7644 17.2864 13.9605 16.8638 13.9801 16.2399L13.9997 15.7771L13.7448 15.4954C12.8232 14.4087 0.058536 0 -0.000287502 0C-0.0198953 0 0.29383 0.382353 0.666379 0.865325ZM6.68599 29.4814C6.90167 29.0991 6.78403 28.6161 6.43108 28.3746C6.09775 28.1533 5.58795 28.2539 5.58795 28.5557C5.58795 28.6362 5.62716 28.7167 5.74481 28.757C5.92128 28.8576 5.94089 28.9582 5.80363 29.1796C5.66638 29.4009 5.66638 29.6022 5.84285 29.743C6.11736 29.9644 6.48991 29.8437 6.68599 29.4814Z" fill="#FF007A"/>
<path fill-rule="evenodd" clip-rule="evenodd" d="M14.6274 18.8963C14.1568 19.0372 13.7059 19.5604 13.5686 20.0836C13.4902 20.4056 13.5294 20.9892 13.6666 21.1703C13.8823 21.452 14.0784 21.5325 14.6274 21.5325C15.7059 21.5325 16.6274 21.0495 16.7255 20.4659C16.8235 19.983 16.4117 19.3189 15.8431 19.017C15.549 18.856 14.9411 18.7957 14.6274 18.8963ZM15.8823 19.9025C16.0392 19.661 15.9804 19.3994 15.6862 19.2183C15.1568 18.8762 14.3529 19.1579 14.3529 19.6811C14.3529 19.9427 14.7647 20.2245 15.1568 20.2245C15.4117 20.2245 15.7647 20.0635 15.8823 19.9025Z" fill="#FF007A"/>
</g>
<defs>
<clipPath id="clip0_809_2">
<rect width="33" height="39" fill="white"/>
</clipPath>
</defs>
</svg>
