<?xml version="1.0" encoding="UTF-8"?>
<svg width="1394px" height="200px" viewBox="0 0 1394 200" version="1.1" xmlns="http://www.w3.org/2000/svg" xmlns:xlink="http://www.w3.org/1999/xlink">
    <title>Archethic Public Blockchain - Gradient</title>
    <defs>
        <linearGradient x1="50%" y1="0%" x2="50%" y2="100%" id="linearGradient-1">
            <stop stop-color="#00A4DB" offset="0%"></stop>
            <stop stop-color="#CC00FF" offset="100%"></stop>
        </linearGradient>
        <path d="M22.6701513,7.25002993 C25.7663062,7.25002993 28.4032856,8.33991782 30.5810895,10.5196936 C32.785132,12.7257317 33.8871532,15.37823 33.8871532,18.4771883 C33.8871532,21.5761466 32.785132,24.2286449 30.5810895,26.434683 C28.4032856,28.6144588 25.7663062,29.7043467 22.6701513,29.7043467 L3.58156904,29.7043467 C2.5845022,29.7043467 1.74486697,30.0588885 1.06266334,30.7679722 C0.354221114,31.4770559 0,32.3305825 0,33.3285522 L0,52.9859277 C0,53.9838973 0.354221114,54.8242928 1.06266334,55.5071141 C1.74486697,56.2161978 2.5845022,56.5707397 3.58156904,56.5707397 C4.57863588,56.5707397 5.43139041,56.2161978 6.13983264,55.5071141 C6.84827486,54.8242928 7.20249598,53.9838973 7.20249598,52.9859277 L7.20249598,36.9133641 L22.6701513,36.9133641 C27.7342013,36.9133641 32.0635704,35.1143926 35.6582588,31.5164494 C39.2791857,27.9185063 41.0896492,23.5720859 41.0896492,18.4771883 C41.0896492,13.4085531 39.2791857,9.06213268 35.6582588,5.43792718 C32.0635704,1.83998403 27.7342013,0.0410124507 22.6701513,0.0410124507 L3.58156904,0.0410124507 C2.5845022,0.0410124507 1.74486697,0.395554294 1.06266334,1.10463798 C0.354221114,1.81372167 0,2.65411715 0,3.62582442 C0,4.62379405 0.354221114,5.47732071 1.06266334,6.1864044 C1.74486697,6.89548809 2.5845022,7.25002993 3.58156904,7.25002993 L22.6701513,7.25002993 Z" id="path-2"></path>
        <linearGradient x1="50%" y1="0%" x2="50%" y2="100%" id="linearGradient-3">
            <stop stop-color="#00A4DB" offset="0%"></stop>
            <stop stop-color="#CC00FF" offset="100%"></stop>
        </linearGradient>
        <path d="M75.903025,56.5707397 C81.8329488,56.5707397 86.9101181,54.4566198 91.1345329,50.22838 C95.3589477,46.0264026 97.471155,40.9446362 97.471155,34.9830808 L97.471155,3.62582442 C97.471155,2.65411715 97.1169339,1.81372167 96.4084917,1.10463798 C95.7000495,0.395554294 94.8472949,0.0410124507 93.8502281,0.0410124507 C92.8793999,0.0410124507 92.0397646,0.395554294 91.3313224,1.10463798 C90.6228802,1.81372167 90.2686591,2.65411715 90.2686591,3.62582442 L90.2686591,34.9830808 C90.2686591,38.9486969 88.8648939,42.3365412 86.0573636,45.1466136 C83.2498333,47.956686 79.8650538,49.3617222 75.903025,49.3617222 C71.9409963,49.3617222 68.5562167,47.956686 65.7486864,45.1466136 C62.9411561,42.3365412 61.537391,38.9486969 61.537391,34.9830808 L61.537391,3.62582442 C61.537391,2.65411715 61.1831698,1.81372167 60.4747276,1.10463798 C59.7662854,0.395554294 58.9135309,0.0410124507 57.916464,0.0410124507 C56.9193972,0.0410124507 56.0797619,0.395554294 55.3975583,1.10463798 C54.6891161,1.81372167 54.334895,2.65411715 54.334895,3.62582442 L54.334895,34.9830808 C54.334895,40.9446362 56.4471024,46.0264026 60.6715171,50.22838 C64.8696933,54.4566198 69.9468626,56.5707397 75.903025,56.5707397 Z" id="path-4"></path>
        <path d="M117.918897,31.9103848 L137.912711,31.9103848 C140.326662,31.9103848 142.386392,32.7639115 144.091901,34.4709648 C145.79741,36.1780181 146.650165,38.2396133 146.650165,40.6557503 C146.650165,43.0456249 145.79741,45.0940889 144.091901,46.8011422 C142.386392,48.5081955 140.326662,49.3617222 137.912711,49.3617222 L117.918897,49.3617222 L117.918897,31.9103848 Z M117.918897,7.25002993 L133.819489,7.25002993 C136.23344,7.25002993 138.29317,8.10355659 139.99868,9.81060991 C141.704189,11.5176632 142.556943,13.5661272 142.556943,15.9560019 C142.556943,18.3721389 141.704189,20.433734 139.99868,22.1407873 C138.29317,23.8478407 136.23344,24.7013673 133.819489,24.7013673 L117.918897,24.7013673 L117.918897,7.25002993 Z M137.912711,56.5707397 C142.320796,56.5707397 146.072916,55.0081293 149.169071,51.8829086 C152.291464,48.7839503 153.852661,45.0415642 153.852661,40.6557503 C153.852661,37.6881037 153.091741,34.9436872 151.569903,32.4225008 C150.074302,29.9801014 148.080169,28.0629492 145.587502,26.6710442 C148.342555,23.650873 149.720081,20.0791922 149.720081,15.9560019 C149.720081,11.5701879 148.172004,7.82780182 145.075849,4.72884349 C141.953455,1.6036228 138.201335,0.0410124507 133.819489,0.0410124507 L114.29797,0.0410124507 C113.300903,0.0410124507 112.461268,0.395554294 111.779064,1.10463798 C111.070622,1.81372167 110.716401,2.65411715 110.716401,3.62582442 L110.716401,52.9859277 C110.716401,53.9838973 111.070622,54.8242928 111.779064,55.5071141 C112.461268,56.2161978 113.300903,56.5707397 114.29797,56.5707397 L137.912711,56.5707397 Z" id="path-5"></path>
        <linearGradient x1="50%" y1="0%" x2="50%" y2="100%" id="linearGradient-6">
            <stop stop-color="#00A4DB" offset="0%"></stop>
            <stop stop-color="#CC00FF" offset="100%"></stop>
        </linearGradient>
        <path d="M205.589934,56.5707397 C206.587001,56.5707397 207.439756,56.2161978 208.148198,55.5071141 C208.85664,54.8242928 209.210861,53.9838973 209.210861,52.9859277 C209.210861,51.9879581 208.85664,51.1344314 208.148198,50.4253477 C207.439756,49.716264 206.587001,49.3617222 205.589934,49.3617222 L174.300403,49.3617222 L174.300403,3.62582442 C174.300403,2.65411715 173.946182,1.81372167 173.237739,1.10463798 C172.529297,0.395554294 171.676543,0.0410124507 170.679476,0.0410124507 C169.682409,0.0410124507 168.842774,0.395554294 168.16057,1.10463798 C167.452128,1.81372167 167.097907,2.65411715 167.097907,3.62582442 L167.097907,52.9859277 C167.097907,53.9838973 167.452128,54.8242928 168.16057,55.5071141 C168.842774,56.2161978 169.682409,56.5707397 170.679476,56.5707397 L205.589934,56.5707397 Z" id="path-7"></path>
        <linearGradient x1="50%" y1="0%" x2="50%" y2="100%" id="linearGradient-8">
            <stop stop-color="#00A4DB" offset="0%"></stop>
            <stop stop-color="#CC00FF" offset="100%"></stop>
        </linearGradient>
        <path d="M226.037676,56.5707397 C227.034743,56.5707397 227.887498,56.2161978 228.59594,55.5071141 C229.304382,54.8242928 229.658603,53.9838973 229.658603,52.9859277 L229.658603,3.62582442 C229.658603,2.65411715 229.304382,1.81372167 228.59594,1.10463798 C227.887498,0.395554294 227.034743,0.0410124507 226.037676,0.0410124507 C225.040609,0.0410124507 224.200974,0.395554294 223.51877,1.10463798 C222.810328,1.81372167 222.456107,2.65411715 222.456107,3.62582442 L222.456107,52.9859277 C222.456107,53.9838973 222.810328,54.8242928 223.51877,55.5071141 C224.200974,56.2161978 225.040609,56.5707397 226.037676,56.5707397 Z" id="path-9"></path>
        <linearGradient x1="50%" y1="0%" x2="50%" y2="100%" id="linearGradient-10">
            <stop stop-color="#00A4DB" offset="0%"></stop>
            <stop stop-color="#CC00FF" offset="100%"></stop>
        </linearGradient>
        <path d="M271.123464,56.5707397 C278.942567,56.5707397 285.607172,53.813192 291.117278,48.2980967 C291.82572,47.589013 292.179942,46.7354863 292.179942,45.7375167 C292.179942,44.7395471 291.82572,43.8991516 291.117278,43.2163302 C290.408836,42.5072466 289.556081,42.1527047 288.559015,42.1527047 C287.561948,42.1527047 286.722313,42.5072466 286.040109,43.2163302 C281.920649,47.3132582 276.948434,49.3617222 271.123464,49.3617222 C265.324733,49.3617222 260.365638,47.3132582 256.246177,43.2163302 C252.152956,39.0931399 250.106345,34.1295541 250.106345,28.3255728 C250.106345,22.4953292 252.152956,17.5186122 256.246177,13.3954219 C260.365638,9.29849391 265.324733,7.25002993 271.123464,7.25002993 C276.948434,7.25002993 281.920649,9.29849391 286.040109,13.3954219 C286.722313,14.1045056 287.561948,14.4590474 288.559015,14.4590474 C289.556081,14.4590474 290.408836,14.1045056 291.117278,13.3954219 C291.82572,12.7126006 292.179942,11.8722051 292.179942,10.8742354 C292.179942,9.87626581 291.82572,9.02273915 291.117278,8.31365546 C285.607172,2.79856012 278.942567,0.0410124507 271.123464,0.0410124507 C263.3306,0.0410124507 256.679114,2.79856012 251.169008,8.31365546 C245.658902,13.8287508 242.903849,20.4993899 242.903849,28.3255728 C242.903849,36.1254934 245.658902,42.7830013 251.169008,48.2980967 C256.679114,53.813192 263.3306,56.5707397 271.123464,56.5707397 Z" id="path-11"></path>
        <path d="M337.995163,31.9103848 L357.988977,31.9103848 C360.402928,31.9103848 362.462658,32.7639115 364.168167,34.4709648 C365.873676,36.1780181 366.726431,38.2396133 366.726431,40.6557503 C366.726431,43.0456249 365.873676,45.0940889 364.168167,46.8011422 C362.462658,48.5081955 360.402928,49.3617222 357.988977,49.3617222 L337.995163,49.3617222 L337.995163,31.9103848 Z M337.995163,7.25002993 L353.895755,7.25002993 C356.309706,7.25002993 358.369436,8.10355659 360.074946,9.81060991 C361.780455,11.5176632 362.633209,13.5661272 362.633209,15.9560019 C362.633209,18.3721389 361.780455,20.433734 360.074946,22.1407873 C358.369436,23.8478407 356.309706,24.7013673 353.895755,24.7013673 L337.995163,24.7013673 L337.995163,7.25002993 Z M357.988977,56.5707397 C362.397062,56.5707397 366.149182,55.0081293 369.245337,51.8829086 C372.36773,48.7839503 373.928927,45.0415642 373.928927,40.6557503 C373.928927,37.6881037 373.168007,34.9436872 371.646169,32.4225008 C370.150568,29.9801014 368.156435,28.0629492 365.663768,26.6710442 C368.418821,23.650873 369.796347,20.0791922 369.796347,15.9560019 C369.796347,11.5701879 368.24827,7.82780182 365.152115,4.72884349 C362.029721,1.6036228 358.277601,0.0410124507 353.895755,0.0410124507 L334.374236,0.0410124507 C333.377169,0.0410124507 332.537534,0.395554294 331.85533,1.10463798 C331.146888,1.81372167 330.792667,2.65411715 330.792667,3.62582442 L330.792667,52.9859277 C330.792667,53.9838973 331.146888,54.8242928 331.85533,55.5071141 C332.537534,56.2161978 333.377169,56.5707397 334.374236,56.5707397 L357.988977,56.5707397 Z" id="path-12"></path>
        <path d="M425.6662,56.5707397 C426.663267,56.5707397 427.516022,56.2161978 428.224464,55.5071141 C428.932906,54.8242928 429.287127,53.9838973 429.287127,52.9859277 C429.287127,51.9879581 428.932906,51.1344314 428.224464,50.4253477 C427.516022,49.716264 426.663267,49.3617222 425.6662,49.3617222 L394.376669,49.3617222 L394.376669,3.62582442 C394.376669,2.65411715 394.022448,1.81372167 393.314005,1.10463798 C392.605563,0.395554294 391.752809,0.0410124507 390.755742,0.0410124507 C389.758675,0.0410124507 388.91904,0.395554294 388.236836,1.10463798 C387.528394,1.81372167 387.174173,2.65411715 387.174173,3.62582442 L387.174173,52.9859277 C387.174173,53.9838973 387.528394,54.8242928 388.236836,55.5071141 C388.91904,56.2161978 389.758675,56.5707397 390.755742,56.5707397 L425.6662,56.5707397 Z" id="path-13"></path>
        <linearGradient x1="50%" y1="0%" x2="50%" y2="100%" id="linearGradient-14">
            <stop stop-color="#00A4DB" offset="0%"></stop>
            <stop stop-color="#CC00FF" offset="100%"></stop>
        </linearGradient>
        <path d="M465.635461,7.25002993 C471.460431,7.25002993 476.419526,9.31162509 480.512748,13.4348154 C484.632208,17.5317434 486.691939,22.4953292 486.691939,28.3255728 C486.691939,34.1295541 484.632208,39.0931399 480.512748,43.2163302 C476.419526,47.3132582 471.460431,49.3617222 465.635461,49.3617222 C459.83673,49.3617222 454.877635,47.3132582 450.758175,43.2163302 C446.664953,39.0931399 444.618342,34.1295541 444.618342,28.3255728 C444.618342,22.4953292 446.664953,17.5317434 450.758175,13.4348154 C454.877635,9.31162509 459.83673,7.25002993 465.635461,7.25002993 Z M465.635461,56.5707397 C473.454564,56.5707397 480.119169,53.813192 485.629275,48.2980967 C491.139381,42.7830013 493.894435,36.1254934 493.894435,28.3255728 C493.894435,20.4993899 491.139381,13.8287508 485.629275,8.31365546 C480.119169,2.79856012 473.454564,0.0410124507 465.635461,0.0410124507 C457.842597,0.0410124507 451.191111,2.79856012 445.681005,8.31365546 C440.170899,13.8287508 437.415846,20.4993899 437.415846,28.3255728 C437.415846,36.1254934 440.170899,42.7830013 445.681005,48.2980967 C451.191111,53.813192 457.842597,56.5707397 465.635461,56.5707397 Z" id="path-15"></path>
        <path d="M535.359296,56.5707397 C543.178399,56.5707397 549.843004,53.813192 555.35311,48.2980967 C556.061552,47.589013 556.415773,46.7354863 556.415773,45.7375167 C556.415773,44.7395471 556.061552,43.8991516 555.35311,43.2163302 C554.644667,42.5072466 553.791913,42.1527047 552.794846,42.1527047 C551.797779,42.1527047 550.958144,42.5072466 550.27594,43.2163302 C546.15648,47.3132582 541.184265,49.3617222 535.359296,49.3617222 C529.560565,49.3617222 524.601469,47.3132582 520.482009,43.2163302 C516.388787,39.0931399 514.342176,34.1295541 514.342176,28.3255728 C514.342176,22.4953292 516.388787,17.5186122 520.482009,13.3954219 C524.601469,9.29849391 529.560565,7.25002993 535.359296,7.25002993 C541.184265,7.25002993 546.15648,9.29849391 550.27594,13.3954219 C550.958144,14.1045056 551.797779,14.4590474 552.794846,14.4590474 C553.791913,14.4590474 554.644667,14.1045056 555.35311,13.3954219 C556.061552,12.7126006 556.415773,11.8722051 556.415773,10.8742354 C556.415773,9.87626581 556.061552,9.02273915 555.35311,8.31365546 C549.843004,2.79856012 543.178399,0.0410124507 535.359296,0.0410124507 C527.566431,0.0410124507 520.914946,2.79856012 515.40484,8.31365546 C509.894733,13.8287508 507.13968,20.4993899 507.13968,28.3255728 C507.13968,36.1254934 509.894733,42.7830013 515.40484,48.2980967 C520.914946,53.813192 527.566431,56.5707397 535.359296,56.5707397 Z" id="path-16"></path>
        <linearGradient x1="50%" y1="0%" x2="50%" y2="100%" id="linearGradient-17">
            <stop stop-color="#00A4DB" offset="0%"></stop>
            <stop stop-color="#CC00FF" offset="100%"></stop>
        </linearGradient>
        <path d="M569.661019,52.9859277 C569.661019,53.9838973 570.01524,54.8242928 570.723682,55.5071141 C571.405886,56.2161978 572.245521,56.5707397 573.242588,56.5707397 C574.239655,56.5707397 575.092409,56.2161978 575.800851,55.5071141 C576.509294,54.8242928 576.863515,53.9838973 576.863515,52.9859277 L576.863515,35.0224743 L581.114168,31.1619076 L603.469456,55.4283271 C604.177898,56.1899355 605.056892,56.5707397 606.106436,56.5707397 C607.051025,56.5707397 607.864422,56.2555914 608.546626,55.6252948 C609.281306,54.9424734 609.661766,54.102078 609.688005,53.1041083 C609.740482,52.132401 609.425619,51.2788744 608.743415,50.5435283 L586.427485,26.3558959 L608.507268,6.30458501 C609.241948,5.64802605 609.635527,4.82076174 609.688005,3.82279211 C609.740482,2.82482248 609.438738,1.95816464 608.782773,1.22281859 C608.100569,0.48747255 607.274053,0.0935371682 606.303225,0.0410124507 C605.306158,-0.0115122669 604.440284,0.303636038 603.705604,0.986457366 L576.863515,25.3316639 L576.863515,3.62582442 C576.863515,2.65411715 576.509294,1.81372167 575.800851,1.10463798 C575.092409,0.395554294 574.239655,0.0410124507 573.242588,0.0410124507 C572.245521,0.0410124507 571.405886,0.395554294 570.723682,1.10463798 C570.01524,1.81372167 569.661019,2.65411715 569.661019,3.62582442 L569.661019,52.9859277 Z" id="path-18"></path>
        <path d="M651.231582,56.5707397 C659.050685,56.5707397 665.715289,53.813192 671.225396,48.2980967 C671.933838,47.589013 672.288059,46.7354863 672.288059,45.7375167 C672.288059,44.7395471 671.933838,43.8991516 671.225396,43.2163302 C670.516953,42.5072466 669.664199,42.1527047 668.667132,42.1527047 C667.670065,42.1527047 666.83043,42.5072466 666.148226,43.2163302 C662.028766,47.3132582 657.056551,49.3617222 651.231582,49.3617222 C645.432851,49.3617222 640.473755,47.3132582 636.354295,43.2163302 C632.261073,39.0931399 630.214462,34.1295541 630.214462,28.3255728 C630.214462,22.4953292 632.261073,17.5186122 636.354295,13.3954219 C640.473755,9.29849391 645.432851,7.25002993 651.231582,7.25002993 C657.056551,7.25002993 662.028766,9.29849391 666.148226,13.3954219 C666.83043,14.1045056 667.670065,14.4590474 668.667132,14.4590474 C669.664199,14.4590474 670.516953,14.1045056 671.225396,13.3954219 C671.933838,12.7126006 672.288059,11.8722051 672.288059,10.8742354 C672.288059,9.87626581 671.933838,9.02273915 671.225396,8.31365546 C665.715289,2.79856012 659.050685,0.0410124507 651.231582,0.0410124507 C643.438717,0.0410124507 636.787232,2.79856012 631.277126,8.31365546 C625.767019,13.8287508 623.011966,20.4993899 623.011966,28.3255728 C623.011966,36.1254934 625.767019,42.7830013 631.277126,48.2980967 C636.787232,53.813192 643.438717,56.5707397 651.231582,56.5707397 Z" id="path-19"></path>
        <path d="M689.114874,56.5707397 C690.111941,56.5707397 690.964695,56.2161978 691.673137,55.5071141 C692.38158,54.8242928 692.735801,53.9838973 692.735801,52.9859277 L692.735801,31.9103848 L721.467069,31.9103848 L721.467069,52.9859277 C721.467069,53.9838973 721.82129,54.8242928 722.529732,55.5071141 C723.238174,56.2161978 724.07781,56.5707397 725.048638,56.5707397 C726.045705,56.5707397 726.898459,56.2161978 727.606902,55.5071141 C728.315344,54.8242928 728.669565,53.9838973 728.669565,52.9859277 L728.669565,3.62582442 C728.669565,2.65411715 728.315344,1.81372167 727.606902,1.10463798 C726.898459,0.395554294 726.045705,0.0410124507 725.048638,0.0410124507 C724.07781,0.0410124507 723.238174,0.395554294 722.529732,1.10463798 C721.82129,1.81372167 721.467069,2.65411715 721.467069,3.62582442 L721.467069,24.7013673 L692.735801,24.7013673 L692.735801,3.62582442 C692.735801,2.65411715 692.38158,1.81372167 691.673137,1.10463798 C690.964695,0.395554294 690.111941,0.0410124507 689.114874,0.0410124507 C688.117807,0.0410124507 687.278172,0.395554294 686.595968,1.10463798 C685.887526,1.81372167 685.533305,2.65411715 685.533305,3.62582442 L685.533305,52.9859277 C685.533305,53.9838973 685.887526,54.8242928 686.595968,55.5071141 C687.278172,56.2161978 688.117807,56.5707397 689.114874,56.5707397 Z" id="path-20"></path>
        <linearGradient x1="50%" y1="0%" x2="50%" y2="100%" id="linearGradient-21">
            <stop stop-color="#00A4DB" offset="0%"></stop>
            <stop stop-color="#CC00FF" offset="100%"></stop>
        </linearGradient>
        <path d="M758.484487,32.9346168 L767.340015,12.6075511 L776.234901,32.9346168 L758.484487,32.9346168 Z M770.646079,2.20765705 C770.016352,0.763227316 768.914331,0.0410124507 767.340015,0.0410124507 C765.791938,0.0410124507 764.703036,0.763227316 764.073309,2.20765705 L742.505179,51.5283668 C742.1116,52.421287 742.098481,53.3404695 742.465821,54.2859145 C742.806923,55.205097 743.436649,55.861656 744.355001,56.2555914 C745.273352,56.6495268 746.191703,56.6626579 747.110054,56.2949849 C748.028405,55.9535742 748.68437,55.3232776 749.077949,54.4040951 L755.335855,40.1042407 L779.383533,40.1042407 L785.641439,54.4040951 C786.271166,55.8485248 787.360068,56.5707397 788.908145,56.5707397 C789.406678,56.5707397 789.892093,56.4656902 790.364387,56.2555914 C791.282738,55.861656 791.912465,55.205097 792.253567,54.2859145 C792.620907,53.3404695 792.607788,52.421287 792.214209,51.5283668 L770.646079,2.20765705 Z" id="path-22"></path>
        <path d="M809.631392,56.5707397 C810.628459,56.5707397 811.481214,56.2161978 812.189656,55.5071141 C812.898098,54.8242928 813.252319,53.9838973 813.252319,52.9859277 L813.252319,3.62582442 C813.252319,2.65411715 812.898098,1.81372167 812.189656,1.10463798 C811.481214,0.395554294 810.628459,0.0410124507 809.631392,0.0410124507 C808.634325,0.0410124507 807.79469,0.395554294 807.112486,1.10463798 C806.404044,1.81372167 806.049823,2.65411715 806.049823,3.62582442 L806.049823,52.9859277 C806.049823,53.9838973 806.404044,54.8242928 807.112486,55.5071141 C807.79469,56.2161978 808.634325,56.5707397 809.631392,56.5707397 Z" id="path-23"></path>
        <linearGradient x1="50%" y1="0%" x2="50%" y2="100%" id="linearGradient-24">
            <stop stop-color="#00A4DB" offset="0%"></stop>
            <stop stop-color="#CC00FF" offset="100%"></stop>
        </linearGradient>
        <path d="M830.079134,56.5707397 C831.076201,56.5707397 831.928955,56.2161978 832.637397,55.5071141 C833.34584,54.8242928 833.700061,53.9838973 833.700061,52.9859277 L833.700061,14.1832926 L865.22574,55.1525723 C865.960421,56.0980172 866.91813,56.5707397 868.098867,56.5707397 C868.492446,56.5707397 868.872905,56.5050838 869.240246,56.373772 C870.867039,55.8222625 871.680436,54.692981 871.680436,52.9859277 L871.680436,3.62582442 C871.680436,2.65411715 871.326215,1.81372167 870.617772,1.10463798 C869.90933,0.395554294 869.069695,0.0410124507 868.098867,0.0410124507 C867.1018,0.0410124507 866.249045,0.395554294 865.540603,1.10463798 C864.832161,1.81372167 864.47794,2.65411715 864.47794,3.62582442 L864.47794,42.4284595 L832.952261,1.45917982 C831.902717,0.0935371682 830.564548,-0.313529393 828.937755,0.237980141 C827.310961,0.789489675 826.497565,1.9187711 826.497565,3.62582442 L826.497565,52.9859277 C826.497565,53.9838973 826.851786,54.8242928 827.560228,55.5071141 C828.242432,56.2161978 829.082067,56.5707397 830.079134,56.5707397 Z" id="path-25"></path>
        <linearGradient x1="50%" y1="0%" x2="50%" y2="100%" id="linearGradient-26">
            <stop stop-color="#00A4DB" offset="0%"></stop>
            <stop stop-color="#CC00FF" offset="100%"></stop>
        </linearGradient>
        <path d="M90.9093109,100.369108 C92.2041528,98.3530853 92.3720026,96.2650622 91.4128605,94.1050384 L51.9921186,3.9600437 C50.8411481,1.32001457 48.8269496,0 45.9495232,0 C43.1200539,0 41.1298339,1.32001457 39.9788634,3.9600437 L0.558121503,94.1050384 C-0.161235101,95.7850569 -0.185213654,97.4650755 0.486185842,99.145094 C1.10962823,100.825113 2.2605988,102.025126 3.93909754,102.745134 C4.80232546,103.129138 5.68953194,103.32114 6.60071697,103.32114 C9.43018628,103.32114 11.4204062,102.001126 12.5713768,99.3610964 L45.9495232,22.9682534 L75.3712083,90.1449947 L36.5978873,90.1449947 C34.7755173,90.1449947 33.2169113,90.7930019 31.9220694,92.0890162 C30.6751846,93.3850305 30.0517422,94.9450477 30.0517422,96.7690678 C30.0517422,98.5450874 30.6751846,100.081104 31.9220694,101.377119 C33.2169113,102.673133 34.7755173,103.32114 36.5978873,103.32114 L85.370265,103.32114 C87.7681204,103.32114 89.614469,102.337129 90.9093109,100.369108 Z" id="path-27"></path>
        <linearGradient x1="50%" y1="0%" x2="50%" y2="100%" id="linearGradient-28">
            <stop stop-color="#00A4DB" offset="0%"></stop>
            <stop stop-color="#CC00FF" offset="100%"></stop>
        </linearGradient>
        <path d="M123.606466,103.32114 C125.428836,103.32114 126.987442,102.673133 128.282284,101.377119 C129.577126,100.129105 130.224547,98.5930879 130.224547,96.7690678 L130.224547,67.3927436 L150.438468,67.3927436 L181.586609,101.233117 C182.88145,102.625132 184.488014,103.32114 186.406298,103.32114 C188.132754,103.32114 189.619424,102.745134 190.866309,101.593121 C192.209108,100.345107 192.928464,98.8090903 193.024379,96.9850702 C193.072336,95.2090506 192.472872,93.6490334 191.225987,92.3050185 L167.199477,66.1687301 C174.393043,64.2007084 180.291767,60.2406647 184.895649,54.288599 C189.595445,48.2405323 191.945344,41.3764566 191.945344,33.6963718 C191.945344,24.4322696 188.660282,16.4881819 182.090158,9.86410885 C175.520035,3.28803628 167.583133,0 158.279455,0 L123.606466,0 C121.784096,0 120.249469,0.64800715 119.002584,1.94402145 C117.707742,3.24003575 117.060321,4.7760527 117.060321,6.5520723 C117.060321,8.37609243 117.707742,9.93610964 119.002584,11.2321239 C120.249469,12.5281382 121.784096,13.1761454 123.606466,13.1761454 L158.279455,13.1761454 C163.938393,13.1761454 168.782061,15.1681674 172.810458,19.1522113 C176.790898,23.1842558 178.781118,28.0323093 178.781118,33.6963718 C178.781118,39.3604343 176.790898,44.2084878 172.810458,48.2405323 C168.782061,52.2245763 163.938393,54.2165983 158.279455,54.2165983 L123.606466,54.2165983 C121.784096,54.2165983 120.249469,54.8646054 119.002584,56.1606197 C117.707742,57.456634 117.060321,59.0166512 117.060321,60.8406713 L117.060321,96.7690678 C117.060321,98.5930879 117.707742,100.129105 119.002584,101.377119 C120.249469,102.673133 121.784096,103.32114 123.606466,103.32114 Z" id="path-29"></path>
        <linearGradient x1="50%" y1="0%" x2="50%" y2="100%" id="linearGradient-30">
            <stop stop-color="#00A4DB" offset="0%"></stop>
            <stop stop-color="#CC00FF" offset="100%"></stop>
        </linearGradient>
        <path d="M268.88293,103.32114 C283.174148,103.32114 295.355253,98.2810845 305.426246,88.2009733 C306.721088,86.904959 307.368509,85.3449417 307.368509,83.5209216 C307.368509,81.6969015 306.721088,80.1608845 305.426246,78.9128708 C304.131404,77.6168565 302.572798,76.9688493 300.750428,76.9688493 C298.928058,76.9688493 297.39343,77.6168565 296.146546,78.9128708 C288.61728,86.4009534 279.529408,90.1449947 268.88293,90.1449947 C258.28441,90.1449947 249.220516,86.4009534 241.691251,78.9128708 C234.209942,71.3767876 230.469288,62.3046875 230.469288,51.6965704 C230.469288,41.0404529 234.209942,31.9443525 241.691251,24.4082693 C249.220516,16.9201867 258.28441,13.1761454 268.88293,13.1761454 C279.529408,13.1761454 288.61728,16.9201867 296.146546,24.4082693 C297.39343,25.7042836 298.928058,26.3522908 300.750428,26.3522908 C302.572798,26.3522908 304.131404,25.7042836 305.426246,24.4082693 C306.721088,23.1602556 307.368509,21.6242386 307.368509,19.8002185 C307.368509,17.9761984 306.721088,16.4161811 305.426246,15.1201668 C295.355253,5.04005561 283.174148,0 268.88293,0 C254.63967,0 242.482543,5.04005561 232.41155,15.1201668 C222.340558,25.2002781 217.305062,37.3924126 217.305062,51.6965704 C217.305062,65.9527278 222.340558,78.120862 232.41155,88.2009733 C242.482543,98.2810845 254.63967,103.32114 268.88293,103.32114 Z" id="path-31"></path>
        <linearGradient x1="50%" y1="0%" x2="50%" y2="100%" id="linearGradient-32">
            <stop stop-color="#00A4DB" offset="0%"></stop>
            <stop stop-color="#CC00FF" offset="100%"></stop>
        </linearGradient>
        <path d="M338.123401,103.32114 C339.945771,103.32114 341.504377,102.673133 342.799219,101.377119 C344.094061,100.129105 344.741482,98.5930879 344.741482,96.7690678 L344.741482,58.2486427 L397.254514,58.2486427 L397.254514,96.7690678 C397.254514,98.5930879 397.901935,100.129105 399.196777,101.377119 C400.491619,102.673133 402.026246,103.32114 403.800659,103.32114 C405.623029,103.32114 407.181635,102.673133 408.476477,101.377119 C409.771319,100.129105 410.41874,98.5930879 410.41874,96.7690678 L410.41874,6.5520723 C410.41874,4.7760527 409.771319,3.24003575 408.476477,1.94402145 C407.181635,0.64800715 405.623029,0 403.800659,0 C402.026246,0 400.491619,0.64800715 399.196777,1.94402145 C397.901935,3.24003575 397.254514,4.7760527 397.254514,6.5520723 L397.254514,45.0724974 L344.741482,45.0724974 L344.741482,6.5520723 C344.741482,4.7760527 344.094061,3.24003575 342.799219,1.94402145 C341.504377,0.64800715 339.945771,0 338.123401,0 C336.301031,0 334.766404,0.64800715 333.519519,1.94402145 C332.224677,3.24003575 331.577256,4.7760527 331.577256,6.5520723 L331.577256,96.7690678 C331.577256,98.5930879 332.224677,100.129105 333.519519,101.377119 C334.766404,102.673133 336.301031,103.32114 338.123401,103.32114 Z" id="path-33"></path>
        <linearGradient x1="50%" y1="0%" x2="50%" y2="100%" id="linearGradient-34">
            <stop stop-color="#00A4DB" offset="0%"></stop>
            <stop stop-color="#CC00FF" offset="100%"></stop>
        </linearGradient>
        <path d="M509.728317,96.7690678 C509.728317,94.9450477 509.080896,93.3850305 507.786054,92.0890162 C506.491212,90.7930019 504.932606,90.1449947 503.110236,90.1449947 L441.173632,90.1449947 C439.351262,90.1449947 437.816635,90.7930019 436.56975,92.0890162 C435.274908,93.3850305 434.627487,94.9450477 434.627487,96.7690678 C434.627487,98.5930879 435.274908,100.129105 436.56975,101.377119 C437.816635,102.673133 439.351262,103.32114 441.173632,103.32114 L503.110236,103.32114 C504.932606,103.32114 506.491212,102.673133 507.786054,101.377119 C509.080896,100.129105 509.728317,98.5930879 509.728317,96.7690678 Z M441.173632,0 C439.351262,0 437.816635,0.64800715 436.56975,1.94402145 C435.274908,3.24003575 434.627487,4.7760527 434.627487,6.5520723 C434.627487,8.37609243 435.274908,9.93610964 436.56975,11.2321239 C437.816635,12.5281382 439.351262,13.1761454 441.173632,13.1761454 L503.110236,13.1761454 C504.932606,13.1761454 506.491212,12.5281382 507.786054,11.2321239 C509.080896,9.93610964 509.728317,8.37609243 509.728317,6.5520723 C509.728317,4.7760527 509.080896,3.24003575 507.786054,1.94402145 C506.491212,0.64800715 504.932606,0 503.110236,0 L441.173632,0 Z M441.173632,45.0724974 C439.351262,45.0724974 437.816635,45.7205045 436.56975,47.0165188 C435.274908,48.3125331 434.627487,49.8725503 434.627487,51.6965704 C434.627487,53.47259 435.274908,55.008607 436.56975,56.3046213 C437.816635,57.6006356 439.351262,58.2486427 441.173632,58.2486427 L503.110236,58.2486427 C504.932606,58.2486427 506.491212,57.6006356 507.786054,56.3046213 C509.080896,55.008607 509.728317,53.47259 509.728317,51.6965704 C509.728317,49.8725503 509.080896,48.3125331 507.786054,47.0165188 C506.491212,45.7205045 504.932606,45.0724974 503.110236,45.0724974 L441.173632,45.0724974 Z" id="path-35"></path>
        <linearGradient x1="50%" y1="0%" x2="50%" y2="100%" id="linearGradient-36">
            <stop stop-color="#00A4DB" offset="0%"></stop>
            <stop stop-color="#CC00FF" offset="100%"></stop>
        </linearGradient>
        <path d="M568.681988,13.1761454 L568.681988,96.7690678 C568.681988,98.5930879 569.305431,100.129105 570.552315,101.377119 C571.847157,102.673133 573.405763,103.32114 575.228133,103.32114 C577.050503,103.32114 578.609109,102.673133 579.903951,101.377119 C581.150836,100.129105 581.774278,98.5930879 581.774278,96.7690678 L581.774278,13.1761454 L609.973057,13.1761454 C611.74747,13.1761454 613.282098,12.5281382 614.57694,11.2321239 C615.871781,9.93610964 616.519202,8.37609243 616.519202,6.5520723 C616.519202,4.7760527 615.871781,3.24003575 614.57694,1.94402145 C613.282098,0.64800715 611.74747,0 609.973057,0 L540.483209,0 C538.660839,0 537.126212,0.64800715 535.879327,1.94402145 C534.584485,3.24003575 533.937064,4.7760527 533.937064,6.5520723 C533.937064,8.37609243 534.584485,9.93610964 535.879327,11.2321239 C537.126212,12.5281382 538.660839,13.1761454 540.483209,13.1761454 L568.681988,13.1761454 Z" id="path-37"></path>
        <path d="M647.274095,103.32114 C649.096465,103.32114 650.655071,102.673133 651.949913,101.377119 C653.244755,100.129105 653.892176,98.5930879 653.892176,96.7690678 L653.892176,58.2486427 L706.405208,58.2486427 L706.405208,96.7690678 C706.405208,98.5930879 707.052629,100.129105 708.347471,101.377119 C709.642313,102.673133 711.17694,103.32114 712.951353,103.32114 C714.773723,103.32114 716.332329,102.673133 717.627171,101.377119 C718.922013,100.129105 719.569434,98.5930879 719.569434,96.7690678 L719.569434,6.5520723 C719.569434,4.7760527 718.922013,3.24003575 717.627171,1.94402145 C716.332329,0.64800715 714.773723,0 712.951353,0 C711.17694,0 709.642313,0.64800715 708.347471,1.94402145 C707.052629,3.24003575 706.405208,4.7760527 706.405208,6.5520723 L706.405208,45.0724974 L653.892176,45.0724974 L653.892176,6.5520723 C653.892176,4.7760527 653.244755,3.24003575 651.949913,1.94402145 C650.655071,0.64800715 649.096465,0 647.274095,0 C645.451725,0 643.917098,0.64800715 642.670213,1.94402145 C641.375371,3.24003575 640.72795,4.7760527 640.72795,6.5520723 L640.72795,96.7690678 C640.72795,98.5930879 641.375371,100.129105 642.670213,101.377119 C643.917098,102.673133 645.451725,103.32114 647.274095,103.32114 Z" id="path-38"></path>
        <linearGradient x1="50%" y1="0%" x2="50%" y2="100%" id="linearGradient-39">
            <stop stop-color="#00A4DB" offset="0%"></stop>
            <stop stop-color="#CC00FF" offset="100%"></stop>
        </linearGradient>
        <path d="M750.324326,103.32114 C752.146696,103.32114 753.705302,102.673133 755.000144,101.377119 C756.294986,100.129105 756.942407,98.5930879 756.942407,96.7690678 L756.942407,6.5520723 C756.942407,4.7760527 756.294986,3.24003575 755.000144,1.94402145 C753.705302,0.64800715 752.146696,0 750.324326,0 C748.501956,0 746.967329,0.64800715 745.720444,1.94402145 C744.425602,3.24003575 743.778181,4.7760527 743.778181,6.5520723 L743.778181,96.7690678 C743.778181,98.5930879 744.425602,100.129105 745.720444,101.377119 C746.967329,102.673133 748.501956,103.32114 750.324326,103.32114 Z" id="path-40"></path>
        <path d="M832.729023,103.32114 C847.020241,103.32114 859.201346,98.2810845 869.272339,88.2009733 C870.56718,86.904959 871.214601,85.3449417 871.214601,83.5209216 C871.214601,81.6969015 870.56718,80.1608845 869.272339,78.9128708 C867.977497,77.6168565 866.418891,76.9688493 864.596521,76.9688493 C862.774151,76.9688493 861.239523,77.6168565 859.992638,78.9128708 C852.463373,86.4009534 843.375501,90.1449947 832.729023,90.1449947 C822.130503,90.1449947 813.066609,86.4009534 805.537344,78.9128708 C798.056035,71.3767876 794.315381,62.3046875 794.315381,51.6965704 C794.315381,41.0404529 798.056035,31.9443525 805.537344,24.4082693 C813.066609,16.9201867 822.130503,13.1761454 832.729023,13.1761454 C843.375501,13.1761454 852.463373,16.9201867 859.992638,24.4082693 C861.239523,25.7042836 862.774151,26.3522908 864.596521,26.3522908 C866.418891,26.3522908 867.977497,25.7042836 869.272339,24.4082693 C870.56718,23.1602556 871.214601,21.6242386 871.214601,19.8002185 C871.214601,17.9761984 870.56718,16.4161811 869.272339,15.1201668 C859.201346,5.04005561 847.020241,0 832.729023,0 C818.485762,0 806.328636,5.04005561 796.257643,15.1201668 C786.186651,25.2002781 781.151155,37.3924126 781.151155,51.6965704 C781.151155,65.9527278 786.186651,78.120862 796.257643,88.2009733 C806.328636,98.2810845 818.485762,103.32114 832.729023,103.32114 Z" id="path-41"></path>
        <linearGradient x1="3.94901683%" y1="70.2946817%" x2="62.7458568%" y2="19.3357929%" id="linearGradient-42">
            <stop stop-color="#00A4DB" offset="0%"></stop>
            <stop stop-color="#CC00FF" offset="100%"></stop>
        </linearGradient>
        <linearGradient x1="-8.15998999%" y1="50.3607943%" x2="66.0973524%" y2="49.4548585%" id="linearGradient-43">
            <stop stop-color="#00A4DB" offset="0%"></stop>
            <stop stop-color="#CC00FF" offset="100%"></stop>
        </linearGradient>
        <linearGradient x1="-8.15998999%" y1="50.7541644%" x2="66.0973524%" y2="48.8604969%" id="linearGradient-44">
            <stop stop-color="#00A4DB" offset="0%"></stop>
            <stop stop-color="#CC00FF" offset="100%"></stop>
        </linearGradient>
        <linearGradient x1="-8.15998999%" y1="51.0690023%" x2="66.0973524%" y2="48.3847932%" id="linearGradient-45">
            <stop stop-color="#00A4DB" offset="0%"></stop>
            <stop stop-color="#CC00FF" offset="100%"></stop>
        </linearGradient>
        <linearGradient x1="-8.15998999%" y1="58.450506%" x2="66.0973524%" y2="37.2317255%" id="linearGradient-46">
            <stop stop-color="#00A4DB" offset="0%"></stop>
            <stop stop-color="#CC00FF" offset="100%"></stop>
        </linearGradient>
        <linearGradient x1="13.7694298%" y1="70.2946817%" x2="60.0277915%" y2="19.3357929%" id="linearGradient-47">
            <stop stop-color="#00A4DB" offset="0%"></stop>
            <stop stop-color="#CC00FF" offset="100%"></stop>
        </linearGradient>
        <linearGradient x1="16.65189%" y1="70.2946817%" x2="59.2299926%" y2="19.3357929%" id="linearGradient-48">
            <stop stop-color="#00A4DB" offset="0%"></stop>
            <stop stop-color="#CC00FF" offset="100%"></stop>
        </linearGradient>
    </defs>
    <g id="SSe" stroke="none" stroke-width="1" fill="none" fill-rule="evenodd">
        <g id="Archethic-Public-Blockchain---Gradient">
            <g id="Label" transform="translate(521.539903, 0.068690)" fill-rule="nonzero">
                <g id="PUBLIC-Blockchain" transform="translate(0.000000, 143.360570)">
                    <g id="Path">
                        <use fill="#00A4DB" xlink:href="#path-2"></use>
                        <use fill="url(#linearGradient-1)" xlink:href="#path-2"></use>
                    </g>
                    <g id="Path">
                        <use fill="#00A4DB" xlink:href="#path-4"></use>
                        <use fill="url(#linearGradient-3)" xlink:href="#path-4"></use>
                    </g>
                    <g id="Shape">
                        <use fill="#00A4DB" xlink:href="#path-5"></use>
                        <use fill="url(#linearGradient-3)" xlink:href="#path-5"></use>
                    </g>
                    <g id="Path">
                        <use fill="#00A4DB" xlink:href="#path-7"></use>
                        <use fill="url(#linearGradient-6)" xlink:href="#path-7"></use>
                    </g>
                    <g id="Path">
                        <use fill="#00A4DB" xlink:href="#path-9"></use>
                        <use fill="url(#linearGradient-8)" xlink:href="#path-9"></use>
                    </g>
                    <g id="Path">
                        <use fill="#00A4DB" xlink:href="#path-11"></use>
                        <use fill="url(#linearGradient-10)" xlink:href="#path-11"></use>
                    </g>
                    <g id="Shape">
                        <use fill="#00A4DB" xlink:href="#path-12"></use>
                        <use fill="url(#linearGradient-3)" xlink:href="#path-12"></use>
                    </g>
                    <g id="Path">
                        <use fill="#00A4DB" xlink:href="#path-13"></use>
                        <use fill="url(#linearGradient-6)" xlink:href="#path-13"></use>
                    </g>
                    <g id="Shape">
                        <use fill="#00A4DB" xlink:href="#path-15"></use>
                        <use fill="url(#linearGradient-14)" xlink:href="#path-15"></use>
                    </g>
                    <g id="Path">
                        <use fill="#00A4DB" xlink:href="#path-16"></use>
                        <use fill="url(#linearGradient-10)" xlink:href="#path-16"></use>
                    </g>
                    <g id="Path">
                        <use fill="#00A4DB" xlink:href="#path-18"></use>
                        <use fill="url(#linearGradient-17)" xlink:href="#path-18"></use>
                    </g>
                    <g id="Path">
                        <use fill="#00A4DB" xlink:href="#path-19"></use>
                        <use fill="url(#linearGradient-10)" xlink:href="#path-19"></use>
                    </g>
                    <g id="Path">
                        <use fill="#00A4DB" xlink:href="#path-20"></use>
                        <use fill="url(#linearGradient-3)" xlink:href="#path-20"></use>
                    </g>
                    <g id="Shape">
                        <use fill="#00A4DB" xlink:href="#path-22"></use>
                        <use fill="url(#linearGradient-21)" xlink:href="#path-22"></use>
                    </g>
                    <g id="Path">
                        <use fill="#00A4DB" xlink:href="#path-23"></use>
                        <use fill="url(#linearGradient-8)" xlink:href="#path-23"></use>
                    </g>
                    <g id="Path">
                        <use fill="#00A4DB" xlink:href="#path-25"></use>
                        <use fill="url(#linearGradient-24)" xlink:href="#path-25"></use>
                    </g>
                </g>
                <g id="ARCHETHIC" transform="translate(0.004730, 0.000000)">
                    <g id="Path">
                        <use fill="#00A4DB" xlink:href="#path-27"></use>
                        <use fill="url(#linearGradient-26)" xlink:href="#path-27"></use>
                    </g>
                    <g id="Path">
                        <use fill="#00A4DB" xlink:href="#path-29"></use>
                        <use fill="url(#linearGradient-28)" xlink:href="#path-29"></use>
                    </g>
                    <g id="Path">
                        <use fill="#00A4DB" xlink:href="#path-31"></use>
                        <use fill="url(#linearGradient-30)" xlink:href="#path-31"></use>
                    </g>
                    <g id="Path">
                        <use fill="#00A4DB" xlink:href="#path-33"></use>
                        <use fill="url(#linearGradient-32)" xlink:href="#path-33"></use>
                    </g>
                    <g id="Shape">
                        <use fill="#00A4DB" xlink:href="#path-35"></use>
                        <use fill="url(#linearGradient-34)" xlink:href="#path-35"></use>
                    </g>
                    <g id="Path">
                        <use fill="#00A4DB" xlink:href="#path-37"></use>
                        <use fill="url(#linearGradient-36)" xlink:href="#path-37"></use>
                    </g>
                    <g id="Path">
                        <use fill="#00A4DB" xlink:href="#path-38"></use>
                        <use fill="url(#linearGradient-32)" xlink:href="#path-38"></use>
                    </g>
                    <g id="Path">
                        <use fill="#00A4DB" xlink:href="#path-40"></use>
                        <use fill="url(#linearGradient-39)" xlink:href="#path-40"></use>
                    </g>
                    <g id="Path">
                        <use fill="#00A4DB" xlink:href="#path-41"></use>
                        <use fill="url(#linearGradient-30)" xlink:href="#path-41"></use>
                    </g>
                </g>
            </g>
            <g id="Archethic-Logo">
                <g id="Path" transform="translate(174.576271, 0.000000)">
                    <path d="M165.096444,200 C169.733625,200 173.304255,198.095238 175.808332,194.285714 C178.31241,190.383275 178.637013,186.341463 176.782141,182.160279 L100.546881,7.66550523 C98.3210342,2.55516841 94.425802,0 88.8611845,0 C83.3893107,0 79.5404502,2.55516841 77.3146032,7.66550523 L1.07934391,182.160279 C-0.311810462,185.412311 -0.358182274,188.664344 0.940228469,191.916376 C2.14589559,195.168409 4.37174258,197.491289 7.61776943,198.885017 C9.28715467,199.628339 11.0029117,200 12.7650406,200 C18.2369144,200 22.0857749,197.444832 24.3116218,192.334495 L88.8611845,44.4599303 L145.759398,174.494774 L70.7761777,174.494774 C67.25192,174.494774 64.2377522,175.749129 61.7336743,178.25784 C59.3223401,180.766551 58.116673,183.786295 58.116673,187.317073 C58.116673,190.754936 59.3223401,193.728223 61.7336743,196.236934 C64.2377522,198.745645 67.25192,200 70.7761777,200 L165.096444,200 Z" fill="url(#linearGradient-42)"></path>
                    <path d="M299.571401,23.7288136 C303.889863,23.7288136 307.583285,22.5618227 310.651666,20.2278411 C313.720047,17.8938594 315.254237,15.084437 315.254237,11.799574 C315.254237,8.60115464 313.720047,5.83495415 310.651666,3.50097249 C307.583285,1.16699083 303.889863,0 299.571401,0 L152.800507,0 C148.482044,0 144.845445,1.16699083 141.890707,3.50097249 C138.822326,5.83495415 137.288136,8.60115464 137.288136,11.799574 C137.288136,15.084437 138.822326,17.8938594 141.890707,20.2278411 C144.845445,22.5618227 148.482044,23.7288136 152.800507,23.7288136 L299.571401,23.7288136 Z" fill="url(#linearGradient-43)"></path>
                    <path d="M301.162413,113.559322 C304.576055,113.559322 307.495617,112.225618 309.921099,109.558211 C312.346581,106.890803 313.559322,103.729431 313.559322,100.074095 C313.559322,96.3199654 312.346581,93.109197 309.921099,90.4417894 C307.495617,87.7743818 304.576055,86.440678 301.162413,86.440678 L185.143516,86.440678 C181.729874,86.440678 178.855229,87.7743818 176.519579,90.4417894 C174.094097,93.109197 172.881356,96.3199654 172.881356,100.074095 C172.881356,103.729431 174.094097,106.890803 176.519579,109.558211 C178.855229,112.225618 181.729874,113.559322 185.143516,113.559322 L301.162413,113.559322 Z" fill="url(#linearGradient-44)"></path>
                    <path d="M304.448341,200 C306.957162,200 309.102864,198.833009 310.885447,196.499028 C312.66803,194.25149 313.559322,191.485289 313.559322,188.200426 C313.559322,184.915563 312.66803,182.106141 310.885447,179.772159 C309.102864,177.438177 306.957162,176.271186 304.448341,176.271186 L219.18144,176.271186 C216.672619,176.271186 214.559928,177.438177 212.843366,179.772159 C211.060783,182.106141 210.169492,184.915563 210.169492,188.200426 C210.169492,191.485289 211.060783,194.25149 212.843366,196.499028 C214.559928,198.833009 216.672619,200 219.18144,200 L304.448341,200 Z" fill="url(#linearGradient-45)"></path>
                </g>
                <g id="Logo" fill-rule="nonzero">
                    <path d="M51.3502249,27.7935737 C53.4652101,27.3617674 60.0150378,26.106014 68.3613896,26.1917487 C82.0474108,26.3324885 92.6493764,29.9928713 99.145821,32.2948928 C106.654402,34.9553009 123.293917,41.7125362 140.122766,56.8951462 C146.47375,62.6246149 151.208981,68.0724304 154.428736,72.1143539 C155.930525,69.0117997 157.22144,65.8291186 158.270266,62.6413146 C159.648956,58.4505837 160.665394,54.1184547 161.290996,49.7665146 L162.280702,42.8845592 C158.272187,38.8759195 152.883966,33.9301897 146.104008,28.8327148 C142.8786,26.4077894 132.61509,18.8935436 119.484774,12.8335598 C109.073257,8.02828027 84.8497916,-3.15165933 53.6979018,0.848435095 C30.5772719,3.81726078 14.324757,13.7763444 10.57165,16.1558447 C7.8346964,17.8909133 5.18024025,19.7568595 2.6810883,21.7027591 L0.961756989,23.0413094 L0.706070421,25.2581606 C0.335054488,28.4728955 0.107382275,31.7960413 0.02890874,35.1332172 C-0.226770801,46.117224 1.09379476,63.0962459 8.83790087,81.604831 C11.0731583,86.9485117 13.7534358,92.2021816 16.8044717,97.2199993 C17.6497195,98.6099446 19.3442251,101.28088 21.8591664,104.716981 C21.5997414,102.772413 21.3738096,100.826137 21.1859242,98.9068792 C20.0854494,87.6812323 20.0930238,76.2165933 21.2071856,64.8324578 C22.1291735,55.413483 23.6619003,47.8483998 24.7619157,43.0723376 C25.2618784,40.9020475 25.7251523,39.0856074 26.0744544,37.7645092 C29.0575081,35.9395311 32.83817,33.8962402 37.3679091,32.0416684 C40.1498428,30.9024734 45.0293364,29.0844196 51.3502249,27.7935737 Z" id="Path" fill="url(#linearGradient-46)"></path>
                    <path d="M124.483713,160.979458 C116.047297,164.849447 108.869097,167.246287 104.270124,168.640607 C102.18033,169.274454 100.40841,169.764296 99.1136083,170.109498 C96.0553122,168.341568 92.4075102,165.966122 88.5390389,162.824385 C86.1631658,160.894695 82.1479435,157.420243 77.8471929,152.389019 C76.4081433,150.705377 72.0208634,145.451085 67.8562894,137.914499 C61.0279107,125.556631 58.7426383,114.212039 57.3920688,107.231248 C55.8311911,99.1629126 53.1007613,80.8527584 57.4018936,58.1707625 C59.0252121,49.6111565 61.2301611,42.6425775 63.0151442,37.7358491 C59.6279626,37.9347003 56.2801511,38.3632509 53.0507324,39.0114609 C48.8055664,39.8637333 44.6248839,41.1118173 40.6254096,42.7205273 L34.3008334,45.2642879 C32.9445174,50.8627412 31.4956429,58.1674569 30.6250629,66.7969579 C30.2109422,70.9023266 29.0641852,83.8650838 30.6031019,98.6764627 C31.8232342,110.421039 34.6619634,137.745737 53.8599884,163.720072 C68.1085687,182.998203 84.7844365,192.62321 88.7026543,194.806062 C91.5598174,196.398028 94.4862773,197.850635 97.4008768,199.123902 L99.4060775,200 L101.411293,199.123902 C104.319305,197.853465 107.246231,196.400857 110.109332,194.806726 C119.531483,189.558109 133.225306,179.904059 144.952266,163.719696 C148.338161,159.04759 151.422116,154.020898 154.118265,148.778992 C154.865066,147.326759 156.264562,144.472989 157.894737,140.501493 C156.381301,141.704171 154.849502,142.877993 153.321054,144.003675 C144.382878,150.590531 134.680189,156.301852 124.483713,160.979458 Z" id="Path" fill="url(#linearGradient-47)"></path>
                    <path d="M199.974793,34.8704838 C199.896769,31.5534504 199.667994,28.2447251 199.2939,25.0358339 L199.03669,22.8281604 L197.306947,21.4951517 C194.79837,19.5619412 192.127414,17.7032444 189.369331,15.9710139 C180.290048,10.272622 165.392365,3.00171275 145.981192,0.727639148 C140.377335,0.0704912375 134.624952,-0.143055304 128.884042,0.0931530507 C127.293496,0.158796516 124.201984,0.34777901 120.056677,0.890847082 C121.817152,1.6266734 123.562401,2.39319577 125.265681,3.18068662 C135.229838,7.78378412 144.836514,13.4989868 153.819396,20.1663006 C161.25175,25.6826923 166.822366,30.823576 170.272829,34.1876408 C171.840614,35.7163405 173.130425,37.0362206 174.061946,38.0070304 C174.091306,41.5897361 173.902397,45.9958311 173.178725,50.9795452 C172.734229,54.0404468 171.8038,59.3194051 169.706241,65.62782 C169.004393,67.7389739 166.762414,74.2349518 162.491905,81.6737023 C155.489632,93.871192 147.088315,101.551534 141.890782,106.22859 C135.883555,111.634296 121.848739,123.184833 100.655856,130.709432 C92.6581038,133.549135 85.7094529,135.081329 80.7017544,135.954668 C82.5469769,138.84556 84.5656862,141.587423 86.7101718,144.114978 C89.5299606,147.437199 92.6501189,150.505379 95.9835183,153.233249 L101.254956,157.54717 C106.631972,155.950182 113.488268,153.582795 121.171601,150.043914 C124.827152,148.360228 136.289039,142.901821 147.974015,134.149999 C157.239559,127.21021 178.796338,111.064113 191.113277,81.1490591 C200.254781,58.9465272 200.081561,39.4195606 199.974793,34.8704838 Z" id="Path" fill="url(#linearGradient-48)"></path>
                </g>
            </g>
        </g>
    </g>
</svg>