<svg xmlns="http://www.w3.org/2000/svg" width="33.5" height="33.5" viewBox="0 0 33.5 33.5"><g id="a9c86a6a-27da-4a25-8201-f3dac8ef13c1" data-name="Layer 2"><g id="b2da8a50-92f4-4627-9465-7db02c74314a" data-name="Layer 1"><path d="M19.057,23.94H14.625a.75.75,0,1,1,0-1.5h4.432a.75.75,0,0,1,0,1.5Z" fill="#1a1a1a"/><path d="M16.841,23.94a.75.75,0,0,1-.75-.75v-5.3a1.65,1.65,0,0,0-1.648-1.648.75.75,0,1,1,0-1.5,3.151,3.151,0,0,1,3.148,3.148V23.19A.75.75,0,0,1,16.841,23.94Z" fill="#1a1a1a"/><path d="M16.841,12.823a1.44,1.44,0,1,1,1.44-1.44A1.442,1.442,0,0,1,16.841,12.823Zm0-1.5-.06.06a.06.06,0,0,0,.06.06Z" fill="#1a1a1a"/><path d="M16.75,33.5a16.75,16.75,0,0,1,0-33.5.747.747,0,0,1,.53.22l16,16a.747.747,0,0,1,.22.53A16.769,16.769,0,0,1,16.75,33.5Zm-.308-32A15.25,15.25,0,1,0,32,17.058Z" fill="#1a1a1a"/></g></g></svg>