<?xml version="1.0" encoding="UTF-8"?>
<svg width="35px" height="35px" viewBox="0 0 35 35" version="1.1" xmlns="http://www.w3.org/2000/svg" xmlns:xlink="http://www.w3.org/1999/xlink">
    <title>carré</title>
    <g id="Page-1" stroke="none" stroke-width="1" fill="none" fill-rule="evenodd">
        <g id="about" fill="#1A1A1A" fill-rule="nonzero">
            <g id="Group">
                <path d="M19.9102985,25.0119406 L15.2798508,25.0119406 C14.8470903,25.0119406 14.4962687,24.6611189 14.4962687,24.2283584 C14.4962687,23.795598 14.8470903,23.4447764 15.2798508,23.4447764 L19.9102985,23.4447764 C20.343059,23.4447764 20.6938806,23.795598 20.6938806,24.2283584 C20.6938806,24.6611189 20.343059,25.0119406 19.9102985,25.0119406 L19.9102985,25.0119406 Z" id="Path"></path>
                <path d="M17.5950746,25.0119406 C17.1623142,25.0119406 16.8114926,24.6611189 16.8114926,24.2283584 L16.8114926,18.6910451 C16.8103412,17.7406034 16.0401431,16.9704053 15.0897015,16.9692539 C14.656941,16.9692539 14.3061194,16.6184324 14.3061194,16.1856719 C14.3061194,15.7529115 14.656941,15.4020898 15.0897015,15.4020898 C16.9054251,15.4038177 18.3769288,16.8753214 18.3786567,18.6910451 L18.3786567,24.2283584 C18.3786567,24.6611189 18.0278351,25.0119406 17.5950746,25.0119406 Z" id="Path"></path>
                <path d="M17.5950746,13.3971644 C16.7641746,13.3971644 16.090597,12.7235869 16.090597,11.8926869 C16.090597,11.0617868 16.7641746,10.3882092 17.5950746,10.3882092 C18.4259746,10.3882092 19.0995522,11.0617868 19.0995522,11.8926869 C19.0984013,12.7231096 18.4254975,13.3960134 17.5950746,13.3971644 Z M17.5950746,11.8300002 L17.5323881,11.8926869 C17.5323881,11.9273076 17.5604537,11.9553734 17.5950746,11.9553734 L17.5950746,11.8300002 Z" id="Shape"></path>
                <path d="M17.5,35 C7.83501687,35 0,27.1649834 0,17.5 C0,7.83501712 7.83501687,0 17.5,0 C17.7078178,0 17.9071183,0.0825660089 18.0537313,0.229850986 L34.7701492,16.9462689 C34.9174343,17.092882 35,17.2921825 35,17.5 C34.9890604,27.1604484 27.1604482,34.9890608 17.5,35 L17.5,35 Z M17.178209,1.56716442 C8.46509009,1.74499196 1.51157052,8.89032738 1.57085002,17.6050591 C1.63012953,26.3197908 8.68020941,33.3698707 17.3949411,33.4291502 C26.1096729,33.4884297 33.2550083,26.5349102 33.4328358,17.8217912 L17.178209,1.56716442 Z" id="Shape"></path>
            </g>
        </g>
    </g>
</svg>