<?xml version="1.0" encoding="UTF-8"?>
<svg width="35px" height="35px" viewBox="0 0 35 35" version="1.1" xmlns="http://www.w3.org/2000/svg" xmlns:xlink="http://www.w3.org/1999/xlink">
    <title>carré</title>
    <g id="Page-1" stroke="none" stroke-width="1" fill="none" fill-rule="evenodd">
        <g id="address-book" fill="#1A1A1A" fill-rule="nonzero">
            <path d="M28.4492537,35 L9.01629254,35 C5.69998772,34.9963207 3.01250915,32.3088422 3.00882985,28.9925373 L3.00882985,6.00746269 C3.01250915,2.69115786 5.69998772,0.00367929414 9.01629254,0 L28.4492537,0 C31.7655586,0.00367929414 34.4530371,2.69115786 34.4567164,6.00746269 L34.4567164,28.9925373 C34.4530371,32.3088422 31.7655586,34.9963207 28.4492537,35 Z M9.01629254,1.56716418 C6.56511715,1.56989914 4.578729,3.55628729 4.57599403,6.00746269 L4.57599403,28.9925373 C4.578729,31.4437127 6.56511715,33.4301008 9.01629254,33.4328358 L28.4492537,33.4328358 C30.9004291,33.4301008 32.8868172,31.4437127 32.8895522,28.9925373 L32.8895522,6.00746269 C32.8868172,3.55628729 30.9004291,1.56989914 28.4492537,1.56716418 L9.01629254,1.56716418 Z" id="Shape"></path>
            <path d="M6.80175373,11.325206 L0.78358209,11.325206 C0.350821652,11.325206 0,10.9743843 0,10.5416239 C0,10.1088634 0.350821652,9.75804179 0.78358209,9.75804179 L6.80175373,9.75804179 C7.23451416,9.75804179 7.58533582,10.1088634 7.58533582,10.5416239 C7.58533582,10.9743843 7.23451416,11.325206 6.80175373,11.325206 Z" id="Path"></path>
            <path d="M6.80175373,18.2835821 L0.78358209,18.2835821 C0.350821652,18.2835821 0,17.9327605 0,17.5 C0,17.0672395 0.350821652,16.7164179 0.78358209,16.7164179 L6.80175373,16.7164179 C7.23451416,16.7164179 7.58533582,17.0672395 7.58533582,17.5 C7.58533582,17.9327605 7.23451416,18.2835821 6.80175373,18.2835821 Z" id="Path"></path>
            <path d="M6.80175373,25.2419582 L0.78358209,25.2419582 C0.350821652,25.2419582 0,24.8911365 0,24.4583761 C0,24.0256157 0.350821652,23.674794 0.78358209,23.674794 L6.80175373,23.674794 C7.23451415,23.674794 7.58533577,24.0256157 7.58533577,24.4583761 C7.58533577,24.8911365 7.23451415,25.2419582 6.80175373,25.2419582 L6.80175373,25.2419582 Z" id="Path"></path>
            <path d="M27.6972761,26.9346104 C27.2645611,26.9346104 26.9138036,26.5837434 26.913694,26.1510283 L26.913694,8.84897164 C26.913694,8.41621121 27.2645157,8.06538955 27.6972761,8.06538955 C28.1300365,8.06538955 28.4808582,8.41621121 28.4808582,8.84897164 L28.4808582,26.1510283 C28.4807544,26.5837458 28.1299935,26.9346104 27.6972761,26.9346104 L27.6972761,26.9346104 Z" id="Path"></path>
        </g>
    </g>
</svg>