<svg xmlns="http://www.w3.org/2000/svg" width="32.97998" height="33.5" viewBox="0 0 32.97998 33.5"><g id="fbe41a43-5a91-40dc-ab5d-e8f235882f04" data-name="Layer 2"><g id="e9d4f45b-febc-401e-91ce-93ffd78233eb" data-name="Layer 1"><path d="M27.23,33.5H8.62988a5.75639,5.75639,0,0,1-5.75-5.75v-22A5.75639,5.75639,0,0,1,8.62988,0H27.23a5.75639,5.75639,0,0,1,5.75,5.75v22A5.75639,5.75639,0,0,1,27.23,33.5ZM8.62988,1.5a4.25475,4.25475,0,0,0-4.25,4.25v22a4.25475,4.25475,0,0,0,4.25,4.25H27.23a4.25475,4.25475,0,0,0,4.25-4.25v-22A4.25475,4.25475,0,0,0,27.23,1.5Z" fill="#1a1a1a"/><path d="M6.51025,10.83984H.75a.75.75,0,0,1,0-1.5H6.51025a.75.75,0,1,1,0,1.5Z" fill="#1a1a1a"/><path d="M6.51025,17.5H.75a.75.75,0,0,1,0-1.5H6.51025a.75.75,0,0,1,0,1.5Z" fill="#1a1a1a"/><path d="M6.51025,24.16016H.75a.75.75,0,0,1,0-1.5H6.51025a.75.75,0,0,1,0,1.5Z" fill="#1a1a1a"/><path d="M26.51025,25.78027a.75019.75019,0,0,1-.75-.75V8.46973a.75.75,0,1,1,1.5,0V25.03027A.75018.75018,0,0,1,26.51025,25.78027Z" fill="#1a1a1a"/></g></g></svg>