<?xml version="1.0" encoding="UTF-8"?>
<svg width="34px" height="35px" viewBox="0 0 34 35" version="1.1" xmlns="http://www.w3.org/2000/svg" xmlns:xlink="http://www.w3.org/1999/xlink">
    <title>address-book-menu</title>
    <g id="Page-1" stroke="none" stroke-width="1" fill="none" fill-rule="evenodd">
        <g id="address-book-menu" transform="translate(0.000000, 0.900000)" fill="#1A1A1A" fill-rule="nonzero">
            <g id="contour">
                <path d="M15.2951323,16.9987992 C11.224924,17.0500182 7.3049441,15.460863 4.41648283,12.5886075 C1.31451816,9.44758946 -0.280807189,5.11743332 0.04068653,0.711480811 C0.0735066178,0.299706839 0.423816837,-0.0134543353 0.83606935,0.000445250099 C1.25165872,0.0242859489 1.56940649,0.380762276 1.54606641,0.796980183 C1.22372911,4.77912027 2.6645805,8.70201521 5.48671003,11.5258668 C8.30883955,14.3497183 12.2272657,15.789371 16.2033747,15.4632321 C16.40363,15.4485906 16.6012612,15.5158501 16.7511427,15.6496531 C16.9010241,15.783456 16.9903584,15.9723779 16.9987475,16.1732814 C17.0102625,16.3730813 16.9420175,16.5692737 16.8090371,16.7186657 C16.6760567,16.8680575 16.4892433,16.9584009 16.2897251,16.9698063 C15.9565629,16.9894603 15.6243855,16.9987992 15.2951323,16.9987992 Z" id="Path" transform="translate(8.500000, 8.500000) scale(1, -1) translate(-8.500000, -8.500000) "></path>
                <path d="M32.7228284,33.6 L32.6811073,33.598993 C32.2653615,33.5759413 31.946831,33.2199151 31.9693355,32.803435 C32.2833567,28.825109 30.839649,24.9089976 28.0197212,22.0899574 C25.1997935,19.2709173 21.2874266,17.8326402 17.316488,18.1551997 C16.9028123,18.172589 16.550295,17.8573763 16.5207713,17.4436889 C16.4974212,17.027187 16.8153063,16.6704674 17.2310754,16.6466104 C21.6305418,16.3000966 25.9612546,17.8982149 29.0848607,21.0208905 C32.2084667,24.1435661 33.8125129,28.4784389 33.4753662,32.8860623 C33.4533996,33.286373 33.1230635,33.5997652 32.7228284,33.6 L32.7228284,33.6 Z" id="Path" transform="translate(25.019563, 25.100000) scale(1, -1) translate(-25.019563, -25.100000) "></path>
            </g>
            <g id="address-book" transform="translate(6.000000, 7.100000)">
                <path d="M17.3704464,20 L5.62955364,20 C3.62592801,19.9978975 2.00222294,18.4621955 2,16.5671642 L2,3.43283582 C2.00222294,1.53780449 3.62592801,0.00210245379 5.62955364,0 L17.3704464,0 C19.374072,0.00210245379 20.9977771,1.53780449 21,3.43283582 L21,16.5671642 C20.9977771,18.4621955 19.374072,19.9978975 17.3704464,20 Z M5.62955364,0.895522389 C4.14861685,0.897085223 2.94849248,2.03216417 2.94684008,3.43283582 L2.94684008,16.5671642 C2.94849248,17.9678358 4.14861685,19.1029147 5.62955364,19.1044776 L17.3704464,19.1044776 C18.8513832,19.1029147 20.0515074,17.9678358 20.0531599,16.5671642 L20.0531599,3.43283582 C20.0515074,2.03216417 18.8513832,0.897085223 17.3704464,0.895522389 L5.62955364,0.895522389 Z" id="Shape"></path>
                <path d="M3.58679109,6 L0.413208912,6 C0.184999932,6 0,5.77614235 0,5.5 C0,5.22385759 0.184999932,5 0.413208912,5 L3.58679109,5 C3.81500006,5 4,5.22385759 4,5.5 C4,5.77614235 3.81500006,6 3.58679109,6 Z" id="Path"></path>
                <path d="M3.58679109,10.5 L0.413208912,10.5 C0.184999932,10.5 0,10.2761424 0,10 C0,9.7238576 0.184999932,9.5 0.413208912,9.5 L3.58679109,9.5 C3.81500006,9.5 4,9.7238576 4,10 C4,10.2761424 3.81500006,10.5 3.58679109,10.5 Z" id="Path"></path>
                <path d="M3.58679111,15 L0.413208915,15 C0.184999933,15 0,14.7761423 0,14.5 C0,14.2238577 0.184999933,14 0.413208915,14 L3.58679111,14 C3.81500008,14 4,14.2238577 4,14.5 C4,14.7761423 3.81500008,15 3.58679111,15 L3.58679111,15 Z" id="Path"></path>
                <path d="M17.5,15 C17.2238866,15 17.0000699,14.8140533 17,14.58473 L17,5.41526998 C17,5.18592271 17.2238577,5 17.5,5 C17.7761423,5 18,5.18592271 18,5.41526998 L18,14.58473 C17.9999338,14.8140545 17.7761149,15 17.5,15 L17.5,15 Z" id="Path"></path>
            </g>
        </g>
    </g>
</svg>