<?xml version="1.0" encoding="UTF-8"?>
<svg width="35px" height="35px" viewBox="0 0 35 35" version="1.1" xmlns="http://www.w3.org/2000/svg" xmlns:xlink="http://www.w3.org/1999/xlink">
    <title>address-book-menu</title>
    <g id="Page-1" stroke="none" stroke-width="1" fill="none" fill-rule="evenodd">
        <g id="address-book-menu" transform="translate(0.987342, 0.981465)" fill="#1A1A1A" fill-rule="nonzero">
            <g id="contour">
                <path d="M15.2206584,33.5199048 C11.1702684,33.5708007 7.2693754,31.9916707 4.39497842,29.1375348 C1.3081176,26.0163318 -0.279439903,21.7134924 0.0404884222,17.3353348 C0.0731487048,16.9261585 0.421753219,16.6149729 0.831998422,16.6287848 C1.24556424,16.6524751 1.56176485,17.0067026 1.53853842,17.4202948 C1.21777062,21.3773136 2.65160632,25.275461 5.45999454,28.0814983 C8.26838276,30.8875356 12.1677296,32.3181063 16.1244784,31.9940248 C16.3237586,31.9794757 16.5204276,32.0463109 16.6695793,32.1792698 C16.8187309,32.3122286 16.9076302,32.4999587 16.9159784,32.6995948 C16.9274374,32.8981342 16.8595247,33.093089 16.7271918,33.2415385 C16.5948589,33.3899879 16.4089551,33.4797614 16.2104084,33.4910948 C15.8788684,33.5106248 15.5483084,33.5199048 15.2206584,33.5199048 Z" id="Path"></path>
                <path d="M32.7397084,16.8812348 L32.6982084,16.8802348 C32.2846657,16.8573442 31.9678231,16.5038052 31.9902084,16.0902348 C32.3025655,12.1397021 30.8665083,8.25094934 28.0615237,5.45160356 C25.2565392,2.65225778 21.3649045,1.22402871 17.4150084,1.54433477 C17.0035249,1.56160255 16.6528756,1.24859206 16.6235084,0.83779477 C16.600282,0.424202639 16.9164826,0.0699750723 17.3300484,0.04628477 C21.7062014,-0.29780819 26.0139652,1.28914534 29.1210188,4.39000532 C32.2280724,7.4908653 33.8236185,11.7954539 33.4882584,16.1722848 C33.4664082,16.5697989 33.1378226,16.8810016 32.7397084,16.8812348 L32.7397084,16.8812348 Z" id="Path"></path>
            </g>
            <g id="address-book" transform="translate(7.012658, 7.018535)">
                <path d="M16.5614755,20 L5.4385245,20 C3.54035285,19.9978975 2.00210594,18.4621955 2,16.5671642 L2,3.43283582 C2.00210594,1.53780449 3.54035285,0.00210245379 5.4385245,0 L16.5614755,0 C18.4596472,0.00210245379 19.9978941,1.53780449 20,3.43283582 L20,16.5671642 C19.9978941,18.4621955 18.4596472,19.9978975 16.5614755,20 Z M5.4385245,0.895522389 C4.03553175,0.897085223 2.89857182,2.03216417 2.89700639,3.43283582 L2.89700639,16.5671642 C2.89857182,17.9678358 4.03553175,19.1029147 5.4385245,19.1044776 L16.5614755,19.1044776 C17.9644683,19.1029147 19.1014281,17.9678358 19.1029936,16.5671642 L19.1029936,3.43283582 C19.1014281,2.03216417 17.9644683,0.897085223 16.5614755,0.895522389 L5.4385245,0.895522389 Z" id="Shape"></path>
                <path d="M3.58679109,6 L0.413208912,6 C0.184999932,6 0,5.77614235 0,5.5 C0,5.22385759 0.184999932,5 0.413208912,5 L3.58679109,5 C3.81500006,5 4,5.22385759 4,5.5 C4,5.77614235 3.81500006,6 3.58679109,6 Z" id="Path"></path>
                <path d="M3.58679109,11 L0.413208912,11 C0.184999932,11 0,10.7761424 0,10.5 C0,10.2238576 0.184999932,10 0.413208912,10 L3.58679109,10 C3.81500006,10 4,10.2238576 4,10.5 C4,10.7761424 3.81500006,11 3.58679109,11 Z" id="Path"></path>
                <path d="M3.58679111,15 L0.413208915,15 C0.184999933,15 0,14.7761423 0,14.5 C0,14.2238577 0.184999933,14 0.413208915,14 L3.58679111,14 C3.81500008,14 4,14.2238577 4,14.5 C4,14.7761423 3.81500008,15 3.58679111,15 L3.58679111,15 Z" id="Path"></path>
                <path d="M16.5,15 C16.2238866,15 16.0000699,14.8140533 16,14.58473 L16,5.41526998 C16,5.18592271 16.2238577,5 16.5,5 C16.7761423,5 17,5.18592271 17,5.41526998 L17,14.58473 C16.9999338,14.8140545 16.7761149,15 16.5,15 L16.5,15 Z" id="Path"></path>
            </g>
        </g>
    </g>
</svg>