<?xml version="1.0" encoding="UTF-8"?>
<svg width="35px" height="35px" viewBox="0 0 35 35" version="1.1" xmlns="http://www.w3.org/2000/svg" xmlns:xlink="http://www.w3.org/1999/xlink">
    <title>carré</title>
    <g id="Page-1" stroke="none" stroke-width="1" fill="none" fill-rule="evenodd">
        <g id="app-custom" fill="#1A1A1A" fill-rule="nonzero">
            <path d="M9.31731344,15.3247761 L6.00746269,15.3247761 C2.69130326,15.3207464 0.00402970953,12.6334729 -8.8817842e-16,9.31731344 L-8.8817842e-16,6.00746269 C0.00402970953,2.69130326 2.69130326,0.00402970953 6.00746269,0 L9.31731344,0 C12.6334729,0.00402970953 15.3207464,2.69130326 15.3247761,6.00746269 L15.3247761,9.31731344 C15.3207464,12.6334729 12.6334729,15.3207464 9.31731344,15.3247761 Z M6.00746269,1.56716418 C3.55634688,1.57004276 1.57004276,3.55634688 1.56716418,6.00746269 L1.56716418,9.31731344 C1.57004276,11.7684292 3.55634688,13.7547334 6.00746269,13.7576119 L9.31731344,13.7576119 C11.7684292,13.7547334 13.7547334,11.7684292 13.7576119,9.31731344 L13.7576119,6.00746269 C13.7547334,3.55634688 11.7684292,1.57004276 9.31731344,1.56716418 L6.00746269,1.56716418 Z" id="Shape"></path>
            <path d="M9.31731344,34.2613433 L6.00746269,34.2613433 C2.69130326,34.2573136 0.00402970953,31.57004 -8.8817842e-16,28.2538806 L-8.8817842e-16,24.9440299 C0.00402970953,21.6278705 2.69130326,18.9405969 6.00746269,18.9365672 L9.31731344,18.9365672 C12.6334729,18.9405969 15.3207464,21.6278705 15.3247761,24.9440299 L15.3247761,28.2538806 C15.3207464,31.57004 12.6334729,34.2573136 9.31731344,34.2613433 L9.31731344,34.2613433 Z M6.00746269,20.5037313 C3.55634688,20.5066099 1.57004276,22.4929141 1.56716418,24.9440299 L1.56716418,28.2538806 C1.57004276,30.7049964 3.55634688,32.6913006 6.00746269,32.6941791 L9.31731344,32.6941791 C11.7684292,32.6913006 13.7547334,30.7049964 13.7576119,28.2538806 L13.7576119,24.9440299 C13.7547334,22.4929141 11.7684292,20.5066099 9.31731344,20.5037313 L6.00746269,20.5037313 Z" id="Shape"></path>
            <path d="M28.9925373,15.3247761 L25.6826865,15.3247761 C22.3665271,15.3207464 19.6792536,12.6334729 19.6752239,9.31731344 L19.6752239,6.00746269 C19.6792536,2.69130326 22.3665271,0.00402970953 25.6826865,-8.8817842e-16 L28.9925373,-8.8817842e-16 C32.3086967,0.00402970953 34.9959703,2.69130326 35,6.00746269 L35,9.31731344 C34.9959703,12.6334729 32.3086967,15.3207464 28.9925373,15.3247761 Z M25.6826865,1.56716418 C23.2315708,1.57004276 21.2452666,3.55634688 21.2423881,6.00746269 L21.2423881,9.31731344 C21.2452666,11.7684292 23.2315708,13.7547334 25.6826865,13.7576119 L28.9925373,13.7576119 C31.4436531,13.7547334 33.4299572,11.7684292 33.4328358,9.31731344 L33.4328358,6.00746269 C33.4299572,3.55634688 31.4436531,1.57004276 28.9925373,1.56716418 L25.6826865,1.56716418 Z" id="Shape"></path>
            <path d="M34.2164179,23.3319403 L26.119403,23.3319403 C25.6866426,23.3319403 25.3358209,22.9811187 25.3358209,22.5483582 C25.3358209,22.1155977 25.6866426,21.7647761 26.119403,21.7647761 L34.2164179,21.7647761 C34.6491783,21.7647761 35,22.1155977 35,22.5483582 C35,22.9811187 34.6491783,23.3319403 34.2164179,23.3319403 Z" id="Path"></path>
            <path d="M28.4858209,31.4331344 L20.4410447,31.4331344 C20.0082844,31.4331344 19.6574627,31.0823127 19.6574627,30.6495522 C19.6574627,30.2167918 20.0082844,29.8659701 20.4410447,29.8659701 L28.4858209,29.8659701 C28.9185814,29.8659701 29.269403,30.2167918 29.269403,30.6495522 C29.269403,31.0823127 28.9185814,31.4331344 28.4858209,31.4331344 L28.4858209,31.4331344 Z" id="Path"></path>
            <path d="M31.350597,34.2989553 C29.3350874,34.2989553 27.701194,32.6650619 27.701194,30.6495522 C27.701194,28.6340426 29.3350874,27.0001492 31.350597,27.0001492 C33.3661066,27.0001492 35,28.6340426 35,30.6495522 C34.9959763,32.6633928 33.3644376,34.2949316 31.350597,34.2989553 Z M31.350597,28.5683582 C30.5083149,28.5683582 29.7489891,29.0757926 29.4267595,29.8540002 C29.1045298,30.6322078 29.2828688,31.5278978 29.8786016,32.1233317 C30.4743344,32.7187655 31.3701138,32.896655 32.1481595,32.5740348 C32.9262053,32.2514146 33.4332585,31.4918342 33.4328364,30.6495522 C33.4311084,29.500449 32.499701,28.5695089 31.350597,28.5683582 L31.350597,28.5683582 Z" id="Shape"></path>
            <path d="M23.249403,26.1977612 C21.2338934,26.1977612 19.6,24.5638678 19.6,22.5483582 C19.6,20.5328486 21.2338934,18.8989553 23.249403,18.8989553 C25.2649126,18.8989553 26.898806,20.5328486 26.898806,22.5483582 C26.8947822,24.5621988 25.2632436,26.1937375 23.249403,26.1977612 L23.249403,26.1977612 Z M23.249403,20.4661194 C22.0994142,20.4661194 21.1671642,21.3983695 21.1671642,22.5483582 C21.1671642,23.6983469 22.0994142,24.630597 23.249403,24.630597 C24.3993917,24.630597 25.3316418,23.6983469 25.3316418,22.5483582 C25.3276297,21.4000355 24.3977258,20.4701315 23.249403,20.4661194 L23.249403,20.4661194 Z" id="Shape"></path>
        </g>
    </g>
</svg>