<svg xmlns="http://www.w3.org/2000/svg" width="33.5" height="32.829" viewBox="0 0 33.5 32.829"><g id="baf6be82-2f83-4dc3-8559-8233531e7862" data-name="Layer 2"><g id="e2448451-9d7a-4330-99c6-421825abbac4" data-name="Layer 1"><path d="M8.918,14.668H5.75A5.757,5.757,0,0,1,0,8.918V5.75A5.757,5.757,0,0,1,5.75,0H8.918a5.757,5.757,0,0,1,5.75,5.75V8.918A5.757,5.757,0,0,1,8.918,14.668ZM5.75,1.5A4.255,4.255,0,0,0,1.5,5.75V8.918a4.255,4.255,0,0,0,4.25,4.25H8.918a4.255,4.255,0,0,0,4.25-4.25V5.75A4.255,4.255,0,0,0,8.918,1.5Z" fill="#1a1a1a"/><path d="M8.918,32.793H5.75A5.757,5.757,0,0,1,0,27.043V23.875a5.757,5.757,0,0,1,5.75-5.75H8.918a5.757,5.757,0,0,1,5.75,5.75v3.168A5.757,5.757,0,0,1,8.918,32.793ZM5.75,19.625a4.255,4.255,0,0,0-4.25,4.25v3.168a4.255,4.255,0,0,0,4.25,4.25H8.918a4.255,4.255,0,0,0,4.25-4.25V23.875a4.255,4.255,0,0,0-4.25-4.25Z" fill="#1a1a1a"/><path d="M27.75,14.668H24.582a5.757,5.757,0,0,1-5.75-5.75V5.75A5.757,5.757,0,0,1,24.582,0H27.75A5.757,5.757,0,0,1,33.5,5.75V8.918A5.757,5.757,0,0,1,27.75,14.668ZM24.582,1.5a4.255,4.255,0,0,0-4.25,4.25V8.918a4.255,4.255,0,0,0,4.25,4.25H27.75A4.255,4.255,0,0,0,32,8.918V5.75A4.255,4.255,0,0,0,27.75,1.5Z" fill="#1a1a1a"/><path d="M32.75,22.332H25a.75.75,0,0,1,0-1.5H32.75a.75.75,0,0,1,0,1.5Z" fill="#1a1a1a"/><path d="M27.265,30.086h-7.7a.75.75,0,0,1,0-1.5h7.7a.75.75,0,0,1,0,1.5Z" fill="#1a1a1a"/><path d="M30.007,32.829A3.493,3.493,0,1,1,33.5,29.336,3.5,3.5,0,0,1,30.007,32.829Zm0-5.485A1.993,1.993,0,1,0,32,29.336,1.995,1.995,0,0,0,30.007,27.344Z" fill="#1a1a1a"/><path d="M22.253,25.075a3.493,3.493,0,1,1,3.493-3.493A3.5,3.5,0,0,1,22.253,25.075Zm0-5.486a1.993,1.993,0,1,0,1.993,1.993A2,2,0,0,0,22.253,19.589Z" fill="#1a1a1a"/></g></g></svg>