<?xml version="1.0" encoding="UTF-8"?>
<svg width="30px" height="30px" viewBox="0 0 30 30" version="1.1" xmlns="http://www.w3.org/2000/svg" xmlns:xlink="http://www.w3.org/1999/xlink">
    <title>link-archethic-website</title>
    <g id="Page-1" stroke="none" stroke-width="1" fill="none" fill-rule="evenodd">
        <g id="link-archethic-website" fill="#1A1A1A" fill-rule="nonzero">
            <g id="Group">
                <g id="ec85795a-ace1-4f42-849e-c7fb2831251c">
                    <path d="M4.29073202,17 C3.89927477,17.0007991 3.53092059,16.8159263 3.29917824,16.5023477 C2.91793727,15.983556 2.66104957,15.580232 2.53342384,15.3639333 C2.07471338,14.6153965 1.67325244,13.833652 1.33243296,13.0253049 C0.405789876,10.8192401 -0.0467566493,8.44503596 0.00381634734,6.05495621 C0.0169061662,5.55242758 0.0512669406,5.05152525 0.106898671,4.56851228 L0.142895672,4.25951409 C0.182066122,3.9375753 0.349445575,3.64467993 0.607584241,3.44636096 L0.848109662,3.25933574 C1.23098686,2.963348 1.63349879,2.68037071 2.05073677,2.4185354 C4.04348872,1.19702415 6.27418129,0.409375562 8.59564619,0.107554188 C11.9946429,-0.268624345 15.4303107,0.346758149 18.4833681,1.87860171 C20.8430905,2.97633989 22.9916082,4.47558622 24.8319302,6.30865999 C25.2824799,6.78924936 25.2691856,7.53816334 24.8018593,8.00265605 C24.334533,8.46714876 23.5810504,8.48036248 23.0975292,8.03254464 C22.4287113,7.36972163 21.7147142,6.75351694 20.9606163,6.18831333 C19.8664675,5.37345159 18.6915804,4.6715948 17.4541811,4.09363085 C14.8167833,2.76413971 11.8492863,2.21975491 8.90816561,2.52587161 C6.94310106,2.78079449 5.05448553,3.44586592 3.36626356,4.47743913 C3.07665132,4.65958543 2.79522021,4.85474219 2.5252427,5.05477786 C2.4892457,5.4028074 2.46797474,5.76059478 2.45979361,6.11838216 C2.41847327,8.1665833 2.8086123,10.2007321 3.60515275,12.0901788 C3.89833493,12.7854188 4.24345177,13.4578768 4.63761222,14.1019196 C4.74560322,14.2775607 4.96485769,14.619085 5.29210316,15.0581877 C5.56425477,15.4276996 5.60523886,15.9175924 5.39822653,16.3267061 C5.1912142,16.7358199 4.77109051,16.9952121 4.31036674,16.9983711 L4.29073202,17 Z" id="Path"></path>
                </g>
                <g id="b64788e9-89bc-48ba-a95c-3e8700063627" transform="translate(3.870968, 5.000000)">
                    <path d="M10.4041575,25 C10.2439978,24.9995035 10.0856288,24.9631564 9.93881575,24.8932 L9.6720198,24.7660572 C9.25321222,24.5660192 8.83130235,24.3354669 8.41869932,24.0879622 C6.46321901,22.8600678 4.76157145,21.2029359 3.42092875,19.2209352 C1.4906748,16.2637816 0.345189412,12.7814605 0.11079766,9.15800519 C-0.0369325533,7.53231567 -0.0369325533,5.89462964 0.11079766,4.26894012 C0.2126049,3.15830162 0.384151649,2.05662562 0.624224741,0.971703105 C0.722312596,0.530184226 1.02847505,0.179394507 1.42738368,0.0514730397 C1.82629231,-0.0764484271 2.2573434,0.0379326721 2.55816417,0.351530084 C2.85898495,0.665127497 2.98387358,1.13029831 2.88578572,1.57181719 C2.6693698,2.54289407 2.51389408,3.52899165 2.42044396,4.52322575 C2.28881571,5.97644843 2.28881571,7.44032545 2.42044396,8.89354813 C2.62058254,12.0631065 3.61202082,15.1120322 5.28694923,17.7087833 C6.42952852,19.4003068 7.87967085,20.8154824 9.54637753,21.8655058 C9.82713373,22.0350295 10.1140945,22.2045533 10.4010552,22.3401723 C10.688016,22.1960771 10.9749767,22.0367248 11.2557329,21.8655058 C12.9339168,20.8349745 14.3864045,19.4170554 15.512059,17.7104786 C15.9320861,17.0735257 16.3079906,16.403172 16.6366349,15.7050126 C16.726601,15.5117555 16.8972263,15.1337175 17.1019767,14.6048034 C17.250584,14.1710057 17.6032958,13.8598588 18.0226398,13.7926349 C18.4419839,13.725411 18.8615986,13.9127482 19.1179358,14.2816304 C19.374273,14.6505126 19.426767,15.1425638 19.2549579,15.5660031 C19.0207359,16.1915457 18.8190878,16.6390885 18.7120592,16.8679455 C18.3295087,17.6809873 17.8913603,18.4613172 17.4013465,19.2022876 C16.0768352,21.2050472 14.3693194,22.8687243 12.3973714,24.0777908 C11.9847684,24.3303812 11.5613074,24.5592382 11.1424998,24.7558858 L10.877255,24.8830286 C10.7288427,24.9579634 10.5676305,24.9978224 10.4041575,25 L10.4041575,25 Z" id="Path"></path>
                </g>
                <g id="a497285f-a5f3-4168-b328-0c51a0ce8c45" transform="translate(13.548387, 0.000000)">
                    <path d="M1.21993751,24.9992689 C0.611578468,24.9885731 0.100559547,24.5350289 0.0130157107,23.9280905 C-0.0745281252,23.3211522 0.287204701,22.7397011 0.8673544,22.5548225 C1.77499922,22.283883 2.66275657,21.9493558 3.52414265,21.5536841 C4.78385934,20.964473 5.98123019,20.2483524 7.09797806,19.4162535 C9.61356426,17.6473466 11.5909903,15.207496 12.8088313,12.3699073 C13.5961853,10.4328045 13.9901934,8.35622165 13.9675552,6.26296276 C13.9675552,5.90088436 13.9377594,5.53880595 13.9013424,5.1834018 C13.6265593,4.97649985 13.340189,4.77960929 13.045542,4.59273011 C10.6916859,3.11857402 7.95135617,2.39457239 5.18277307,2.51536782 C4.98082406,2.52537921 4.58023667,2.54873911 4.04225774,2.62048736 C3.37158447,2.69288441 2.76626481,2.21226406 2.67900527,1.5380727 C2.59174572,0.863881338 3.05447438,0.242804232 3.72112571,0.139332565 C4.35842382,0.0542357967 4.83515592,0.0258702072 5.08014325,0.0141902586 C5.95540373,-0.0221464959 6.83214437,0.0113290908 7.70216978,0.114304104 C10.06886,0.396504345 12.3445016,1.20214334 14.3664872,2.47365372 C14.7919044,2.74562967 15.204079,3.03262269 15.5897686,3.33463279 L15.8331006,3.52151197 C16.099528,3.7271473 16.2716043,4.03309936 16.3098327,4.36914252 L16.3462497,4.68450114 C16.4041859,5.18507036 16.4389476,5.68563959 16.4505348,6.20456302 C16.476935,8.64426708 16.0182149,11.0645826 15.1014492,13.3226574 C13.7197822,16.5810293 11.4626389,19.385591 8.58445523,21.4201989 C7.32718937,22.3567434 5.97892899,23.1623328 4.56037284,23.8245998 C3.59216024,24.2746002 2.59307765,24.6537873 1.57086531,24.9592234 C1.45648414,24.9899193 1.33823159,25.0034135 1.21993751,24.9992689 L1.21993751,24.9992689 Z" id="Path"></path>
                </g>
            </g>
        </g>
    </g>
</svg>