<svg xmlns="http://www.w3.org/2000/svg" width="33.5" height="37.12109" viewBox="0 0 33.5 37.12109"><g id="aaa8d700-fdb8-4ec1-8fc7-d4af20efbaf1" data-name="Layer 2"><g id="a7053192-f85a-40a9-a164-8eebe5793f3d" data-name="Layer 1"><path d="M1.25928,9.19043A.74984.74984,0,0,1,.564,8.16016C2.50146,3.35547,9.15723,0,16.75,0c7.2251,0,13.6084,3.01318,15.88428,7.49805a.7501.7501,0,1,1-1.33789.67871C29.27,4.18311,23.42383,1.5,16.75,1.5,9.75342,1.5,3.66992,4.46924,1.95557,8.7207A.75087.75087,0,0,1,1.25928,9.19043Z" fill="#1a1a1a"/><path d="M10.771,36.11035a.74757.74757,0,0,1-.53028-.21973A18.26311,18.26311,0,0,1,5.05664,21.8877a11.69546,11.69546,0,0,1,23.39063.083.75.75,0,0,1-1.5,0,10.19751,10.19751,0,0,0-20.395,0,17.08747,17.08747,0,0,0,4.749,12.85938.75.75,0,0,1-.53027,1.28027Z" fill="#1a1a1a"/><path d="M19.99121,37.12109a.74331.74331,0,0,1-.28125-.05517c-9.76611-3.959-8.60156-14.57324-8.58887-14.67969a5.63166,5.63166,0,0,1,11.26221.01709c.1084.53418,1.05762,4.502,5.314,4.502a4.0475,4.0475,0,0,0,2.91406-.8833A5.2106,5.2106,0,0,0,32,21.9707a15.25,15.25,0,0,0-30.5,0v5.895a.75.75,0,0,1-1.5,0v-5.895a16.75,16.75,0,0,1,33.5,0,6.59537,6.59537,0,0,1-1.90771,5.18653,5.45641,5.45641,0,0,1-3.9878,1.24218h-.01074a6.85707,6.85707,0,0,1-6.69922-5.79687.73346.73346,0,0,1-.01074-.12647,4.134,4.134,0,1,0-8.26807,0c-.05127.479-1.03125,9.67725,7.65772,13.2002a.74992.74992,0,0,1-.28223,1.44482Z" fill="#1a1a1a"/><path d="M29.29736,33.66846a15.30043,15.30043,0,0,1-10.01855-3.25489A9.19308,9.19308,0,0,1,16,23.26367a.75.75,0,0,1,1.5,0,7.69918,7.69918,0,0,0,2.73291,5.99268,13.847,13.847,0,0,0,9.06445,2.91211.75.75,0,1,1,0,1.5Z" fill="#1a1a1a"/></g></g></svg>