<?xml version="1.0" encoding="UTF-8"?>
<svg width="35px" height="35px" viewBox="0 0 35 35" version="1.1" xmlns="http://www.w3.org/2000/svg" xmlns:xlink="http://www.w3.org/1999/xlink">
    <title>carré</title>
    <g id="Page-1" stroke="none" stroke-width="1" fill="none" fill-rule="evenodd">
        <g id="authent-at-launch" fill="#1A1A1A" fill-rule="nonzero">
            <path d="M12.7727014,20.1336794 L3.91115106,20.1336794 C1.75206675,20.1313037 0.00237559906,18.3816126 0,16.2225283 L0,3.91115106 C0.00237559906,1.75206675 1.75206675,0.00237559906 3.91115106,0 L30.7173625,0 C32.8764469,0.00237559906 34.6261379,1.75206675 34.6285136,3.91115106 L34.6285136,14.433764 C34.6285136,14.8619312 34.2814155,15.2090292 33.8532484,15.2090292 C33.4250812,15.2090292 33.0779831,14.8619312 33.0779831,14.433764 L33.0779831,3.91115106 C33.0765475,2.60801141 32.0205022,1.55196607 30.7173625,1.55053046 L3.91115106,1.55053046 C2.60801141,1.55196607 1.55196607,2.60801141 1.55053046,3.91115106 L1.55053046,16.2225283 C1.55197175,17.5256656 2.60801377,18.5817076 3.91115106,18.5831489 L12.7727014,18.5831489 C13.2008686,18.5831489 13.5479667,18.930247 13.5479667,19.3584141 C13.5479667,19.7865813 13.2008686,20.1336794 12.7727014,20.1336794 L12.7727014,20.1336794 Z" id="Path"></path>
            <circle id="Oval" cx="26.5823976" cy="10.0666329" r="1.41696776"></circle>
            <circle id="Oval" cx="17.31405" cy="10.0666329" r="1.41696776"></circle>
            <circle id="Oval" cx="8.04571289" cy="10.0666329" r="1.41696776"></circle>
            <path d="M26.5826147,35 C23.1731636,35 19.5582878,29.4863137 19.1575274,28.8574289 C19.0781717,28.73285 19.0358935,28.5882288 19.0358935,28.4405223 L19.0358935,21.7508413 C19.0358935,21.4391236 19.222586,21.1577234 19.5098286,21.0366462 L26.2812845,18.1793701 C26.4738449,18.0976088 26.6913637,18.0976088 26.883924,18.1793701 L33.6548838,21.0366462 C33.9421263,21.1577234 34.128819,21.4391236 34.128819,21.7508413 L34.128819,28.4405325 C34.128819,28.59026 34.0855004,28.7367901 34.0041563,28.862494 C33.5963358,29.4908723 29.9249381,35 26.5826147,35 Z M20.5864239,28.2103511 C21.6594737,29.8320406 24.4915175,33.4494488 26.5826147,33.4494488 C28.4183187,33.4494488 31.1721228,30.3125501 32.5782988,28.2083251 L32.5782988,22.2651522 L26.5826147,19.734945 L20.5864239,22.2651522 L20.5864239,28.2103511 Z" id="Shape"></path>
        </g>
    </g>
</svg>