<svg xmlns="http://www.w3.org/2000/svg" width="33.5" height="33.85938" viewBox="0 0 33.5 33.85938"><g id="ba9e4c98-284a-41c9-b1a1-d555d9df7081" data-name="Layer 2"><g id="f08c65ec-78db-4cec-9d84-832c75aa990a" data-name="Layer 1"><path d="M12.35645,19.47754H3.78369A3.78786,3.78786,0,0,1,0,15.69385V3.78369A3.78786,3.78786,0,0,1,3.78369,0H29.71631A3.78786,3.78786,0,0,1,33.5,3.78369V13.96338a.75.75,0,0,1-1.5,0V3.78369A2.28621,2.28621,0,0,0,29.71631,1.5H3.78369A2.28621,2.28621,0,0,0,1.5,3.78369V15.69385a2.28622,2.28622,0,0,0,2.28369,2.28369h8.57276a.75.75,0,0,1,0,1.5Z" fill="#1a1a1a"/><circle cx="25.7161" cy="9.73857" r="1.37079" fill="#1a1a1a"/><circle cx="16.7498" cy="9.73857" r="1.37079" fill="#1a1a1a"/><circle cx="7.78351" cy="9.73857" r="1.37079" fill="#1a1a1a"/><path d="M25.71631,33.85938c-3.29834,0-6.79541-5.334-7.18311-5.94239a.75151.75151,0,0,1-.11767-.40332V21.042a.74968.74968,0,0,1,.45849-.69092l6.55078-2.76416a.74585.74585,0,0,1,.583,0l6.5503,2.76416a.74968.74968,0,0,1,.45849.69092v6.47168a.75164.75164,0,0,1-.1206.40821C32.50146,28.52979,28.94971,33.85938,25.71631,33.85938ZM19.91553,27.291c1.03808,1.56884,3.77783,5.06836,5.80078,5.06836,1.77588,0,4.43994-3.03467,5.80029-5.07032V21.53955L25.71631,19.0918l-5.80078,2.44775Z" fill="#1a1a1a"/></g></g></svg>