<?xml version="1.0" encoding="UTF-8"?>
<svg width="35px" height="35px" viewBox="0 0 35 35" version="1.1" xmlns="http://www.w3.org/2000/svg" xmlns:xlink="http://www.w3.org/1999/xlink">
    <title>carré</title>
    <g id="Page-1" stroke="none" stroke-width="1" fill="none" fill-rule="evenodd">
        <g id="authent" transform="translate(0.000000, 0.972222)" fill="#1A1A1A" fill-rule="nonzero">
            <path d="M3.09878824,8.45236631 C2.87039084,8.45236631 2.65693332,8.33882954 2.52917039,8.14950968 C2.40140746,7.96018983 2.37602861,7.7197726 2.46144614,7.50794904 C4.23745698,3.10363539 10.3385995,0.0277777778 17.2986616,0.0277777778 C23.9216918,0.0277777778 29.7730693,2.78986853 31.8592994,6.90101288 C31.9707819,7.12012975 31.9567944,7.38209593 31.8226131,7.58809573 C31.6884318,7.79409551 31.4544753,7.91278133 31.208994,7.89938395 C30.9635128,7.88598656 30.7438622,7.7425447 30.6328963,7.52316576 C28.775366,3.86230789 23.4163592,1.4027823 17.2986616,1.4027823 C10.8851088,1.4027823 5.30854884,4.12459458 3.73705617,8.02177906 C3.63197818,8.28200778 3.37943102,8.45236631 3.09878824,8.45236631 Z" id="Path"></path>
            <path d="M11.8178936,33.1290413 C11.6355158,33.1290413 11.4605742,33.0567697 11.331802,32.927621 C7.99112781,29.5215225 6.26237313,24.8519161 6.57971302,20.0915688 C6.62130493,14.1853615 11.4320463,9.42529976 17.3383628,9.44612048 C23.2446793,9.46721606 28.0215185,14.2612987 28.0211944,20.1676523 C28.0211944,20.5473493 27.7133891,20.8551546 27.3336921,20.8551546 C26.9539951,20.8551546 26.6461898,20.5473493 26.6461898,20.1676523 C26.638967,15.0101502 22.4559579,10.8329952 17.2984507,10.8329952 C12.1409436,10.8329952 7.95793453,15.0101502 7.9507117,20.1676523 C7.69301513,24.5322816 9.27129852,28.80597 12.303976,31.9554561 C12.5005538,32.1520784 12.5593521,32.4477465 12.4529589,32.7046194 C12.3465657,32.9614922 12.0959281,33.1290413 11.8178936,33.1290413 L11.8178936,33.1290413 Z" id="Path"></path>
            <path d="M20.2697805,34.0555556 C20.1813757,34.0555556 20.0938105,34.0384059 20.0119671,34.0049829 C11.0596703,30.3758875 12.1271779,20.6461356 12.1388105,20.5485561 C12.1824934,17.7258922 14.4853995,15.4617886 17.308398,15.4660724 C20.1313966,15.4703562 22.4274207,17.7414385 22.4625369,20.564222 C22.5619039,21.0538885 23.4320251,24.6910689 27.3337196,24.6910689 C28.29558,24.7791621 29.2538784,24.4886859 30.0049501,23.8813745 C30.9418905,22.8831093 31.4054172,21.5307825 31.2778742,20.1676523 C31.2778742,12.4471463 25.0191676,6.1884397 17.2986616,6.1884397 C9.57815565,6.1884397 3.31944897,12.4471463 3.31944897,20.1676523 L3.31944897,25.5714201 C3.31944896,25.9511171 3.01164372,26.2589224 2.6319467,26.2589224 C2.2522497,26.2589224 1.94444444,25.9511171 1.94444444,25.5714201 L1.94444444,20.1676523 C1.94444444,11.6877523 8.81876162,4.81343518 17.2986616,4.81343518 C25.7785616,4.81343518 32.6528788,11.6877523 32.6528788,20.1676523 C32.7940215,21.9320093 32.1549004,23.6696005 30.9041388,24.9219872 C29.8848891,25.7713492 28.5699364,26.1809505 27.2486435,26.0606559 L27.2387985,26.0606559 C24.1687553,26.0268697 21.5723415,23.7801793 21.0978266,20.7468409 C21.0912011,20.7085542 21.0879072,20.6697653 21.0879815,20.6309097 C21.0879815,18.5380021 19.3913447,16.8413652 17.298437,16.8413652 C15.2055293,16.8413652 13.5088925,18.5380021 13.5088925,20.6309097 C13.4618948,21.0699945 12.5635768,29.5017514 20.5284922,32.7311328 C20.8333002,32.8548047 21.0077811,33.1770776 20.9447177,33.4999176 C20.8816544,33.8227576 20.5987222,34.0555556 20.2697805,34.0555556 L20.2697805,34.0555556 Z" id="Path"></path>
            <path d="M28.8004461,30.8906342 C25.4825532,31.0144475 22.2283249,29.9571933 19.616745,27.9069753 C17.6836328,26.2828423 16.5805955,23.8775168 16.6111594,21.3528787 C16.6111594,20.9731818 16.9189645,20.6653765 17.2986616,20.6653765 C17.6783587,20.6653765 17.9861638,20.9731818 17.9861638,21.3528787 C17.9563147,23.4667724 18.8756694,25.4827181 20.4913396,26.8461868 C22.8584609,28.6901401 25.8022861,29.6358945 28.8004461,29.5156298 C29.1801431,29.5156298 29.4879483,29.823435 29.4879483,30.203132 C29.4879483,30.582829 29.1801431,30.8906342 28.8004461,30.8906342 L28.8004461,30.8906342 Z" id="Path"></path>
        </g>
    </g>
</svg>