<svg xmlns="http://www.w3.org/2000/svg" width="33.49971" height="36.63583" viewBox="0 0 33.49971 36.63583"><g id="a4674d57-3a7f-4737-9188-1f582890d545" data-name="Layer 2"><g id="b35b5c21-8fef-4090-8966-79f0bbf66b4d" data-name="Layer 1"><path d="M16.82036,36.63583a16.80921,16.80921,0,0,1-.10009-33.61817h.00293a.75.75,0,0,1,.00293,1.5,15.30853,15.30853,0,1,0,15.2788,17.15381.75009.75009,0,1,1,1.48926.18066A16.83406,16.83406,0,0,1,16.82036,36.63583Z" fill="#1a1a1a"/><path d="M15.607,7.48885a.75.75,0,0,1-.50439-1.30468L17.68413,3.836,15.336,1.25448A.75006.75006,0,1,1,16.44536.24471l2.853,3.13672A.74994.74994,0,0,1,19.2481,4.441L16.11138,7.29354A.74616.74616,0,0,1,15.607,7.48885Z" fill="#1a1a1a"/><path d="M32.564,18.07333a.74968.74968,0,0,1-.74024-.63624,15.21384,15.21384,0,0,0-1.85889-5.29443.74985.74985,0,0,1,1.29981-.748,16.68926,16.68926,0,0,1,2.0415,5.81495.74957.74957,0,0,1-.62744.855A.76141.76141,0,0,1,32.564,18.07333Z" fill="#1a1a1a"/><path d="M28.1148,9.233a.74747.74747,0,0,1-.53369-.22314,15.20067,15.20067,0,0,0-4.666-3.23145.75021.75021,0,1,1,.60938-1.37109,16.70577,16.70577,0,0,1,5.124,3.54883A.75.75,0,0,1,28.1148,9.233Z" fill="#1a1a1a"/><path d="M20.47515,27.79305h-7.333a.75.75,0,0,1-.72217-.95263l1.59766-5.69434a5.013,5.013,0,0,1-2.27344-4.22119,5.06446,5.06446,0,1,1,10.12891,0,5.013,5.013,0,0,1-2.27344,4.22119l1.59766,5.69434a.75.75,0,0,1-.72217.95263Zm-6.34375-1.5h5.35449l-1.48828-5.30469a.75025.75025,0,0,1,.3916-.876,3.527,3.527,0,0,0,1.98389-3.1875,3.56446,3.56446,0,1,0-7.12891,0,3.527,3.527,0,0,0,1.98389,3.1875.75025.75025,0,0,1,.3916.876Z" fill="#1a1a1a"/></g></g></svg>