<?xml version="1.0" encoding="UTF-8"?>
<svg width="35px" height="36px" viewBox="0 0 35 36" version="1.1" xmlns="http://www.w3.org/2000/svg" xmlns:xlink="http://www.w3.org/1999/xlink">
    <title>carré</title>
    <g id="Page-1" stroke="none" stroke-width="1" fill="none" fill-rule="evenodd">
        <g id="auto-lock" transform="translate(0.000000, 0.972222)" fill="#1A1A1A" fill-rule="nonzero">
            <path d="M18.0658793,35.0277778 C9.21301314,35.0324295 2.02650216,27.8710504 2,19.0182222 C1.97378784,10.1653941 9.11752922,2.96135014 17.9702661,2.91328945 L17.9730651,2.91328945 C18.3687515,2.91251934 18.6901453,3.23266 18.6909183,3.62834642 C18.6916911,4.02403284 18.3715505,4.34542663 17.9758641,4.34619955 C10.1386779,4.38813796 3.72785273,10.600983 3.44017027,18.4329996 C3.15248781,26.2650162 9.09023678,32.9314441 16.9032266,33.5482384 C24.7162165,34.1650327 31.6264519,28.5128855 32.5712669,20.732746 C32.6016932,20.4782702 32.765717,20.2594217 33.0014281,20.1588038 C33.2371393,20.0581859 33.508642,20.0911215 33.7134588,20.2451792 C33.9182757,20.3992369 34.0252156,20.6509556 33.9939146,20.9053254 C33.0060029,28.9561281 26.1770513,35.010956 18.0658793,35.0277778 Z" id="Path"></path>
            <path d="M16.906791,7.18449426 C16.6109407,7.18432835 16.345617,7.00233309 16.2389359,6.72638637 C16.1322546,6.45043966 16.2061585,6.13729887 16.4249616,5.93816912 L18.8910142,3.69502915 L16.6479124,1.22897657 C16.4742403,1.0398805 16.4150199,0.772313572 16.4926754,0.52759136 C16.5703308,0.282869149 16.772991,0.0984023513 17.0239174,0.0440402574 C17.2748439,-0.0103218365 17.5356776,0.07373111 17.7076525,0.264372021 L20.4330422,3.26079136 C20.56093,3.4013663 20.6277214,3.58699574 20.6187169,3.77682596 C20.6097124,3.96665619 20.5256501,4.14512997 20.3850303,4.27296843 L17.3886109,6.9979187 C17.2569903,7.11818 17.0850792,7.18474871 16.906791,7.18449426 Z" id="Path"></path>
            <path d="M33.1053305,17.2955453 C32.75195,17.2951646 32.4516729,17.0370749 32.3982003,16.6877633 C32.1249925,14.9063716 31.5228377,13.191334 30.6224556,11.6301451 C30.4281822,11.287557 30.5469216,10.8523912 30.8882734,10.6559539 C31.2296251,10.4595166 31.6655337,10.5755 31.8641271,10.9156019 C32.853394,12.6300989 33.5147298,14.5138288 33.8143139,16.4704581 C33.8432276,16.6582617 33.7963081,16.8498567 33.6838881,17.0030493 C33.5714681,17.1562418 33.4027675,17.258468 33.2149384,17.2872153 C33.1786649,17.2927528 33.1420243,17.2955453 33.1053305,17.2955453 Z" id="Path"></path>
            <path d="M28.8551364,8.85063085 C28.6634761,8.85087848 28.479762,8.77406622 28.3453175,8.63747035 C27.0665344,7.33778303 25.5544147,6.29056076 23.8880205,5.55055813 C23.6531295,5.44715856 23.4914609,5.22604764 23.4641663,4.97086089 C23.4368716,4.71567415 23.5481181,4.46537237 23.7558265,4.31463257 C23.9635349,4.16389278 24.2359933,4.13572925 24.4701439,4.24079488 C26.2999746,5.05374859 27.9604742,6.20379366 29.3649553,7.63089118 C29.5679041,7.8365124 29.6274936,8.14391004 29.5160779,8.41047124 C29.4046623,8.67703242 29.1440452,8.85063085 28.8551364,8.85063085 L28.8551364,8.85063085 Z" id="Path"></path>
            <path d="M21.5571961,26.5805172 L14.5521899,26.5805172 C14.3279588,26.5805172 14.1166516,26.4755721 13.9811906,26.2968826 C13.8457296,26.1181931 13.8017403,25.8863892 13.8623216,25.6704969 L15.3885207,20.2308559 C14.0270963,19.3424772 13.2093276,17.8240925 13.2166681,16.1984732 C13.2143371,14.4684282 14.1359092,12.8687595 15.6337684,12.0030344 C17.1316275,11.1373093 18.9777682,11.1373093 20.4756273,12.0030344 C21.9734864,12.8687595 22.8950586,14.4684282 22.8927275,16.1984732 C22.900068,17.8240925 22.0822995,19.3424772 20.720875,20.2308559 L22.2470742,25.6704969 C22.3076555,25.8863892 22.2636661,26.1181931 22.1282051,26.2968826 C21.9927441,26.4755721 21.7814369,26.5805172 21.5572057,26.5805172 L21.5571961,26.5805172 Z M15.4971924,25.1476099 L20.6121843,25.1476099 L19.1904727,20.0801905 C19.0971768,19.7475476 19.2544686,19.3956898 19.564557,19.2433727 C20.7288898,18.6768804 21.4655708,17.4932611 21.4597797,16.1984446 C21.4617505,14.9805888 20.8132034,13.8543698 19.758848,13.2448522 C18.7044926,12.6353348 17.404884,12.6353348 16.3505285,13.2448522 C15.2961732,13.8543698 14.647626,14.9805888 14.6495969,16.1984446 C14.6438058,17.4932611 15.3804868,18.6768804 16.5448195,19.2433727 C16.854908,19.3956898 17.0121998,19.7475476 16.9189039,20.0801905 L15.4971924,25.1476099 Z" id="Shape"></path>
        </g>
    </g>
</svg>