<svg xmlns="http://www.w3.org/2000/svg" xmlns:xlink="http://www.w3.org/1999/xlink" width="33.91583" height="33.98242" viewBox="0 0 33.91583 33.98242"><defs><linearGradient id="a5580d53-86b3-477e-840d-d0e151b2fb43" x1="8.27153" y1="39.09622" x2="25.64438" y2="21.72337" gradientUnits="userSpaceOnUse"><stop offset="0.1676" stop-color="#2288e1"/><stop offset="0.27031" stop-color="#2e7ee2"/><stop offset="0.45459" stop-color="#4d64e6"/><stop offset="0.69719" stop-color="#7f3aeb"/><stop offset="0.90503" stop-color="#af12f0"/></linearGradient><linearGradient id="b0077b0c-fc1c-4628-9f26-00e05c2af568" x1="11.04825" y1="17.31348" x2="22.86709" y2="5.49463" gradientUnits="userSpaceOnUse"><stop offset="0" stop-color="#2288e1"/><stop offset="0.11127" stop-color="#2e7ee2"/><stop offset="0.31091" stop-color="#4d64e6"/><stop offset="0.57372" stop-color="#7f3aeb"/><stop offset="0.79888" stop-color="#af12f0"/></linearGradient><linearGradient id="a1735867-fc39-4b3f-9b2f-e073a9f5f2e3" x1="22.63955" y1="13.44971" x2="26.73038" y2="9.35889" gradientUnits="userSpaceOnUse"><stop offset="0" stop-color="#2288e1"/><stop offset="0.05291" stop-color="#2e7ee2"/><stop offset="0.14784" stop-color="#4d64e6"/><stop offset="0.27282" stop-color="#7f3aeb"/><stop offset="0.37989" stop-color="#af12f0"/></linearGradient></defs><g id="b88d1717-6862-44fe-a8a5-78a04f4038af" data-name="Layer 2"><g id="b915c026-dc84-4d8d-a6ba-30c23afbcb70" data-name="Layer 1"><path d="M33.86416,30.09375a.996.996,0,0,0-1.26464-.63184,49.7849,49.7849,0,0,1-31.28321,0A.99964.99964,0,1,0,.6835,31.3584a51.50378,51.50378,0,0,0,16.27441,2.624,51.5038,51.5038,0,0,0,16.27442-2.624A.99914.99914,0,0,0,33.86416,30.09375Z" fill="url(#a5580d53-86b3-477e-840d-d0e151b2fb43)"/><path d="M6.55362,12.4043h9.40429v9.40332a1,1,0,0,0,2,0V11.58356a.94794.94794,0,0,0,.03614-.17926.94779.94779,0,0,0-.03614-.17926V1a1,1,0,1,0-2,0v9.4043H6.55362a1,1,0,1,0,0,2Z" fill="url(#b0077b0c-fc1c-4628-9f26-00e05c2af568)"/><path d="M22.0087,12.4043h5.35253a1,1,0,0,0,0-2H22.0087a1,1,0,1,0,0,2Z" fill="url(#a1735867-fc39-4b3f-9b2f-e073a9f5f2e3)"/></g></g></svg>