<svg xmlns="http://www.w3.org/2000/svg" width="33.5" height="22.03906" viewBox="0 0 33.5 22.03906"><g id="b77d9f4b-f142-4223-8caf-0b117ea7e349" data-name="Layer 2"><g id="e35a2416-2857-4c35-9e28-ef7d8b5e19cf" data-name="Layer 1"><path d="M11.50781,17.68457A6.665,6.665,0,1,1,15.82422,5.94092a.74994.74994,0,0,1-.97168,1.14258,5.165,5.165,0,1,0-.00049,7.87255.74994.74994,0,0,1,.97168,1.14258A6.66565,6.66565,0,0,1,11.50781,17.68457Z" fill="#1a1a1a"/><path d="M10.78955,10.54492H4.12988a.75.75,0,0,1,0-1.5h6.65967a.75.75,0,0,1,0,1.5Z" fill="#1a1a1a"/><path d="M10.78955,12.99414H4.12988a.75.75,0,0,1,0-1.5h6.65967a.75.75,0,0,1,0,1.5Z" fill="#1a1a1a"/><path d="M11.01953,22.03906A11.01953,11.01953,0,1,1,22.03906,11.01953,11.032,11.032,0,0,1,11.01953,22.03906Zm0-20.53906a9.51953,9.51953,0,1,0,9.51953,9.51953A9.5304,9.5304,0,0,0,11.01953,1.5Z" fill="#1a1a1a"/><path d="M21.79883,20.45947a.75.75,0,0,1-.3418-1.418,9.00823,9.00823,0,0,0-.00049-16.04394.75012.75012,0,0,1,.68262-1.33594,10.50866,10.50866,0,0,1,.00049,18.71582A.7469.7469,0,0,1,21.79883,20.45947Z" fill="#1a1a1a"/><path d="M27.74463,19.86475a.75.75,0,0,1-.33594-1.4209A8.29816,8.29816,0,0,0,27.4082,3.59521a.75008.75008,0,1,1,.6709-1.34179,9.79846,9.79846,0,0,1,.00049,17.53222A.7492.7492,0,0,1,27.74463,19.86475Z" fill="#1a1a1a"/></g></g></svg>