<?xml version="1.0" encoding="UTF-8"?>
<svg width="35px" height="36px" viewBox="0 0 35 36" version="1.1" xmlns="http://www.w3.org/2000/svg" xmlns:xlink="http://www.w3.org/1999/xlink">
    <title>carré</title>
    <g id="Page-1" stroke="none" stroke-width="1" fill="none" fill-rule="evenodd">
        <g id="currency" transform="translate(0.000000, 0.972222)" fill="#1A1A1A" fill-rule="nonzero">
            <path d="M12.0230834,24.5041915 C8.94113812,24.5041915 6.22585864,22.4781021 5.34819985,19.5237661 C4.47054108,16.56943 5.63929971,13.3895903 8.22132129,11.706869 C10.8033428,10.0241478 14.1843595,10.2388678 16.5327647,12.2347082 C16.862407,12.5150446 16.9023773,13.00953 16.6220409,13.3391722 C16.3417044,13.6688144 15.8472191,13.7087847 15.5175768,13.4284483 C13.3328266,11.5721422 10.0779073,11.7482256 8.1061648,13.829388 C6.13442227,15.9105505 6.13421938,19.1702292 8.10570283,21.2516371 C10.0771863,23.333045 13.3320837,23.5095335 15.5170649,21.6534994 C15.730306,21.4721536 16.0240958,21.4183458 16.2877666,21.5123452 C16.5514372,21.6063445 16.7449309,21.83387 16.7953604,22.1092152 C16.84579,22.3845604 16.745494,22.6658936 16.5322528,22.8472395 C15.2733017,23.9169013 13.6750924,24.5041915 12.0230834,24.5041915 Z" id="Path"></path>
            <path d="M11.2726626,17.0448568 L4.31479937,17.0448568 C3.882039,17.0448568 3.5312174,16.6940352 3.5312174,16.2612748 C3.5312174,15.8285144 3.882039,15.4776928 4.31479937,15.4776928 L11.2726626,15.4776928 C11.705423,15.4776928 12.0562445,15.8285144 12.0562445,16.2612748 C12.0562445,16.6940352 11.705423,17.0448568 11.2726626,17.0448568 L11.2726626,17.0448568 Z" id="Path"></path>
            <path d="M11.2726626,19.603743 L4.31479937,19.603743 C3.88203901,19.603743 3.53121743,19.2529213 3.53121743,18.8201609 C3.53121743,18.3874007 3.88203901,18.036579 4.31479937,18.036579 L11.2726626,18.036579 C11.705423,18.036579 12.0562445,18.3874007 12.0562445,18.8201609 C12.0562445,19.2529213 11.705423,19.603743 11.2726626,19.603743 L11.2726626,19.603743 Z" id="Path"></path>
            <path d="M11.5129401,29.053658 C5.15451886,29.053658 0,23.8991391 0,17.5407179 C0,11.1822966 5.15451886,6.02777778 11.5129401,6.02777778 C17.8713613,6.02777778 23.0258802,11.1822966 23.0258802,17.5407179 C23.0187005,23.8961628 17.868385,29.0464782 11.5129401,29.053658 Z M11.5129401,7.59494173 C6.02003961,7.59494173 1.56716395,12.0478174 1.56716395,17.5407179 C1.56716395,23.0336183 6.02003961,27.4864941 11.5129401,27.4864941 C17.0058406,27.4864941 21.4587163,23.0336183 21.4587163,17.5407179 C21.4524578,12.0504118 17.0032461,7.60120019 11.5129401,7.59494173 Z" id="Shape"></path>
            <path d="M22.7748936,27.4033412 C22.4125487,27.4037308 22.0971941,27.1556335 22.0122849,26.8033773 C21.9273759,26.4511212 22.0950603,26.0865903 22.4177893,25.921848 C25.5661257,24.3132837 27.5474,21.0759933 27.5472921,17.5405299 C27.5471841,14.0050665 25.565712,10.7678971 22.4172773,9.15952508 C22.0330321,8.96196542 21.8811581,8.49069374 22.0777483,8.1059516 C22.2743385,7.72120946 22.7452257,7.56814765 23.1304622,7.76376707 C26.8030547,9.64013384 29.11435,13.416371 29.114458,17.5405299 C29.1145659,21.6646888 26.8034683,25.4410469 23.1309743,27.317606 C23.0207631,27.3740285 22.898708,27.4033412 22.7748936,27.4033412 Z" id="Path"></path>
            <path d="M28.9869226,26.7819918 C28.6233456,26.7823256 28.3072965,26.5325222 28.2236431,26.1786995 C28.1399896,25.8248768 28.3107085,25.4599882 28.6359406,25.297469 C31.5756055,23.8297143 33.4329378,20.8262761 33.4328294,17.5405596 C33.4327209,14.2548431 31.5751904,11.2515275 28.6354287,9.78396678 C28.248313,9.59040749 28.0914045,9.11967741 28.2849638,8.73256171 C28.4785231,8.34544602 28.9492531,8.18853755 29.3363689,8.38209684 C32.8070297,10.1152255 34.9998916,13.661227 35,17.5405596 C35.0001084,21.4198923 32.8074448,24.9660162 29.3368808,26.6993389 C29.2282227,26.753674 29.1084087,26.7819918 28.9869226,26.7819918 Z" id="Path"></path>
        </g>
    </g>
</svg>