<?xml version="1.0" encoding="UTF-8"?>
<svg width="35px" height="35px" viewBox="0 0 35 35" version="1.1" xmlns="http://www.w3.org/2000/svg" xmlns:xlink="http://www.w3.org/1999/xlink">
    <title>carré</title>
    <g id="Page-1" stroke="none" stroke-width="1" fill="none" fill-rule="evenodd">
        <g id="eye-hidden" fill="#1A1A1A" fill-rule="nonzero">
            <path d="M17.7501047,28.2823548 C8.62410475,28.2823548 1.43419475,18.0045148 1.13243475,17.5670148 C0.956165124,17.3105268 0.956165124,16.9719427 1.13243475,16.7154548 C1.43421475,16.2779548 8.62415475,6.00012475 17.7501047,6.00012475 C26.8755947,6.00012475 34.0660247,16.2779548 34.3677847,16.7154548 C34.5440544,16.9719427 34.5440544,17.3105268 34.3677847,17.5670148 C34.0660447,18.0045148 26.8756147,28.2823548 17.7501047,28.2823548 Z M2.67981475,17.1412348 C4.12610475,19.0582248 10.4127247,26.7823548 17.7501047,26.7823548 C25.0865347,26.7823548 31.3731547,19.0587148 32.8204247,17.1412348 C31.3731747,15.2237548 25.0865547,7.50012475 17.7501047,7.50012475 C10.4127247,7.50012475 4.12610475,15.2242448 2.67981475,17.1412348 Z" id="Shape"></path>
            <path d="M17.7496447,23.9449448 C13.9920595,23.9449448 10.9459347,20.89882 10.9459347,17.1412348 C10.9459347,13.3836495 13.9920595,10.3375248 17.7496447,10.3375248 C18.1638583,10.3375248 18.4996447,10.6733112 18.4996447,11.0875248 C18.4996447,11.5017383 18.1638583,11.8375248 17.7496447,11.8375248 C14.8204866,11.8375248 12.4459347,14.2120766 12.4459347,17.1412348 C12.4459347,20.0703929 14.8204866,22.4449448 17.7496447,22.4449448 C20.6788029,22.4449448 23.0533547,20.0703929 23.0533547,17.1412348 C23.0533547,16.7270212 23.3891412,16.3912348 23.8033547,16.3912348 C24.2175683,16.3912348 24.5533547,16.7270212 24.5533547,17.1412348 C24.5490289,20.8970267 21.5054367,23.9406189 17.7496447,23.9449448 Z" id="Path"></path>
            <path d="M33.7496447,28.282355 C33.6047122,28.282355 33.4628876,28.2403412 33.3414347,28.1612548 L17.3409447,17.7701448 C17.1162586,17.6241321 16.9865369,17.3693422 17.0006445,17.101752 C17.0147521,16.8341618 17.1705458,16.5944245 17.4093395,16.472847 C17.6481333,16.3512694 17.9336486,16.3663221 18.1583347,16.5123348 L34.1588147,26.9034448 C34.4374145,27.0844595 34.5637195,27.4271967 34.4692055,27.7457107 C34.3746914,28.0642248 34.0818857,28.2825975 33.7496447,28.282355 L33.7496447,28.282355 Z" id="Path"></path>
            <path d="M12.6744447,14.5953349 C12.529516,14.5953349 12.3876941,14.5533295 12.2662447,14.4742448 L1.34143475,7.37903475 C0.994097353,7.15332149 0.895501505,6.68877216 1.12121476,6.34143476 C1.34692801,5.99409736 1.81147735,5.8955015 2.15881475,6.12121475 L13.0836247,13.2164348 C13.3622164,13.3974539 13.4885138,13.7401879 13.3939982,14.058697 C13.2994826,14.377206 13.0066813,14.5955751 12.6744447,14.5953349 Z" id="Path"></path>
        </g>
    </g>
</svg>