<svg xmlns="http://www.w3.org/2000/svg" width="33.50005" height="22.28247" viewBox="0 0 33.50005 22.28247"><g id="e41d9001-bc9d-45f5-90f8-4b2e651b6bd0" data-name="Layer 2"><g id="a508e824-2c15-4973-afcf-baa1d7f619dd" data-name="Layer 1"><path d="M16.75,22.28247c-9.126,0-16.31591-10.27784-16.61767-10.71534a.75175.75175,0,0,1,0-.85156C.43411,10.27807,7.62405.00024,16.75.00024c9.12549,0,16.31592,10.27783,16.61768,10.71533a.75175.75175,0,0,1,0,.85156C33.06594,12.00463,25.87551,22.28247,16.75,22.28247ZM1.67971,11.14135C3.126,13.05834,9.41262,20.78247,16.75,20.78247c7.33643,0,13.62305-7.72364,15.07032-9.64112C30.37307,9.22387,24.08645,1.50024,16.75,1.50024,9.41262,1.50024,3.126,9.22436,1.67971,11.14135Z" fill="#1a1a1a"/><path d="M16.74954,17.94506a6.80371,6.80371,0,1,1,0-13.60742.75.75,0,0,1,0,1.5,5.30371,5.30371,0,1,0,5.30371,5.30371.75.75,0,1,1,1.5,0A6.81156,6.81156,0,0,1,16.74954,17.94506Z" fill="#1a1a1a"/><path d="M32.74954,22.28247a.74751.74751,0,0,1-.40821-.1211L16.34084,11.77026a.75.75,0,1,1,.81739-1.25781L33.15871,20.90356a.75.75,0,0,1-.40917,1.37891Z" fill="#1a1a1a"/><path d="M11.67434,8.59545a.74744.74744,0,0,1-.4082-.12109L.34133,1.37915A.75.75,0,0,1,1.15871.12133L12.08352,7.21655a.75.75,0,0,1-.40918,1.3789Z" fill="#1a1a1a"/></g></g></svg>