<svg xmlns="http://www.w3.org/2000/svg" width="33.49976" height="22.28223" viewBox="0 0 33.49976 22.28223"><g id="a09c201d-6687-42be-b63f-16ee182fd3b0" data-name="Layer 2"><g id="af0eac52-6cf2-4b5e-b1be-9b633446bcc4" data-name="Layer 1"><path d="M16.74988,22.28223C7.6239,22.28223.434,12.00439.1322,11.56689a.75175.75175,0,0,1,0-.85156C.434,10.27783,7.6239,0,16.74988,0,25.87537,0,33.0658,10.27783,33.36755,10.71533a.75175.75175,0,0,1,0,.85156C33.0658,12.00439,25.87537,22.28223,16.74988,22.28223ZM1.67957,11.14111c1.44628,1.917,7.73291,9.64112,15.07031,9.64112,7.33642,0,13.623-7.72364,15.07031-9.64112C30.37292,9.22363,24.0863,1.5,16.74988,1.5,9.41248,1.5,3.12585,9.22412,1.67957,11.14111Z" fill="#1a1a1a"/><path d="M16.74988,17.94482a6.80371,6.80371,0,0,1,0-13.60742.75.75,0,0,1,0,1.5,5.30371,5.30371,0,1,0,5.30322,5.30371.75.75,0,1,1,1.5,0A6.81114,6.81114,0,0,1,16.74988,17.94482Z" fill="#1a1a1a"/></g></g></svg>