<?xml version="1.0" encoding="UTF-8"?>
<svg width="35px" height="35px" viewBox="0 0 35 35" version="1.1" xmlns="http://www.w3.org/2000/svg" xmlns:xlink="http://www.w3.org/1999/xlink">
    <title>eye</title>
    <g id="Page-1" stroke="none" stroke-width="1" fill="none" fill-rule="evenodd">
        <g id="eye" fill="#1A1A1A" fill-rule="nonzero">
            <path d="M17.7498822,28.28223 C8.62390222,28.28223 1.43400222,18.00439 1.13220222,17.56689 C0.955932594,17.310402 0.955932594,16.971818 1.13220222,16.71533 C1.43400222,16.27783 8.62390222,6 17.7498822,6 C26.8753722,6 34.0658022,16.27783 34.3675522,16.71533 C34.5438218,16.971818 34.5438218,17.310402 34.3675522,17.56689 C34.0658022,18.00439 26.8753722,28.28223 17.7498822,28.28223 Z M2.67957222,17.14111 C4.12585222,19.05811 10.4124822,26.78223 17.7498822,26.78223 C25.0863022,26.78223 31.3728822,19.05859 32.8201922,17.14111 C31.3729222,15.22363 25.0863022,7.5 17.7498822,7.5 C10.4124822,7.5 4.12585222,15.22412 2.67957222,17.14111 Z" id="Shape"></path>
            <path d="M17.80371,23.60742 C14.0461247,23.60742 11,20.5612953 11,16.80371 C11,13.0461247 14.0461247,10 17.80371,10 C18.2179236,10 18.55371,10.3357864 18.55371,10.75 C18.55371,11.1642136 18.2179236,11.5 17.80371,11.5 C15.658515,11.4998018 13.7244395,12.7918836 12.9033716,14.7737285 C12.0823036,16.7555734 12.5359456,19.036874 14.0527575,20.553826 C15.5695694,22.0707781 17.850828,22.5246308 19.8327488,21.703746 C21.8146695,20.8828612 23.10693,18.948905 23.10693,16.80371 C23.10693,16.3894964 23.4427165,16.05371 23.85693,16.05371 C24.2711436,16.05371 24.60693,16.3894964 24.60693,16.80371 C24.6028356,20.5594067 21.5594065,23.6030551 17.80371,23.60742 L17.80371,23.60742 Z" id="Path"></path>
        </g>
    </g>
</svg>