<?xml version="1.0" encoding="UTF-8"?>
<svg width="25px" height="30px" viewBox="0 0 25 30" version="1.1" xmlns="http://www.w3.org/2000/svg" xmlns:xlink="http://www.w3.org/1999/xlink">
    <title>archethic-icon</title>
    <g id="Page-1" stroke="none" stroke-width="1" fill="none" fill-rule="evenodd">
        <g id="archethic-icon" fill-rule="nonzero">
            <g id="Group">
                <polygon id="Path" fill="#000000" points="12.5 0 0 7.5 0 22.5 12.5 30 25 22.5 25 7.5"></polygon>
                <path d="M11.7575546,2 L11.7587169,2 C12.4972998,2.56684141 13.5050247,2.56684141 14.2436076,2 L23,7.25650884 C22.9824081,7.41832106 22.9824081,7.58167894 23,7.74349116 L14.2424454,13 C13.5041037,12.433753 12.4970586,12.433753 11.7587169,13 L3,7.74349116 C3.01749459,7.58207732 3.01749459,7.41913108 3,7.25771724 L11.7575546,2 Z" id="Path" fill="#FFFFFF"></path>
                <path d="M23.5716358,9 C23.7054229,9.10064226 23.8490292,9.18493015 24,9.25286367 L24,20.1977091 C23.1111771,20.5950503 22.579027,21.5399813 22.6879045,22.5275773 L13.4394108,28 C13.3062429,27.8999911 13.1625579,27.8155957 13.0110466,27.7483944 L13,16.8626763 C13.8888325,16.4658865 14.4214401,15.5215372 14.3133229,14.5340661 L23.5716358,9 Z" id="Path" fill="#FFFFFF"></path>
                <path d="M1.42879482,9 L10.6865855,14.4720604 C10.5775985,15.459591 11.1102836,16.4044594 12,16.8017744 L12,27.7458951 C11.8476488,27.8138242 11.7051268,27.8993644 11.5712052,28 L2.3134145,22.5279396 C2.42240147,21.540409 1.88971637,20.5955406 1,20.1982256 L1,9.25410487 C1.1519737,9.1857344 1.29617492,9.10052455 1.43002346,9 L1.42879482,9 Z" id="Path" fill="#FFFFFF"></path>
            </g>
        </g>
    </g>
</svg>