<svg xmlns="http://www.w3.org/2000/svg" width="37.62793" height="33.5" viewBox="0 0 37.62793 33.5"><g id="be0c4e91-ceef-4c31-aaef-63a99d13f394" data-name="Layer 2"><g id="a688ac79-754b-48a3-af4e-a0d380b927a6" data-name="Layer 1"><path d="M22.97656,25.19727h-7.7959a.75006.75006,0,0,1-.72216-.95264l1.708-6.08789a5.28269,5.28269,0,0,1-2.42431-4.4668,5.33667,5.33667,0,1,1,10.67334,0,5.28074,5.28074,0,0,1-2.42481,4.4668l1.708,6.08789a.75006.75006,0,0,1-.72217.95264Zm-6.80664-1.5H21.9873l-1.59912-5.7002a.75.75,0,0,1,.39161-.876,3.79619,3.79619,0,0,0,2.13574-3.43115,3.83667,3.83667,0,1,0-7.67334,0,3.7966,3.7966,0,0,0,2.13525,3.43115.75027.75027,0,0,1,.3916.876Z" fill="#1a1a1a"/><path d="M29.08984,7.99609A3.4502,3.4502,0,1,1,32.54053,4.5459,3.45423,3.45423,0,0,1,29.08984,7.99609Zm0-5.40039a1.9502,1.9502,0,1,0,1.95069,1.9502A1.95259,1.95259,0,0,0,29.08984,2.5957Z" fill="#1a1a1a"/><path d="M32.8999,29.1748a4.72778,4.72778,0,1,1,4.728-4.72753A4.7331,4.7331,0,0,1,32.8999,29.1748Zm0-7.95556a3.22778,3.22778,0,1,0,3.228,3.228A3.23188,3.23188,0,0,0,32.8999,21.21924Z" fill="#1a1a1a"/><path d="M3.67725,24.875A3.67749,3.67749,0,1,1,7.355,21.19775,3.68116,3.68116,0,0,1,3.67725,24.875Zm0-5.855A2.17749,2.17749,0,1,0,5.855,21.19775,2.17994,2.17994,0,0,0,3.67725,19.02Z" fill="#1a1a1a"/><path d="M34.88281,16.84375a.75044.75044,0,0,1-.749-.71973,15.09764,15.09764,0,0,0-3.62842-9.269.74989.74989,0,0,1,1.1416-.97266,16.58212,16.58212,0,0,1,3.98584,10.18116.75.75,0,0,1-.71924.77978Z" fill="#1a1a1a"/><path d="M26.94678,3.66211a.74461.74461,0,0,1-.377-.10205A15.0383,15.0383,0,0,0,19.07275,1.5.75.75,0,0,1,19.08838,0a16.74985,16.74985,0,0,1,8.23633,2.26416.75.75,0,0,1-.37793,1.398Z" fill="#1a1a1a"/><path d="M2.89746,18.47363a.75.75,0,0,1-.74805-.70459q-.03075-.50537-.03076-1.019A16.7972,16.7972,0,0,1,13.26758.9502a.74979.74979,0,1,1,.50195,1.41308A15.29519,15.29519,0,0,0,3.61865,16.75q0,.468.02783.92822a.74937.74937,0,0,1-.70312.79395C2.92773,18.47314,2.9126,18.47363,2.89746,18.47363Z" fill="#1a1a1a"/><path d="M28.92188,25.19727H22.97656a.75.75,0,0,1,0-1.5h5.94532a.75.75,0,0,1,0,1.5Z" fill="#1a1a1a"/><path d="M19.08057,9.85742a.75019.75019,0,0,1-.75-.75V.75a.75.75,0,0,1,1.5,0V9.10742A.7502.7502,0,0,1,19.08057,9.85742Z" fill="#1a1a1a"/><path d="M6.74365,20.43359a.75.75,0,0,1-.418-1.373l7.42237-4.97315a.75.75,0,0,1,.835,1.2461L7.16064,20.30664A.74711.74711,0,0,1,6.74365,20.43359Z" fill="#1a1a1a"/><path d="M19.08057,33.5A16.6624,16.6624,0,0,1,7.43652,28.79053a.75.75,0,0,1,1.043-1.07813,15.24963,15.24963,0,0,0,21.02588.168.75.75,0,1,1,1.02539,1.09473A16.68751,16.68751,0,0,1,19.08057,33.5Z" fill="#1a1a1a"/></g></g></svg>