<svg xmlns="http://www.w3.org/2000/svg" width="33.5" height="33.5" viewBox="0 0 33.5 33.5"><g id="b390afb2-e68c-4de4-9e8e-6108df9f8541" data-name="Layer 2"><g id="b6d97669-f59f-437a-926a-b83b351705a0" data-name="Layer 1"><path d="M24.82715,33.5A8.67285,8.67285,0,1,1,33.5,24.82715,8.68267,8.68267,0,0,1,24.82715,33.5Zm0-15.8457A7.17285,7.17285,0,1,0,32,24.82715,7.181,7.181,0,0,0,24.82715,17.6543Z" fill="#1a1a1a"/><path d="M11.80127,17.55127H5.75a5.75671,5.75671,0,0,1-5.75-5.75V5.75A5.75671,5.75671,0,0,1,5.75,0h6.05127a5.75671,5.75671,0,0,1,5.75,5.75v6.05127A5.75671,5.75671,0,0,1,11.80127,17.55127ZM5.75,1.5A4.25507,4.25507,0,0,0,1.5,5.75v6.05127a4.25507,4.25507,0,0,0,4.25,4.25h6.05127a4.25507,4.25507,0,0,0,4.25-4.25V5.75a4.25507,4.25507,0,0,0-4.25-4.25Z" fill="#1a1a1a"/><path d="M10.08691,29.77a.75.75,0,0,1-.15918-1.48291l1.17774-.25684a12.58856,12.58856,0,0,1-6.25488-7.10254.7499.7499,0,1,1,1.415-.49707,11.09015,11.09015,0,0,0,7.66358,7.0669.75.75,0,0,1-.03027,1.45849l-3.65186.79688A.75075.75075,0,0,1,10.08691,29.77Z" fill="#1a1a1a"/><path d="M27.919,13.50586a.74949.74949,0,0,1-.70606-.49756,11.11114,11.11114,0,0,0-7.53516-6.977A.75008.75008,0,0,1,19.751,4.56787l4.022-.67334A.75007.75007,0,0,1,24.021,5.374l-1.37012.2295a12.61513,12.61513,0,0,1,5.97412,6.8999.75027.75027,0,0,1-.70605,1.00244Z" fill="#1a1a1a"/><path d="M27.91943,28.02979a.75.75,0,0,1-.68164-.436L24.731,22.15869l-2.50733,5.43506a.75.75,0,1,1-1.3623-.62793L24.0498,20.0542a.74977.74977,0,0,1,.68116-.436h0a.75057.75057,0,0,1,.68115.436l3.188,6.91162a.75.75,0,0,1-.68067,1.064Z" fill="#1a1a1a"/><path d="M26.89355,26.14062H22.41406a.75.75,0,0,1,0-1.5h4.47949a.75.75,0,1,1,0,1.5Z" fill="#1a1a1a"/><path d="M12.41357,7.63916H5.1377a.75.75,0,1,1,0-1.5h7.27587a.75.75,0,0,1,0,1.5Z" fill="#1a1a1a"/><path d="M5.1377,12.69629a.75.75,0,0,1,0-1.5c3.9707,0,4.51806-4.21436,4.53906-4.39356a.75.75,0,0,1,1.49023.1709C10.94238,8.95312,9.39307,12.69629,5.1377,12.69629Z" fill="#1a1a1a"/><path d="M12.41162,12.71533q-.02343,0-.04834-.00146a4.905,4.905,0,0,1-3.79736-2.24512A.74986.74986,0,0,1,9.89111,9.7666a3.447,3.447,0,0,0,2.57032,1.4502.75016.75016,0,0,1-.04981,1.49853Z" fill="#1a1a1a"/><path d="M8.77588,7.63916a.7502.7502,0,0,1-.75-.75V5.58594a.75.75,0,0,1,1.5,0V6.88916A.7502.7502,0,0,1,8.77588,7.63916Z" fill="#1a1a1a"/></g></g></svg>