<svg xmlns="http://www.w3.org/2000/svg" width="29.382" height="33.5" viewBox="0 0 29.382 33.5"><g id="ffeee64d-e394-404d-b41d-80417ef38020" data-name="Layer 2"><g id="b74d9430-1bba-4d67-aae1-6aa6ad9e342a" data-name="Layer 1"><path d="M14.867,29.733a14.867,14.867,0,1,1,14.5-18.178.75.75,0,1,1-1.463.333A13.368,13.368,0,1,0,14.867,28.233a.75.75,0,0,1,0,1.5Z" fill="#1a1a1a"/><path d="M14.867,29.733c-4.082,0-7.279-6.53-7.279-14.866S10.785,0,14.867,0c3.579,0,6.522,4.981,7.157,12.113a.75.75,0,1,1-1.494.133C19.984,6.12,17.55,1.5,14.867,1.5c-3.133,0-5.779,6.121-5.779,13.367s2.646,13.366,5.779,13.366a.75.75,0,0,1,0,1.5Z" fill="#1a1a1a"/><path d="M28.125,10.737H1.609a.75.75,0,0,1,0-1.5H28.125a.75.75,0,0,1,0,1.5Z" fill="#1a1a1a"/><path d="M14.691,20.5H1.609a.75.75,0,1,1,0-1.5H14.691a.75.75,0,0,1,0,1.5Z" fill="#1a1a1a"/><path d="M24.329,33.5a4.885,4.885,0,0,1-4.88-4.88V17.035a.75.75,0,0,1,1.5,0V28.62a3.38,3.38,0,1,0,6.76,0V21.446a.75.75,0,0,1,1.5,0V28.62A4.885,4.885,0,0,1,24.329,33.5Z" fill="#1a1a1a"/><circle cx="27.757" cy="17.035" r="1.148" fill="#1a1a1a"/><circle cx="24.075" cy="19.746" r="1.08" fill="#1a1a1a"/><circle cx="25.155" cy="24.089" r="1.08" fill="#1a1a1a"/></g></g></svg>