<svg xmlns="http://www.w3.org/2000/svg" width="32.648" height="33.5" viewBox="0 0 32.648 33.5"><g id="ebcd29e8-b2d0-4730-8d63-e27d44e56151" data-name="Layer 2"><g id="baa00e93-7616-4049-83ba-c79f8decd201" data-name="Layer 1"><g id="ec85795a-ace1-4f42-849e-c7fb2831251c" data-name="Path"><path d="M16.646,25.341a.75.75,0,0,1-.606-.306c-.233-.319-.39-.567-.468-.7a10.756,10.756,0,0,1-.734-1.438,10.549,10.549,0,0,1-.812-4.286c.008-.309.029-.617.063-.914l.022-.19a.745.745,0,0,1,.284-.5l.147-.115c.234-.182.48-.356.735-.517a10.121,10.121,0,0,1,4-1.421,10.766,10.766,0,0,1,6.043,1.089,13.664,13.664,0,0,1,3.88,2.724.75.75,0,0,1-1.06,1.06,12.559,12.559,0,0,0-1.306-1.134,12.293,12.293,0,0,0-2.143-1.288,9.386,9.386,0,0,0-5.223-.964,8.59,8.59,0,0,0-3.387,1.2c-.177.112-.349.232-.514.355-.022.214-.035.434-.04.654a9.033,9.033,0,0,0,.7,3.672,9.291,9.291,0,0,0,.631,1.237c.066.108.2.318.4.588a.75.75,0,0,1-.6,1.193Z" fill="#1a1a1a"/></g><g id="b64788e9-89bc-48ba-a95c-3e8700063627" data-name="Path"><path d="M23.285,33.5a.756.756,0,0,1-.3-.063l-.172-.075c-.27-.118-.542-.254-.808-.4a10.531,10.531,0,0,1-3.222-2.871,11.634,11.634,0,0,1-2.134-5.936,14.591,14.591,0,0,1,0-2.884,14.367,14.367,0,0,1,.331-1.945.75.75,0,0,1,1.458.354,12.948,12.948,0,0,0-.3,1.741,13.085,13.085,0,0,0,0,2.578,10.25,10.25,0,0,0,1.848,5.2,9,9,0,0,0,2.746,2.452c.181.1.366.2.551.28.185-.085.37-.179.551-.28A8.539,8.539,0,0,0,26.578,29.2a9.3,9.3,0,0,0,.725-1.183c.058-.114.168-.337.3-.649a.75.75,0,1,1,1.388.567c-.151.369-.281.633-.35.768a10.719,10.719,0,0,1-.845,1.377,10.044,10.044,0,0,1-3.226,2.876c-.266.149-.539.284-.809.4l-.171.075A.749.749,0,0,1,23.285,33.5Z" fill="#1a1a1a"/></g><g id="a497285f-a5f3-4168-b328-0c51a0ce8c45" data-name="Path"><path d="M23.443,29.865A.75.75,0,0,1,23.23,28.4a12.278,12.278,0,0,0,1.605-.6,12.443,12.443,0,0,0,2.159-1.281,9.981,9.981,0,0,0,3.45-4.223,9.384,9.384,0,0,0,.7-3.66c0-.217-.018-.434-.04-.647-.166-.124-.339-.242-.517-.354a8.319,8.319,0,0,0-4.75-1.245c-.122.006-.364.02-.689.063a.75.75,0,0,1-.194-1.487c.385-.051.673-.068.821-.075a10.04,10.04,0,0,1,1.584.06,9.776,9.776,0,0,1,4.026,1.414c.257.163.506.335.739.516l.147.112a.747.747,0,0,1,.288.508l.022.189c.035.3.056.6.063.911a10.948,10.948,0,0,1-.815,4.266,11.4,11.4,0,0,1-3.937,4.853,13.967,13.967,0,0,1-2.431,1.441,13.426,13.426,0,0,1-1.806.68A.726.726,0,0,1,23.443,29.865Z" fill="#1a1a1a"/></g><path d="M14.867,29.733a14.867,14.867,0,1,1,14.5-18.178.75.75,0,1,1-1.463.333A13.368,13.368,0,1,0,14.867,28.233a.75.75,0,0,1,0,1.5Z" fill="#1a1a1a"/><path d="M14.867,29.733c-4.082,0-7.279-6.53-7.279-14.866S10.785,0,14.867,0c3.578,0,6.522,4.981,7.157,12.113a.75.75,0,1,1-1.494.133C19.984,6.12,17.549,1.5,14.867,1.5c-3.133,0-5.779,6.121-5.779,13.367s2.646,13.366,5.779,13.366a.75.75,0,0,1,0,1.5Z" fill="#1a1a1a"/><path d="M28.125,10.737H1.609a.75.75,0,0,1,0-1.5H28.125a.75.75,0,0,1,0,1.5Z" fill="#1a1a1a"/><path d="M10.808,20.5h-9.2a.75.75,0,1,1,0-1.5h9.2a.75.75,0,0,1,0,1.5Z" fill="#1a1a1a"/></g></g></svg>