<svg xmlns="http://www.w3.org/2000/svg" width="32.376" height="33.5" viewBox="0 0 32.376 33.5"><g id="f5e7abe3-cc5c-4d9a-93c7-d90cc3644e78" data-name="Layer 2"><g id="b257c4bf-2f93-4d6c-9bf6-8ac6a0ebdb09" data-name="Layer 1"><path d="M17.161,26.925A3.356,3.356,0,0,1,14.8,28.217c-2.242-.058-4.221-3.249-5.15-7.727h7.178a.75.75,0,0,0,0-1.5H9.383a28.74,28.74,0,0,1,0-8.256H20.342c.072.493.135.993.181,1.509a.75.75,0,0,0,1.5-.133c-.042-.468-.1-.926-.156-1.376h5.713q.182.564.316,1.151a.75.75,0,0,0,1.463-.332A14.952,14.952,0,0,0,28.828,9.8a.746.746,0,0,0-.059-.162A14.846,14.846,0,0,0,.98,9.6a.726.726,0,0,0-.1.268,14.585,14.585,0,0,0,0,9.99.737.737,0,0,0,.1.269A14.873,14.873,0,0,0,14.7,29.717c.014,0,.026.008.04.008s.035,0,.053,0,.043,0,.065,0,.034-.01.052-.011a4.873,4.873,0,0,0,3.36-1.783.75.75,0,1,0-1.113-1.006Zm-9.3-7.935H2.16a13.239,13.239,0,0,1,0-8.256H7.865a30.569,30.569,0,0,0,0,8.256ZM9.65,9.234C10.588,4.715,12.6,1.5,14.862,1.5c2.22,0,4.267,3.169,5.217,7.734Zm17.33,0H21.611a16.122,16.122,0,0,0-3.019-7.2A13.231,13.231,0,0,1,26.98,9.234Zm-15.832-7.2a16.172,16.172,0,0,0-3.037,7.2H2.76A13.408,13.408,0,0,1,11.148,2.036ZM2.76,20.49H8.111a16.172,16.172,0,0,0,3.037,7.2A13.409,13.409,0,0,1,2.76,20.49Z" fill="#1a1a1a"/><path d="M29.947,20.69a.75.75,0,0,0-.75.75v6.972a3.588,3.588,0,1,1-7.176,0V17.03a.75.75,0,0,0-1.5,0V28.412a5.088,5.088,0,1,0,10.176,0V21.44A.75.75,0,0,0,29.947,20.69Z" fill="#1a1a1a"/><path d="M31.228,15.882a1.148,1.148,0,1,0,1.148,1.148A1.148,1.148,0,0,0,31.228,15.882Z" fill="#1a1a1a"/><path d="M27.263,18.2a1.08,1.08,0,1,0,.828,1.283A1.08,1.08,0,0,0,27.263,18.2Z" fill="#1a1a1a"/><path d="M23.788,23.314a1.079,1.079,0,1,0,1.282-.828A1.08,1.08,0,0,0,23.788,23.314Z" fill="#1a1a1a"/></g></g></svg>