<svg xmlns="http://www.w3.org/2000/svg" width="33.5" height="33.49609" viewBox="0 0 33.5 33.49609"><g id="a595ae1c-71d6-468b-99fe-3a80f3602cad" data-name="Layer 2"><g id="bc9db59f-c82f-4783-be67-4187185f983d" data-name="Layer 1"><path d="M16.75049,23.66748A8.12525,8.12525,0,1,1,24.876,15.542,8.13451,8.13451,0,0,1,16.75049,23.66748Zm0-14.75049A6.62525,6.62525,0,1,0,23.376,15.542,6.63277,6.63277,0,0,0,16.75049,8.917Z" fill="#1a1a1a"/><path d="M27.86182,33.49609a.74906.74906,0,0,1-.62452-.334c-2.085-3.12695-6.11523-5.06982-10.51855-5.06982-4.35156,0-8.35937,1.90917-10.45947,4.98291A.75.75,0,0,1,5.021,32.22852c2.37548-3.47657,6.85791-5.63623,11.69775-5.63623,4.89844,0,9.40674,2.19873,11.7666,5.73779a.75.75,0,0,1-.62353,1.166Z" fill="#1a1a1a"/><path d="M29.583,27.0498a.75.75,0,0,1-.60059-1.19824A15.24874,15.24874,0,1,0,1.5,16.75a15.123,15.123,0,0,0,2.9043,8.94775.75019.75019,0,1,1-1.21387.88184A16.749,16.749,0,1,1,33.5,16.75a16.604,16.604,0,0,1-3.31543,9.998A.74755.74755,0,0,1,29.583,27.0498Z" fill="#1a1a1a"/></g></g></svg>