<?xml version="1.0" encoding="utf-8"?>
<!-- Generator: Adobe Illustrator 26.5.0, SVG Export Plug-In . SVG Version: 6.00 Build 0)  -->
<svg version="1.1" id="Calque_1" xmlns="http://www.w3.org/2000/svg" xmlns:xlink="http://www.w3.org/1999/xlink" x="0px" y="0px"
	 viewBox="0 0 33.5 34.3" style="enable-background:new 0 0 33.5 34.3;" xml:space="preserve">
<g>
	<path d="M10.4,17c-0.1-1.6-0.2-3.5-0.2-4.9h-0.1c-0.4,1.3-0.9,2.7-1.5,4.3l-2.1,5.5H5.4l-1.9-5.4c-0.6-1.6-1.1-3-1.4-4.4h0
		c0,1.4-0.1,3.3-0.2,5L1.5,22H0l0.8-11.2h2l2,5.4c0.5,1.4,0.9,2.6,1.2,3.8h0.1c0.3-1.1,0.7-2.4,1.3-3.8l2.1-5.4h2L12.2,22h-1.5
		L10.4,17z"/>
	<path d="M16.4,18.4L15.1,22h-1.6l4.1-11.2h1.9L23.6,22h-1.7l-1.3-3.5H16.4z M20.3,17.3L19.2,14c-0.3-0.7-0.4-1.4-0.6-2.1h0
		c-0.2,0.7-0.4,1.4-0.6,2l-1.2,3.3H20.3z"/>
	<path d="M31.7,22l-1.5-2.5c-0.6-1-1-1.6-1.4-2.2h0c-0.3,0.7-0.7,1.3-1.3,2.2L26,22h-1.8l3.7-5.7l-3.5-5.6h1.8l1.6,2.6
		c0.4,0.7,0.8,1.3,1.1,1.9h0.1c0.3-0.7,0.6-1.2,1.1-1.9l1.6-2.6h1.8l-3.7,5.5l3.7,5.8H31.7z"/>
</g>
</svg>
