<?xml version="1.0" encoding="UTF-8"?>
<svg width="34px" height="34px" viewBox="0 0 34 34" version="1.1" xmlns="http://www.w3.org/2000/svg" xmlns:xlink="http://www.w3.org/1999/xlink">
    <title>Group 2</title>
    <g id="Page-1" stroke="none" stroke-width="1" fill="none" fill-rule="evenodd">
        <g id="Group-2">
            <g id="vault" fill="#1A1A1A" fill-rule="nonzero">
                <path d="M27.75,33.5 L5.75,33.5 C2.57589554,33.4963024 0.00369757331,30.9241045 0,27.75 L0,5.75 C0.00369757331,2.57589554 2.57589554,0.00369757331 5.75,0 L27.75,0 C30.9241045,0.00369757331 33.4963024,2.57589554 33.5,5.75 L33.5,27.75 C33.4963024,30.9241045 30.9241045,33.4963024 27.75,33.5 Z M5.75,1.5 C3.40394798,1.50279371 1.50279371,3.40394798 1.5,5.75 L1.5,27.75 C1.50279371,30.096052 3.40394798,31.9972063 5.75,32 L27.75,32 C30.096052,31.9972063 31.9972063,30.096052 32,27.75 L32,5.75 C31.9972063,3.40394798 30.096052,1.50279371 27.75,1.5 L5.75,1.5 Z" id="Shape"></path>
            </g>
            <g id="Group" transform="translate(5.300000, 9.000000)" fill="#000000">
                <rect id="Rectangle" transform="translate(11.500000, 0.500000) scale(1, -1) translate(-11.500000, -0.500000) " x="0" y="0" width="23" height="1" rx="0.5"></rect>
                <rect id="Rectangle" transform="translate(11.500000, 7.500000) scale(1, -1) translate(-11.500000, -7.500000) " x="0" y="7" width="23" height="1" rx="0.5"></rect>
                <rect id="Rectangle" transform="translate(11.500000, 14.500000) scale(1, -1) translate(-11.500000, -14.500000) " x="0" y="14" width="23" height="1" rx="0.5"></rect>
            </g>
        </g>
    </g>
</svg>