<?xml version="1.0" encoding="UTF-8"?>
<svg width="30px" height="30px" viewBox="0 0 30 30" version="1.1" xmlns="http://www.w3.org/2000/svg" xmlns:xlink="http://www.w3.org/1999/xlink">
    <title>link-archethic-website</title>
    <g id="Page-1" stroke="none" stroke-width="1" fill="none" fill-rule="evenodd">
        <g id="link-archethic-website" transform="translate(0.005823, -0.002624)" fill="#1A1A1A" fill-rule="nonzero">
            <path d="M20.4169583,23.0026245 C20.098169,23.0026245 19.8397392,22.7470792 19.8397392,22.4318482 L19.8397392,18.3983627 C19.8388911,17.7060428 19.2715312,17.1450156 18.5713965,17.1441769 C18.2526071,17.1441769 17.9941774,16.8886318 17.9941774,16.5734008 C17.9941774,16.2581698 18.2526071,16.0026245 18.5713965,16.0026245 C19.9089338,16.0038831 20.9929046,17.0757547 20.9941774,18.3983627 L20.9941774,22.4318482 C20.9941774,22.7470792 20.7357476,23.0026245 20.4169583,23.0026245 Z" id="Path"></path>
            <path d="M20.4941774,26.0026245 C19.9418927,26.0026245 19.4941774,25.5549093 19.4941774,25.0026245 C19.4941774,24.4503398 19.9418927,24.0026245 20.4941774,24.0026245 C21.0464621,24.0026245 21.4941774,24.4503398 21.4941774,25.0026245 C21.4934124,25.554592 21.046145,26.0018594 20.4941774,26.0026245 Z M20.4941774,24.9609578 L20.4525108,25.0026245 C20.4525108,25.0256363 20.4711655,25.0442912 20.4941774,25.0442912 L20.4941774,24.9609578 Z" id="Shape"></path>
            <path d="M20.4941774,28.5026245 C16.3520418,28.5026245 12.9941774,25.1447602 12.9941774,21.0026245 C12.9941774,16.860489 16.3520418,13.5026245 20.4941774,13.5026245 C20.5832422,13.5026245 20.6686567,13.5380099 20.7314908,13.6011321 L27.8956699,20.7653112 C27.9587921,20.8281453 27.9941774,20.9135598 27.9941774,21.0026245 C27.989489,25.1428167 24.6343695,28.4979363 20.4941774,28.5026245 L20.4941774,28.5026245 Z M20.356267,14.1742664 C16.6220731,14.2504782 13.6419933,17.3127648 13.6673988,21.0476498 C13.6928043,24.7825348 16.7142671,27.8039976 20.4491521,27.8294031 C24.1840372,27.8548086 27.2463238,24.8747289 27.3225356,21.140535 L20.356267,14.1742664 Z" id="Shape"></path>
            <path d="M14.8611774,29.7356245 C7.08253905,29.7322853 0.621459055,23.7333614 0.0418841652,15.976344 C-0.537690725,8.21932667 4.96019458,1.32687433 12.6519702,0.167644505 C20.3437457,-0.991585321 27.6288114,3.97434461 29.3611774,11.5576245 C29.4206621,11.8189643 29.3362052,12.0921869 29.1396206,12.2743721 C28.9430361,12.4565573 28.6641899,12.5200267 28.4081206,12.4408721 C28.1520514,12.3617175 27.9576621,12.1519643 27.8981774,11.8906245 C26.3405311,5.07177655 19.789813,0.606446766 12.8734442,1.64894001 C5.95707544,2.69143326 1.01359859,8.88926475 1.53508118,15.864292 C2.05656376,22.8393192 7.86668362,28.2331663 14.8611774,28.2356245 C15.2753909,28.2356245 15.6111774,28.5714109 15.6111774,28.9856245 C15.6111774,29.3998381 15.2753909,29.7356245 14.8611774,29.7356245 L14.8611774,29.7356245 Z" id="Path"></path>
            <path d="M14.8611774,29.7356245 C10.7791774,29.7356245 7.58217738,23.2056245 7.58217738,14.8696245 C7.58217738,6.53362449 10.7791774,0.00262449145 14.8611774,0.00262449145 C18.4391774,0.00262449145 21.3831774,4.98362449 22.0181774,12.1156245 C22.0450831,12.3842053 21.9255888,12.646527 21.7052884,12.802499 C21.4849879,12.9584709 21.1978673,12.9840312 20.9534794,12.8694271 C20.7090915,12.7548229 20.5451384,12.5177345 20.5241774,12.2486245 C19.9781774,6.12262449 17.5431774,1.50262449 14.8611774,1.50262449 C11.7281774,1.50262449 9.08217738,7.62362449 9.08217738,14.8696245 C9.08217738,22.1156245 11.7281774,28.2356245 14.8611774,28.2356245 C15.2753909,28.2356245 15.6111774,28.5714109 15.6111774,28.9856245 C15.6111774,29.3998381 15.2753909,29.7356245 14.8611774,29.7356245 Z" id="Path"></path>
            <path d="M28.1191774,10.7396245 L1.60317738,10.7396245 C1.18896382,10.7396245 0.853177379,10.4038381 0.853177379,9.98962449 C0.853177379,9.57541093 1.18896382,9.23962449 1.60317738,9.23962449 L28.1191774,9.23962449 C28.5333909,9.23962449 28.8691774,9.57541093 28.8691774,9.98962449 C28.8691774,10.4038381 28.5333909,10.7396245 28.1191774,10.7396245 L28.1191774,10.7396245 Z" id="Path"></path>
            <path d="M10.8021774,20.5026245 L1.60217738,20.5026245 C1.18796382,20.5026245 0.852177379,20.1668381 0.852177379,19.7526245 C0.852177379,19.3384109 1.18796382,19.0026245 1.60217738,19.0026245 L10.8021774,19.0026245 C11.2163909,19.0026245 11.5521774,19.3384109 11.5521774,19.7526245 C11.5521774,20.1668381 11.2163909,20.5026245 10.8021774,20.5026245 Z" id="Path"></path>
        </g>
    </g>
</svg>