<svg xmlns="http://www.w3.org/2000/svg" width="33.5" height="32.474" viewBox="0 0 33.5 32.474"><g id="af4fe6bc-5d08-48e0-8bd0-561b29c69809" data-name="Layer 2"><g id="a6adace2-8ce5-4bad-95cb-589670989292" data-name="Layer 1"><path d="M26.245,32.474a.752.752,0,0,1-.474-.169l-6.505-5.311a.75.75,0,1,1,.949-1.162l6.03,4.923,6.03-4.923a.75.75,0,1,1,.95,1.162L26.72,32.305A.757.757,0,0,1,26.245,32.474Z" fill="#1a1a1a"/><path d="M16.236,32.474A16.237,16.237,0,1,1,32.473,16.237a.75.75,0,0,1-1.5,0A14.737,14.737,0,1,0,16.236,30.974a.75.75,0,1,1,0,1.5Z" fill="#1a1a1a"/><path d="M26.245,32.474a.75.75,0,0,1-.75-.75V16.237a9.259,9.259,0,1,0-18.517,0,.75.75,0,0,1-1.5,0,10.759,10.759,0,1,1,21.517,0V31.724A.75.75,0,0,1,26.245,32.474Z" fill="#1a1a1a"/></g></g></svg>