<svg xmlns="http://www.w3.org/2000/svg" width="33.5" height="33.5" viewBox="0 0 33.5 33.5"><g id="bf828bb4-80d8-4892-818e-1050df62733a" data-name="Layer 2"><g id="ae242317-4b00-48c4-97c7-4d1e636193aa" data-name="Layer 1"><path d="M24.5,12.01H9a.75.75,0,0,1,0-1.5H24.5a.75.75,0,0,1,0,1.5Z" fill="#1a1a1a"/><path d="M24.5,17.5H9A.75.75,0,0,1,9,16H24.5a.75.75,0,0,1,0,1.5Z" fill="#1a1a1a"/><path d="M18.778,22.99H9a.75.75,0,0,1,0-1.5h9.775a.75.75,0,0,1,0,1.5Z" fill="#1a1a1a"/><path d="M16.75,33.5A16.75,16.75,0,1,1,33.5,16.75,16.769,16.769,0,0,1,16.75,33.5Zm0-32A15.25,15.25,0,1,0,32,16.75,15.267,15.267,0,0,0,16.75,1.5Z" fill="#1a1a1a"/></g></g></svg>