<svg xmlns="http://www.w3.org/2000/svg" width="33.5" height="33.5" viewBox="0 0 33.5 33.5"><g id="f10206ca-b5b9-4bc1-82d4-9425cec033c4" data-name="Layer 2"><g id="b7f1d759-7d18-4fbe-aa01-eced74469474" data-name="Layer 1"><path d="M11.676,20.006a.75.75,0,0,1-.75-.75V8.323a.75.75,0,0,1,1.5,0V19.256A.75.75,0,0,1,11.676,20.006Z" fill="#1a1a1a"/><path d="M11.676,25.927a3.711,3.711,0,1,1,3.711-3.71A3.714,3.714,0,0,1,11.676,25.927Zm0-5.921a2.211,2.211,0,1,0,2.211,2.211A2.213,2.213,0,0,0,11.676,20.006Z" fill="#1a1a1a"/><path d="M21.823,17.642a3.71,3.71,0,1,1,3.71-3.71A3.714,3.714,0,0,1,21.823,17.642Zm0-5.92a2.21,2.21,0,1,0,2.21,2.21A2.212,2.212,0,0,0,21.823,11.722Z" fill="#1a1a1a"/><path d="M17.064,23c-.543,0-1.317-.012-2.438-.028a.751.751,0,0,1-.739-.761.769.769,0,0,1,.76-.739c1.188.017,2.5.027,3.027.019.46-.506,1.415-1.45,3.4-3.408V16.892a.75.75,0,0,1,1.5,0v1.5a.749.749,0,0,1-.223.534c-1.326,1.308-3.481,3.446-3.753,3.744a.731.731,0,0,1-.074.083C18.336,22.938,18.277,23,17.064,23Z" fill="#1a1a1a"/><path d="M21.823,11.722a.75.75,0,0,1-.75-.75V8.323a.75.75,0,0,1,1.5,0v2.649A.75.75,0,0,1,21.823,11.722Z" fill="#1a1a1a"/><path d="M16.75,33.5A16.75,16.75,0,1,1,33.5,16.75,16.769,16.769,0,0,1,16.75,33.5Zm0-32A15.25,15.25,0,1,0,32,16.75,15.267,15.267,0,0,0,16.75,1.5Z" fill="#1a1a1a"/></g></g></svg>