<svg xmlns="http://www.w3.org/2000/svg" width="33.5" height="33.5" viewBox="0 0 33.5 33.5"><g id="a5977e85-4b1a-4bd2-ba98-142b89567494" data-name="Layer 2"><g id="eeabfe05-4adc-4dc8-9b30-4b031a59115c" data-name="Layer 1"><path d="M16.75,33.5A16.75,16.75,0,1,1,24.9,2.111a.75.75,0,1,1-.73,1.311,15.237,15.237,0,1,0,6.292,6.64l-13.2,12.209a.748.748,0,0,1-1.05-.032L8.79,14.505a.75.75,0,0,1,1.082-1.038l6.909,7.2L30.114,8.338a.8.8,0,0,1,.733-.186.779.779,0,0,1,.478.338A16.755,16.755,0,0,1,16.75,33.5Z" fill="#1a1a1a"/></g></g></svg>