<svg xmlns="http://www.w3.org/2000/svg" width="33.50167" height="33.50137" viewBox="0 0 33.50167 33.50137"><g id="b3eec753-13b8-4383-bb59-c1a82dcb54c1" data-name="Layer 2"><g id="ac29fb17-78d0-4bef-8e44-141c137b119f" data-name="Layer 1"><path d="M12.17285,20.47744a.74961.74961,0,0,1-.57666-.27051L7.98731,15.8666v3.86084a.75.75,0,0,1-1.5,0v-5.936a.74988.74988,0,0,1,1.32666-.4795l3.60888,4.34034V13.79141a.75.75,0,0,1,1.5,0v5.936a.74929.74929,0,0,1-.75.75Z" fill="#1a1a1a"/><path d="M16.08691,20.47744a.7502.7502,0,0,1-.75-.75v-5.936a.75019.75019,0,0,1,.75-.75h3.74268a.75.75,0,0,1,0,1.5H16.83691v5.186A.75019.75019,0,0,1,16.08691,20.47744Z" fill="#1a1a1a"/><path d="M19.03711,17.50967H16.3584a.75.75,0,0,1,0-1.5h2.67871a.75.75,0,0,1,0,1.5Z" fill="#1a1a1a"/><path d="M24.15967,20.47744a.7502.7502,0,0,1-.75-.75v-5.834a.75.75,0,1,1,1.5,0v5.834A.7502.7502,0,0,1,24.15967,20.47744Z" fill="#1a1a1a"/><path d="M26.27,14.52969H22.04883a.75.75,0,0,1,0-1.5H26.27a.75.75,0,0,1,0,1.5Z" fill="#1a1a1a"/><path d="M15.208,33.50137A15.09508,15.09508,0,0,1,4.38232,29.119,15.20777,15.20777,0,0,1,.02783,17.3168a.7681.7681,0,0,1,.79151-.70655.75065.75065,0,0,1,.70654.79151A13.526,13.526,0,0,0,16.11182,31.97549a.73838.73838,0,0,1,.7915.70557.74953.74953,0,0,1-.70557.7915C15.86621,33.49209,15.53565,33.50137,15.208,33.50137Z" fill="#1a1a1a"/><path d="M32.72705,16.8627l-.0415-.001a.75058.75058,0,0,1-.708-.79,13.52416,13.52416,0,0,0-14.5752-14.5459.76151.76151,0,0,1-.7915-.70654.75065.75065,0,0,1,.70654-.79151,15.0244,15.0244,0,0,1,16.15821,16.126A.75012.75012,0,0,1,32.72705,16.8627Z" fill="#1a1a1a"/></g></g></svg>