<svg xmlns="http://www.w3.org/2000/svg" width="27.7641" height="33.50391" viewBox="0 0 27.7641 33.50391"><g id="a8447fb0-c896-4b5b-936e-2d6753d39eda" data-name="Layer 2"><g id="a1fae4bd-7cb0-4d61-bcf1-04f743acf766" data-name="Layer 1"><path d="M25.98106,26.67871H1.77354a1.766,1.766,0,0,1-1.56787-.94336A1.78892,1.78892,0,0,1,.318,23.88477C3.26866,19.584,3.36582,13.394,3.36631,13.332V10.52539a10.52515,10.52515,0,1,1,21.0503,0v1.69336a19.43757,19.43757,0,0,0,.189,2.73535,24.934,24.934,0,0,0,2.88721,9.01758,1.74136,1.74136,0,0,1,.04638,1.78955A1.78167,1.78167,0,0,1,25.98106,26.67871ZM13.89121,1.5a9.03527,9.03527,0,0,0-9.0249,9.02539v2.814c-.00244.27832-.09765,6.70947-3.31152,11.394a.28475.28475,0,0,0-.02149.30273.25634.25634,0,0,0,.24024.14258H25.98106a.27166.27166,0,0,0,.24609-.14453.2549.2549,0,0,0-.00586-.26709A26.42386,26.42386,0,0,1,23.12022,15.166a20.98212,20.98212,0,0,1-.20361-2.94727V10.52539A9.03569,9.03569,0,0,0,13.89121,1.5Z" fill="#1a1a1a"/><path d="M13.817,33.50391a6.48119,6.48119,0,0,1-4.1792-1.52735l-.64795-.54492a.75029.75029,0,0,1,.96582-1.14844l.64795.54492a4.98274,4.98274,0,0,0,6.42724,0l.64795-.54492a.75029.75029,0,1,1,.96582,1.14844l-.64795.54492A6.48151,6.48151,0,0,1,13.817,33.50391Z" fill="#1a1a1a"/></g></g></svg>