<svg xmlns="http://www.w3.org/2000/svg" width="33.50017" height="36.22799" viewBox="0 0 33.50017 36.22799"><g id="f4408b6d-1376-434d-ae36-932437a274dc" data-name="Layer 2"><g id="b4e1aa78-859a-47db-9d53-8319ab5f3d09" data-name="Layer 1"><path d="M30.12557,30.74411H3.24618a2.37394,2.37394,0,0,1-2.14844-1.34668,2.33874,2.33874,0,0,1,.25977-2.48438c3.1875-4.06592,3.54541-9.6914,3.54834-9.74756l-.001-3.68115a11.82227,11.82227,0,0,1,23.64453,0v2.6792a13.51782,13.51782,0,0,0,.21289,2.40918,21.03445,21.03445,0,0,0,3.24317,8.32568,2.42216,2.42216,0,0,1,.23486,2.54688A2.35033,2.35033,0,0,1,30.12557,30.74411ZM16.72714,3.16208A10.33373,10.33373,0,0,0,6.40487,13.48434V17.208a20.97275,20.97275,0,0,1-3.8667,10.63086.83817.83817,0,0,0-.0918.90235.87342.87342,0,0,0,.79981.50293H30.12557a.84035.84035,0,0,0,.77393-.4712.91869.91869,0,0,0-.09619-.97753,22.5233,22.5233,0,0,1-3.5166-8.95411,14.98039,14.98039,0,0,1-.23731-2.67773v-2.6792A10.33372,10.33372,0,0,0,16.72714,3.16208Z" fill="#1a1a1a"/><path d="M32.74911,11.82711a.75.75,0,0,1-.74707-.69531A15.25664,15.25664,0,0,0,27.3995,1.28805.75.75,0,1,1,28.44442.21188a16.75562,16.75562,0,0,1,5.05371,10.81055.75009.75009,0,0,1-.69336.80273C32.78622,11.82663,32.76766,11.82711,32.74911,11.82711Z" fill="#1a1a1a"/><path d="M.75106,11.82711c-.01855,0-.03711-.00048-.05566-.00195A.75009.75009,0,0,1,.002,11.02243,16.754,16.754,0,0,1,5.05526.21237.75.75,0,1,1,6.10018,1.28854a15.25392,15.25392,0,0,0-4.602,9.84326A.75.75,0,0,1,.75106,11.82711Z" fill="#1a1a1a"/><path d="M22.09872,36.228H11.2535a.75.75,0,0,1,0-1.5H22.09872a.75.75,0,0,1,0,1.5Z" fill="#1a1a1a"/></g></g></svg>