<svg xmlns="http://www.w3.org/2000/svg" width="32.5" height="33.50391" viewBox="0 0 32.5 33.50391"><g id="f1c43c66-d170-4003-a252-76cb8cbbc642" data-name="Layer 2"><g id="b5d0d1f1-94dd-4e58-b85a-d92624b25066" data-name="Layer 1"><path d="M17.47656,26.67871H4.14258a1.766,1.766,0,0,1-1.56787-.94336,1.78892,1.78892,0,0,1,.1123-1.85058c2.95752-4.311,3.04737-10.49024,3.04785-10.55225V10.52539a10.50848,10.50848,0,0,1,.52393-3.28613.74981.74981,0,1,1,1.4248.46777,9.01966,9.01966,0,0,0-.44873,2.81836v2.814c-.00244.27832-.09716,6.70947-3.311,11.394a.28473.28473,0,0,0-.02149.30273.25634.25634,0,0,0,.24024.14258h13.334a.75.75,0,0,1,0,1.5Z" fill="#1a1a1a"/><path d="M28.3501,26.67871H25.42822a.75.75,0,0,1,0-1.5H28.3501a.2751.2751,0,0,0,.24609-.14453.25311.25311,0,0,0-.00635-.2666A26.41255,26.41255,0,0,1,25.48926,15.166a20.9821,20.9821,0,0,1-.20362-2.94727V10.52539A9.02619,9.02619,0,0,0,11.001,3.18994a.74976.74976,0,1,1-.875-1.21777,10.52558,10.52558,0,0,1,16.65966,8.55322v1.69336a19.43756,19.43756,0,0,0,.189,2.73535,24.92149,24.92149,0,0,0,2.88672,9.01758,1.7416,1.7416,0,0,1,.04736,1.78906A1.78249,1.78249,0,0,1,28.3501,26.67871Z" fill="#1a1a1a"/><path d="M16.186,33.50391a6.48119,6.48119,0,0,1-4.1792-1.52735l-.64795-.54492a.75029.75029,0,1,1,.96582-1.14844l.64795.54492a4.98274,4.98274,0,0,0,6.42724,0l.648-.54492a.75029.75029,0,0,1,.96582,1.14844l-.648.54492A6.48151,6.48151,0,0,1,16.186,33.50391Z" fill="#1a1a1a"/><path d="M31.75,33a.74754.74754,0,0,1-.53027-.21973l-31-31A.74992.74992,0,0,1,1.28027.71973l31,31A.75.75,0,0,1,31.75,33Z" fill="#1a1a1a"/></g></g></svg>