<svg xmlns="http://www.w3.org/2000/svg" width="33.285" height="33.5" viewBox="0 0 33.285 33.5"><g id="ae49746c-ac9b-4949-82cf-5cf6cb54cabe" data-name="Layer 2"><g id="bc4af024-ff01-4499-a04f-604776c55bab" data-name="Layer 1"><path d="M9.435,20.894a.752.752,0,0,1-.491-.182A11.787,11.787,0,1,1,24.359,20.7a.75.75,0,0,1-.982-1.134,10.286,10.286,0,1,0-13.452.015.75.75,0,0,1-.49,1.318Z" fill="#1a1a1a"/><path d="M11.284,8.839a.749.749,0,0,1-.607-1.188,6.608,6.608,0,0,1,5.337-3.032.75.75,0,0,1,0,1.5,5.16,5.16,0,0,0-4.12,2.408A.751.751,0,0,1,11.284,8.839Z" fill="#1a1a1a"/><path d="M16.63,28.617C16.371,28.59,0,26.342,0,10.447a.75.75,0,0,1,1.5,0c0,14.16,13.812,16.475,15.143,16.664,1.33-.189,15.142-2.5,15.142-16.664a.75.75,0,0,1,1.5,0c0,15.9-16.372,18.143-16.537,18.164A1.166,1.166,0,0,1,16.63,28.617Z" fill="#1a1a1a"/><path d="M22.756,33.5H10.477a.755.755,0,0,1-.42-.128L5.194,30.089a.749.749,0,0,1,.035-1.264l4.923-2.954a.75.75,0,1,1,.772,1.286L7.01,29.505l3.7,2.5H22.528l3.742-2.5-3.91-2.345a.75.75,0,1,1,.772-1.286l4.925,2.954a.749.749,0,0,1,.031,1.266l-4.915,3.283A.756.756,0,0,1,22.756,33.5Z" fill="#1a1a1a"/></g></g></svg>