<svg xmlns="http://www.w3.org/2000/svg" width="33.50001" height="29.86963" viewBox="0 0 33.50001 29.86963"><g id="b2f0d299-43ce-4573-87f6-962803c263c7" data-name="Layer 2"><g id="b105b74e-cbac-49ec-bc15-78563ba1ffc0" data-name="Layer 1"><path d="M5.29981,26.33691H5.273L.7461,26.314A.75.75,0,0,1,.75,24.814h.0039l4.52637.02295h.02A4.03982,4.03982,0,0,0,8.67042,23.0332L20.02686,5.99756a5.438,5.438,0,0,1,4.63868-2.47168l8.0874.0293A.74988.74988,0,0,1,33.5,4.30811a.719.719,0,0,1-.75293.74707l-8.0874-.0293H24.645a4.0411,4.0411,0,0,0-3.37012,1.80371L9.91847,23.86523A5.53556,5.53556,0,0,1,5.29981,26.33691Z" fill="#1a1a1a"/><path d="M14.72022,15.68115a.74866.74866,0,0,1-.63623-.35254L8.67237,6.67139A4.04141,4.04141,0,0,0,5.41456,5.03076H5.39307L.75391,5.05518H.75a.75.75,0,0,1-.00391-1.5l4.63916-.02442A5.51988,5.51988,0,0,1,9.91651,5.83545l5.439,8.69824a.75011.75011,0,0,1-.63526,1.14746Z" fill="#1a1a1a"/><path d="M29.19434,29.86963a.75.75,0,0,1-.53027-1.28027l3.55567-3.55567a.74992.74992,0,1,1,1.06054,1.06055L29.72462,29.6499A.74757.74757,0,0,1,29.19434,29.86963Z" fill="#1a1a1a"/><path d="M24.43116,26.34326A5.58313,5.58313,0,0,1,20.041,24.189l-2.85546-4.24462a.75012.75012,0,1,1,1.24511-.83692l2.82617,4.2041a4.05735,4.05735,0,0,0,3.17432,1.53174h.01416l8.30225-.0293H32.75a.75.75,0,0,1,.00244,1.5l-8.30176.0293Z" fill="#1a1a1a"/><path d="M32.75,5.05518a.74757.74757,0,0,1-.53027-.21973L28.66407,1.28027A.74992.74992,0,1,1,29.72462.21973L33.28028,3.7749A.75.75,0,0,1,32.75,5.05518Z" fill="#1a1a1a"/></g></g></svg>