<?xml version="1.0" encoding="UTF-8"?>
<svg id="Calque_1" data-name="Calque 1" xmlns="http://www.w3.org/2000/svg" viewBox="0 0 33.5005 34.2515">
  <defs>
    <style>
      .cls-1 {
        fill: #1a1a1a;
      }
    </style>
  </defs>
  <g>
    <g id="ec85795a-ace1-4f42-849e-c7fb2831251c">
      <path class="cls-1" d="M8.683,22.7218c-.1256,.0003-.2438-.0594-.3181-.1607-.1223-.1675-.2047-.2977-.2457-.3675-.1472-.2417-.276-.494-.3853-.755-.2973-.7122-.4425-1.4787-.4262-2.2503,.0042-.1622,.0152-.3239,.0331-.4799l.0115-.0998c.0126-.1039,.0663-.1985,.1491-.2625l.0772-.0604c.1228-.0956,.252-.1869,.3858-.2714,.6393-.3943,1.355-.6486,2.0997-.7461,1.0905-.1214,2.1927,.0772,3.1722,.5718,.757,.3544,1.4463,.8384,2.0367,1.4302,.1482,.1591,.1394,.4083-.0196,.5565-.1512,.1409-.3856,.1409-.5368,0-.2146-.214-.4436-.4129-.6856-.5954-.351-.2631-.7279-.4896-1.1249-.6762-.8461-.4292-1.7981-.605-2.7417-.5061-.6304,.0823-1.2363,.297-1.7779,.63-.0929,.0588-.1832,.1218-.2698,.1864-.0115,.1124-.0184,.2279-.021,.3434-.0133,.6612,.1119,1.3179,.3675,1.9279,.0941,.2244,.2048,.4415,.3312,.6495,.0346,.0567,.105,.167,.21,.3087,.1284,.1755,.0903,.4219-.0851,.5503-.0667,.0489-.1471,.0755-.2298,.076l-.0063,.0005Z"/>
    </g>
    <g id="b64788e9-89bc-48ba-a95c-3e8700063627">
      <path class="cls-1" d="M12.168,27.0055c-.0542-.0002-.1078-.0114-.1575-.0331l-.0903-.0394c-.1417-.062-.2845-.1334-.4241-.21-.6618-.3803-1.2376-.8935-1.6913-1.5074-.6532-.9159-1.0409-1.9944-1.1202-3.1166-.05-.5035-.05-1.0107,0-1.5142,.0345-.344,.0925-.6852,.1738-1.0212,.0513-.2114,.2642-.3411,.4756-.2898s.3411,.2643,.2898,.4757c-.0732,.3007-.1259,.6062-.1575,.9141-.0445,.4501-.0445,.9034,0,1.3535,.0677,.9816,.4032,1.9259,.9701,2.7301,.3867,.5239,.8774,.9622,1.4415,1.2874,.095,.0525,.1921,.105,.2892,.147,.0971-.0446,.1942-.094,.2892-.147,.5679-.3192,1.0595-.7583,1.4404-1.2868,.1421-.1973,.2694-.4049,.3806-.6211,.0304-.0599,.0882-.1769,.1575-.3407,.0762-.2037,.3031-.307,.5067-.2307,.2036,.0763,.3069,.3032,.2307,.5068-.0027,.0073-.0057,.0145-.0088,.0216-.0793,.1937-.1475,.3323-.1837,.4032-.1295,.2518-.2777,.4935-.4436,.723-.4482,.6203-1.0261,1.1355-1.6934,1.51-.1396,.0782-.2829,.1491-.4247,.21l-.0898,.0394c-.0502,.0232-.1048,.0356-.1601,.0362Z"/>
    </g>
    <g id="a497285f-a5f3-4168-b328-0c51a0ce8c45">
      <path class="cls-1" d="M12.251,25.097c-.2174-.0038-.3906-.1831-.3868-.4006,.003-.1692,.1136-.3176,.275-.3686,.2878-.0853,.5694-.1905,.8425-.315,.3995-.1854,.7792-.4107,1.1333-.6726,.7977-.5566,1.4248-1.3243,1.811-2.2172,.2497-.6095,.3746-1.2629,.3675-1.9216,0-.1139-.0094-.2279-.021-.3397-.0871-.0651-.178-.1271-.2714-.1859-.7464-.4639-1.6155-.6917-2.4934-.6537-.064,.0032-.1911,.0105-.3617,.0331-.2162,.0232-.4102-.1334-.4334-.3496-.0224-.2092,.1236-.3991,.3315-.4311,.2021-.0268,.3533-.0357,.431-.0394,.2776-.0114,.5556-.0009,.8315,.0315,.7505,.0888,1.4722,.3423,2.1134,.7424,.1349,.0856,.2656,.1759,.3879,.2709l.0772,.0588c.0845,.0647,.1391,.161,.1512,.2667l.0115,.0992c.0184,.1575,.0294,.315,.0331,.4783,.0084,.7677-.1371,1.5292-.4278,2.2398-.4382,1.0253-1.1539,1.9078-2.0667,2.548-.3987,.2947-.8263,.5482-1.2761,.7566-.307,.1416-.6239,.2609-.948,.357-.0363,.0097-.0738,.0139-.1113,.0126Z"/>
    </g>
  </g>
  <g>
    <path class="cls-1" d="M12.1937,31.5552c-5.4434,0-9.8716-4.4287-9.8716-9.8721S6.7503,11.8111,12.1937,11.8111s9.8721,4.4287,9.8721,9.8721-4.4287,9.8721-9.8721,9.8721Zm0-18.2441c-4.6162,0-8.3716,3.7559-8.3716,8.3721s3.7554,8.3721,8.3716,8.3721,8.3721-3.7559,8.3721-8.3721-3.7559-8.3721-8.3721-8.3721Z"/>
    <path class="cls-1" d="M25.8362,21.2369c-.2607,0-.5137-.1357-.6523-.3779-.2051-.3594-.0801-.8174,.2793-1.0234,2.6055-1.4893,4.2246-4.2769,4.2246-7.2744,0-4.6162-3.7559-8.3721-8.3721-8.3721-2.9092,0-5.5669,1.4756-7.1089,3.9478-.2192,.3516-.6826,.458-1.0332,.2393-.3516-.2192-.4585-.6816-.2393-1.0332,1.8174-2.9141,4.9507-4.6538,8.3813-4.6538,5.4434,0,9.8721,4.4287,9.8721,9.8721,0,3.5347-1.9082,6.8213-4.9805,8.5771-.1172,.0664-.2451,.0986-.3711,.0986Z"/>
    <path class="cls-1" d="M28.3265,31.5552h-5.0723c-.4141,0-.75-.3359-.75-.75s.3359-.75,.75-.75h5.0723c.9785,0,1.8545-.584,2.2305-1.4873l1.501-3.6016c.1592-.3818,.5986-.5605,.9814-.4033,.3818,.1592,.5625,.5986,.4033,.9814l-1.501,3.6006c-.6094,1.4639-2.0293,2.4102-3.6152,2.4102Z"/>
    <path class="cls-1" d="M.7503,10.1089c-.0913,0-.1841-.0166-.2739-.0518-.3857-.1514-.5757-.5864-.4243-.9722l1.5332-3.9087c.5923-1.5107,2.0239-2.4868,3.6465-2.4868h4.2979c.4141,0,.75,.3359,.75,.75s-.3359,.75-.75,.75H5.2317c-1.0015,0-1.8843,.6025-2.25,1.5347l-1.5332,3.9087c-.1162,.2954-.3989,.4761-.6982,.4761Z"/>
    <path class="cls-1" d="M6.887,6.8785c-.2061,0-.4111-.0845-.5596-.25-.2759-.3086-.2495-.7827,.0591-1.0591l2.3799-2.1299L6.3865,1.3086c-.3091-.2759-.335-.75-.0586-1.0586,.2759-.3081,.75-.3359,1.0586-.0586l3.0044,2.6895c.1592,.1421,.25,.3452,.25,.5586s-.0908,.4165-.25,.5591l-3.0044,2.689c-.1431,.1279-.3218,.1909-.4995,.1909Z"/>
    <path class="cls-1" d="M25.764,34.2515c-.1787,0-.3574-.0635-.5-.1914l-3.0039-2.6895c-.1592-.1426-.25-.3457-.25-.5586,0-.2139,.0908-.417,.25-.5586l3.0039-2.6885c.3066-.2754,.7822-.252,1.0586,.0586,.2764,.3086,.25,.7822-.0586,1.0586l-2.3799,2.1299,2.3799,2.1309c.3086,.2764,.335,.75,.0586,1.0586-.1484,.166-.3525,.25-.5586,.25Z"/>
  </g>
</svg>