<svg xmlns="http://www.w3.org/2000/svg" width="33.50046" height="34.25135" viewBox="0 0 33.50046 34.25135"><g id="b6004d5f-5d8a-4919-a476-bee354a6e17c" data-name="Layer 2"><g id="fd9ee586-bd0f-41a3-bc4d-c8118df56e28" data-name="Layer 1"><path d="M12.1936,31.55458A9.87183,9.87183,0,1,1,22.06567,21.683,9.88257,9.88257,0,0,1,12.1936,31.55458Zm0-18.24366A8.37183,8.37183,0,1,0,20.56567,21.683,8.38135,8.38135,0,0,0,12.1936,13.31092Z" fill="#1a1a1a"/><path d="M25.8352,21.2367a.75.75,0,0,1-.37256-1.40136A8.3729,8.3729,0,1,0,14.20678,8.13661a.74992.74992,0,0,1-1.27246-.79395A9.873,9.873,0,1,1,26.20678,21.13807.74723.74723,0,0,1,25.8352,21.2367Z" fill="#1a1a1a"/><path d="M28.32592,31.55458H23.25415a.75.75,0,1,1,0-1.5h5.07177a2.41125,2.41125,0,0,0,2.23145-1.48731l1.50049-3.60107a.75011.75011,0,1,1,1.38476.57715l-1.50049,3.60107A3.90689,3.90689,0,0,1,28.32592,31.55458Z" fill="#1a1a1a"/><path d="M.75024,10.10877A.74991.74991,0,0,1,.052,9.08485L1.58471,5.17616a3.89566,3.89566,0,0,1,3.647-2.48682H9.52954a.75.75,0,0,1,0,1.5H5.23168A2.40363,2.40363,0,0,0,2.9812,5.724L1.44848,9.6327A.75012.75012,0,0,1,.75024,10.10877Z" fill="#1a1a1a"/><path d="M6.887,6.87831a.75.75,0,0,1-.50049-1.3086L8.76586,3.43934,6.386,1.30848A.75.75,0,0,1,7.387.19129l3.0039,2.68946a.74954.74954,0,0,1-.00048,1.11719L7.38647,6.6869A.74542.74542,0,0,1,6.887,6.87831Z" fill="#1a1a1a"/><path d="M25.76391,34.25135a.74735.74735,0,0,1-.49951-.19091L22.26,31.37147a.7496.7496,0,0,1,0-1.11768l3.00439-2.68945a.74969.74969,0,0,1,1,1.11719l-2.37988,2.13086,2.37988,2.12988a.75.75,0,0,1-.50049,1.30908Z" fill="#1a1a1a"/><path d="M12.1936,26.37489a3.04594,3.04594,0,0,1-3.28223-2.72412.75.75,0,0,1,1.5,0c0,.66357.81592,1.22412,1.78223,1.22412s1.78223-.56055,1.78223-1.22412c0-.38819-.23829-.80762-1.96729-1.24756-.76611-.19531-3.09717-.78858-3.09717-2.70166a3.04594,3.04594,0,0,1,3.28223-2.72412,3.04594,3.04594,0,0,1,3.28223,2.72412.75.75,0,0,1-1.5,0c0-.66358-.81592-1.22412-1.78223-1.22412s-1.78223.56054-1.78223,1.22412c0,.4956.66211.91553,1.96729,1.24756.92676.23633,3.09717.78857,3.09717,2.70166A3.04594,3.04594,0,0,1,12.1936,26.37489Z" fill="#1a1a1a"/><path d="M12.1936,18.4911a.7502.7502,0,0,1-.75-.75V16.62684a.75.75,0,0,1,1.5,0V17.7411A.7502.7502,0,0,1,12.1936,18.4911Z" fill="#1a1a1a"/><path d="M12.1936,27.48915a.7502.7502,0,0,1-.75-.75V25.62489a.75.75,0,0,1,1.5,0v1.11426A.7502.7502,0,0,1,12.1936,27.48915Z" fill="#1a1a1a"/></g></g></svg>