<svg xmlns="http://www.w3.org/2000/svg" width="33.507" height="32.432" viewBox="0 0 33.507 32.432"><g id="a20b3d3c-d0e3-4386-a545-861c1657f0d1" data-name="Layer 2"><g id="a28a391b-1026-4bde-ab04-6b7bbf33642f" data-name="Layer 1"><path d="M20.51,32.432H5.964A5.971,5.971,0,0,1,0,26.468V5.963A5.97,5.97,0,0,1,5.964,0H22.882a5.971,5.971,0,0,1,5.964,5.963v7.973a.75.75,0,0,1-1.5,0V5.963A4.469,4.469,0,0,0,22.882,1.5H5.964A4.468,4.468,0,0,0,1.5,5.963V26.468a4.469,4.469,0,0,0,4.464,4.464H20.51a.75.75,0,0,1,0,1.5Z" fill="#1a1a1a"/><path d="M6.033,32.432a.75.75,0,0,1,0-1.5A4.47,4.47,0,0,0,10.5,26.468V23.831a.75.75,0,0,1,.75-.75h5.878a.75.75,0,0,1,0,1.5H12v1.887A5.971,5.971,0,0,1,6.033,32.432Z" fill="#1a1a1a"/><path d="M20.51,8.732H6.97a.75.75,0,1,1,0-1.5H20.51a.75.75,0,0,1,0,1.5Z" fill="#1a1a1a"/><path d="M20.51,13.3H6.97a.75.75,0,1,1,0-1.5H20.51a.75.75,0,0,1,0,1.5Z" fill="#1a1a1a"/><path d="M14.945,17.873H6.97a.75.75,0,1,1,0-1.5h7.975a.75.75,0,0,1,0,1.5Z" fill="#1a1a1a"/><path d="M26.63,32.432a.742.742,0,0,1-.293-.06c-7.683-3.267-6.548-13.53-6.5-13.965a.748.748,0,0,1,.571-.64l6.045-1.441a.75.75,0,1,1,.347,1.459L21.292,19.1c-.113,2.026-.112,9.45,5.632,11.892a.75.75,0,0,1-.294,1.441Z" fill="#1a1a1a"/><path d="M26.631,32.432a.75.75,0,0,1-.294-1.441C32.1,28.543,32.085,21.124,31.97,19.1l-5.513-1.314a.75.75,0,0,1,.347-1.459l6.044,1.441a.748.748,0,0,1,.571.64c.052.435,1.188,10.7-6.495,13.965A.742.742,0,0,1,26.631,32.432Z" fill="#1a1a1a"/></g></g></svg>