<svg xmlns="http://www.w3.org/2000/svg" xmlns:xlink="http://www.w3.org/1999/xlink" width="31.87481" height="33.9834" viewBox="0 0 31.87481 33.9834"><defs><linearGradient id="e5e3afc9-42ce-425c-99f0-96172c88da04" x1="9.13455" y1="22.44162" x2="31.28315" y2="0.29301" gradientUnits="userSpaceOnUse"><stop offset="0.18994" stop-color="#2288e1"/><stop offset="0.27787" stop-color="#2e7ee2"/><stop offset="0.43563" stop-color="#4d64e6"/><stop offset="0.64331" stop-color="#7f3aeb"/><stop offset="0.82123" stop-color="#af12f0"/></linearGradient><linearGradient id="e254e53c-9948-4b79-a797-6fb0af5bd952" x1="7.76149" y1="38.75202" x2="24.11357" y2="22.39995" xlink:href="#e5e3afc9-42ce-425c-99f0-96172c88da04"/></defs><g id="a3c683b0-e32a-4b7b-ba08-e84c1c9fdae0" data-name="Layer 2"><g id="a3f8a49e-7d63-4217-9c59-43e71966ab14" data-name="Layer 1"><path d="M9.4587,22.65826a.9999.9999,0,0,0,.382.07709H25.39248a1,1,0,0,0,0-2H12.25479L31.28311,1.707A.99989.99989,0,0,0,29.869.293L10.84072,19.32129V6.18359a1,1,0,0,0-2,0V21.73535a1.004,1.004,0,0,0,.618.92291Z" fill="url(#e5e3afc9-42ce-425c-99f0-96172c88da04)"/><path d="M30.5585,29.62793a46.555,46.555,0,0,1-29.2417,0A.99964.99964,0,1,0,.684,31.52441a48.29509,48.29509,0,0,0,15.25391,2.459,48.28984,48.28984,0,0,0,15.25342-2.459.99964.99964,0,0,0-.63281-1.89648Z" fill="url(#e254e53c-9948-4b79-a797-6fb0af5bd952)"/></g></g></svg>