<svg xmlns="http://www.w3.org/2000/svg" width="33.5" height="34.65967" viewBox="0 0 33.5 34.65967"><g id="a91cb249-0bf3-4d9f-b1e9-15475c98bfaf" data-name="Layer 2"><g id="e81bd0a3-0384-4a45-8ae9-9f617a54cf29" data-name="Layer 1"><path d="M32.75,6.84082H.75a.75.75,0,0,1,0-1.5h32a.75.75,0,0,1,0,1.5Z" fill="#1a1a1a"/><path d="M23.06006,34.65967H10.43994a6.08059,6.08059,0,0,1-6.07568-5.77295L3.20068,6.12891a.7504.7504,0,0,1,.749-.78809H29.5498a.74962.74962,0,0,1,.749.78809L29.13525,28.88672A6.08014,6.08014,0,0,1,23.06006,34.65967ZM4.73926,6.84082l1.123,21.96973a4.58106,4.58106,0,0,0,4.57764,4.34912H23.06006a4.58094,4.58094,0,0,0,4.57715-4.34912l1.123-21.96973Z" fill="#1a1a1a"/><path d="M20.32324,27.50537a.73883.73883,0,0,1-.23388-.0376,9.3328,9.3328,0,0,0-6.58155-.03955.7501.7501,0,1,1-.66308-1.3457,10.73155,10.73155,0,0,1,7.7124-.03955.74993.74993,0,0,1-.23389,1.4624Z" fill="#1a1a1a"/><path d="M25.394,6.84082H8.10547a.7502.7502,0,0,1-.75-.75V2.94873A2.952,2.952,0,0,1,10.3042,0H23.19531A2.952,2.952,0,0,1,26.144,2.94873V6.09082A.75019.75019,0,0,1,25.394,6.84082Zm-16.53857-1.5H24.644V2.94873A1.45037,1.45037,0,0,0,23.19531,1.5H10.3042A1.45037,1.45037,0,0,0,8.85547,2.94873Z" fill="#1a1a1a"/></g></g></svg>