<svg xmlns="http://www.w3.org/2000/svg" width="29.17" height="33.501" viewBox="0 0 29.17 33.501"><g id="a829d177-020e-4d00-acf1-237630d33b02" data-name="Layer 2"><g id="e943f7f1-2edd-4d5a-8af9-2dbfa92faf31" data-name="Layer 1"><path d="M14.663,33.5a5.939,5.939,0,0,1-3.425-1.085h0C2.034,25.915.248,14.6,0,8.428a3.911,3.911,0,0,1,3.426-4.01A17.735,17.735,0,0,0,12.394.828a3.847,3.847,0,0,1,4.651-.09,19.449,19.449,0,0,0,8.84,3.61A3.779,3.779,0,0,1,29.169,8.2c-.134,5.017-1.482,17.419-11.077,24.216A5.92,5.92,0,0,1,14.663,33.5ZM12.1,31.19a4.44,4.44,0,0,0,5.121,0C26.267,24.781,27.541,12.946,27.67,8.155a2.284,2.284,0,0,0-1.986-2.321,20.939,20.939,0,0,1-9.527-3.887,2.341,2.341,0,0,0-2.832.058,19.238,19.238,0,0,1-9.716,3.9A2.4,2.4,0,0,0,1.5,8.369C1.736,14.26,3.426,25.06,12.1,31.19Z" fill="#1a1a1a"/><path d="M20.507,13.915H13.561a.75.75,0,0,1,0-1.5h6.946a.75.75,0,0,1,0,1.5Z" fill="#1a1a1a"/><path d="M15.594,20.861H8.7a.75.75,0,0,1,0-1.5h6.9a.75.75,0,1,1,0,1.5Z" fill="#1a1a1a"/><path d="M18.05,23.318a3.207,3.207,0,1,1,3.207-3.207A3.21,3.21,0,0,1,18.05,23.318Zm0-4.914a1.707,1.707,0,1,0,1.707,1.707A1.708,1.708,0,0,0,18.05,18.4Z" fill="#1a1a1a"/><path d="M11.105,16.372a3.207,3.207,0,1,1,3.206-3.207A3.211,3.211,0,0,1,11.105,16.372Zm0-4.913a1.707,1.707,0,1,0,1.706,1.706A1.708,1.708,0,0,0,11.105,11.459Z" fill="#1a1a1a"/></g></g></svg>