<svg xmlns="http://www.w3.org/2000/svg" xmlns:xlink="http://www.w3.org/1999/xlink" width="31.87578" height="33.9834" viewBox="0 0 31.87578 33.9834"><defs><linearGradient id="b4b38d9f-5268-43c4-9408-8de76e1354f3" x1="9.13418" y1="22.44238" x2="31.2828" y2="0.29376" gradientUnits="userSpaceOnUse"><stop offset="0.13966" stop-color="#2288e1"/><stop offset="0.22059" stop-color="#2e7ee2"/><stop offset="0.36578" stop-color="#4d64e6"/><stop offset="0.55692" stop-color="#7f3aeb"/><stop offset="0.72067" stop-color="#af12f0"/></linearGradient><linearGradient id="fd5ac15f-2bef-433c-a8a5-fe387e4dfa3c" x1="7.76179" y1="38.75232" x2="24.11419" y2="22.39992" xlink:href="#b4b38d9f-5268-43c4-9408-8de76e1354f3"/></defs><g id="ac7fc12a-6e3c-4ae3-9386-8b366faeef58" data-name="Layer 2"><g id="b3322083-dfb2-4f2f-ac04-73bf6fa301e0" data-name="Layer 1"><path d="M9.84121,22.73535a.99672.99672,0,0,0,.707-.293L29.57656,3.41406v13.1377a1,1,0,0,0,2,0V1a1.00374,1.00374,0,0,0-1-1H15.0248a1,1,0,1,0,0,2H28.1625L9.13418,21.02832a1,1,0,0,0,.707,1.707Z" fill="url(#b4b38d9f-5268-43c4-9408-8de76e1354f3)"/><path d="M30.559,29.62793a46.55652,46.55652,0,0,1-29.24218,0A.99964.99964,0,1,0,.684,31.52441a48.29509,48.29509,0,0,0,15.25391,2.459,48.29509,48.29509,0,0,0,15.25391-2.459.99964.99964,0,1,0-.63282-1.89648Z" fill="url(#fd5ac15f-2bef-433c-a8a5-fe387e4dfa3c)"/></g></g></svg>