<svg xmlns="http://www.w3.org/2000/svg" width="33.501" height="33.501" viewBox="0 0 33.501 33.501"><g id="e4f6b85a-434f-43e0-8acd-dc8c9502335f" data-name="Layer 2"><g id="b08625d1-f4ac-4a2e-8694-3c8de702856f" data-name="Layer 1"><path d="M16.751,22.324a5.575,5.575,0,1,1,3.941-1.633A5.537,5.537,0,0,1,16.751,22.324Zm0-9.646a4.072,4.072,0,1,0,2.88,1.191A4.063,4.063,0,0,0,16.751,12.678Z" fill="#1a1a1a"/><path d="M14.751,33.5a3.832,3.832,0,0,1-.992-.132l-3.091-.835a3.36,3.36,0,0,1-2.08-1.586,3.444,3.444,0,0,1-.359-2.6l.1-.357a2.513,2.513,0,0,0-.338-2.48,2.518,2.518,0,0,0-2.481-.339l-.349.094a3.44,3.44,0,0,1-2.6-.356A3.374,3.374,0,0,1,.964,22.824L.132,19.742A3.808,3.808,0,0,1,2.82,15.079,2.514,2.514,0,0,0,4.8,13.546a2.512,2.512,0,0,0-.946-2.316,3.811,3.811,0,0,1,0-5.379l2-2a3.8,3.8,0,0,1,5.375,0,2.515,2.515,0,0,0,2.321.95A2.515,2.515,0,0,0,15.08,2.819,3.807,3.807,0,0,1,19.742.131l3.092.835a3.431,3.431,0,0,1,2.438,4.183l-.1.357a2.516,2.516,0,0,0,.338,2.48A2.521,2.521,0,0,0,28,8.324l.349-.093a3.452,3.452,0,0,1,2.6.356,3.368,3.368,0,0,1,1.589,2.089l.832,3.083a3.806,3.806,0,0,1-2.688,4.662A2.512,2.512,0,0,0,28.7,19.954a2.514,2.514,0,0,0,.946,2.317,3.806,3.806,0,0,1,0,5.379l-2,2a3.8,3.8,0,0,1-5.375,0,2.523,2.523,0,0,0-2.321-.95,2.513,2.513,0,0,0-1.532,1.979,3.816,3.816,0,0,1-3.671,2.82Zm-8.16-9.982a3.37,3.37,0,0,1,2.456.934,3.914,3.914,0,0,1,.727,3.93l-.094.35A1.943,1.943,0,0,0,9.885,30.2a1.876,1.876,0,0,0,1.164.888l3.1.838a2.309,2.309,0,0,0,2.822-1.627,3.917,3.917,0,0,1,2.593-3.04,3.919,3.919,0,0,1,3.767,1.333,2.3,2.3,0,0,0,3.257,0l2-2a2.3,2.3,0,0,0,0-3.254,3.913,3.913,0,0,1-1.337-3.769,3.913,3.913,0,0,1,3.04-2.594,2.311,2.311,0,0,0,1.627-2.822l-.835-3.092A1.888,1.888,0,0,0,30.2,9.885a1.946,1.946,0,0,0-1.472-.2l-.342.091a3.913,3.913,0,0,1-3.927-.726,3.914,3.914,0,0,1-.728-3.93l.094-.349a1.928,1.928,0,0,0-1.369-2.351l-3.1-.837a2.308,2.308,0,0,0-2.822,1.626,3.917,3.917,0,0,1-2.6,3.041A3.915,3.915,0,0,1,10.17,4.912a2.3,2.3,0,0,0-3.258,0l-2,2h0a2.31,2.31,0,0,0,0,3.254,3.917,3.917,0,0,1,1.338,3.77,3.915,3.915,0,0,1-3.04,2.593A2.309,2.309,0,0,0,1.58,19.351l.835,3.09a1.884,1.884,0,0,0,.89,1.174,1.94,1.94,0,0,0,1.471.2l.341-.091A5.706,5.706,0,0,1,6.591,23.519ZM4.379,6.381h0Z" fill="#1a1a1a"/></g></g></svg>