<svg xmlns="http://www.w3.org/2000/svg" width="38.17337" height="30.86572" viewBox="0 0 38.17337 30.86572"><g id="ad56d2ad-2a64-40f0-b217-8923b6d30a79" data-name="Layer 2"><g id="ff70075a-8a89-4e7d-aabd-9e1409e9de6f" data-name="Layer 1"><path d="M29.613,16.394a.74691.74691,0,0,1-.57325-.26611,18.41081,18.41081,0,0,0-3.51953-3.189.75031.75031,0,1,1,.86035-1.22949,19.93512,19.93512,0,0,1,3.80469,3.45069A.75.75,0,0,1,29.613,16.394Z" fill="#1a1a1a"/><path d="M19.27994,30.86572H6.62027a6.23745,6.23745,0,0,1-5.31494-3.23144,9.42609,9.42609,0,0,1-.28174-9.05908,19.04,19.04,0,0,1,6.0918-6.86573A.75.75,0,1,1,7.97476,12.939a17.55451,17.55451,0,0,0-5.61914,6.32666,7.897,7.897,0,0,0,.231,7.58887,4.77549,4.77549,0,0,0,4.03369,2.51123H19.27994a.75.75,0,0,1,0,1.5Z" fill="#1a1a1a"/><path d="M28.8942,9.86523H4.60123a.75.75,0,0,1,0-1.5h24.293a.75.75,0,0,1,0,1.5Z" fill="#1a1a1a"/><path d="M24.14224,9.86523a.75.75,0,0,1-.522-1.28857l4.92188-4.77-1.42432-1.4248a3.02219,3.02219,0,0,0-4.26807,0L21.26529,3.96631a.74973.74973,0,0,1-1.06055,0l-.69677-.6958A3.90808,3.90808,0,0,0,13.98746,3.27l-.69678.69629a.74973.74973,0,0,1-1.06055,0L10.64566,2.38184a3.024,3.024,0,0,0-4.26807,0L4.95328,3.80664l4.92187,4.77A.75.75,0,1,1,8.83121,9.65381L3.36246,4.35352a.74983.74983,0,0,1-.0083-1.06885L5.31705,1.32129a4.5252,4.5252,0,0,1,6.38916,0l1.0542,1.0542.1665-.16651a5.41019,5.41019,0,0,1,7.6416.00049l.16651.166,1.0542-1.0542a4.52253,4.52253,0,0,1,6.38916,0l1.96289,1.96338a.74985.74985,0,0,1-.0083,1.06885L24.66422,9.65381A.74777.74777,0,0,1,24.14224,9.86523Z" fill="#1a1a1a"/><path d="M29.61246,30.86572c-4.65381,0-8.27588-5.17676-8.42822-5.397a.75175.75175,0,0,1,0-.85156c.15234-.22022,3.77441-5.397,8.42822-5.397,4.6543,0,8.27637,5.17676,8.42871,5.397a.75175.75175,0,0,1,0,.85156C37.88883,25.689,34.26676,30.86572,29.61246,30.86572ZM22.74039,25.043c.92138,1.1665,3.707,4.32275,6.87207,4.32275,3.16553,0,5.95117-3.15625,6.87256-4.32275-.92139-1.16651-3.707-4.32276-6.87256-4.32276C26.44742,20.72021,23.66177,23.87646,22.74039,25.043Z" fill="#1a1a1a"/><path d="M29.61246,27.69238A2.64917,2.64917,0,1,1,32.26138,25.043,2.65225,2.65225,0,0,1,29.61246,27.69238Zm0-3.79834A1.14917,1.14917,0,1,0,30.76138,25.043,1.15052,1.15052,0,0,0,29.61246,23.894Z" fill="#1a1a1a"/></g></g></svg>