<svg xmlns="http://www.w3.org/2000/svg" width="33.93298" height="31.93311" viewBox="0 0 33.93298 31.93311"><g id="b07d11d9-68f7-4a9d-8f7f-73438913368a" data-name="Layer 2"><g id="b0067b92-96a3-49a8-8db5-333741220dc7" data-name="Layer 1"><path d="M12.94629,31.8418H4.05518A4.06,4.06,0,0,1,0,27.78662V4.05518A4.06,4.06,0,0,1,4.05518,0H24.45557a4.06,4.06,0,0,1,4.05517,4.05518V15.9209a.75.75,0,1,1-1.5,0V4.05518A2.55837,2.55837,0,0,0,24.45557,1.5H4.05518A2.55837,2.55837,0,0,0,1.5,4.05518V27.78662A2.55838,2.55838,0,0,0,4.05518,30.3418h8.89111a.75.75,0,0,1,0,1.5Z" fill="#1a1a1a"/><path d="M21.57471,10.03125H5.92627a.75.75,0,1,1,0-1.5H21.57471a.75.75,0,0,1,0,1.5Z" fill="#1a1a1a"/><path d="M17.56152,15.90918H5.92627a.75.75,0,1,1,0-1.5H17.56152a.75.75,0,0,1,0,1.5Z" fill="#1a1a1a"/><path d="M12.94629,21.7876h-7.02a.75.75,0,1,1,0-1.5h7.02a.75.75,0,1,1,0,1.5Z" fill="#1a1a1a"/><path d="M25.37256,31.93311c-4.6543,0-8.27637-5.17676-8.42871-5.397a.75175.75175,0,0,1,0-.85156c.15234-.22021,3.77441-5.397,8.42871-5.397s8.27637,5.17676,8.42822,5.397a.75175.75175,0,0,1,0,.85156C33.64893,26.75635,30.02686,31.93311,25.37256,31.93311ZM18.5,26.11035c.92139,1.16651,3.707,4.32276,6.87256,4.32276s5.95068-3.15625,6.87207-4.32276c-.92139-1.1665-3.70654-4.32275-6.87207-4.32275S19.42139,24.94385,18.5,26.11035Z" fill="#1a1a1a"/><path d="M25.37256,28.75928a2.64893,2.64893,0,1,1,2.64892-2.64893A2.65215,2.65215,0,0,1,25.37256,28.75928Zm0-3.79785a1.14893,1.14893,0,1,0,1.14892,1.14892A1.15051,1.15051,0,0,0,25.37256,24.96143Z" fill="#1a1a1a"/></g></g></svg>