<?xml version="1.0" encoding="UTF-8"?>
<svg id="Calque_1" data-name="Calque 1" xmlns="http://www.w3.org/2000/svg" viewBox="0 0 33.4364 30.8682">
  <defs>
    <style>
      .cls-1 {
        fill: #1a1a1a;
      }
    </style>
  </defs>
  <path class="cls-1" d="M29.6125,16.3965c-.2119,0-.4229-.0898-.5713-.2646-1.0273-1.209-2.2109-2.2822-3.5186-3.1895-.3398-.2363-.4248-.7036-.1885-1.0439,.2354-.3398,.7021-.4238,1.0439-.1885,1.4141,.9814,2.6943,2.1426,3.8057,3.4512,.2686,.3154,.2295,.7891-.0859,1.0566-.1406,.1201-.3135,.1787-.4854,.1787Z"/>
  <path class="cls-1" d="M19.2804,30.8682H6.6208c-2.1289,0-4.0664-1.1777-5.3154-3.2324-1.6318-2.6826-1.7427-6.2383-.2817-9.0576,1.4365-2.7461,3.5449-5.1216,6.0981-6.8706,.3408-.2339,.8091-.1475,1.0425,.1948,.2344,.3418,.147,.8086-.1948,1.0425-2.3516,1.6108-4.2935,3.7983-5.6152,6.3257-1.2236,2.3613-1.1328,5.3408,.2329,7.5859,.9702,1.5967,2.4404,2.5117,4.0337,2.5117h12.6597c.4141,0,.75,.3359,.75,.75s-.3359,.75-.75,.75Z"/>
  <path class="cls-1" d="M28.8947,9.8672H4.6012c-.4141,0-.75-.3359-.75-.75s.3359-.75,.75-.75H28.8947c.4141,0,.75,.3359,.75,.75s-.3359,.75-.75,.75Z"/>
  <path class="cls-1" d="M24.1427,9.8672c-.1963,0-.3916-.0762-.5381-.228-.2891-.2974-.2812-.7725,.0166-1.0605l4.9209-4.77-1.4248-1.4243c-1.1396-1.1401-3.126-1.1401-4.2676,0l-1.584,1.5845c-.293,.2925-.7666,.2935-1.0605,0l-.6973-.6963c-1.5215-1.5225-3.998-1.522-5.5205-.0005l-.6968,.6968c-.293,.293-.7676,.293-1.0605,0l-1.5845-1.5845c-1.1396-1.1406-3.1279-1.1406-4.2676,0l-1.4248,1.4243,4.9219,4.77c.2974,.2881,.3047,.7632,.0166,1.0605-.2871,.2988-.7632,.3057-1.0605,.0166L3.3625,4.3555c-.1445-.1396-.2266-.332-.228-.5327-.0015-.2012,.0776-.394,.2197-.5361l1.9634-1.9629c.853-.8535,1.9873-1.3237,3.1943-1.3237s2.3413,.4702,3.1943,1.3237l1.0542,1.0542,.1665-.1665C15.0334,.105,18.4621,.104,20.5685,2.2114l.167,.1665,1.0537-1.0542c.8535-.8535,1.9883-1.3237,3.1943-1.3237,1.207,0,2.3418,.4702,3.1943,1.3237l1.9639,1.9629c.1416,.1421,.2217,.335,.2197,.5361-.002,.2007-.084,.3931-.2285,.5327l-5.4688,5.3003c-.1455,.1411-.333,.2114-.5215,.2114Z"/>
  <path class="cls-1" d="M24.8752,30.8682c-4.6543,0-8.2764-5.1768-8.4282-5.3975-.1763-.2568-.1763-.5947,0-.8516,.1523-.2207,3.7739-5.3965,8.4282-5.3965s8.2773,5.1758,8.4287,5.3965c.1768,.2568,.1768,.5947,0,.8516-.1514,.2207-3.7734,5.3975-8.4287,5.3975Zm-6.8721-5.8232c.9219,1.167,3.707,4.3232,6.8721,4.3232,3.1758,0,5.9551-3.1562,6.873-4.3223-.9199-1.166-3.707-4.3232-6.873-4.3232s-5.9502,3.1562-6.8721,4.3223Z"/>
  <path class="cls-1" d="M24.8752,27.6943c-1.46,0-2.6484-1.1885-2.6484-2.6494,0-1.46,1.1885-2.6484,2.6484-2.6484,1.4609,0,2.6494,1.1885,2.6494,2.6484,0,1.4609-1.1885,2.6494-2.6494,2.6494Zm0-3.7979c-.6328,0-1.1484,.5156-1.1484,1.1484,0,.6338,.5156,1.1494,1.1484,1.1494,.6338,0,1.1494-.5156,1.1494-1.1494,0-.6328-.5156-1.1484-1.1494-1.1484Z"/>
</svg>