<?xml version="1.0" encoding="UTF-8"?>
<svg id="Calque_1" data-name="Calque 1" xmlns="http://www.w3.org/2000/svg" viewBox="0 0 33.407 33.4805">
  <defs>
    <style>
      .cls-1 {
        fill: #1a1a1a;
      }
    </style>
  </defs>
  <path class="cls-1" d="M15.8716,30.6836H.75c-.4141,0-.75-.3359-.75-.75s.3359-.75,.75-.75H15.8716c.4141,0,.75,.3359,.75,.75s-.3359,.75-.75,.75Z"/>
  <path class="cls-1" d="M.75,21.833c-.1743,0-.3447-.0605-.4805-.1738-.1709-.1426-.2695-.3535-.2695-.5762V.75C0,.3359,.3359,0,.75,0s.75,.3359,.75,.75V20.1396c1.9814-.5625,3.7192-1.7598,4.959-3.4326,.5459-.8369,.916-2.5903,1.2734-4.2856,.6626-3.1396,1.3477-6.3867,3.6948-6.3867,2,0,2.5493,2.9146,3.1855,6.2896,.4136,2.1924,1.0371,5.5,2.0132,5.5,.0049,0,.0098,0,.0146-.001,1.3379-.0459,2.2012-1.5142,3.0361-2.9341,.8184-1.3916,1.5947-2.7026,2.9258-2.6318,1.4297,.0796,2.0439,1.7715,2.6934,3.5635,.4453,1.2266,1.0605,2.8784,1.7051,2.8765,.3877-.0312,.7656,.2988,.7842,.7139,.0195,.4131-.2998,.7646-.7139,.7842-1.71,.0986-2.5137-2.0127-3.1855-3.8633-.3232-.8921-.9258-2.5522-1.3662-2.5767-.4443-.0386-1.0469,1.0391-1.5498,1.894-.9424,1.603-2.1152,3.5986-4.2773,3.6738-.0264,0-.0522,.001-.0781,.001-2.2085,0-2.8237-3.2661-3.4756-6.7222-.334-1.771-.9551-5.0674-1.7114-5.0674-1.1304,0-1.7383,2.8813-2.2271,5.1963-.4038,1.9155-.7856,3.7246-1.5112,4.8335-1.6733,2.2607-4.0811,3.7598-6.8042,4.2568-.0449,.0078-.0898,.0117-.1348,.0117Z"/>
  <path class="cls-1" d="M24.8467,33.4805c-4.6553,0-8.2769-5.1758-8.4287-5.3965-.1763-.2568-.1763-.5947,0-.8516,.1519-.2207,3.7734-5.3975,8.4287-5.3975s8.2764,5.1768,8.4277,5.3975c.1768,.2568,.1768,.5947,0,.8516-.1514,.2207-3.7734,5.3965-8.4277,5.3965Zm-6.8721-5.8223c.9209,1.166,3.7061,4.3223,6.8721,4.3223s5.9502-3.1562,6.8721-4.3223c-.9219-1.167-3.707-4.3232-6.8721-4.3232s-5.9512,3.1572-6.8721,4.3232Z"/>
  <path class="cls-1" d="M24.8467,30.3066c-1.4609,0-2.6494-1.1885-2.6494-2.6484,0-1.4609,1.1885-2.6494,2.6494-2.6494,1.46,0,2.6484,1.1885,2.6484,2.6494,0,1.46-1.1885,2.6484-2.6484,2.6484Zm0-3.7979c-.6338,0-1.1494,.5156-1.1494,1.1494,0,.6328,.5156,1.1484,1.1494,1.1484,.6328,0,1.1484-.5156,1.1484-1.1484,0-.6338-.5156-1.1494-1.1484-1.1494Z"/>
</svg>