<svg xmlns="http://www.w3.org/2000/svg" width="40.61707" height="33.67285" viewBox="0 0 40.61707 33.67285"><g id="bb89c4f3-05b8-495a-aac3-477f1fc6c654" data-name="Layer 2"><g id="be40390d-53ed-4f4f-993a-6f58ab6601b1" data-name="Layer 1"><path d="M18.48047,30.68408H.75a.75.75,0,0,1,0-1.5H18.48047a.75.75,0,1,1,0,1.5Z" fill="#1a1a1a"/><path d="M.75,21.833a.74978.74978,0,0,1-.75-.75V.75a.75.75,0,0,1,1.5,0V20.13135a8.92524,8.92524,0,0,0,4.93311-3.38819A15.21911,15.21911,0,0,0,7.73242,12.4209c.6626-3.13965,1.34766-6.38623,3.69483-6.38623,1.99951,0,2.54931,2.91455,3.18554,6.28906.41309,2.19238,1.03662,5.49951,2.01319,5.49951h.01464c1.3379-.04638,2.20118-1.51416,3.03565-2.93408.81738-1.3916,1.58594-2.70605,2.92578-2.63184,1.42969.07959,2.044,1.77149,2.69385,3.563.44092,1.21582,1.04394,2.877,1.68652,2.877.01758.00048.03613-.001.05371-.00147a.74994.74994,0,0,1,.03516,1.499c-1.74463.10694-2.51465-2.01318-3.18555-3.86279-.32373-.89209-.92627-2.55224-1.3667-2.57666l-.01367-.00049c-.42236,0-1.03906,1.04932-1.53613,1.89453-.94238,1.603-2.11524,3.59815-4.27686,3.67286-2.29541.06933-2.89453-3.22413-3.55371-6.72071-.334-1.77051-.95556-5.06689-1.71142-5.06689-1.13037,0-1.73829,2.88086-2.22705,5.1958a15.57436,15.57436,0,0,1-1.51172,4.834A10.79794,10.79794,0,0,1,.86523,21.82422.76774.76774,0,0,1,.75,21.833Z" fill="#1a1a1a"/><path d="M32.05615,33.67285c-4.65381,0-8.27636-5.17724-8.42822-5.39746a.75175.75175,0,0,1,0-.85156c.15234-.22022,3.77441-5.397,8.42822-5.397,4.6543,0,8.27637,5.17675,8.42871,5.397a.75175.75175,0,0,1,0,.85156C40.333,28.49561,36.71045,33.67285,32.05615,33.67285Zm-6.87207-5.82324c.92139,1.1665,3.707,4.32324,6.87207,4.32324,3.16553,0,5.95117-3.15674,6.87256-4.32324-.92139-1.1665-3.707-4.32275-6.87256-4.32275C28.89111,23.52686,26.10547,26.68311,25.18408,27.84961Z" fill="#1a1a1a"/><path d="M32.05615,30.499a2.64917,2.64917,0,1,1,2.64893-2.64941A2.65224,2.65224,0,0,1,32.05615,30.499Zm0-3.79834a1.14917,1.14917,0,1,0,1.14893,1.14893A1.15051,1.15051,0,0,0,32.05615,26.70068Z" fill="#1a1a1a"/></g></g></svg>