<?xml version="1.0" encoding="UTF-8"?>
<svg width="35px" height="36px" viewBox="0 0 35 36" version="1.1" xmlns="http://www.w3.org/2000/svg" xmlns:xlink="http://www.w3.org/1999/xlink">
    <title>carré</title>
    <g id="Page-1" stroke="none" stroke-width="1" fill="none" fill-rule="evenodd">
        <g id="swap" transform="translate(0.000000, 0.972222)" fill="#1A1A1A" fill-rule="nonzero">
            <path d="M5.53863466,29.542368 L5.51062687,29.542368 L0.781478571,29.5184279 C0.348759203,29.5173028 -0.00111709643,29.1656024 5.26816669e-06,28.732883 C0.00113304429,28.3001636 0.352833443,27.9502873 0.785552812,27.9514124 L0.789627052,27.9514124 L5.51822168,27.9753877 L5.53911522,27.9753877 C6.95440708,27.9773518 8.27645958,27.2697714 9.0598334,26.0910516 L20.923645,8.29431033 C21.9881206,6.65828685 23.8179412,5.68328299 25.7695673,5.71220309 L34.2182881,5.74281212 C34.4260963,5.74359189 34.6250797,5.82690845 34.7714471,5.97442597 C34.9178145,6.12194349 34.9993323,6.32157286 34.9987245,6.52938078 C35.0071938,6.73992744 34.926834,6.94434931 34.7772537,7.09276546 C34.6276734,7.2411816 34.4226299,7.31994174 34.2121558,7.30982762 L25.7634351,7.27921859 L25.7481097,7.27921859 C24.3328971,7.27749649 23.0109671,7.98500197 22.2274228,9.16351293 L10.3636425,26.9602542 C9.29010133,28.5756519 7.47822014,29.5452817 5.53863466,29.542368 Z" id="Path"></path>
            <path d="M15.3799203,18.4105347 C15.1096114,18.4108769 14.8582872,18.2716163 14.7152655,18.0422436 L9.06187052,8.99824503 C8.26441325,7.918357 7.00093125,7.28206867 5.65851135,7.28431661 L5.63606124,7.28431661 L0.789637499,7.30982762 L0.785552812,7.30982762 C0.352833431,7.31095558 0.00113067484,6.9610816 0,6.52836222 C-0.00112523553,6.09564284 0.348748744,5.74394008 0.781468125,5.74281212 L5.62789187,5.71730111 C7.50345174,5.7022468 9.26915416,6.60031858 10.361595,8.12495774 L16.0435932,17.211809 C16.1943742,17.4532333 16.2023847,17.7574347 16.0645187,18.0064599 C15.9266526,18.2554851 15.6645926,18.4101693 15.3799516,18.4105347 L15.3799203,18.4105347 Z" id="Path"></path>
            <path d="M30.5007005,33.2329133 C30.1838402,33.2329133 29.8982026,33.0419671 29.7769522,32.7492235 C29.6557019,32.4564799 29.722711,32.1195236 29.9467397,31.8954441 L33.6612663,28.1809175 C33.8590496,27.9823597 34.1478333,27.9045774 34.4185868,27.9769375 C34.6893404,28.0492976 34.9008176,28.2607769 34.9731752,28.5315311 C35.0455327,28.8022853 34.9677477,29.0910682 34.7691881,29.2888497 L31.0546719,33.0033659 C30.9079174,33.1505495 30.7085462,33.2331621 30.5007005,33.2329133 L30.5007005,33.2329133 Z" id="Path"></path>
            <path d="M25.5247159,29.5490369 C23.7312504,29.5438517 22.0398678,28.713887 20.9384168,27.2984893 L17.9553834,22.8642324 C17.7992028,22.631878 17.7788455,22.3338522 17.90198,22.0824186 C18.0251145,21.830985 18.2730338,21.6643423 18.5523489,21.6452631 C18.8316641,21.6261839 19.0999405,21.7575669 19.2561212,21.9899213 L22.208556,26.3818479 C23.0124434,27.3925708 24.2332635,27.9816667 25.5246951,27.9820214 L25.5394877,27.9820214 L34.2126573,27.9514124 L34.2152167,27.9514124 C34.6479361,27.9507085 34.9992951,28.3009263 35,28.7336456 C35.0007028,29.166365 34.6504851,29.517724 34.2177658,29.5184279 L25.545108,29.5490369 L25.5247159,29.5490369 Z" id="Path"></path>
            <path d="M34.2152167,7.30982817 C34.0073747,7.31007422 33.8080078,7.22746179 33.6612559,7.08028074 L29.9467397,3.36626598 C29.7481818,3.16848266 29.6703996,2.87969896 29.7427597,2.60894545 C29.8151198,2.33819195 30.0265991,2.12671469 30.2973533,2.05435714 C30.5681074,1.98199959 30.8568904,2.05978455 31.0546719,2.25834423 L34.7691881,5.97234855 C34.9932256,6.19642837 35.0602387,6.53339204 34.9389847,6.82614116 C34.8177308,7.11889027 34.5320835,7.30982817 34.2152167,7.30982817 L34.2152167,7.30982817 Z" id="Path"></path>
        </g>
    </g>
</svg>