<svg xmlns="http://www.w3.org/2000/svg" width="33.49543" height="33.48828" viewBox="0 0 33.49543 33.48828"><g id="aaaf1413-38ad-476a-be90-2f0aec01408a" data-name="Layer 2"><g id="b93b3829-be84-4d21-8e13-75b6005f2509" data-name="Layer 1"><path d="M19.05634,27.11279a4.67142,4.67142,0,0,1-3.3252-1.37744l-7.9707-7.97021a4.7023,4.7023,0,0,1,0-6.65039L17.4997,1.37549a4.70642,4.70642,0,0,1,6.6499,0l7.9707,7.9707a4.7073,4.7073,0,0,1,0,6.6499L22.381,25.73535A4.67113,4.67113,0,0,1,19.05634,27.11279ZM20.82489,1.49951a3.19406,3.19406,0,0,0-2.26464.93653L8.821,12.17529a3.20668,3.20668,0,0,0,0,4.5293l7.9707,7.97021h0a3.27985,3.27985,0,0,0,4.52881,0l9.73926-9.73925a3.2061,3.2061,0,0,0,0-4.52881L23.08905,2.436A3.19379,3.19379,0,0,0,20.82489,1.49951Z" fill="#1a1a1a"/><path d="M4.83759,33.48828a4.80931,4.80931,0,0,1-3.40918-1.42041,4.77215,4.77215,0,0,1-.06836-6.74072l8.14746-6.50342a.75014.75014,0,1,1,.93555,1.17285l-8.085,6.44727A3.26383,3.26383,0,0,0,2.489,31.00732a3.27023,3.27023,0,0,0,4.61914.06836l6.39111-8.02246a.75014.75014,0,0,1,1.17285.93555l-6.44726,8.085A4.76351,4.76351,0,0,1,4.83759,33.48828Z" fill="#1a1a1a"/><path d="M25.94062,13.42725a.75.75,0,0,1-.53028-1.28028l4.2251-4.22509A.74992.74992,0,0,1,30.696,8.98242l-4.2251,4.2251A.74758.74758,0,0,1,25.94062,13.42725Z" fill="#1a1a1a"/><path d="M20.81855,8.30566a.75.75,0,0,1-.53028-1.28027l4.2251-4.22559a.74992.74992,0,0,1,1.06055,1.06055l-4.2251,4.22559A.74757.74757,0,0,1,20.81855,8.30566Z" fill="#1a1a1a"/><path d="M23.33026,24.47559A.7476.7476,0,0,1,22.8,24.25586L9.23993,10.6958a.74992.74992,0,0,1,1.06055-1.06055L23.86054,23.19531a.75.75,0,0,1-.53028,1.28028Z" fill="#1a1a1a"/></g></g></svg>