<?xml version="1.0" encoding="UTF-8"?>
<svg width="35px" height="35px" viewBox="0 0 35 35" version="1.1" xmlns="http://www.w3.org/2000/svg" xmlns:xlink="http://www.w3.org/1999/xlink">
    <title>Slice</title>
    <g id="Page-1" stroke="none" stroke-width="1" fill="none" fill-rule="evenodd">
        <g id="trash" fill="#1A1A1A" fill-rule="nonzero">
            <path d="M33.75,6.84082 L1.75,6.84082 C1.33578644,6.84082 1,6.50503356 1,6.09082 C1,5.67660644 1.33578644,5.34082 1.75,5.34082 L33.75,5.34082 C34.1642136,5.34082 34.5,5.67660645 34.5,6.09082 C34.5,6.50503355 34.1642136,6.84082 33.75,6.84082 L33.75,6.84082 Z" id="Path"></path>
            <path d="M24.06006,34.6596707 L11.43994,34.6596707 C8.20018264,34.661203 5.52817121,32.1223286 5.36426,28.88672 L4.20068,6.12891 C4.19035936,5.92368832 4.26464552,5.72321213 4.4062017,5.57426818 C4.54775789,5.42532424 4.74419901,5.34081991 4.94968,5.34081991 L30.5498,5.34081991 C30.7553524,5.34081991 30.9519282,5.4250299 31.0935336,5.57402557 C31.2351389,5.72302124 31.3093488,5.92362847 31.2988,6.12891 L30.13525,28.88672 C29.9715714,32.1222419 27.299719,34.66117 24.06006,34.6596707 Z M5.73926,6.84082 L6.86226,28.81055 C6.98584038,31.2482695 8.99905036,33.1609782 11.4399,33.1596707 L24.06006,33.1596707 C26.5007445,33.1607779 28.5136986,31.2481076 28.63721,28.81055 L29.76021,6.84082 L5.73926,6.84082 Z" id="Shape"></path>
            <path d="M21.32324,27.50537 C21.2437651,27.5054973 21.1647903,27.4928008 21.08936,27.46777 C18.9731054,26.6557843 16.6336702,26.6417261 14.50781,27.42822 C14.2673113,27.5475328 13.9813847,27.5292162 13.7580758,27.3801917 C13.5347669,27.2311672 13.4081294,26.9741604 13.426017,26.7062888 C13.4439046,26.4384172 13.6035894,26.2005301 13.84473,26.08252 C16.3218078,25.1140899 19.0702503,25.0999956 21.55713,26.04297 C21.9071215,26.1579461 22.1217742,26.5101054 22.0635943,26.8738754 C22.0054145,27.2376455 21.6916332,27.5052892 21.32324,27.50537 L21.32324,27.50537 Z" id="Path"></path>
            <path d="M26.394,6.84082 L9.10547,6.84082 C8.69130218,6.8407096 8.35547,6.50498782 8.35547,6.09082 L8.35547,2.94873 C8.35727215,1.32093845 9.67640845,0.0018021466 11.3042,0 L24.19531,0 C25.8230859,0.00182418596 27.1421979,1.32095404 27.144,2.94873 L27.144,6.09082 C27.144,6.50499011 26.8081701,6.84071512 26.394,6.84082 Z M9.85543,5.34082 L25.644,5.34082 L25.644,2.94873 C25.6430963,2.14900877 24.9950312,1.50092583 24.19531,1.5 L11.3042,1.5 C10.5044632,1.50090379 9.85637379,2.14899318 9.85543,2.94873 L9.85543,5.34082 Z" id="Shape"></path>
        </g>
    </g>
</svg>