<svg xmlns="http://www.w3.org/2000/svg" width="33.5" height="33.5" viewBox="0 0 33.5 33.5"><g id="b38d6e9f-0d27-44d1-a858-958688bacd94" data-name="Layer 2"><g id="addded81-e5cd-44f8-a385-2cdc1ca72d2c" data-name="Layer 1"><path d="M27.75,33.5h-22A5.75671,5.75671,0,0,1,0,27.75v-22A5.75671,5.75671,0,0,1,5.75,0h22A5.75671,5.75671,0,0,1,33.5,5.75v22A5.75671,5.75671,0,0,1,27.75,33.5Zm-22-32A4.25507,4.25507,0,0,0,1.5,5.75v22A4.25507,4.25507,0,0,0,5.75,32h22A4.25507,4.25507,0,0,0,32,27.75v-22A4.25507,4.25507,0,0,0,27.75,1.5Z" fill="#1a1a1a"/><path d="M6.76611,24.13867a.7502.7502,0,0,1-.75-.75V10.11133a.75.75,0,0,1,1.5,0V23.38867A.75019.75019,0,0,1,6.76611,24.13867Z" fill="#1a1a1a"/><path d="M20.54834,21.58887A4.83887,4.83887,0,1,1,25.38721,16.75,4.8446,4.8446,0,0,1,20.54834,21.58887Zm0-8.17774A3.33887,3.33887,0,1,0,23.88721,16.75,3.343,3.343,0,0,0,20.54834,13.41113Z" fill="#1a1a1a"/><path d="M26.7334,23.68066a.7476.7476,0,0,1-.53028-.21972l-3.29345-3.29346a.74992.74992,0,0,1,1.06054-1.06055l3.29346,3.29346a.75.75,0,0,1-.53027,1.28027Z" fill="#1a1a1a"/><path d="M17.65918,14.60645a.74835.74835,0,0,1-.52979-.21875l-3.29394-3.28516A.75027.75027,0,1,1,14.895,10.04L18.189,13.3252a.75.75,0,0,1-.52978,1.28125Z" fill="#1a1a1a"/><path d="M14.36523,23.68066a.75.75,0,0,1-.53027-1.28027l3.294-3.29346a.74992.74992,0,0,1,1.06054,1.06055l-3.29394,3.29346A.7476.7476,0,0,1,14.36523,23.68066Z" fill="#1a1a1a"/><path d="M23.43994,14.60645a.75.75,0,0,1-.52978-1.28077l3.29345-3.28515a.74992.74992,0,1,1,1.05957,1.06152l-3.29345,3.28516A.74681.74681,0,0,1,23.43994,14.60645Z" fill="#1a1a1a"/></g></g></svg>