<svg xmlns="http://www.w3.org/2000/svg" width="33.5005" height="36.86719" viewBox="0 0 33.5005 36.86719"><g id="a44c3e3b-9b2d-49c7-854d-783d31a300c5" data-name="Layer 2"><g id="e0ed7b09-f6f4-4f40-ac2b-2835a4603d47" data-name="Layer 1"><path d="M32.75074,30.52344a.74861.74861,0,0,1-.62744-.33887L28.34351,24.4248a.7487.7487,0,0,1,.01953-.85058L31.82447,18.794,28.363,14.01367a.7489.7489,0,0,1-.04492-.80957l3.77979-6.65918a.75.75,0,0,1,1.30469.74024l-3.542,6.24023,3.49707,4.8291a.749.749,0,0,1,0,.87891l-3.47656,4.80078L33.3772,29.3623a.7498.7498,0,0,1-.62646,1.16114Z" fill="#1a1a1a"/><path d="M.74976,30.52344a.75.75,0,0,1-.65185-1.12012l3.542-6.24121L.14283,18.333a.74906.74906,0,0,1,0-.87891l3.47656-4.7998L.1233,7.32617a.74973.74973,0,1,1,1.2539-.82226L5.157,12.26367a.74868.74868,0,0,1-.01953.85059L1.676,17.89355l3.46143,4.78028a.7489.7489,0,0,1,.04492.80957L1.4026,30.14355A.75044.75044,0,0,1,.74976,30.52344Z" fill="#1a1a1a"/><path d="M5.81617,8.1084a.7502.7502,0,0,1-.75-.75V5.1709A5.17666,5.17666,0,0,1,10.23707,0H23.26344a5.17666,5.17666,0,0,1,5.17089,5.1709V7.30859a.75.75,0,1,1-1.5,0V5.1709A3.675,3.675,0,0,0,23.26344,1.5H10.23707a3.675,3.675,0,0,0-3.6709,3.6709V7.3584A.7502.7502,0,0,1,5.81617,8.1084Z" fill="#1a1a1a"/><path d="M23.26344,36.86719H10.23707a5.17666,5.17666,0,0,1-5.1709-5.1709V29.35742a.75.75,0,0,1,1.5,0v2.33887a3.675,3.675,0,0,0,3.6709,3.6709H23.26344a3.675,3.675,0,0,0,3.67089-3.6709V29.35742a.75.75,0,0,1,1.5,0v2.33887A5.17666,5.17666,0,0,1,23.26344,36.86719Z" fill="#1a1a1a"/><path d="M16.75025,32.77637H16.345a.75.75,0,0,1,0-1.5h.40527a.75.75,0,0,1,0,1.5Z" fill="#1a1a1a"/><path d="M18.804,6.168h-4.5122a.75.75,0,0,1,0-1.5H18.804a.75.75,0,0,1,0,1.5Z" fill="#1a1a1a"/></g></g></svg>