<?xml version="1.0" encoding="UTF-8"?>
<svg width="35px" height="35px" viewBox="0 0 35 35" version="1.1" xmlns="http://www.w3.org/2000/svg" xmlns:xlink="http://www.w3.org/1999/xlink">
    <title>warning</title>
    <g id="Page-1" stroke="none" stroke-width="1" fill="none" fill-rule="evenodd">
        <g id="warning" fill="#1A1A1A" fill-rule="nonzero">
            <path d="M17.6107491,22.4020898 C16.7606444,22.4020898 16.0714983,21.8544928 16.0714983,21.1789977 L16.0714983,12.5358146 C16.0692366,11.0522718 14.5562769,9.85007083 12.6892509,9.84827362 C11.839146,9.84827362 11.15,9.30067692 11.15,8.62518179 C11.15,7.9496868 11.839146,7.4020898 12.6892509,7.4020898 C16.2560172,7.40478688 19.1466058,9.70165453 19.15,12.5358146 L19.15,21.1789977 C19.15,21.8544928 18.460854,22.4020898 17.6107491,22.4020898 Z" id="Path"></path>
            <path d="M17.5950746,28.3971644 C16.7641746,28.3971644 16.090597,27.7235869 16.090597,26.8926869 C16.090597,26.0617868 16.7641746,25.3882092 17.5950746,25.3882092 C18.4259746,25.3882092 19.0995522,26.0617868 19.0995522,26.8926869 C19.0984013,27.7231096 18.4254975,28.3960134 17.5950746,28.3971644 Z M17.5950746,26.8300002 L17.5323881,26.8926868 C17.5323881,26.9273076 17.5604537,26.9553734 17.5950746,26.9553734 L17.5950746,26.8300002 Z" id="Shape"></path>
            <path d="M17.5,35 C7.83501687,35 0,27.1649834 0,17.5 C0,7.83501712 7.83501687,0 17.5,0 C17.7078178,0 17.9071183,0.0825660089 18.0537313,0.229850986 L34.7701492,16.9462689 C34.9174343,17.092882 35,17.2921825 35,17.5 C34.9890604,27.1604484 27.1604482,34.9890608 17.5,35 L17.5,35 Z M17.178209,1.56716442 C8.46509009,1.74499196 1.51157052,8.89032738 1.57085002,17.6050591 C1.63012953,26.3197908 8.68020941,33.3698707 17.3949411,33.4291502 C26.1096729,33.4884297 33.2550083,26.5349102 33.4328358,17.8217912 L17.178209,1.56716442 Z" id="Shape"></path>
        </g>
    </g>
</svg>