<?xml version="1.0" encoding="UTF-8"?>
<svg xmlns:xodm="http://www.corel.com/coreldraw/odm/2003" xmlns="http://www.w3.org/2000/svg" xmlns:xlink="http://www.w3.org/1999/xlink" version="1.1" id="Layer_1" x="0px" y="0px" viewBox="0 0 2210 2500" style="enable-background:new 0 0 2210 2500;" xml:space="preserve">
<style type="text/css">
	.st0{fill:#4231C8;}
</style>
<g id="Layer_x0020_1">
	<g id="_2990961812352">
		<path class="st0" d="M1356.1,725.9l-203-119c-39-19-84-19-123,0l-203,119c-44,26-44,68,0,93l203,120c38,20,84,20,123,0l203-120    c26-9,40-37,31-62c-5-14-16-26-31-30V725.9z"></path>
		<path class="st0" d="M1712.1,840.9L1153,1170c-38,20-84,20-123,0l-355.1-208c-44-27-81-6-81,45v630.1c4,28-15,54-43,58    c-13,2-27-1-38-10l-60-31c-37-22-61-62-63-105V864.9c3-43,25-83,61-106L1028,422.8c39-19,84-19,123,0l559.1,323.1    c26,7,42,33,36,60c-4,17-18,31-35,35H1712.1z M2149.2,578.9L1167,13.8c-39-19-84-19-123,0L61.8,578.9c-36,24-59,63-61,106v1129.2    c3,43,25,83,61,106l982.2,565.1c39,19,84,19,123,0l982.2-565.1c36-24,59-63,61-106V684.9C2207.2,641.9,2185.2,601.9,2149.2,578.9z    "></path>
	</g>
</g>
</svg>
